<?xml version="1.0" standalone="no"?>
 <!DOCTYPE svg PUBLIC "-//W3C//DTD SVG 1.1//EN" 
 "http://www.w3.org/Graphics/SVG/1.1/DTD/svg11.dtd"> 
<svg xmlns="http://www.w3.org/2000/svg" version="1.1" 
    width="29.7002cm" height="21.0007cm" viewBox="0 0 116930 82680 ">
<title>SVG Picture created as BUF-DiffToSE-ADAU1966-drl_map.svg date 2016/05/25 10:40:22 </title>
  <desc>Picture generated by PCBNEW </desc>
<g style="fill:#000000; fill-opacity:1;stroke:#000000; stroke-opacity:1;
stroke-linecap:round; stroke-linejoin:round; "
 transform="translate(0 0) scale(1 1)">
</g>
<g style="fill:#000000; fill-opacity:0.0; 
stroke:#000000; stroke-width:-0.000393701; stroke-opacity:1; 
stroke-linecap:round; stroke-linejoin:round;">
</g>
<g style="fill:#000000; fill-opacity:0.0; 
stroke:#000000; stroke-width:59.0551; stroke-opacity:1; 
stroke-linecap:round; stroke-linejoin:round;">
<path d="M78740 59055
L39370 59055
" />
<path d="M78740 19685
L78740 59055
" />
<path d="M39370 19685
L78740 19685
" />
<path d="M39370 59055
L39370 19685
" />
</g>
<g style="fill:#000000; fill-opacity:0.0; 
stroke:#000000; stroke-width:78.7402; stroke-opacity:1; 
stroke-linecap:round; stroke-linejoin:round;">
<path d="M39842 22897
L40157 23212
" />
<path d="M40157 22897
L39842 23212
" />
<path d="M39842 25897
L40157 26212
" />
<path d="M40157 25897
L39842 26212
" />
<path d="M39842 28897
L40157 29212
" />
<path d="M40157 28897
L39842 29212
" />
<path d="M39842 31897
L40157 32212
" />
<path d="M40157 31897
L39842 32212
" />
<path d="M39842 34897
L40157 35212
" />
<path d="M40157 34897
L39842 35212
" />
<path d="M39842 37897
L40157 38212
" />
<path d="M40157 37897
L39842 38212
" />
<path d="M39842 40897
L40157 41212
" />
<path d="M40157 40897
L39842 41212
" />
<path d="M39842 43897
L40157 44212
" />
<path d="M40157 43897
L39842 44212
" />
<path d="M39842 46897
L40157 47212
" />
<path d="M40157 46897
L39842 47212
" />
<path d="M39842 49897
L40157 50212
" />
<path d="M40157 49897
L39842 50212
" />
<path d="M39842 52897
L40157 53212
" />
<path d="M40157 52897
L39842 53212
" />
<path d="M39842 54897
L40157 55212
" />
<path d="M40157 54897
L39842 55212
" />
<path d="M42092 39397
L42407 39712
" />
<path d="M42407 39397
L42092 39712
" />
<path d="M42242 25097
L42557 25412
" />
<path d="M42557 25097
L42242 25412
" />
<path d="M42242 26097
L42557 26412
" />
<path d="M42557 26097
L42242 26412
" />
<path d="M42242 27097
L42557 27412
" />
<path d="M42557 27097
L42242 27412
" />
<path d="M42242 28097
L42557 28412
" />
<path d="M42557 28097
L42242 28412
" />
<path d="M42242 29097
L42557 29412
" />
<path d="M42557 29097
L42242 29412
" />
<path d="M42242 30097
L42557 30412
" />
<path d="M42557 30097
L42242 30412
" />
<path d="M42242 31097
L42557 31412
" />
<path d="M42557 31097
L42242 31412
" />
<path d="M42242 32097
L42557 32412
" />
<path d="M42557 32097
L42242 32412
" />
<path d="M42242 33097
L42557 33412
" />
<path d="M42557 33097
L42242 33412
" />
<path d="M42242 34097
L42557 34412
" />
<path d="M42557 34097
L42242 34412
" />
<path d="M42242 37497
L42557 37812
" />
<path d="M42557 37497
L42242 37812
" />
<path d="M42242 44097
L42557 44412
" />
<path d="M42557 44097
L42242 44412
" />
<path d="M42242 45097
L42557 45412
" />
<path d="M42557 45097
L42242 45412
" />
<path d="M42242 46097
L42557 46412
" />
<path d="M42557 46097
L42242 46412
" />
<path d="M42242 47097
L42557 47412
" />
<path d="M42557 47097
L42242 47412
" />
<path d="M42242 48097
L42557 48412
" />
<path d="M42557 48097
L42242 48412
" />
<path d="M42242 49097
L42557 49412
" />
<path d="M42557 49097
L42242 49412
" />
<path d="M42242 50097
L42557 50412
" />
<path d="M42557 50097
L42242 50412
" />
<path d="M42242 51097
L42557 51412
" />
<path d="M42557 51097
L42242 51412
" />
<path d="M42242 52097
L42557 52412
" />
<path d="M42557 52097
L42242 52412
" />
<path d="M42242 53097
L42557 53412
" />
<path d="M42557 53097
L42242 53412
" />
<path d="M42812 55597
L43127 55912
" />
<path d="M43127 55597
L42812 55912
" />
<path d="M42842 20397
L43157 20712
" />
<path d="M43157 20397
L42842 20712
" />
<path d="M43242 25097
L43557 25412
" />
<path d="M43557 25097
L43242 25412
" />
<path d="M43242 26097
L43557 26412
" />
<path d="M43557 26097
L43242 26412
" />
<path d="M43242 27097
L43557 27412
" />
<path d="M43557 27097
L43242 27412
" />
<path d="M43242 28097
L43557 28412
" />
<path d="M43557 28097
L43242 28412
" />
<path d="M43242 29097
L43557 29412
" />
<path d="M43557 29097
L43242 29412
" />
<path d="M43242 30097
L43557 30412
" />
<path d="M43557 30097
L43242 30412
" />
<path d="M43242 31097
L43557 31412
" />
<path d="M43557 31097
L43242 31412
" />
<path d="M43242 32097
L43557 32412
" />
<path d="M43557 32097
L43242 32412
" />
<path d="M43242 33097
L43557 33412
" />
<path d="M43557 33097
L43242 33412
" />
<path d="M43242 34097
L43557 34412
" />
<path d="M43557 34097
L43242 34412
" />
<path d="M43242 44097
L43557 44412
" />
<path d="M43557 44097
L43242 44412
" />
<path d="M43242 45097
L43557 45412
" />
<path d="M43557 45097
L43242 45412
" />
<path d="M43242 46097
L43557 46412
" />
<path d="M43557 46097
L43242 46412
" />
<path d="M43242 47097
L43557 47412
" />
<path d="M43557 47097
L43242 47412
" />
<path d="M43242 48097
L43557 48412
" />
<path d="M43557 48097
L43242 48412
" />
<path d="M43242 49097
L43557 49412
" />
<path d="M43557 49097
L43242 49412
" />
<path d="M43242 50097
L43557 50412
" />
<path d="M43557 50097
L43242 50412
" />
<path d="M43242 51097
L43557 51412
" />
<path d="M43557 51097
L43242 51412
" />
<path d="M43242 52097
L43557 52412
" />
<path d="M43557 52097
L43242 52412
" />
<path d="M43242 53097
L43557 53412
" />
<path d="M43557 53097
L43242 53412
" />
<path d="M43612 22497
L43927 22812
" />
<path d="M43927 22497
L43612 22812
" />
<path d="M44342 57897
L44657 58212
" />
<path d="M44657 57897
L44342 58212
" />
<path d="M44812 37497
L45127 37812
" />
<path d="M45127 37497
L44812 37812
" />
<path d="M44962 29697
L45277 30012
" />
<path d="M45277 29697
L44962 30012
" />
<path d="M44962 45347
L45277 45662
" />
<path d="M45277 45347
L44962 45662
" />
<path d="M44962 50697
L45277 51012
" />
<path d="M45277 50697
L44962 51012
" />
<path d="M45012 48147
L45327 48462
" />
<path d="M45327 48147
L45012 48462
" />
<path d="M45112 32497
L45427 32812
" />
<path d="M45427 32497
L45112 32812
" />
<path d="M45212 54547
L45527 54862
" />
<path d="M45527 54547
L45212 54862
" />
<path d="M45262 27347
L45577 27662
" />
<path d="M45577 27347
L45262 27662
" />
<path d="M45842 20397
L46157 20712
" />
<path d="M46157 20397
L45842 20712
" />
<path d="M47312 25047
L47627 25362
" />
<path d="M47627 25047
L47312 25362
" />
<path d="M47312 29697
L47627 30012
" />
<path d="M47627 29697
L47312 30012
" />
<path d="M47312 34197
L47627 34512
" />
<path d="M47627 34197
L47312 34512
" />
<path d="M47312 38847
L47627 39162
" />
<path d="M47627 38847
L47312 39162
" />
<path d="M47312 43397
L47627 43712
" />
<path d="M47627 43397
L47312 43712
" />
<path d="M47312 48147
L47627 48462
" />
<path d="M47627 48147
L47312 48462
" />
<path d="M47312 52547
L47627 52862
" />
<path d="M47627 52547
L47312 52862
" />
<path d="M47342 57897
L47657 58212
" />
<path d="M47657 57897
L47342 58212
" />
<path d="M48842 20397
L49157 20712
" />
<path d="M49157 20397
L48842 20712
" />
<path d="M49212 24797
L49527 25112
" />
<path d="M49527 24797
L49212 25112
" />
<path d="M49212 29397
L49527 29712
" />
<path d="M49527 29397
L49212 29712
" />
<path d="M49212 33997
L49527 34312
" />
<path d="M49527 33997
L49212 34312
" />
<path d="M49212 38597
L49527 38912
" />
<path d="M49527 38597
L49212 38912
" />
<path d="M49212 43197
L49527 43512
" />
<path d="M49527 43197
L49212 43512
" />
<path d="M49212 47797
L49527 48112
" />
<path d="M49527 47797
L49212 48112
" />
<path d="M49212 52397
L49527 52712
" />
<path d="M49527 52397
L49212 52712
" />
<path d="M49212 56997
L49527 57312
" />
<path d="M49527 56997
L49212 57312
" />
<path d="M50342 57897
L50657 58212
" />
<path d="M50657 57897
L50342 58212
" />
<path d="M50512 21497
L50827 21812
" />
<path d="M50827 21497
L50512 21812
" />
<path d="M50512 26097
L50827 26412
" />
<path d="M50827 26097
L50512 26412
" />
<path d="M50512 30697
L50827 31012
" />
<path d="M50827 30697
L50512 31012
" />
<path d="M50512 35297
L50827 35612
" />
<path d="M50827 35297
L50512 35612
" />
<path d="M50512 39897
L50827 40212
" />
<path d="M50827 39897
L50512 40212
" />
<path d="M50512 44497
L50827 44812
" />
<path d="M50827 44497
L50512 44812
" />
<path d="M50512 49097
L50827 49412
" />
<path d="M50827 49097
L50512 49412
" />
<path d="M50512 53697
L50827 54012
" />
<path d="M50827 53697
L50512 54012
" />
<path d="M51387 24597
L51702 24912
" />
<path d="M51702 24597
L51387 24912
" />
<path d="M51387 29197
L51702 29512
" />
<path d="M51702 29197
L51387 29512
" />
<path d="M51387 38397
L51702 38712
" />
<path d="M51702 38397
L51387 38712
" />
<path d="M51387 42997
L51702 43312
" />
<path d="M51702 42997
L51387 43312
" />
<path d="M51387 47597
L51702 47912
" />
<path d="M51702 47597
L51387 47912
" />
<path d="M51387 52197
L51702 52512
" />
<path d="M51702 52197
L51387 52512
" />
<path d="M51387 56797
L51702 57112
" />
<path d="M51702 56797
L51387 57112
" />
<path d="M51412 33797
L51727 34112
" />
<path d="M51727 33797
L51412 34112
" />
<path d="M51842 20397
L52157 20712
" />
<path d="M52157 20397
L51842 20712
" />
<path d="M52112 29897
L52427 30212
" />
<path d="M52427 29897
L52112 30212
" />
<path d="M52112 52897
L52427 53212
" />
<path d="M52427 52897
L52112 53212
" />
<path d="M52362 30447
L52677 30762
" />
<path d="M52677 30447
L52362 30762
" />
<path d="M52412 53447
L52727 53762
" />
<path d="M52727 53447
L52412 53762
" />
<path d="M52712 39297
L53027 39612
" />
<path d="M53027 39297
L52712 39612
" />
<path d="M53342 57897
L53657 58212
" />
<path d="M53657 57897
L53342 58212
" />
<path d="M53862 28947
L54177 29262
" />
<path d="M54177 28947
L53862 29262
" />
<path d="M53912 51947
L54227 52262
" />
<path d="M54227 51947
L53912 52262
" />
<path d="M54412 28947
L54727 29262
" />
<path d="M54727 28947
L54412 29262
" />
<path d="M54462 51947
L54777 52262
" />
<path d="M54777 51947
L54462 52262
" />
<path d="M55212 20897
L55527 21212
" />
<path d="M55527 20897
L55212 21212
" />
<path d="M55212 22997
L55527 23312
" />
<path d="M55527 22997
L55212 23312
" />
<path d="M55212 25497
L55527 25812
" />
<path d="M55527 25497
L55212 25812
" />
<path d="M55212 27597
L55527 27912
" />
<path d="M55527 27597
L55212 27912
" />
<path d="M55212 30097
L55527 30412
" />
<path d="M55527 30097
L55212 30412
" />
<path d="M55212 32197
L55527 32512
" />
<path d="M55527 32197
L55212 32512
" />
<path d="M55212 36797
L55527 37112
" />
<path d="M55527 36797
L55212 37112
" />
<path d="M55212 41397
L55527 41712
" />
<path d="M55527 41397
L55212 41712
" />
<path d="M55212 45997
L55527 46312
" />
<path d="M55527 45997
L55212 46312
" />
<path d="M55212 50597
L55527 50912
" />
<path d="M55527 50597
L55212 50912
" />
<path d="M55212 53097
L55527 53412
" />
<path d="M55527 53097
L55212 53412
" />
<path d="M55212 55197
L55527 55512
" />
<path d="M55527 55197
L55212 55512
" />
<path d="M55312 34697
L55627 35012
" />
<path d="M55627 34697
L55312 35012
" />
<path d="M55312 43897
L55627 44212
" />
<path d="M55627 43897
L55312 44212
" />
<path d="M55312 48497
L55627 48812
" />
<path d="M55627 48497
L55312 48812
" />
<path d="M55512 39297
L55827 39612
" />
<path d="M55827 39297
L55512 39612
" />
<path d="M56212 20397
L56527 20712
" />
<path d="M56527 20397
L56212 20712
" />
<path d="M56342 57897
L56657 58212
" />
<path d="M56657 57897
L56342 58212
" />
<path d="M56912 40497
L57227 40812
" />
<path d="M57227 40497
L56912 40812
" />
<path d="M56962 54097
L57277 54412
" />
<path d="M57277 54097
L56962 54412
" />
<path d="M57112 42247
L57427 42562
" />
<path d="M57427 42247
L57112 42562
" />
<path d="M57112 49847
L57427 50162
" />
<path d="M57427 49847
L57112 50162
" />
<path d="M57162 28647
L57477 28962
" />
<path d="M57477 28647
L57162 28962
" />
<path d="M57262 45797
L57577 46112
" />
<path d="M57577 45797
L57262 46112
" />
<path d="M57362 32397
L57677 32712
" />
<path d="M57677 32397
L57362 32712
" />
<path d="M57512 23347
L57827 23662
" />
<path d="M57827 23347
L57512 23662
" />
<path d="M57612 36947
L57927 37262
" />
<path d="M57927 36947
L57612 37262
" />
<path d="M58342 20397
L58657 20712
" />
<path d="M58657 20397
L58342 20712
" />
<path d="M59042 22013
L59357 22328
" />
<path d="M59357 22013
L59042 22328
" />
<path d="M59042 23981
L59357 24296
" />
<path d="M59357 23981
L59042 24296
" />
<path d="M59042 29613
L59357 29928
" />
<path d="M59357 29613
L59042 29928
" />
<path d="M59042 31581
L59357 31896
" />
<path d="M59357 31581
L59042 31896
" />
<path d="M59042 46813
L59357 47128
" />
<path d="M59357 46813
L59042 47128
" />
<path d="M59042 48781
L59357 49096
" />
<path d="M59357 48781
L59042 49096
" />
<path d="M59042 54413
L59357 54728
" />
<path d="M59357 54413
L59042 54728
" />
<path d="M59042 56381
L59357 56696
" />
<path d="M59357 56381
L59042 56696
" />
<path d="M59342 57897
L59657 58212
" />
<path d="M59657 57897
L59342 58212
" />
<path d="M60762 24847
L61077 25162
" />
<path d="M61077 24847
L60762 25162
" />
<path d="M60762 28747
L61077 29062
" />
<path d="M61077 28747
L60762 29062
" />
<path d="M60762 32497
L61077 32812
" />
<path d="M61077 32497
L60762 32812
" />
<path d="M60762 36397
L61077 36712
" />
<path d="M61077 36397
L60762 36712
" />
<path d="M60762 38847
L61077 39162
" />
<path d="M61077 38847
L60762 39162
" />
<path d="M60762 42047
L61077 42362
" />
<path d="M61077 42047
L60762 42362
" />
<path d="M60762 45947
L61077 46262
" />
<path d="M61077 45947
L60762 46262
" />
<path d="M60762 49697
L61077 50012
" />
<path d="M61077 49697
L60762 50012
" />
<path d="M60762 53547
L61077 53862
" />
<path d="M61077 53547
L60762 53862
" />
<path d="M60762 57197
L61077 57512
" />
<path d="M61077 57197
L60762 57512
" />
<path d="M61342 20397
L61657 20712
" />
<path d="M61657 20397
L61342 20712
" />
<path d="M61812 38447
L62127 38762
" />
<path d="M62127 38447
L61812 38762
" />
<path d="M61812 39997
L62127 40312
" />
<path d="M62127 39997
L61812 40312
" />
<path d="M62542 25813
L62857 26128
" />
<path d="M62857 25813
L62542 26128
" />
<path d="M62542 27781
L62857 28096
" />
<path d="M62857 27781
L62542 28096
" />
<path d="M62542 33413
L62857 33728
" />
<path d="M62857 33413
L62542 33728
" />
<path d="M62542 35381
L62857 35696
" />
<path d="M62857 35381
L62542 35696
" />
<path d="M62542 43013
L62857 43328
" />
<path d="M62857 43013
L62542 43328
" />
<path d="M62542 44981
L62857 45296
" />
<path d="M62857 44981
L62542 45296
" />
<path d="M62542 50629
L62857 50944
" />
<path d="M62857 50629
L62542 50944
" />
<path d="M62542 52597
L62857 52912
" />
<path d="M62857 52597
L62542 52912
" />
<path d="M62612 39147
L62927 39462
" />
<path d="M62927 39147
L62612 39462
" />
<path d="M62842 57897
L63157 58212
" />
<path d="M63157 57897
L62842 58212
" />
<path d="M63362 38397
L63677 38712
" />
<path d="M63677 38397
L63362 38712
" />
<path d="M63412 39997
L63727 40312
" />
<path d="M63727 39997
L63412 40312
" />
<path d="M64342 20397
L64657 20712
" />
<path d="M64657 20397
L64342 20712
" />
<path d="M64962 25597
L65277 25912
" />
<path d="M65277 25597
L64962 25912
" />
<path d="M64962 29247
L65277 29562
" />
<path d="M65277 29247
L64962 29562
" />
<path d="M65112 36608
L65427 36923
" />
<path d="M65427 36608
L65112 36923
" />
<path d="M65112 37986
L65427 38301
" />
<path d="M65427 37986
L65112 38301
" />
<path d="M65112 40408
L65427 40723
" />
<path d="M65427 40408
L65112 40723
" />
<path d="M65112 41786
L65427 42101
" />
<path d="M65427 41786
L65112 42101
" />
<path d="M65712 22347
L66027 22662
" />
<path d="M66027 22347
L65712 22662
" />
<path d="M65712 32447
L66027 32762
" />
<path d="M66027 32447
L65712 32762
" />
<path d="M65712 34547
L66027 34862
" />
<path d="M66027 34547
L65712 34862
" />
<path d="M65812 46947
L66127 47262
" />
<path d="M66127 46947
L65812 47262
" />
<path d="M65812 49647
L66127 49962
" />
<path d="M66127 49647
L65812 49962
" />
<path d="M65812 52347
L66127 52662
" />
<path d="M66127 52347
L65812 52662
" />
<path d="M65812 55797
L66127 56112
" />
<path d="M66127 55797
L65812 56112
" />
<path d="M65842 57897
L66157 58212
" />
<path d="M66157 57897
L65842 58212
" />
<path d="M66312 44397
L66627 44712
" />
<path d="M66627 44397
L66312 44712
" />
<path d="M67342 20397
L67657 20712
" />
<path d="M67657 20397
L67342 20712
" />
<path d="M67662 44447
L67977 44762
" />
<path d="M67977 44447
L67662 44762
" />
<path d="M67712 34497
L68027 34812
" />
<path d="M68027 34497
L67712 34812
" />
<path d="M68712 22347
L69027 22662
" />
<path d="M69027 22347
L68712 22662
" />
<path d="M68712 47297
L69027 47612
" />
<path d="M69027 47297
L68712 47612
" />
<path d="M68712 49647
L69027 49962
" />
<path d="M69027 49647
L68712 49962
" />
<path d="M68712 52397
L69027 52712
" />
<path d="M69027 52397
L68712 52712
" />
<path d="M68712 55897
L69027 56212
" />
<path d="M69027 55897
L68712 56212
" />
<path d="M68762 25947
L69077 26262
" />
<path d="M69077 25947
L68762 26262
" />
<path d="M68762 29447
L69077 29762
" />
<path d="M69077 29447
L68762 29762
" />
<path d="M68842 57897
L69157 58212
" />
<path d="M69157 57897
L68842 58212
" />
<path d="M69212 34297
L69527 34612
" />
<path d="M69527 34297
L69212 34612
" />
<path d="M69212 44097
L69527 44412
" />
<path d="M69527 44097
L69212 44412
" />
<path d="M69262 37747
L69577 38062
" />
<path d="M69577 37747
L69262 38062
" />
<path d="M69262 40672
L69577 40987
" />
<path d="M69577 40672
L69262 40987
" />
<path d="M69362 32047
L69677 32362
" />
<path d="M69677 32047
L69362 32362
" />
<path d="M70012 38397
L70327 38712
" />
<path d="M70327 38397
L70012 38712
" />
<path d="M70012 39997
L70327 40312
" />
<path d="M70327 39997
L70012 40312
" />
<path d="M70342 20397
L70657 20712
" />
<path d="M70657 20397
L70342 20712
" />
<path d="M70512 34297
L70827 34612
" />
<path d="M70827 34297
L70512 34612
" />
<path d="M70512 44097
L70827 44412
" />
<path d="M70827 44097
L70512 44412
" />
<path d="M70842 21897
L71157 22212
" />
<path d="M71157 21897
L70842 22212
" />
<path d="M70842 24897
L71157 25212
" />
<path d="M71157 24897
L70842 25212
" />
<path d="M70842 27897
L71157 28212
" />
<path d="M71157 27897
L70842 28212
" />
<path d="M70842 30897
L71157 31212
" />
<path d="M71157 30897
L70842 31212
" />
<path d="M70842 46897
L71157 47212
" />
<path d="M71157 46897
L70842 47212
" />
<path d="M70842 49897
L71157 50212
" />
<path d="M71157 49897
L70842 50212
" />
<path d="M70842 52897
L71157 53212
" />
<path d="M71157 52897
L70842 53212
" />
<path d="M70842 55897
L71157 56212
" />
<path d="M71157 55897
L70842 56212
" />
<path d="M71842 21897
L72157 22212
" />
<path d="M72157 21897
L71842 22212
" />
<path d="M71842 24897
L72157 25212
" />
<path d="M72157 24897
L71842 25212
" />
<path d="M71842 27897
L72157 28212
" />
<path d="M72157 27897
L71842 28212
" />
<path d="M71842 30897
L72157 31212
" />
<path d="M72157 30897
L71842 31212
" />
<path d="M71842 46897
L72157 47212
" />
<path d="M72157 46897
L71842 47212
" />
<path d="M71842 49897
L72157 50212
" />
<path d="M72157 49897
L71842 50212
" />
<path d="M71842 52897
L72157 53212
" />
<path d="M72157 52897
L71842 53212
" />
<path d="M71842 55897
L72157 56212
" />
<path d="M72157 55897
L71842 56212
" />
<path d="M71842 57897
L72157 58212
" />
<path d="M72157 57897
L71842 58212
" />
<path d="M72312 36508
L72627 36823
" />
<path d="M72627 36508
L72312 36823
" />
<path d="M72312 37886
L72627 38201
" />
<path d="M72627 37886
L72312 38201
" />
<path d="M72412 40508
L72727 40823
" />
<path d="M72727 40508
L72412 40823
" />
<path d="M72412 41886
L72727 42201
" />
<path d="M72727 41886
L72412 42201
" />
<path d="M72712 23097
L73027 23412
" />
<path d="M73027 23097
L72712 23412
" />
<path d="M72712 26097
L73027 26412
" />
<path d="M73027 26097
L72712 26412
" />
<path d="M72712 29097
L73027 29412
" />
<path d="M73027 29097
L72712 29412
" />
<path d="M72712 32097
L73027 32412
" />
<path d="M73027 32097
L72712 32412
" />
<path d="M72712 45697
L73027 46012
" />
<path d="M73027 45697
L72712 46012
" />
<path d="M72712 48697
L73027 49012
" />
<path d="M73027 48697
L72712 49012
" />
<path d="M72712 51697
L73027 52012
" />
<path d="M73027 51697
L72712 52012
" />
<path d="M72712 54697
L73027 55012
" />
<path d="M73027 54697
L72712 55012
" />
<path d="M73342 20397
L73657 20712
" />
<path d="M73657 20397
L73342 20712
" />
<path d="M74842 57897
L75157 58212
" />
<path d="M75157 57897
L74842 58212
" />
<path d="M75312 22897
L75627 23212
" />
<path d="M75627 22897
L75312 23212
" />
<path d="M75312 55497
L75627 55812
" />
<path d="M75627 55497
L75312 55812
" />
<path d="M77842 23397
L78157 23712
" />
<path d="M78157 23397
L77842 23712
" />
<path d="M77842 26897
L78157 27212
" />
<path d="M78157 26897
L77842 27212
" />
<path d="M77842 29897
L78157 30212
" />
<path d="M78157 29897
L77842 30212
" />
<path d="M77842 33397
L78157 33712
" />
<path d="M78157 33397
L77842 33712
" />
<path d="M77842 36897
L78157 37212
" />
<path d="M78157 36897
L77842 37212
" />
<path d="M77842 39897
L78157 40212
" />
<path d="M78157 39897
L77842 40212
" />
<path d="M77842 43397
L78157 43712
" />
<path d="M78157 43397
L77842 43712
" />
<path d="M77842 46897
L78157 47212
" />
<path d="M78157 46897
L77842 47212
" />
<path d="M77842 49897
L78157 50212
" />
<path d="M78157 49897
L77842 50212
" />
<path d="M77842 52897
L78157 53212
" />
<path d="M78157 52897
L77842 53212
" />
<path d="M77842 54997
L78157 55312
" />
<path d="M78157 54997
L77842 55312
" />
<circle cx="59200" cy="25970.9" r="196.85" /> 
<circle cx="59200" cy="27939.4" r="196.85" /> 
<circle cx="59200" cy="33570.9" r="196.85" /> 
<circle cx="59200" cy="35539.4" r="196.85" /> 
<circle cx="59200" cy="43170.9" r="196.85" /> 
<circle cx="59200" cy="45139.4" r="196.85" /> 
<circle cx="59200" cy="50770.9" r="196.85" /> 
<circle cx="59200" cy="52739.4" r="196.85" /> 
<circle cx="62700" cy="22170.9" r="196.85" /> 
<circle cx="62700" cy="24139.4" r="196.85" /> 
<circle cx="62700" cy="29770.9" r="196.85" /> 
<circle cx="62700" cy="31739.4" r="196.85" /> 
<circle cx="62700" cy="46970.9" r="196.85" /> 
<circle cx="62700" cy="48939.4" r="196.85" /> 
<circle cx="62700" cy="54570.9" r="196.85" /> 
<circle cx="62700" cy="56539.4" r="196.85" /> 
<circle cx="76670.1" cy="36805.1" r="196.85" /> 
<circle cx="76670.1" cy="38055.1" r="196.85" /> 
<path d="M76512 37751
L76512 38358
" />
<path d="M76827 37751
L76827 38358
" />
<path d="M76512.6 38358.3 A157.48 157.48 0.0 0 0 76827.6 38358.3 " />
<path d="M76827.6 37752 A157.48 157.48 0.0 0 0 76512.6 37752 " />
<circle cx="76670.1" cy="40355.1" r="196.85" /> 
<circle cx="76670.1" cy="41605.1" r="196.85" /> 
<path d="M76512 41301
L76512 41908
" />
<path d="M76827 41301
L76827 41908
" />
<path d="M76512.6 41908.3 A157.48 157.48 0.0 0 0 76827.6 41908.3 " />
<path d="M76827.6 41302 A157.48 157.48 0.0 0 0 76512.6 41302 " />
<path d="M41338 21023
L41338 22283
" />
<path d="M40708 21653
L41968 21653
" />
<path d="M41338 56456
L41338 57716
" />
<path d="M40708 57086
L41968 57086
" />
<path d="M76771 21023
L76771 22283
" />
<path d="M76141 21653
L77401 21653
" />
<path d="M76771 56456
L76771 57716
" />
<path d="M76141 57086
L77401 57086
" />
</g>
<g style="fill:#000000; fill-opacity:0.0; 
stroke:#000000; stroke-width:118.11; stroke-opacity:1; 
stroke-linecap:round; stroke-linejoin:round;">
<path d="M40409 60918
L40409 59737
L40690 59737
L40859 59793
L40971 59905
L41027 60018
L41084 60243
L41084 60411
L41027 60636
L40971 60749
L40859 60861
L40690 60918
L40409 60918
" />
<path d="M41590 60918
L41590 60130
" />
<path d="M41590 60355
L41646 60243
L41702 60187
L41815 60130
L41927 60130
" />
<path d="M42321 60918
L42321 60130
" />
<path d="M42321 59737
L42265 59793
L42321 59849
L42377 59793
L42321 59737
L42321 59849
" />
<path d="M43052 60918
L42940 60861
L42883 60749
L42883 59737
" />
<path d="M43671 60918
L43558 60861
L43502 60749
L43502 59737
" />
<path d="M45021 60918
L45021 59737
L45414 60580
L45808 59737
L45808 60918
" />
<path d="M46877 60918
L46877 60299
L46820 60187
L46708 60130
L46483 60130
L46370 60187
" />
<path d="M46877 60861
L46764 60918
L46483 60918
L46370 60861
L46314 60749
L46314 60636
L46370 60524
L46483 60468
L46764 60468
L46877 60411
" />
<path d="M47439 60130
L47439 61311
" />
<path d="M47439 60187
L47552 60130
L47776 60130
L47889 60187
L47945 60243
L48001 60355
L48001 60693
L47945 60805
L47889 60861
L47776 60918
L47552 60918
L47439 60861
" />
<path d="M48508 60805
L48564 60861
L48508 60918
L48451 60861
L48508 60805
L48508 60918
" />
<path d="M48508 60187
L48564 60243
L48508 60299
L48451 60243
L48508 60187
L48508 60299
" />
<path d="M39025 62706
L39340 63021
" />
<path d="M39340 62706
L39025 63021
" />
<path d="M40634 62217
L40746 62217
L40859 62273
L40915 62329
L40971 62442
L41027 62667
L41027 62948
L40971 63173
L40915 63285
L40859 63342
L40746 63398
L40634 63398
L40521 63342
L40465 63285
L40409 63173
L40352 62948
L40352 62667
L40409 62442
L40465 62329
L40521 62273
L40634 62217
" />
<path d="M41534 63285
L41590 63342
L41534 63398
L41477 63342
L41534 63285
L41534 63398
" />
<path d="M42265 62723
L42152 62667
L42096 62611
L42040 62498
L42040 62442
L42096 62329
L42152 62273
L42265 62217
L42490 62217
L42602 62273
L42658 62329
L42715 62442
L42715 62498
L42658 62611
L42602 62667
L42490 62723
L42265 62723
L42152 62779
L42096 62836
L42040 62948
L42040 63173
L42096 63285
L42152 63342
L42265 63398
L42490 63398
L42602 63342
L42658 63285
L42715 63173
L42715 62948
L42658 62836
L42602 62779
L42490 62723
" />
<path d="M43446 62217
L43558 62217
L43671 62273
L43727 62329
L43783 62442
L43839 62667
L43839 62948
L43783 63173
L43727 63285
L43671 63342
L43558 63398
L43446 63398
L43333 63342
L43277 63285
L43221 63173
L43165 62948
L43165 62667
L43221 62442
L43277 62329
L43333 62273
L43446 62217
" />
<path d="M44346 63398
L44346 62611
" />
<path d="M44346 62723
L44402 62667
L44514 62611
L44683 62611
L44796 62667
L44852 62779
L44852 63398
" />
<path d="M44852 62779
L44908 62667
L45021 62611
L45189 62611
L45302 62667
L45358 62779
L45358 63398
" />
<path d="M45920 63398
L45920 62611
" />
<path d="M45920 62723
L45977 62667
L46089 62611
L46258 62611
L46370 62667
L46427 62779
L46427 63398
" />
<path d="M46427 62779
L46483 62667
L46595 62611
L46764 62611
L46877 62667
L46933 62779
L46933 63398
" />
<path d="M49239 62161
L48226 63679
" />
<path d="M50757 62217
L50870 62217
L50982 62273
L51039 62329
L51095 62442
L51151 62667
L51151 62948
L51095 63173
L51039 63285
L50982 63342
L50870 63398
L50757 63398
L50645 63342
L50589 63285
L50532 63173
L50476 62948
L50476 62667
L50532 62442
L50589 62329
L50645 62273
L50757 62217
" />
<path d="M51657 63285
L51714 63342
L51657 63398
L51601 63342
L51657 63285
L51657 63398
" />
<path d="M52445 62217
L52557 62217
L52670 62273
L52726 62329
L52782 62442
L52838 62667
L52838 62948
L52782 63173
L52726 63285
L52670 63342
L52557 63398
L52445 63398
L52332 63342
L52276 63285
L52220 63173
L52163 62948
L52163 62667
L52220 62442
L52276 62329
L52332 62273
L52445 62217
" />
<path d="M53232 62217
L53963 62217
L53570 62667
L53738 62667
L53851 62723
L53907 62779
L53963 62892
L53963 63173
L53907 63285
L53851 63342
L53738 63398
L53401 63398
L53288 63342
L53232 63285
" />
<path d="M55088 63398
L54413 63398
" />
<path d="M54751 63398
L54751 62217
L54638 62386
L54526 62498
L54413 62554
" />
<path d="M55538 62217
L55538 62442
" />
<path d="M55988 62217
L55988 62442
" />
<path d="M57732 63848
L57675 63792
L57563 63623
L57507 63510
L57450 63342
L57394 63061
L57394 62836
L57450 62554
L57507 62386
L57563 62273
L57675 62104
L57732 62048
" />
<path d="M58125 62329
L58181 62273
L58294 62217
L58575 62217
L58688 62273
L58744 62329
L58800 62442
L58800 62554
L58744 62723
L58069 63398
L58800 63398
" />
<path d="M59869 62217
L59306 62217
L59250 62779
L59306 62723
L59419 62667
L59700 62667
L59812 62723
L59869 62779
L59925 62892
L59925 63173
L59869 63285
L59812 63342
L59700 63398
L59419 63398
L59306 63342
L59250 63285
" />
<path d="M60994 62217
L60431 62217
L60375 62779
L60431 62723
L60544 62667
L60825 62667
L60937 62723
L60994 62779
L61050 62892
L61050 63173
L60994 63285
L60937 63342
L60825 63398
L60544 63398
L60431 63342
L60375 63285
" />
<path d="M62456 63398
L62456 62217
" />
<path d="M62962 63398
L62962 62779
L62906 62667
L62793 62611
L62625 62611
L62512 62667
L62456 62723
" />
<path d="M63693 63398
L63581 63342
L63525 63285
L63468 63173
L63468 62836
L63525 62723
L63581 62667
L63693 62611
L63862 62611
L63974 62667
L64031 62723
L64087 62836
L64087 63173
L64031 63285
L63974 63342
L63862 63398
L63693 63398
" />
<path d="M64762 63398
L64649 63342
L64593 63229
L64593 62217
" />
<path d="M65662 63342
L65549 63398
L65324 63398
L65212 63342
L65156 63229
L65156 62779
L65212 62667
L65324 62611
L65549 62611
L65662 62667
L65718 62779
L65718 62892
L65156 63004
" />
<path d="M66168 63342
L66280 63398
L66505 63398
L66618 63342
L66674 63229
L66674 63173
L66618 63061
L66505 63004
L66337 63004
L66224 62948
L66168 62836
L66168 62779
L66224 62667
L66337 62611
L66505 62611
L66618 62667
" />
<path d="M67068 63848
L67124 63792
L67237 63623
L67293 63510
L67349 63342
L67405 63061
L67405 62836
L67349 62554
L67293 62386
L67237 62273
L67124 62104
L67068 62048
" />
<circle cx="39143.7" cy="64423.2" r="196.85" /> 
<path d="M41027 64957
L40352 64957
" />
<path d="M40690 64957
L40690 63776
L40577 63945
L40465 64057
L40352 64113
" />
<path d="M41534 64845
L41590 64901
L41534 64957
L41477 64901
L41534 64845
L41534 64957
" />
<path d="M42321 63776
L42433 63776
L42546 63832
L42602 63888
L42658 64001
L42715 64226
L42715 64507
L42658 64732
L42602 64845
L42546 64901
L42433 64957
L42321 64957
L42208 64901
L42152 64845
L42096 64732
L42040 64507
L42040 64226
L42096 64001
L42152 63888
L42208 63832
L42321 63776
" />
<path d="M43446 63776
L43558 63776
L43671 63832
L43727 63888
L43783 64001
L43839 64226
L43839 64507
L43783 64732
L43727 64845
L43671 64901
L43558 64957
L43446 64957
L43333 64901
L43277 64845
L43221 64732
L43165 64507
L43165 64226
L43221 64001
L43277 63888
L43333 63832
L43446 63776
" />
<path d="M44346 64957
L44346 64170
" />
<path d="M44346 64282
L44402 64226
L44514 64170
L44683 64170
L44796 64226
L44852 64338
L44852 64957
" />
<path d="M44852 64338
L44908 64226
L45021 64170
L45189 64170
L45302 64226
L45358 64338
L45358 64957
" />
<path d="M45920 64957
L45920 64170
" />
<path d="M45920 64282
L45977 64226
L46089 64170
L46258 64170
L46370 64226
L46427 64338
L46427 64957
" />
<path d="M46427 64338
L46483 64226
L46595 64170
L46764 64170
L46877 64226
L46933 64338
L46933 64957
" />
<path d="M49239 63720
L48226 65238
" />
<path d="M50757 63776
L50870 63776
L50982 63832
L51039 63888
L51095 64001
L51151 64226
L51151 64507
L51095 64732
L51039 64845
L50982 64901
L50870 64957
L50757 64957
L50645 64901
L50589 64845
L50532 64732
L50476 64507
L50476 64226
L50532 64001
L50589 63888
L50645 63832
L50757 63776
" />
<path d="M51657 64845
L51714 64901
L51657 64957
L51601 64901
L51657 64845
L51657 64957
" />
<path d="M52445 63776
L52557 63776
L52670 63832
L52726 63888
L52782 64001
L52838 64226
L52838 64507
L52782 64732
L52726 64845
L52670 64901
L52557 64957
L52445 64957
L52332 64901
L52276 64845
L52220 64732
L52163 64507
L52163 64226
L52220 64001
L52276 63888
L52332 63832
L52445 63776
" />
<path d="M53232 63776
L53963 63776
L53570 64226
L53738 64226
L53851 64282
L53907 64338
L53963 64451
L53963 64732
L53907 64845
L53851 64901
L53738 64957
L53401 64957
L53288 64901
L53232 64845
" />
<path d="M54526 64957
L54751 64957
L54863 64901
L54919 64845
L55032 64676
L55088 64451
L55088 64001
L55032 63888
L54976 63832
L54863 63776
L54638 63776
L54526 63832
L54469 63888
L54413 64001
L54413 64282
L54469 64395
L54526 64451
L54638 64507
L54863 64507
L54976 64451
L55032 64395
L55088 64282
" />
<path d="M55538 63776
L55538 64001
" />
<path d="M55988 63776
L55988 64001
" />
<path d="M57732 65407
L57675 65351
L57563 65182
L57507 65070
L57450 64901
L57394 64620
L57394 64395
L57450 64113
L57507 63945
L57563 63832
L57675 63663
L57732 63607
" />
<path d="M58800 64957
L58125 64957
" />
<path d="M58463 64957
L58463 63776
L58350 63945
L58238 64057
L58125 64113
" />
<path d="M59475 64282
L59363 64226
L59306 64170
L59250 64057
L59250 64001
L59306 63888
L59363 63832
L59475 63776
L59700 63776
L59812 63832
L59869 63888
L59925 64001
L59925 64057
L59869 64170
L59812 64226
L59700 64282
L59475 64282
L59363 64338
L59306 64395
L59250 64507
L59250 64732
L59306 64845
L59363 64901
L59475 64957
L59700 64957
L59812 64901
L59869 64845
L59925 64732
L59925 64507
L59869 64395
L59812 64338
L59700 64282
" />
<path d="M61331 64957
L61331 63776
" />
<path d="M61837 64957
L61837 64338
L61781 64226
L61669 64170
L61500 64170
L61387 64226
L61331 64282
" />
<path d="M62568 64957
L62456 64901
L62400 64845
L62343 64732
L62343 64395
L62400 64282
L62456 64226
L62568 64170
L62737 64170
L62850 64226
L62906 64282
L62962 64395
L62962 64732
L62906 64845
L62850 64901
L62737 64957
L62568 64957
" />
<path d="M63637 64957
L63525 64901
L63468 64788
L63468 63776
" />
<path d="M64537 64901
L64424 64957
L64199 64957
L64087 64901
L64031 64788
L64031 64338
L64087 64226
L64199 64170
L64424 64170
L64537 64226
L64593 64338
L64593 64451
L64031 64563
" />
<path d="M65043 64901
L65156 64957
L65381 64957
L65493 64901
L65549 64788
L65549 64732
L65493 64620
L65381 64563
L65212 64563
L65099 64507
L65043 64395
L65043 64338
L65099 64226
L65212 64170
L65381 64170
L65493 64226
" />
<path d="M66955 64507
L67855 64507
" />
<path d="M67405 64957
L67405 64057
" />
<path d="M69261 63888
L69318 63832
L69430 63776
L69711 63776
L69824 63832
L69880 63888
L69936 64001
L69936 64113
L69880 64282
L69205 64957
L69936 64957
" />
<path d="M71286 64901
L71399 64957
L71624 64957
L71736 64901
L71792 64788
L71792 64732
L71736 64620
L71624 64563
L71455 64563
L71342 64507
L71286 64395
L71286 64338
L71342 64226
L71455 64170
L71624 64170
L71736 64226
" />
<path d="M72467 64957
L72355 64901
L72298 64788
L72298 63776
" />
<path d="M73086 64957
L72973 64901
L72917 64845
L72861 64732
L72861 64395
L72917 64282
L72973 64226
L73086 64170
L73255 64170
L73367 64226
L73423 64282
L73480 64395
L73480 64732
L73423 64845
L73367 64901
L73255 64957
L73086 64957
" />
<path d="M73817 64170
L74267 64170
" />
<path d="M73986 63776
L73986 64788
L74042 64901
L74154 64957
L74267 64957
" />
<path d="M74604 64901
L74717 64957
L74942 64957
L75054 64901
L75111 64788
L75111 64732
L75054 64620
L74942 64563
L74773 64563
L74661 64507
L74604 64395
L74604 64338
L74661 64226
L74773 64170
L74942 64170
L75054 64226
" />
<path d="M75504 65407
L75561 65351
L75673 65182
L75729 65070
L75785 64901
L75842 64620
L75842 64395
L75785 64113
L75729 63945
L75673 63832
L75561 63663
L75504 63607
" />
<path d="M38710 65352
L38710 66612
" />
<path d="M38080 65982
L39340 65982
" />
<path d="M40296 65335
L41027 65335
L40634 65785
L40802 65785
L40915 65841
L40971 65897
L41027 66010
L41027 66291
L40971 66404
L40915 66460
L40802 66516
L40465 66516
L40352 66460
L40296 66404
" />
<path d="M41534 66404
L41590 66460
L41534 66516
L41477 66460
L41534 66404
L41534 66516
" />
<path d="M42040 65447
L42096 65391
L42208 65335
L42490 65335
L42602 65391
L42658 65447
L42715 65560
L42715 65672
L42658 65841
L41983 66516
L42715 66516
" />
<path d="M43446 65335
L43558 65335
L43671 65391
L43727 65447
L43783 65560
L43839 65785
L43839 66066
L43783 66291
L43727 66404
L43671 66460
L43558 66516
L43446 66516
L43333 66460
L43277 66404
L43221 66291
L43165 66066
L43165 65785
L43221 65560
L43277 65447
L43333 65391
L43446 65335
" />
<path d="M44346 66516
L44346 65729
" />
<path d="M44346 65841
L44402 65785
L44514 65729
L44683 65729
L44796 65785
L44852 65897
L44852 66516
" />
<path d="M44852 65897
L44908 65785
L45021 65729
L45189 65729
L45302 65785
L45358 65897
L45358 66516
" />
<path d="M45920 66516
L45920 65729
" />
<path d="M45920 65841
L45977 65785
L46089 65729
L46258 65729
L46370 65785
L46427 65897
L46427 66516
" />
<path d="M46427 65897
L46483 65785
L46595 65729
L46764 65729
L46877 65785
L46933 65897
L46933 66516
" />
<path d="M49239 65279
L48226 66797
" />
<path d="M50757 65335
L50870 65335
L50982 65391
L51039 65447
L51095 65560
L51151 65785
L51151 66066
L51095 66291
L51039 66404
L50982 66460
L50870 66516
L50757 66516
L50645 66460
L50589 66404
L50532 66291
L50476 66066
L50476 65785
L50532 65560
L50589 65447
L50645 65391
L50757 65335
" />
<path d="M51657 66404
L51714 66460
L51657 66516
L51601 66460
L51657 66404
L51657 66516
" />
<path d="M52838 66516
L52163 66516
" />
<path d="M52501 66516
L52501 65335
L52388 65504
L52276 65616
L52163 65672
" />
<path d="M53288 65447
L53345 65391
L53457 65335
L53738 65335
L53851 65391
L53907 65447
L53963 65560
L53963 65672
L53907 65841
L53232 66516
L53963 66516
" />
<path d="M54976 65335
L54751 65335
L54638 65391
L54582 65447
L54469 65616
L54413 65841
L54413 66291
L54469 66404
L54526 66460
L54638 66516
L54863 66516
L54976 66460
L55032 66404
L55088 66291
L55088 66010
L55032 65897
L54976 65841
L54863 65785
L54638 65785
L54526 65841
L54469 65897
L54413 66010
" />
<path d="M55538 65335
L55538 65560
" />
<path d="M55988 65335
L55988 65560
" />
<path d="M57732 66966
L57675 66910
L57563 66741
L57507 66629
L57450 66460
L57394 66179
L57394 65954
L57450 65672
L57507 65504
L57563 65391
L57675 65223
L57732 65166
" />
<path d="M58688 65729
L58688 66516
" />
<path d="M58406 65279
L58125 66122
L58856 66122
" />
<path d="M60206 66516
L60206 65335
" />
<path d="M60712 66516
L60712 65897
L60656 65785
L60544 65729
L60375 65729
L60262 65785
L60206 65841
" />
<path d="M61444 66516
L61331 66460
L61275 66404
L61219 66291
L61219 65954
L61275 65841
L61331 65785
L61444 65729
L61612 65729
L61725 65785
L61781 65841
L61837 65954
L61837 66291
L61781 66404
L61725 66460
L61612 66516
L61444 66516
" />
<path d="M62512 66516
L62400 66460
L62343 66347
L62343 65335
" />
<path d="M63412 66460
L63300 66516
L63075 66516
L62962 66460
L62906 66347
L62906 65897
L62962 65785
L63075 65729
L63300 65729
L63412 65785
L63468 65897
L63468 66010
L62906 66122
" />
<path d="M63918 66460
L64031 66516
L64256 66516
L64368 66460
L64424 66347
L64424 66291
L64368 66179
L64256 66122
L64087 66122
L63974 66066
L63918 65954
L63918 65897
L63974 65785
L64087 65729
L64256 65729
L64368 65785
" />
<path d="M64818 66966
L64874 66910
L64987 66741
L65043 66629
L65099 66460
L65156 66179
L65156 65954
L65099 65672
L65043 65504
L64987 65391
L64874 65223
L64818 65166
" />
<path d="M66955 66966
L66899 66910
L66787 66741
L66730 66629
L66674 66460
L66618 66179
L66618 65954
L66674 65672
L66730 65504
L66787 65391
L66899 65223
L66955 65166
" />
<path d="M67405 65729
L67405 66516
" />
<path d="M67405 65841
L67462 65785
L67574 65729
L67743 65729
L67855 65785
L67911 65897
L67911 66516
" />
<path d="M68643 66516
L68530 66460
L68474 66404
L68418 66291
L68418 65954
L68474 65841
L68530 65785
L68643 65729
L68811 65729
L68924 65785
L68980 65841
L69036 65954
L69036 66291
L68980 66404
L68924 66460
L68811 66516
L68643 66516
" />
<path d="M69374 65729
L69824 65729
" />
<path d="M69543 65335
L69543 66347
L69599 66460
L69711 66516
L69824 66516
" />
<path d="M71117 65729
L71117 66910
" />
<path d="M71117 65785
L71230 65729
L71455 65729
L71567 65785
L71624 65841
L71680 65954
L71680 66291
L71624 66404
L71567 66460
L71455 66516
L71230 66516
L71117 66460
" />
<path d="M72355 66516
L72242 66460
L72186 66347
L72186 65335
" />
<path d="M73311 66516
L73311 65897
L73255 65785
L73142 65729
L72917 65729
L72805 65785
" />
<path d="M73311 66460
L73198 66516
L72917 66516
L72805 66460
L72748 66347
L72748 66235
L72805 66122
L72917 66066
L73198 66066
L73311 66010
" />
<path d="M73705 65729
L74154 65729
" />
<path d="M73873 65335
L73873 66347
L73929 66460
L74042 66516
L74154 66516
" />
<path d="M74998 66460
L74886 66516
L74661 66516
L74548 66460
L74492 66347
L74492 65897
L74548 65785
L74661 65729
L74886 65729
L74998 65785
L75054 65897
L75054 66010
L74492 66122
" />
<path d="M76067 66516
L76067 65335
" />
<path d="M76067 66460
L75954 66516
L75729 66516
L75617 66460
L75561 66404
L75504 66291
L75504 65954
L75561 65841
L75617 65785
L75729 65729
L75954 65729
L76067 65785
" />
<path d="M76517 66966
L76573 66910
L76685 66741
L76742 66629
L76798 66460
L76854 66179
L76854 65954
L76798 65672
L76742 65504
L76685 65391
L76573 65223
L76517 65166
" />
</g> 
</svg>
