M48
;DRILL file {KiCad 4.0.2-stable} date 25/05/2016 10:40:20
;FORMAT={-:-/ absolute / metric / decimal}
FMAT,2
METRIC,TZ
T1C0.800
T2C1.000
T3C3.200
%
G90
G05
M71
T1
X1.6Y91.44
X1.6Y83.82
X1.6Y76.2
X1.6Y68.58
X1.6Y60.96
X1.6Y53.34
X1.6Y45.72
X1.6Y38.1
X1.6Y30.48
X1.6Y22.86
X1.6Y15.24
X1.6Y10.16
X7.315Y49.53
X7.696Y85.852
X7.696Y83.312
X7.696Y80.772
X7.696Y78.232
X7.696Y75.692
X7.696Y73.152
X7.696Y70.612
X7.696Y68.072
X7.696Y65.532
X7.696Y62.992
X7.696Y54.356
X7.696Y37.592
X7.696Y35.052
X7.696Y32.512
X7.696Y29.972
X7.696Y27.432
X7.696Y24.892
X7.696Y22.352
X7.696Y19.812
X7.696Y17.272
X7.696Y14.732
X9.144Y8.382
X9.22Y97.79
X10.236Y85.852
X10.236Y83.312
X10.236Y80.772
X10.236Y78.232
X10.236Y75.692
X10.236Y73.152
X10.236Y70.612
X10.236Y68.072
X10.236Y65.532
X10.236Y62.992
X10.236Y37.592
X10.236Y35.052
X10.236Y32.512
X10.236Y29.972
X10.236Y27.432
X10.236Y24.892
X10.236Y22.352
X10.236Y19.812
X10.236Y17.272
X10.236Y14.732
X11.176Y92.456
X13.03Y2.54
X14.224Y54.356
X14.605Y74.168
X14.605Y34.417
X14.605Y20.828
X14.732Y27.305
X14.986Y67.056
X15.24Y11.049
X15.367Y80.137
X16.84Y97.79
X20.574Y85.979
X20.574Y74.168
X20.574Y62.738
X20.574Y50.927
X20.574Y39.37
X20.574Y27.305
X20.574Y16.129
X20.65Y2.54
X24.46Y97.79
X25.4Y86.614
X25.4Y74.93
X25.4Y63.246
X25.4Y51.562
X25.4Y39.878
X25.4Y28.194
X25.4Y16.51
X25.4Y4.826
X28.27Y2.54
X28.702Y94.996
X28.702Y83.312
X28.702Y71.628
X28.702Y59.944
X28.702Y48.26
X28.702Y36.576
X28.702Y24.892
X28.702Y13.208
X30.924Y87.122
X30.924Y75.438
X30.924Y52.07
X30.924Y40.386
X30.924Y28.702
X30.924Y17.018
X30.924Y5.334
X30.988Y63.754
X32.08Y97.79
X32.766Y73.66
X32.766Y15.24
X33.401Y72.263
X33.528Y13.843
X34.29Y49.784
X35.89Y2.54
X37.211Y76.073
X37.338Y17.653
X38.608Y76.073
X38.735Y17.653
X40.64Y96.52
X40.64Y91.186
X40.64Y84.836
X40.64Y79.502
X40.64Y73.152
X40.64Y67.818
X40.64Y56.134
X40.64Y44.45
X40.64Y32.766
X40.64Y21.082
X40.64Y14.732
X40.64Y9.398
X40.894Y61.468
X40.894Y38.1
X40.894Y26.416
X41.402Y49.784
X43.18Y97.79
X43.51Y2.54
X44.958Y46.736
X45.085Y12.192
X45.466Y42.291
X45.466Y22.987
X45.593Y76.835
X45.847Y33.274
X46.101Y67.31
X46.482Y90.297
X46.736Y55.753
X48.59Y97.79
X50.368Y93.686
X50.368Y88.686
X50.368Y74.382
X50.368Y69.382
X50.368Y30.694
X50.368Y25.694
X50.368Y11.39
X50.368Y6.39
X51.13Y2.54
X54.737Y86.487
X54.737Y76.581
X54.737Y67.056
X54.737Y57.15
X54.737Y50.927
X54.737Y42.799
X54.737Y32.893
X54.737Y23.368
X54.737Y13.589
X54.737Y4.318
X56.21Y97.79
X57.404Y51.943
X57.404Y48.006
X59.258Y84.034
X59.258Y79.034
X59.258Y64.73
X59.258Y59.73
X59.258Y40.346
X59.258Y35.346
X59.258Y21.002
X59.258Y16.002
X59.436Y50.165
X60.02Y2.54
X61.341Y52.07
X61.468Y48.006
X63.83Y97.79
X65.405Y84.582
X65.405Y75.311
X65.786Y56.614
X65.786Y53.114
X65.786Y46.962
X65.786Y43.462
X67.31Y92.837
X67.31Y67.183
X67.31Y61.849
X67.564Y30.353
X67.564Y23.495
X67.564Y16.637
X67.564Y7.874
X67.64Y2.54
X68.834Y36.83
X71.45Y97.79
X72.263Y36.703
X72.39Y61.976
X74.93Y92.837
X74.93Y29.464
X74.93Y23.495
X74.93Y16.51
X74.93Y7.62
X75.057Y83.693
X75.057Y74.803
X75.26Y2.54
X76.2Y62.484
X76.2Y37.592
X76.327Y53.721
X76.327Y46.291
X76.581Y68.199
X78.232Y52.07
X78.232Y48.006
X79.07Y97.79
X79.502Y62.484
X79.502Y37.592
X80.34Y93.98
X80.34Y86.36
X80.34Y78.74
X80.34Y71.12
X80.34Y30.48
X80.34Y22.86
X80.34Y15.24
X80.34Y7.62
X82.88Y93.98
X82.88Y86.36
X82.88Y78.74
X82.88Y71.12
X82.88Y30.48
X82.88Y22.86
X82.88Y15.24
X82.88Y7.62
X82.88Y2.54
X84.074Y56.868
X84.074Y53.368
X84.328Y46.708
X84.328Y43.208
X85.09Y90.932
X85.09Y83.312
X85.09Y75.692
X85.09Y68.072
X85.09Y33.528
X85.09Y25.908
X85.09Y18.288
X85.09Y10.668
X86.69Y97.79
X90.5Y2.54
X91.694Y91.44
X91.694Y8.636
X98.12Y90.17
X98.12Y81.28
X98.12Y73.66
X98.12Y64.77
X98.12Y55.88
X98.12Y48.26
X98.12Y39.37
X98.12Y30.48
X98.12Y22.86
X98.12Y15.24
X98.12Y9.906
T2
X50.368Y84.034
X50.368Y79.034
X50.368Y64.73
X50.368Y59.73
X50.368Y40.346
X50.368Y35.346
X50.368Y21.042
X50.368Y16.042
X59.258Y93.686
X59.258Y88.686
X59.258Y74.382
X59.258Y69.382
X59.258Y30.694
X59.258Y25.694
X59.258Y11.39
X59.258Y6.39
X94.742Y56.515
X94.742Y47.498
T3
X5.Y95.
X5.Y5.
X95.Y95.
X95.Y5.
T2
X94.742Y54.11G85X94.742Y52.57
G05
X94.742Y45.093G85X94.742Y43.553
G05
T0
M30
