G04 #@! TF.FileFunction,Soldermask,Top*
%FSLAX46Y46*%
G04 Gerber Fmt 4.6, Leading zero omitted, Abs format (unit mm)*
G04 Created by KiCad (PCBNEW 4.0.2-stable) date 25/05/2016 10:40:19*
%MOMM*%
G01*
G04 APERTURE LIST*
%ADD10C,0.100000*%
%ADD11C,0.150000*%
%ADD12R,1.300000X1.700000*%
%ADD13R,1.700000X1.300000*%
%ADD14C,2.400000*%
%ADD15C,2.600000*%
%ADD16C,2.000000*%
%ADD17O,2.000000X3.600000*%
%ADD18R,1.500000X2.100000*%
%ADD19R,2.100000X1.500000*%
%ADD20R,2.600000X1.000000*%
%ADD21C,6.200000*%
%ADD22R,1.400000X1.400000*%
%ADD23C,3.000000*%
G04 APERTURE END LIST*
D10*
D11*
X100000000Y0D02*
X0Y0D01*
X100000000Y100000000D02*
X100000000Y0D01*
X0Y100000000D02*
X100000000Y100000000D01*
X0Y0D02*
X0Y100000000D01*
D12*
X76284000Y48260000D03*
X74084000Y48260000D03*
X74084000Y51816000D03*
X76284000Y51816000D03*
D13*
X50800000Y52154000D03*
X50800000Y49954000D03*
X25400000Y58082000D03*
X25400000Y60282000D03*
X25400000Y69766000D03*
X25400000Y71966000D03*
X25400000Y93134000D03*
X25400000Y95334000D03*
X25400000Y67140000D03*
X25400000Y64940000D03*
X25400000Y78824000D03*
X25400000Y76624000D03*
D14*
X84074000Y56868000D03*
X84074000Y53368000D03*
X84328000Y46708000D03*
X84328000Y43208000D03*
D13*
X79502000Y58590000D03*
X79502000Y60790000D03*
X79502000Y39286000D03*
X79502000Y41486000D03*
X78232000Y55964000D03*
X78232000Y53764000D03*
X78232000Y46312000D03*
X78232000Y44112000D03*
X71120000Y53932000D03*
X71120000Y51732000D03*
X71120000Y48344000D03*
X71120000Y46144000D03*
D14*
X65786000Y56614000D03*
X65786000Y53114000D03*
X65786000Y46962000D03*
X65786000Y43462000D03*
D13*
X59436000Y54440000D03*
X59436000Y52240000D03*
X59436000Y47836000D03*
X59436000Y45636000D03*
X25400000Y90508000D03*
X25400000Y88308000D03*
X25400000Y55456000D03*
X25400000Y53256000D03*
X25400000Y81450000D03*
X25400000Y83650000D03*
X47244000Y52154000D03*
X47244000Y49954000D03*
D15*
X50368000Y93686000D03*
X50368000Y88686000D03*
X59258000Y84034000D03*
X59258000Y79034000D03*
X50368000Y74382000D03*
X50368000Y69382000D03*
X59258000Y64730000D03*
X59258000Y59730000D03*
D16*
X80340000Y93980000D03*
X82880000Y93980000D03*
X80340000Y86360000D03*
X82880000Y86360000D03*
X80340000Y78740000D03*
X82880000Y78740000D03*
X80340000Y71120000D03*
X82880000Y71120000D03*
D12*
X73998000Y56896000D03*
X71798000Y56896000D03*
X73998000Y43180000D03*
X71798000Y43180000D03*
D16*
X94742000Y56515000D03*
D17*
X94742000Y53340000D03*
D16*
X94742000Y47498000D03*
D17*
X94742000Y44323000D03*
D16*
X7696000Y85852000D03*
X10236000Y85852000D03*
X7696000Y83312000D03*
X10236000Y83312000D03*
X7696000Y80772000D03*
X10236000Y80772000D03*
X7696000Y78232000D03*
X10236000Y78232000D03*
X7696000Y75692000D03*
X10236000Y75692000D03*
X7696000Y73152000D03*
X10236000Y73152000D03*
X7696000Y70612000D03*
X10236000Y70612000D03*
X7696000Y68072000D03*
X10236000Y68072000D03*
X7696000Y65532000D03*
X10236000Y65532000D03*
X7696000Y62992000D03*
X10236000Y62992000D03*
D18*
X22274000Y89916000D03*
X18874000Y89916000D03*
X22274000Y93726000D03*
X18874000Y93726000D03*
X22274000Y78232000D03*
X18874000Y78232000D03*
X22274000Y82042000D03*
X18874000Y82042000D03*
X22274000Y66548000D03*
X18874000Y66548000D03*
X22274000Y70358000D03*
X18874000Y70358000D03*
X22274000Y54864000D03*
X18874000Y54864000D03*
X22274000Y58674000D03*
X18874000Y58674000D03*
D19*
X28778000Y87200000D03*
X28778000Y90600000D03*
X28778000Y75516000D03*
X28778000Y78916000D03*
X28778000Y63832000D03*
X28778000Y67232000D03*
X28778000Y52148000D03*
X28778000Y55548000D03*
X28778000Y96442000D03*
X28778000Y93042000D03*
X28778000Y84758000D03*
X28778000Y81358000D03*
X28778000Y73074000D03*
X28778000Y69674000D03*
X28778000Y61390000D03*
X28778000Y57990000D03*
X42672000Y94586000D03*
X42672000Y91186000D03*
X42672000Y82902000D03*
X42672000Y79502000D03*
X42672000Y71218000D03*
X42672000Y67818000D03*
X42672000Y59534000D03*
X42672000Y56134000D03*
D18*
X83310000Y90932000D03*
X79910000Y90932000D03*
X83310000Y83312000D03*
X79910000Y83312000D03*
X83310000Y75692000D03*
X79910000Y75692000D03*
X83310000Y68072000D03*
X79910000Y68072000D03*
D20*
X33096000Y93726000D03*
X33096000Y92456000D03*
X33096000Y91186000D03*
X33096000Y89916000D03*
X38296000Y89916000D03*
X38296000Y91186000D03*
X38296000Y92456000D03*
X38296000Y93726000D03*
X33096000Y82042000D03*
X33096000Y80772000D03*
X33096000Y79502000D03*
X33096000Y78232000D03*
X38296000Y78232000D03*
X38296000Y79502000D03*
X38296000Y80772000D03*
X38296000Y82042000D03*
X33096000Y70358000D03*
X33096000Y69088000D03*
X33096000Y67818000D03*
X33096000Y66548000D03*
X38296000Y66548000D03*
X38296000Y67818000D03*
X38296000Y69088000D03*
X38296000Y70358000D03*
X33096000Y58674000D03*
X33096000Y57404000D03*
X33096000Y56134000D03*
X33096000Y54864000D03*
X38296000Y54864000D03*
X38296000Y56134000D03*
X38296000Y57404000D03*
X38296000Y58674000D03*
D12*
X36746000Y96520000D03*
X38946000Y96520000D03*
X32682000Y87122000D03*
X34882000Y87122000D03*
X36746000Y84836000D03*
X38946000Y84836000D03*
X36746000Y73152000D03*
X38946000Y73152000D03*
X37000000Y61468000D03*
X39200000Y61468000D03*
X32682000Y75438000D03*
X34882000Y75438000D03*
X32682000Y63754000D03*
X34882000Y63754000D03*
X32682000Y52070000D03*
X34882000Y52070000D03*
D19*
X43688000Y52754000D03*
X43688000Y49354000D03*
D12*
X36746000Y14732000D03*
X38946000Y14732000D03*
X37000000Y26416000D03*
X39200000Y26416000D03*
X37000000Y38100000D03*
X39200000Y38100000D03*
X32682000Y5334000D03*
X34882000Y5334000D03*
X32682000Y17018000D03*
X34882000Y17018000D03*
X32682000Y28702000D03*
X34882000Y28702000D03*
D13*
X25400000Y43772000D03*
X25400000Y41572000D03*
X25400000Y32088000D03*
X25400000Y29888000D03*
X25400000Y20404000D03*
X25400000Y18204000D03*
X25400000Y8720000D03*
X25400000Y6520000D03*
X25400000Y46398000D03*
X25400000Y48598000D03*
X25400000Y34714000D03*
X25400000Y36914000D03*
X25400000Y23030000D03*
X25400000Y25230000D03*
X25400000Y11346000D03*
X25400000Y13546000D03*
D12*
X41064000Y46736000D03*
X43264000Y46736000D03*
X32682000Y40386000D03*
X34882000Y40386000D03*
D15*
X59258000Y35346000D03*
X59258000Y40346000D03*
X50368000Y25694000D03*
X50368000Y30694000D03*
X59258000Y16002000D03*
X59258000Y21002000D03*
X50368000Y6390000D03*
X50368000Y11390000D03*
D16*
X80340000Y30480000D03*
X82880000Y30480000D03*
X80340000Y22860000D03*
X82880000Y22860000D03*
X80340000Y15240000D03*
X82880000Y15240000D03*
X80340000Y7620000D03*
X82880000Y7620000D03*
X7696000Y37592000D03*
X10236000Y37592000D03*
X7696000Y35052000D03*
X10236000Y35052000D03*
X7696000Y32512000D03*
X10236000Y32512000D03*
X7696000Y29972000D03*
X10236000Y29972000D03*
X7696000Y27432000D03*
X10236000Y27432000D03*
X7696000Y24892000D03*
X10236000Y24892000D03*
X7696000Y22352000D03*
X10236000Y22352000D03*
X7696000Y19812000D03*
X10236000Y19812000D03*
X7696000Y17272000D03*
X10236000Y17272000D03*
X7696000Y14732000D03*
X10236000Y14732000D03*
D18*
X22274000Y43180000D03*
X18874000Y43180000D03*
X22274000Y46990000D03*
X18874000Y46990000D03*
X22274000Y31496000D03*
X18874000Y31496000D03*
X22274000Y35306000D03*
X18874000Y35306000D03*
X22274000Y19812000D03*
X18874000Y19812000D03*
X22274000Y23622000D03*
X18874000Y23622000D03*
X22274000Y8128000D03*
X18874000Y8128000D03*
X22274000Y11938000D03*
X18874000Y11938000D03*
D19*
X28778000Y40464000D03*
X28778000Y43864000D03*
X28778000Y28780000D03*
X28778000Y32180000D03*
X28778000Y17096000D03*
X28778000Y20496000D03*
X28778000Y5412000D03*
X28778000Y8812000D03*
X28778000Y49706000D03*
X28778000Y46306000D03*
X28778000Y38022000D03*
X28778000Y34622000D03*
X28778000Y26338000D03*
X28778000Y22938000D03*
X28778000Y14654000D03*
X28778000Y11254000D03*
X42672000Y41050000D03*
X42672000Y44450000D03*
X42672000Y29366000D03*
X42672000Y32766000D03*
X42672000Y17682000D03*
X42672000Y21082000D03*
X42672000Y5998000D03*
X42672000Y9398000D03*
D18*
X83310000Y33528000D03*
X79910000Y33528000D03*
X83310000Y25908000D03*
X79910000Y25908000D03*
X83310000Y18288000D03*
X79910000Y18288000D03*
X83310000Y10668000D03*
X79910000Y10668000D03*
D20*
X33096000Y46990000D03*
X33096000Y45720000D03*
X33096000Y44450000D03*
X33096000Y43180000D03*
X38296000Y43180000D03*
X38296000Y44450000D03*
X38296000Y45720000D03*
X38296000Y46990000D03*
X33096000Y35306000D03*
X33096000Y34036000D03*
X33096000Y32766000D03*
X33096000Y31496000D03*
X38296000Y31496000D03*
X38296000Y32766000D03*
X38296000Y34036000D03*
X38296000Y35306000D03*
X33096000Y23622000D03*
X33096000Y22352000D03*
X33096000Y21082000D03*
X33096000Y19812000D03*
X38296000Y19812000D03*
X38296000Y21082000D03*
X38296000Y22352000D03*
X38296000Y23622000D03*
X33096000Y11938000D03*
X33096000Y10668000D03*
X33096000Y9398000D03*
X33096000Y8128000D03*
X38296000Y8128000D03*
X38296000Y9398000D03*
X38296000Y10668000D03*
X38296000Y11938000D03*
D13*
X76200000Y58590000D03*
X76200000Y60790000D03*
X76200000Y39286000D03*
X76200000Y41486000D03*
D21*
X95000000Y5000000D03*
X5000000Y5000000D03*
X5000000Y95000000D03*
X95000000Y95000000D03*
D22*
X88978000Y60452000D03*
X92378000Y60452000D03*
X92378000Y39624000D03*
X88978000Y39624000D03*
D23*
X10500000Y5000000D03*
X95000000Y89500000D03*
D14*
X59258000Y6390000D03*
X59258000Y11390000D03*
X50368000Y16042000D03*
X50368000Y21042000D03*
X59258000Y25694000D03*
X59258000Y30694000D03*
X50368000Y35346000D03*
X50368000Y40346000D03*
X59258000Y74382000D03*
X59258000Y69382000D03*
X50368000Y84034000D03*
X50368000Y79034000D03*
X59258000Y93686000D03*
X59258000Y88686000D03*
X50368000Y64730000D03*
X50368000Y59730000D03*
M02*
