G04 #@! TF.FileFunction,Copper,L2,Bot,Signal*
%FSLAX46Y46*%
G04 Gerber Fmt 4.6, Leading zero omitted, Abs format (unit mm)*
G04 Created by KiCad (PCBNEW 4.0.2-stable) date 25/05/2016 10:40:19*
%MOMM*%
G01*
G04 APERTURE LIST*
%ADD10C,0.100000*%
%ADD11C,0.150000*%
%ADD12R,0.900000X1.300000*%
%ADD13C,2.000000*%
%ADD14R,1.300000X0.900000*%
%ADD15C,2.200000*%
%ADD16C,1.600000*%
%ADD17O,1.600000X3.200000*%
%ADD18R,1.100000X1.700000*%
%ADD19R,1.700000X1.100000*%
%ADD20C,1.000000*%
%ADD21C,1.200000*%
%ADD22C,0.300000*%
%ADD23C,0.800000*%
%ADD24C,1.000000*%
%ADD25C,2.000000*%
%ADD26C,1.500000*%
%ADD27C,0.254000*%
G04 APERTURE END LIST*
D10*
D11*
X100000000Y0D02*
X0Y0D01*
X100000000Y100000000D02*
X100000000Y0D01*
X0Y100000000D02*
X100000000Y100000000D01*
X0Y0D02*
X0Y100000000D01*
D12*
X37168000Y73914000D03*
X34968000Y73914000D03*
X35390000Y76454000D03*
X33190000Y76454000D03*
D13*
X84074000Y56868000D03*
X84074000Y53368000D03*
X84328000Y46708000D03*
X84328000Y43208000D03*
X65786000Y56614000D03*
X65786000Y53114000D03*
X65786000Y46962000D03*
X65786000Y43462000D03*
D14*
X69850000Y55964000D03*
X69850000Y53764000D03*
X69850000Y46312000D03*
X69850000Y44112000D03*
D15*
X50368000Y93686000D03*
X50368000Y88686000D03*
X59258000Y84034000D03*
X59258000Y79034000D03*
X50368000Y74382000D03*
X50368000Y69382000D03*
X59258000Y64730000D03*
X59258000Y59730000D03*
D16*
X80340000Y93980000D03*
X82880000Y93980000D03*
X80340000Y86360000D03*
X82880000Y86360000D03*
X80340000Y78740000D03*
X82880000Y78740000D03*
X80340000Y71120000D03*
X82880000Y71120000D03*
X94742000Y56515000D03*
D17*
X94742000Y53340000D03*
D16*
X94742000Y47498000D03*
D17*
X94742000Y44323000D03*
D16*
X7696000Y85852000D03*
X10236000Y85852000D03*
X7696000Y83312000D03*
X10236000Y83312000D03*
X7696000Y80772000D03*
X10236000Y80772000D03*
X7696000Y78232000D03*
X10236000Y78232000D03*
X7696000Y75692000D03*
X10236000Y75692000D03*
X7696000Y73152000D03*
X10236000Y73152000D03*
X7696000Y70612000D03*
X10236000Y70612000D03*
X7696000Y68072000D03*
X10236000Y68072000D03*
X7696000Y65532000D03*
X10236000Y65532000D03*
X7696000Y62992000D03*
X10236000Y62992000D03*
D18*
X36498000Y79502000D03*
X33098000Y79502000D03*
X36498000Y21082000D03*
X33098000Y21082000D03*
D12*
X35390000Y18034000D03*
X33190000Y18034000D03*
X37168000Y15494000D03*
X34968000Y15494000D03*
D15*
X59258000Y35346000D03*
X59258000Y40346000D03*
X50368000Y25694000D03*
X50368000Y30694000D03*
X59258000Y16002000D03*
X59258000Y21002000D03*
X50368000Y6390000D03*
X50368000Y11390000D03*
D16*
X80340000Y30480000D03*
X82880000Y30480000D03*
X80340000Y22860000D03*
X82880000Y22860000D03*
X80340000Y15240000D03*
X82880000Y15240000D03*
X80340000Y7620000D03*
X82880000Y7620000D03*
X7696000Y37592000D03*
X10236000Y37592000D03*
X7696000Y35052000D03*
X10236000Y35052000D03*
X7696000Y32512000D03*
X10236000Y32512000D03*
X7696000Y29972000D03*
X10236000Y29972000D03*
X7696000Y27432000D03*
X10236000Y27432000D03*
X7696000Y24892000D03*
X10236000Y24892000D03*
X7696000Y22352000D03*
X10236000Y22352000D03*
X7696000Y19812000D03*
X10236000Y19812000D03*
X7696000Y17272000D03*
X10236000Y17272000D03*
X7696000Y14732000D03*
X10236000Y14732000D03*
D14*
X17602000Y85809000D03*
X17602000Y83609000D03*
X10617000Y60028000D03*
X10617000Y57828000D03*
X10617000Y40556000D03*
X10617000Y42756000D03*
X17729000Y14648000D03*
X17729000Y16848000D03*
D19*
X14427000Y82374000D03*
X14427000Y85774000D03*
X7696000Y56593000D03*
X7696000Y59993000D03*
X7696000Y43991000D03*
X7696000Y40591000D03*
X14427000Y18083000D03*
X14427000Y14683000D03*
D14*
X61976000Y55964000D03*
X61976000Y53764000D03*
X61976000Y46312000D03*
X61976000Y44112000D03*
D20*
X10500000Y5000000D03*
X95000000Y89500000D03*
D13*
X59258000Y6390000D03*
X59258000Y11390000D03*
X50368000Y16042000D03*
X50368000Y21042000D03*
X59258000Y25694000D03*
X59258000Y30694000D03*
X50368000Y35346000D03*
X50368000Y40346000D03*
X59258000Y74382000D03*
X59258000Y69382000D03*
X50368000Y84034000D03*
X50368000Y79034000D03*
X59258000Y93686000D03*
X59258000Y88686000D03*
X50368000Y64730000D03*
X50368000Y59730000D03*
D21*
X65405000Y84582000D03*
X65405000Y75311000D03*
X74930000Y29464000D03*
X74930000Y23495000D03*
X74930000Y16510000D03*
X67564000Y30353000D03*
X67564000Y23495000D03*
X67564000Y16637000D03*
X74930000Y7620000D03*
X67564000Y7874000D03*
X68834000Y36830000D03*
X72263000Y36703000D03*
X72390000Y61976000D03*
X67310000Y61849000D03*
X67310000Y67183000D03*
X76581000Y68199000D03*
X75057000Y74803000D03*
X75057000Y83693000D03*
X74930000Y92837000D03*
X67310000Y92837000D03*
X54737000Y4318000D03*
X54737000Y13589000D03*
X54737000Y23368000D03*
X54737000Y32893000D03*
X57404000Y51943000D03*
X57404000Y48006000D03*
X59436000Y50165000D03*
X61341000Y52070000D03*
X61468000Y48006000D03*
X54737000Y42799000D03*
X54737000Y50927000D03*
X54737000Y57150000D03*
X54737000Y67056000D03*
X54737000Y76581000D03*
X54737000Y86487000D03*
X45085000Y12192000D03*
X45466000Y22987000D03*
X45847000Y33274000D03*
X45466000Y42291000D03*
X46736000Y55753000D03*
X46101000Y67310000D03*
X45593000Y76835000D03*
X46482000Y90297000D03*
X15240000Y11049000D03*
X14605000Y20828000D03*
X14732000Y27305000D03*
X14605000Y34417000D03*
X15367000Y80137000D03*
X14986000Y67056000D03*
X14605000Y74168000D03*
X20574000Y85979000D03*
X20574000Y74168000D03*
X20574000Y62738000D03*
X20574000Y50927000D03*
X20574000Y39370000D03*
X20574000Y27305000D03*
X20574000Y16129000D03*
X85090000Y10668000D03*
X85090000Y18288000D03*
X85090000Y25908000D03*
X85090000Y33528000D03*
X85090000Y68072000D03*
X85090000Y75692000D03*
X85090000Y83312000D03*
X85090000Y90932000D03*
X76327000Y46291500D03*
X76327000Y53721000D03*
X44958000Y46736000D03*
X40640000Y14732000D03*
X40894000Y26416000D03*
X40894000Y38100000D03*
X40894000Y61468000D03*
X40640000Y73152000D03*
X40640000Y84836000D03*
X40640000Y96520000D03*
X43180000Y97790000D03*
X25400000Y4826000D03*
X25400000Y16510000D03*
X25400000Y28194000D03*
X25400000Y39878000D03*
X25400000Y51562000D03*
X25400000Y63246000D03*
X25400000Y74930000D03*
X25400000Y86614000D03*
X30924500Y28702000D03*
X30924500Y17018000D03*
X30924500Y5334000D03*
X30924500Y40386000D03*
X30924500Y52070000D03*
X30988000Y63754000D03*
X30924500Y75438000D03*
X30924500Y87122000D03*
X78232000Y48006000D03*
X76200000Y37592000D03*
X79502000Y37592000D03*
X79502000Y62484000D03*
X76200000Y62484000D03*
X78232000Y52070000D03*
X91694000Y8636000D03*
X91694000Y91440000D03*
X11176000Y92456000D03*
X9144000Y8382000D03*
X98120000Y9906000D03*
X14224000Y54356000D03*
X7696000Y54356000D03*
X7315000Y49530000D03*
X32080000Y97790000D03*
X24460000Y97790000D03*
X16840000Y97790000D03*
X9220000Y97790000D03*
X1600000Y91440000D03*
X1600000Y83820000D03*
X1600000Y76200000D03*
X1600000Y68580000D03*
X1600000Y60960000D03*
X1600000Y53340000D03*
X1600000Y45720000D03*
X1600000Y38100000D03*
X1600000Y30480000D03*
X1600000Y22860000D03*
X1600000Y15240000D03*
X1600000Y10160000D03*
X13030000Y2540000D03*
X20650000Y2540000D03*
X28270000Y2540000D03*
X35890000Y2540000D03*
X43510000Y2540000D03*
X51130000Y2540000D03*
X60020000Y2540000D03*
X67640000Y2540000D03*
X75260000Y2540000D03*
X82880000Y2540000D03*
X90500000Y2540000D03*
X98120000Y15240000D03*
X98120000Y22860000D03*
X98120000Y30480000D03*
X98120000Y39370000D03*
X98120000Y48260000D03*
X98120000Y55880000D03*
X98120000Y64770000D03*
X98120000Y73660000D03*
X98120000Y81280000D03*
X98120000Y90170000D03*
X86690000Y97790000D03*
X79070000Y97790000D03*
X71450000Y97790000D03*
X63830000Y97790000D03*
X56210000Y97790000D03*
X48590000Y97790000D03*
X40640000Y21082000D03*
X28702000Y24892000D03*
X40640000Y91186000D03*
X28702000Y94996000D03*
X28702000Y83312000D03*
X40640000Y79502000D03*
X40640000Y67818000D03*
X28702000Y71628000D03*
X40640000Y56134000D03*
X28702000Y59944000D03*
X40640000Y44450000D03*
X28702000Y48260000D03*
X40640000Y32766000D03*
X28702000Y36576000D03*
X40640000Y9398000D03*
X28702000Y13208000D03*
X37338000Y17653000D03*
X38735000Y17653000D03*
X37211000Y76073000D03*
X38608000Y76073000D03*
X33528000Y13843000D03*
X33401000Y72263000D03*
X32766000Y15240000D03*
X32766000Y73660000D03*
X34290000Y49784000D03*
X41402000Y49784000D03*
D22*
X65405000Y84582000D02*
X65405000Y90932000D01*
X65405000Y90932000D02*
X67310000Y92837000D01*
X65405000Y75311000D02*
X65405000Y84582000D01*
X67310000Y67183000D02*
X67310000Y73406000D01*
X67310000Y73406000D02*
X65405000Y75311000D01*
X74930000Y29464000D02*
X74930000Y34036000D01*
X74930000Y34036000D02*
X72263000Y36703000D01*
X67564000Y30353000D02*
X67564000Y35560000D01*
X67564000Y35560000D02*
X68834000Y36830000D01*
X74930000Y23495000D02*
X74930000Y29464000D01*
X74930000Y16510000D02*
X74930000Y23495000D01*
X74930000Y7620000D02*
X74930000Y16510000D01*
X67564000Y23495000D02*
X67564000Y30353000D01*
X67564000Y16637000D02*
X67564000Y23495000D01*
X67564000Y7874000D02*
X67564000Y16637000D01*
X67640000Y2540000D02*
X67640000Y7798000D01*
X67640000Y7798000D02*
X67564000Y7874000D01*
X72263000Y36703000D02*
X68961000Y36703000D01*
X68961000Y36703000D02*
X68834000Y36830000D01*
X76200000Y37592000D02*
X73152000Y37592000D01*
X73152000Y37592000D02*
X72263000Y36703000D01*
X72390000Y61976000D02*
X75692000Y61976000D01*
X75692000Y61976000D02*
X76200000Y62484000D01*
X67310000Y61849000D02*
X72263000Y61849000D01*
X72263000Y61849000D02*
X72390000Y61976000D01*
X67310000Y67183000D02*
X67310000Y61849000D01*
X75057000Y74803000D02*
X75057000Y69723000D01*
X75057000Y69723000D02*
X76581000Y68199000D01*
X75057000Y83693000D02*
X75057000Y74803000D01*
X74930000Y92837000D02*
X74930000Y83820000D01*
X74930000Y83820000D02*
X75057000Y83693000D01*
X71450000Y97790000D02*
X67310000Y93650000D01*
X67310000Y93650000D02*
X67310000Y92837000D01*
X54737000Y13589000D02*
X54737000Y4318000D01*
X54737000Y23368000D02*
X54737000Y13589000D01*
X54737000Y32893000D02*
X54737000Y23368000D01*
X54737000Y42799000D02*
X54737000Y32893000D01*
X54737000Y50927000D02*
X54737000Y42799000D01*
X54737000Y57150000D02*
X54737000Y50927000D01*
X54737000Y67056000D02*
X54737000Y57150000D01*
X54737000Y76581000D02*
X54737000Y67056000D01*
X54737000Y86487000D02*
X54737000Y76581000D01*
X56210000Y97790000D02*
X56210000Y87960000D01*
X56210000Y87960000D02*
X54737000Y86487000D01*
X40640000Y14732000D02*
X42545000Y14732000D01*
X42545000Y14732000D02*
X45085000Y12192000D01*
X40894000Y26416000D02*
X42037000Y26416000D01*
X42037000Y26416000D02*
X45466000Y22987000D01*
X40894000Y38100000D02*
X45720000Y33274000D01*
X45720000Y33274000D02*
X45847000Y33274000D01*
X44958000Y46736000D02*
X44958000Y42799000D01*
X44958000Y42799000D02*
X45466000Y42291000D01*
X44958000Y46736000D02*
X44958000Y53975000D01*
X44958000Y53975000D02*
X46736000Y55753000D01*
X40894000Y61468000D02*
X46101000Y66675000D01*
X46101000Y66675000D02*
X46101000Y67310000D01*
X20574000Y39370000D02*
X24892000Y39370000D01*
X24892000Y39370000D02*
X25400000Y39878000D01*
X20574000Y50927000D02*
X24765000Y50927000D01*
X24765000Y50927000D02*
X25400000Y51562000D01*
X14224000Y54356000D02*
X17145000Y54356000D01*
X17145000Y54356000D02*
X20574000Y50927000D01*
X7696000Y54356000D02*
X2616000Y54356000D01*
X2616000Y54356000D02*
X1600000Y53340000D01*
X14605000Y34417000D02*
X14605000Y53975000D01*
X14605000Y53975000D02*
X14224000Y54356000D01*
X14732000Y27305000D02*
X14732000Y34290000D01*
X14732000Y34290000D02*
X14605000Y34417000D01*
X14605000Y20828000D02*
X14605000Y27178000D01*
X14605000Y27178000D02*
X14732000Y27305000D01*
X14605000Y20828000D02*
X14605000Y18261000D01*
X14605000Y18261000D02*
X14427000Y18083000D01*
X20574000Y27305000D02*
X14732000Y27305000D01*
X20574000Y62738000D02*
X20574000Y74168000D01*
X20574000Y39370000D02*
X20574000Y50927000D01*
X20574000Y16129000D02*
X20574000Y27305000D01*
X43180000Y97790000D02*
X32080000Y97790000D01*
X91694000Y8636000D02*
X92964000Y9906000D01*
X90500000Y7442000D02*
X91694000Y8636000D01*
X11938000Y8128000D02*
X9906000Y10160000D01*
X13030000Y7036000D02*
X11938000Y8128000D01*
X11938000Y8128000D02*
X9398000Y8128000D01*
X9398000Y8128000D02*
X9144000Y8382000D01*
X1600000Y15240000D02*
X1600000Y10160000D01*
X9906000Y10160000D02*
X1600000Y10160000D01*
X13030000Y2540000D02*
X13030000Y7036000D01*
X90500000Y2540000D02*
X86360000Y2540000D01*
X86360000Y2540000D02*
X82880000Y2540000D01*
X82880000Y7620000D02*
X86360000Y4140000D01*
X86360000Y4140000D02*
X86360000Y2540000D01*
X75260000Y2540000D02*
X82880000Y2540000D01*
X98120000Y15240000D02*
X98120000Y9906000D01*
X92964000Y9906000D02*
X98120000Y9906000D01*
X90500000Y2540000D02*
X90500000Y7442000D01*
X7696000Y54356000D02*
X7696000Y49911000D01*
X7696000Y56593000D02*
X7696000Y54356000D01*
X7696000Y49911000D02*
X7315000Y49530000D01*
X24460000Y97790000D02*
X32080000Y97790000D01*
X9220000Y97790000D02*
X16840000Y97790000D01*
X1600000Y76200000D02*
X1600000Y83820000D01*
X1600000Y60960000D02*
X1600000Y68580000D01*
X1600000Y45720000D02*
X1600000Y53340000D01*
X1600000Y30480000D02*
X1600000Y38100000D01*
X1600000Y15240000D02*
X1600000Y22860000D01*
X20650000Y2540000D02*
X13030000Y2540000D01*
X35890000Y2540000D02*
X28270000Y2540000D01*
X51130000Y2540000D02*
X43510000Y2540000D01*
X67640000Y2540000D02*
X60020000Y2540000D01*
X75260000Y2540000D02*
X67640000Y2540000D01*
X98120000Y30480000D02*
X98120000Y22860000D01*
X98120000Y48260000D02*
X98120000Y39370000D01*
X98120000Y64770000D02*
X98120000Y55880000D01*
X98120000Y81280000D02*
X98120000Y73660000D01*
X63830000Y97790000D02*
X71450000Y97790000D01*
X48590000Y97790000D02*
X56210000Y97790000D01*
D23*
X28702000Y24892000D02*
X36830000Y24892000D01*
X36830000Y24892000D02*
X40640000Y21082000D01*
X28702000Y94996000D02*
X36830000Y94996000D01*
X36830000Y94996000D02*
X40640000Y91186000D01*
X28702000Y83312000D02*
X36830000Y83312000D01*
X36830000Y83312000D02*
X40640000Y79502000D01*
D24*
X40640000Y67818000D02*
X32512000Y67818000D01*
X32512000Y67818000D02*
X28702000Y71628000D01*
D23*
X28702000Y59944000D02*
X36830000Y59944000D01*
X36830000Y59944000D02*
X40640000Y56134000D01*
X28702000Y48260000D02*
X32512000Y44450000D01*
X32512000Y44450000D02*
X40640000Y44450000D01*
X28702000Y36576000D02*
X36830000Y36576000D01*
X36830000Y36576000D02*
X40640000Y32766000D01*
D24*
X28702000Y13208000D02*
X32512000Y9398000D01*
X32512000Y9398000D02*
X40640000Y9398000D01*
D25*
X14427000Y85774000D02*
X17567000Y85774000D01*
X17567000Y85774000D02*
X17602000Y85809000D01*
X10236000Y85852000D02*
X14349000Y85852000D01*
X14349000Y85852000D02*
X14427000Y85774000D01*
X7696000Y85852000D02*
X10236000Y85852000D01*
X7696000Y83312000D02*
X7696000Y85852000D01*
X7696000Y80772000D02*
X7696000Y83312000D01*
X7696000Y78232000D02*
X7696000Y80772000D01*
X7696000Y75692000D02*
X7696000Y78232000D01*
X7696000Y73152000D02*
X7696000Y75692000D01*
X7696000Y70612000D02*
X7696000Y73152000D01*
X7696000Y68072000D02*
X7696000Y70612000D01*
X7696000Y65532000D02*
X7696000Y68072000D01*
X7696000Y62992000D02*
X7696000Y65532000D01*
X10617000Y60028000D02*
X7731000Y60028000D01*
X7731000Y60028000D02*
X7696000Y59993000D01*
X7696000Y59993000D02*
X7696000Y62992000D01*
X10236000Y62992000D02*
X7696000Y62992000D01*
X14427000Y14683000D02*
X17694000Y14683000D01*
X17694000Y14683000D02*
X17729000Y14648000D01*
X10236000Y14732000D02*
X14378000Y14732000D01*
X14378000Y14732000D02*
X14427000Y14683000D01*
X7696000Y14732000D02*
X10236000Y14732000D01*
X7696000Y17272000D02*
X7696000Y14732000D01*
X7696000Y19812000D02*
X7696000Y17272000D01*
X7696000Y22352000D02*
X7696000Y19812000D01*
X7696000Y24892000D02*
X7696000Y22352000D01*
X7696000Y27432000D02*
X7696000Y24892000D01*
X7696000Y27432000D02*
X7696000Y29972000D01*
X7696000Y32512000D02*
X7696000Y29972000D01*
X7696000Y35052000D02*
X7696000Y32512000D01*
X10236000Y37592000D02*
X7696000Y37592000D01*
X7696000Y37592000D02*
X7696000Y35052000D01*
X7696000Y37592000D02*
X7696000Y40591000D01*
X10617000Y40556000D02*
X7731000Y40556000D01*
X7731000Y40556000D02*
X7696000Y40591000D01*
D22*
X38735000Y17653000D02*
X37338000Y17653000D01*
D26*
X65786000Y56614000D02*
X69200000Y56614000D01*
X69200000Y56614000D02*
X69850000Y55964000D01*
X65786000Y56614000D02*
X62626000Y56614000D01*
X62626000Y56614000D02*
X61976000Y55964000D01*
D22*
X32766000Y73660000D02*
X32766000Y72898000D01*
X32766000Y72898000D02*
X33401000Y72263000D01*
D26*
X65786000Y43462000D02*
X62626000Y43462000D01*
X62626000Y43462000D02*
X61976000Y44112000D01*
X65786000Y43462000D02*
X69200000Y43462000D01*
X69200000Y43462000D02*
X69850000Y44112000D01*
D25*
X41402000Y49784000D02*
X34290000Y49784000D01*
D22*
G36*
X98850000Y1150000D02*
X1150000Y1150000D01*
X1150000Y4336567D01*
X1649420Y4336567D01*
X2158353Y3104857D01*
X3099900Y2161665D01*
X4330720Y1650583D01*
X5663433Y1649420D01*
X6895143Y2158353D01*
X7838335Y3099900D01*
X8349417Y4330720D01*
X8349698Y4653431D01*
X8749696Y4653431D01*
X9015557Y4009999D01*
X9507410Y3517287D01*
X10150376Y3250304D01*
X10846569Y3249696D01*
X11490001Y3515557D01*
X11982713Y4007410D01*
X12119391Y4336567D01*
X91649420Y4336567D01*
X92158353Y3104857D01*
X93099900Y2161665D01*
X94330720Y1650583D01*
X95663433Y1649420D01*
X96895143Y2158353D01*
X97838335Y3099900D01*
X98349417Y4330720D01*
X98350580Y5663433D01*
X97841647Y6895143D01*
X96900100Y7838335D01*
X95669280Y8349417D01*
X94336567Y8350580D01*
X93104857Y7841647D01*
X92161665Y6900100D01*
X91650583Y5669280D01*
X91649420Y4336567D01*
X12119391Y4336567D01*
X12249696Y4650376D01*
X12250304Y5346569D01*
X11984443Y5990001D01*
X11891568Y6083039D01*
X48817732Y6083039D01*
X49053208Y5513143D01*
X49488849Y5076740D01*
X50058333Y4840270D01*
X50674961Y4839732D01*
X51244857Y5075208D01*
X51681260Y5510849D01*
X51917730Y6080333D01*
X51917749Y6102843D01*
X57807749Y6102843D01*
X58028033Y5569714D01*
X58435569Y5161467D01*
X58968312Y4940252D01*
X59545157Y4939749D01*
X60078286Y5160033D01*
X60486533Y5567569D01*
X60707748Y6100312D01*
X60708251Y6677157D01*
X60487967Y7210286D01*
X60326086Y7372450D01*
X79089783Y7372450D01*
X79279684Y6912857D01*
X79631007Y6560919D01*
X80090269Y6370217D01*
X80587550Y6369783D01*
X81047143Y6559684D01*
X81102071Y6614517D01*
X82021596Y6614517D01*
X82092498Y6359161D01*
X82634946Y6153772D01*
X83214701Y6171603D01*
X83667502Y6359161D01*
X83738404Y6614517D01*
X82880000Y7472922D01*
X82021596Y6614517D01*
X81102071Y6614517D01*
X81399081Y6911007D01*
X81492976Y7137132D01*
X81619161Y6832498D01*
X81874517Y6761596D01*
X82732922Y7620000D01*
X83027078Y7620000D01*
X83885483Y6761596D01*
X84140839Y6832498D01*
X84346228Y7374946D01*
X84328397Y7954701D01*
X84140839Y8407502D01*
X83885483Y8478404D01*
X83027078Y7620000D01*
X82732922Y7620000D01*
X81874517Y8478404D01*
X81619161Y8407502D01*
X81498637Y8089189D01*
X81400316Y8327143D01*
X81102498Y8625483D01*
X82021596Y8625483D01*
X82880000Y7767078D01*
X83738404Y8625483D01*
X83667502Y8880839D01*
X83125054Y9086228D01*
X82545299Y9068397D01*
X82092498Y8880839D01*
X82021596Y8625483D01*
X81102498Y8625483D01*
X81048993Y8679081D01*
X80589731Y8869783D01*
X80092450Y8870217D01*
X79632857Y8680316D01*
X79280919Y8328993D01*
X79090217Y7869731D01*
X79089783Y7372450D01*
X60326086Y7372450D01*
X60080431Y7618533D01*
X59547688Y7839748D01*
X58970843Y7840251D01*
X58437714Y7619967D01*
X58029467Y7212431D01*
X57808252Y6679688D01*
X57807749Y6102843D01*
X51917749Y6102843D01*
X51918268Y6696961D01*
X51682792Y7266857D01*
X51247151Y7703260D01*
X50677667Y7939730D01*
X50061039Y7940268D01*
X49491143Y7704792D01*
X49054740Y7269151D01*
X48818270Y6699667D01*
X48817732Y6083039D01*
X11891568Y6083039D01*
X11492590Y6482713D01*
X10849624Y6749696D01*
X10153431Y6750304D01*
X9509999Y6484443D01*
X9017287Y5992590D01*
X8750304Y5349624D01*
X8749696Y4653431D01*
X8349698Y4653431D01*
X8350580Y5663433D01*
X7841647Y6895143D01*
X6900100Y7838335D01*
X5669280Y8349417D01*
X4336567Y8350580D01*
X3104857Y7841647D01*
X2161665Y6900100D01*
X1650583Y5669280D01*
X1649420Y4336567D01*
X1150000Y4336567D01*
X1150000Y13000058D01*
X27651818Y13000058D01*
X27811334Y12614000D01*
X28106446Y12318372D01*
X28348732Y12217766D01*
X31840249Y8726248D01*
X32148450Y8520314D01*
X32512000Y8448000D01*
X40189838Y8448000D01*
X40430226Y8348182D01*
X40847942Y8347818D01*
X41234000Y8507334D01*
X41529628Y8802446D01*
X41689818Y9188226D01*
X41690182Y9605942D01*
X41530666Y9992000D01*
X41235554Y10287628D01*
X40849774Y10447818D01*
X40432058Y10448182D01*
X40189599Y10348000D01*
X32905503Y10348000D01*
X32170464Y11083039D01*
X48817732Y11083039D01*
X49053208Y10513143D01*
X49488849Y10076740D01*
X50058333Y9840270D01*
X50674961Y9839732D01*
X51244857Y10075208D01*
X51681260Y10510849D01*
X51917730Y11080333D01*
X51917749Y11102843D01*
X57807749Y11102843D01*
X58028033Y10569714D01*
X58435569Y10161467D01*
X58968312Y9940252D01*
X59545157Y9939749D01*
X60078286Y10160033D01*
X60486533Y10567569D01*
X60707748Y11100312D01*
X60708251Y11677157D01*
X60487967Y12210286D01*
X60080431Y12618533D01*
X59547688Y12839748D01*
X58970843Y12840251D01*
X58437714Y12619967D01*
X58029467Y12212431D01*
X57808252Y11679688D01*
X57807749Y11102843D01*
X51917749Y11102843D01*
X51918268Y11696961D01*
X51682792Y12266857D01*
X51247151Y12703260D01*
X50677667Y12939730D01*
X50061039Y12940268D01*
X49491143Y12704792D01*
X49054740Y12269151D01*
X48818270Y11699667D01*
X48817732Y11083039D01*
X32170464Y11083039D01*
X29692064Y13561438D01*
X29592666Y13802000D01*
X29297554Y14097628D01*
X28911774Y14257818D01*
X28494058Y14258182D01*
X28108000Y14098666D01*
X27812372Y13803554D01*
X27652182Y13417774D01*
X27651818Y13000058D01*
X1150000Y13000058D01*
X1150000Y40591000D01*
X6246000Y40591000D01*
X6246000Y14732000D01*
X6356375Y14177109D01*
X6670695Y13706695D01*
X7141109Y13392375D01*
X7696000Y13282000D01*
X14180661Y13282000D01*
X14427000Y13233000D01*
X17553044Y13233000D01*
X17729000Y13198000D01*
X18283890Y13308375D01*
X18754304Y13622696D01*
X19068625Y14093110D01*
X19179000Y14648000D01*
X19068625Y15202891D01*
X18754304Y15673305D01*
X18719305Y15708305D01*
X18609881Y15781420D01*
X18751727Y15840175D01*
X18936826Y16025273D01*
X19037000Y16267116D01*
X19037000Y16579500D01*
X18872500Y16744000D01*
X17833000Y16744000D01*
X17833000Y16724000D01*
X17625000Y16724000D01*
X17625000Y16744000D01*
X16585500Y16744000D01*
X16421000Y16579500D01*
X16421000Y16267116D01*
X16476552Y16133000D01*
X14624339Y16133000D01*
X14378000Y16182000D01*
X10871303Y16182000D01*
X10943143Y16211684D01*
X11295081Y16563007D01*
X11485783Y17022269D01*
X11486217Y17519550D01*
X11364346Y17814500D01*
X12919000Y17814500D01*
X12919000Y17402116D01*
X13019174Y17160273D01*
X13204273Y16975175D01*
X13446115Y16875000D01*
X14158500Y16875000D01*
X14323000Y17039500D01*
X14323000Y17979000D01*
X14531000Y17979000D01*
X14531000Y17039500D01*
X14695500Y16875000D01*
X15407885Y16875000D01*
X15649727Y16975175D01*
X15834826Y17160273D01*
X15935000Y17402116D01*
X15935000Y17428884D01*
X16421000Y17428884D01*
X16421000Y17116500D01*
X16585500Y16952000D01*
X17625000Y16952000D01*
X17625000Y17791500D01*
X17833000Y17791500D01*
X17833000Y16952000D01*
X18872500Y16952000D01*
X19037000Y17116500D01*
X19037000Y17428884D01*
X18936826Y17670727D01*
X18751727Y17855825D01*
X18509885Y17956000D01*
X17997500Y17956000D01*
X17833000Y17791500D01*
X17625000Y17791500D01*
X17460500Y17956000D01*
X16948115Y17956000D01*
X16706273Y17855825D01*
X16521174Y17670727D01*
X16421000Y17428884D01*
X15935000Y17428884D01*
X15935000Y17814500D01*
X15770500Y17979000D01*
X14531000Y17979000D01*
X14323000Y17979000D01*
X13083500Y17979000D01*
X12919000Y17814500D01*
X11364346Y17814500D01*
X11296316Y17979143D01*
X10944993Y18331081D01*
X10485731Y18521783D01*
X9988450Y18522217D01*
X9528857Y18332316D01*
X9176919Y17980993D01*
X9146000Y17906532D01*
X9146000Y19176697D01*
X9175684Y19104857D01*
X9527007Y18752919D01*
X9986269Y18562217D01*
X10483550Y18561783D01*
X10943143Y18751684D01*
X10955364Y18763884D01*
X12919000Y18763884D01*
X12919000Y18351500D01*
X13083500Y18187000D01*
X14323000Y18187000D01*
X14323000Y19126500D01*
X14531000Y19126500D01*
X14531000Y18187000D01*
X15770500Y18187000D01*
X15935000Y18351500D01*
X15935000Y18763884D01*
X15834826Y19005727D01*
X15649727Y19190825D01*
X15407885Y19291000D01*
X14695500Y19291000D01*
X14531000Y19126500D01*
X14323000Y19126500D01*
X14158500Y19291000D01*
X13446115Y19291000D01*
X13204273Y19190825D01*
X13019174Y19005727D01*
X12919000Y18763884D01*
X10955364Y18763884D01*
X11295081Y19103007D01*
X11485783Y19562269D01*
X11486217Y20059550D01*
X11296316Y20519143D01*
X10944993Y20871081D01*
X10485731Y21061783D01*
X9988450Y21062217D01*
X9528857Y20872316D01*
X9176919Y20520993D01*
X9146000Y20446532D01*
X9146000Y21716697D01*
X9175684Y21644857D01*
X9527007Y21292919D01*
X9986269Y21102217D01*
X10483550Y21101783D01*
X10943143Y21291684D01*
X11295081Y21643007D01*
X11484010Y22098000D01*
X31427000Y22098000D01*
X31427000Y13081000D01*
X31457775Y12917444D01*
X31554437Y12767228D01*
X31701925Y12666454D01*
X31877000Y12631000D01*
X35560000Y12631000D01*
X35723556Y12661775D01*
X35873772Y12758437D01*
X35974546Y12905925D01*
X36010000Y13081000D01*
X36010000Y16822000D01*
X36126000Y16822000D01*
X36126000Y14732000D01*
X36156775Y14568444D01*
X36253437Y14418228D01*
X36400925Y14317454D01*
X36576000Y14282000D01*
X39370000Y14282000D01*
X39533556Y14312775D01*
X39683772Y14409437D01*
X39784546Y14556925D01*
X39820000Y14732000D01*
X39820000Y15754843D01*
X48917749Y15754843D01*
X49138033Y15221714D01*
X49545569Y14813467D01*
X50078312Y14592252D01*
X50655157Y14591749D01*
X51188286Y14812033D01*
X51596533Y15219569D01*
X51793966Y15695039D01*
X57707732Y15695039D01*
X57943208Y15125143D01*
X58378849Y14688740D01*
X58948333Y14452270D01*
X59564961Y14451732D01*
X60134857Y14687208D01*
X60440632Y14992450D01*
X79089783Y14992450D01*
X79279684Y14532857D01*
X79631007Y14180919D01*
X80090269Y13990217D01*
X80587550Y13989783D01*
X81047143Y14179684D01*
X81102071Y14234517D01*
X82021596Y14234517D01*
X82092498Y13979161D01*
X82634946Y13773772D01*
X83214701Y13791603D01*
X83667502Y13979161D01*
X83738404Y14234517D01*
X82880000Y15092922D01*
X82021596Y14234517D01*
X81102071Y14234517D01*
X81399081Y14531007D01*
X81492976Y14757132D01*
X81619161Y14452498D01*
X81874517Y14381596D01*
X82732922Y15240000D01*
X83027078Y15240000D01*
X83885483Y14381596D01*
X84140839Y14452498D01*
X84346228Y14994946D01*
X84328397Y15574701D01*
X84140839Y16027502D01*
X83885483Y16098404D01*
X83027078Y15240000D01*
X82732922Y15240000D01*
X81874517Y16098404D01*
X81619161Y16027502D01*
X81498637Y15709189D01*
X81400316Y15947143D01*
X81102498Y16245483D01*
X82021596Y16245483D01*
X82880000Y15387078D01*
X83738404Y16245483D01*
X83667502Y16500839D01*
X83125054Y16706228D01*
X82545299Y16688397D01*
X82092498Y16500839D01*
X82021596Y16245483D01*
X81102498Y16245483D01*
X81048993Y16299081D01*
X80589731Y16489783D01*
X80092450Y16490217D01*
X79632857Y16300316D01*
X79280919Y15948993D01*
X79090217Y15489731D01*
X79089783Y14992450D01*
X60440632Y14992450D01*
X60571260Y15122849D01*
X60807730Y15692333D01*
X60808268Y16308961D01*
X60572792Y16878857D01*
X60137151Y17315260D01*
X59567667Y17551730D01*
X58951039Y17552268D01*
X58381143Y17316792D01*
X57944740Y16881151D01*
X57708270Y16311667D01*
X57707732Y15695039D01*
X51793966Y15695039D01*
X51817748Y15752312D01*
X51818251Y16329157D01*
X51597967Y16862286D01*
X51190431Y17270533D01*
X50657688Y17491748D01*
X50080843Y17492251D01*
X49547714Y17271967D01*
X49139467Y16864431D01*
X48918252Y16331688D01*
X48917749Y15754843D01*
X39820000Y15754843D01*
X39820000Y19304000D01*
X39789225Y19467556D01*
X39692563Y19617772D01*
X39545075Y19718546D01*
X39370000Y19754000D01*
X37788000Y19754000D01*
X37788000Y22098000D01*
X37757225Y22261556D01*
X37660563Y22411772D01*
X37513075Y22512546D01*
X37338000Y22548000D01*
X34798000Y22548000D01*
X34634444Y22517225D01*
X34609098Y22500915D01*
X34592075Y22512546D01*
X34417000Y22548000D01*
X31877000Y22548000D01*
X31713444Y22517225D01*
X31563228Y22420563D01*
X31462454Y22273075D01*
X31427000Y22098000D01*
X11484010Y22098000D01*
X11485783Y22102269D01*
X11486217Y22599550D01*
X11296316Y23059143D01*
X10944993Y23411081D01*
X10485731Y23601783D01*
X9988450Y23602217D01*
X9528857Y23412316D01*
X9176919Y23060993D01*
X9146000Y22986532D01*
X9146000Y24256697D01*
X9175684Y24184857D01*
X9527007Y23832919D01*
X9986269Y23642217D01*
X10483550Y23641783D01*
X10943143Y23831684D01*
X11295081Y24183007D01*
X11485783Y24642269D01*
X11485819Y24684058D01*
X27651818Y24684058D01*
X27811334Y24298000D01*
X28106446Y24002372D01*
X28492226Y23842182D01*
X28909942Y23841818D01*
X29296000Y24001334D01*
X29336737Y24042000D01*
X36477918Y24042000D01*
X39589867Y20930051D01*
X39589818Y20874058D01*
X39749334Y20488000D01*
X40044446Y20192372D01*
X40430226Y20032182D01*
X40847942Y20031818D01*
X41234000Y20191334D01*
X41529628Y20486446D01*
X41641076Y20754843D01*
X48917749Y20754843D01*
X49138033Y20221714D01*
X49545569Y19813467D01*
X50078312Y19592252D01*
X50655157Y19591749D01*
X51188286Y19812033D01*
X51596533Y20219569D01*
X51793966Y20695039D01*
X57707732Y20695039D01*
X57943208Y20125143D01*
X58378849Y19688740D01*
X58948333Y19452270D01*
X59564961Y19451732D01*
X60134857Y19687208D01*
X60571260Y20122849D01*
X60807730Y20692333D01*
X60808268Y21308961D01*
X60572792Y21878857D01*
X60137151Y22315260D01*
X59567667Y22551730D01*
X58951039Y22552268D01*
X58381143Y22316792D01*
X57944740Y21881151D01*
X57708270Y21311667D01*
X57707732Y20695039D01*
X51793966Y20695039D01*
X51817748Y20752312D01*
X51818251Y21329157D01*
X51597967Y21862286D01*
X51190431Y22270533D01*
X50657688Y22491748D01*
X50080843Y22492251D01*
X49547714Y22271967D01*
X49139467Y21864431D01*
X48918252Y21331688D01*
X48917749Y20754843D01*
X41641076Y20754843D01*
X41689818Y20872226D01*
X41690182Y21289942D01*
X41530666Y21676000D01*
X41235554Y21971628D01*
X40849774Y22131818D01*
X40792214Y22131868D01*
X40311632Y22612450D01*
X79089783Y22612450D01*
X79279684Y22152857D01*
X79631007Y21800919D01*
X80090269Y21610217D01*
X80587550Y21609783D01*
X81047143Y21799684D01*
X81102071Y21854517D01*
X82021596Y21854517D01*
X82092498Y21599161D01*
X82634946Y21393772D01*
X83214701Y21411603D01*
X83667502Y21599161D01*
X83738404Y21854517D01*
X82880000Y22712922D01*
X82021596Y21854517D01*
X81102071Y21854517D01*
X81399081Y22151007D01*
X81492976Y22377132D01*
X81619161Y22072498D01*
X81874517Y22001596D01*
X82732922Y22860000D01*
X83027078Y22860000D01*
X83885483Y22001596D01*
X84140839Y22072498D01*
X84346228Y22614946D01*
X84328397Y23194701D01*
X84140839Y23647502D01*
X83885483Y23718404D01*
X83027078Y22860000D01*
X82732922Y22860000D01*
X81874517Y23718404D01*
X81619161Y23647502D01*
X81498637Y23329189D01*
X81400316Y23567143D01*
X81102498Y23865483D01*
X82021596Y23865483D01*
X82880000Y23007078D01*
X83738404Y23865483D01*
X83667502Y24120839D01*
X83125054Y24326228D01*
X82545299Y24308397D01*
X82092498Y24120839D01*
X82021596Y23865483D01*
X81102498Y23865483D01*
X81048993Y23919081D01*
X80589731Y24109783D01*
X80092450Y24110217D01*
X79632857Y23920316D01*
X79280919Y23568993D01*
X79090217Y23109731D01*
X79089783Y22612450D01*
X40311632Y22612450D01*
X37537043Y25387039D01*
X48817732Y25387039D01*
X49053208Y24817143D01*
X49488849Y24380740D01*
X50058333Y24144270D01*
X50674961Y24143732D01*
X51244857Y24379208D01*
X51681260Y24814849D01*
X51917730Y25384333D01*
X51917749Y25406843D01*
X57807749Y25406843D01*
X58028033Y24873714D01*
X58435569Y24465467D01*
X58968312Y24244252D01*
X59545157Y24243749D01*
X60078286Y24464033D01*
X60486533Y24871569D01*
X60707748Y25404312D01*
X60708251Y25981157D01*
X60487967Y26514286D01*
X60080431Y26922533D01*
X59547688Y27143748D01*
X58970843Y27144251D01*
X58437714Y26923967D01*
X58029467Y26516431D01*
X57808252Y25983688D01*
X57807749Y25406843D01*
X51917749Y25406843D01*
X51918268Y26000961D01*
X51682792Y26570857D01*
X51247151Y27007260D01*
X50677667Y27243730D01*
X50061039Y27244268D01*
X49491143Y27008792D01*
X49054740Y26573151D01*
X48818270Y26003667D01*
X48817732Y25387039D01*
X37537043Y25387039D01*
X37431041Y25493041D01*
X37155281Y25677298D01*
X36830000Y25742000D01*
X29337113Y25742000D01*
X29297554Y25781628D01*
X28911774Y25941818D01*
X28494058Y25942182D01*
X28108000Y25782666D01*
X27812372Y25487554D01*
X27652182Y25101774D01*
X27651818Y24684058D01*
X11485819Y24684058D01*
X11486217Y25139550D01*
X11296316Y25599143D01*
X10944993Y25951081D01*
X10485731Y26141783D01*
X9988450Y26142217D01*
X9528857Y25952316D01*
X9176919Y25600993D01*
X9146000Y25526532D01*
X9146000Y26796697D01*
X9175684Y26724857D01*
X9527007Y26372919D01*
X9986269Y26182217D01*
X10483550Y26181783D01*
X10943143Y26371684D01*
X11295081Y26723007D01*
X11485783Y27182269D01*
X11486217Y27679550D01*
X11296316Y28139143D01*
X10944993Y28491081D01*
X10485731Y28681783D01*
X9988450Y28682217D01*
X9528857Y28492316D01*
X9176919Y28140993D01*
X9146000Y28066532D01*
X9146000Y29336697D01*
X9175684Y29264857D01*
X9527007Y28912919D01*
X9986269Y28722217D01*
X10483550Y28721783D01*
X10943143Y28911684D01*
X11295081Y29263007D01*
X11485783Y29722269D01*
X11486217Y30219550D01*
X11417012Y30387039D01*
X48817732Y30387039D01*
X49053208Y29817143D01*
X49488849Y29380740D01*
X50058333Y29144270D01*
X50674961Y29143732D01*
X51244857Y29379208D01*
X51681260Y29814849D01*
X51917730Y30384333D01*
X51917749Y30406843D01*
X57807749Y30406843D01*
X58028033Y29873714D01*
X58435569Y29465467D01*
X58968312Y29244252D01*
X59545157Y29243749D01*
X60078286Y29464033D01*
X60486533Y29871569D01*
X60636384Y30232450D01*
X79089783Y30232450D01*
X79279684Y29772857D01*
X79631007Y29420919D01*
X80090269Y29230217D01*
X80587550Y29229783D01*
X81047143Y29419684D01*
X81102071Y29474517D01*
X82021596Y29474517D01*
X82092498Y29219161D01*
X82634946Y29013772D01*
X83214701Y29031603D01*
X83667502Y29219161D01*
X83738404Y29474517D01*
X82880000Y30332922D01*
X82021596Y29474517D01*
X81102071Y29474517D01*
X81399081Y29771007D01*
X81492976Y29997132D01*
X81619161Y29692498D01*
X81874517Y29621596D01*
X82732922Y30480000D01*
X83027078Y30480000D01*
X83885483Y29621596D01*
X84140839Y29692498D01*
X84346228Y30234946D01*
X84328397Y30814701D01*
X84140839Y31267502D01*
X83885483Y31338404D01*
X83027078Y30480000D01*
X82732922Y30480000D01*
X81874517Y31338404D01*
X81619161Y31267502D01*
X81498637Y30949189D01*
X81400316Y31187143D01*
X81102498Y31485483D01*
X82021596Y31485483D01*
X82880000Y30627078D01*
X83738404Y31485483D01*
X83667502Y31740839D01*
X83125054Y31946228D01*
X82545299Y31928397D01*
X82092498Y31740839D01*
X82021596Y31485483D01*
X81102498Y31485483D01*
X81048993Y31539081D01*
X80589731Y31729783D01*
X80092450Y31730217D01*
X79632857Y31540316D01*
X79280919Y31188993D01*
X79090217Y30729731D01*
X79089783Y30232450D01*
X60636384Y30232450D01*
X60707748Y30404312D01*
X60708251Y30981157D01*
X60487967Y31514286D01*
X60080431Y31922533D01*
X59547688Y32143748D01*
X58970843Y32144251D01*
X58437714Y31923967D01*
X58029467Y31516431D01*
X57808252Y30983688D01*
X57807749Y30406843D01*
X51917749Y30406843D01*
X51918268Y31000961D01*
X51682792Y31570857D01*
X51247151Y32007260D01*
X50677667Y32243730D01*
X50061039Y32244268D01*
X49491143Y32008792D01*
X49054740Y31573151D01*
X48818270Y31003667D01*
X48817732Y30387039D01*
X11417012Y30387039D01*
X11296316Y30679143D01*
X10944993Y31031081D01*
X10485731Y31221783D01*
X9988450Y31222217D01*
X9528857Y31032316D01*
X9176919Y30680993D01*
X9146000Y30606532D01*
X9146000Y31876697D01*
X9175684Y31804857D01*
X9527007Y31452919D01*
X9986269Y31262217D01*
X10483550Y31261783D01*
X10943143Y31451684D01*
X11295081Y31803007D01*
X11485783Y32262269D01*
X11486217Y32759550D01*
X11296316Y33219143D01*
X10944993Y33571081D01*
X10485731Y33761783D01*
X9988450Y33762217D01*
X9528857Y33572316D01*
X9176919Y33220993D01*
X9146000Y33146532D01*
X9146000Y34416697D01*
X9175684Y34344857D01*
X9527007Y33992919D01*
X9986269Y33802217D01*
X10483550Y33801783D01*
X10943143Y33991684D01*
X11295081Y34343007D01*
X11485783Y34802269D01*
X11486217Y35299550D01*
X11296316Y35759143D01*
X10944993Y36111081D01*
X10665017Y36227337D01*
X10790891Y36252375D01*
X10964023Y36368058D01*
X27651818Y36368058D01*
X27811334Y35982000D01*
X28106446Y35686372D01*
X28492226Y35526182D01*
X28909942Y35525818D01*
X29296000Y35685334D01*
X29336737Y35726000D01*
X36477918Y35726000D01*
X39589867Y32614051D01*
X39589818Y32558058D01*
X39749334Y32172000D01*
X40044446Y31876372D01*
X40430226Y31716182D01*
X40847942Y31715818D01*
X41234000Y31875334D01*
X41529628Y32170446D01*
X41689818Y32556226D01*
X41690182Y32973942D01*
X41530666Y33360000D01*
X41235554Y33655628D01*
X40849774Y33815818D01*
X40792214Y33815868D01*
X39549239Y35058843D01*
X48917749Y35058843D01*
X49138033Y34525714D01*
X49545569Y34117467D01*
X50078312Y33896252D01*
X50655157Y33895749D01*
X51188286Y34116033D01*
X51596533Y34523569D01*
X51810575Y35039039D01*
X57707732Y35039039D01*
X57943208Y34469143D01*
X58378849Y34032740D01*
X58948333Y33796270D01*
X59564961Y33795732D01*
X60134857Y34031208D01*
X60571260Y34466849D01*
X60807730Y35036333D01*
X60808268Y35652961D01*
X60572792Y36222857D01*
X60137151Y36659260D01*
X59567667Y36895730D01*
X58951039Y36896268D01*
X58381143Y36660792D01*
X57944740Y36225151D01*
X57708270Y35655667D01*
X57707732Y35039039D01*
X51810575Y35039039D01*
X51817748Y35056312D01*
X51818251Y35633157D01*
X51597967Y36166286D01*
X51190431Y36574533D01*
X50657688Y36795748D01*
X50080843Y36796251D01*
X49547714Y36575967D01*
X49139467Y36168431D01*
X48918252Y35635688D01*
X48917749Y35058843D01*
X39549239Y35058843D01*
X37431041Y37177041D01*
X37155281Y37361298D01*
X36830000Y37426000D01*
X29337113Y37426000D01*
X29297554Y37465628D01*
X28911774Y37625818D01*
X28494058Y37626182D01*
X28108000Y37466666D01*
X27812372Y37171554D01*
X27652182Y36785774D01*
X27651818Y36368058D01*
X10964023Y36368058D01*
X11261305Y36566695D01*
X11575625Y37037109D01*
X11686000Y37592000D01*
X11575625Y38146891D01*
X11261305Y38617305D01*
X10790891Y38931625D01*
X10236000Y39042000D01*
X9146000Y39042000D01*
X9146000Y39106000D01*
X10617000Y39106000D01*
X11171891Y39216375D01*
X11642305Y39530695D01*
X11956625Y40001109D01*
X11968109Y40058843D01*
X48917749Y40058843D01*
X49138033Y39525714D01*
X49545569Y39117467D01*
X50078312Y38896252D01*
X50655157Y38895749D01*
X51188286Y39116033D01*
X51596533Y39523569D01*
X51810575Y40039039D01*
X57707732Y40039039D01*
X57943208Y39469143D01*
X58378849Y39032740D01*
X58948333Y38796270D01*
X59564961Y38795732D01*
X60134857Y39031208D01*
X60571260Y39466849D01*
X60807730Y40036333D01*
X60808268Y40652961D01*
X60572792Y41222857D01*
X60137151Y41659260D01*
X59567667Y41895730D01*
X58951039Y41896268D01*
X58381143Y41660792D01*
X57944740Y41225151D01*
X57708270Y40655667D01*
X57707732Y40039039D01*
X51810575Y40039039D01*
X51817748Y40056312D01*
X51818251Y40633157D01*
X51597967Y41166286D01*
X51190431Y41574533D01*
X50657688Y41795748D01*
X50080843Y41796251D01*
X49547714Y41575967D01*
X49139467Y41168431D01*
X48918252Y40635688D01*
X48917749Y40058843D01*
X11968109Y40058843D01*
X12067000Y40556000D01*
X11956625Y41110891D01*
X11642305Y41581305D01*
X11487151Y41684975D01*
X11639727Y41748175D01*
X11824826Y41933273D01*
X11925000Y42175116D01*
X11925000Y42487500D01*
X11760500Y42652000D01*
X10721000Y42652000D01*
X10721000Y42632000D01*
X10513000Y42632000D01*
X10513000Y42652000D01*
X9473500Y42652000D01*
X9309000Y42487500D01*
X9309000Y42175116D01*
X9379050Y42006000D01*
X7871956Y42006000D01*
X7696000Y42041000D01*
X7141109Y41930625D01*
X6670695Y41616305D01*
X6608142Y41522688D01*
X6526081Y41469883D01*
X6423332Y41319505D01*
X6402003Y41214178D01*
X6356375Y41145891D01*
X6246000Y40591000D01*
X1150000Y40591000D01*
X1150000Y43722500D01*
X6188000Y43722500D01*
X6188000Y43310116D01*
X6288174Y43068273D01*
X6473273Y42883175D01*
X6715115Y42783000D01*
X7427500Y42783000D01*
X7592000Y42947500D01*
X7592000Y43887000D01*
X7800000Y43887000D01*
X7800000Y42947500D01*
X7964500Y42783000D01*
X8676885Y42783000D01*
X8918727Y42883175D01*
X9103826Y43068273D01*
X9204000Y43310116D01*
X9204000Y43336884D01*
X9309000Y43336884D01*
X9309000Y43024500D01*
X9473500Y42860000D01*
X10513000Y42860000D01*
X10513000Y43699500D01*
X10721000Y43699500D01*
X10721000Y42860000D01*
X11760500Y42860000D01*
X11925000Y43024500D01*
X11925000Y43336884D01*
X11824826Y43578727D01*
X11639727Y43763825D01*
X11397885Y43864000D01*
X10885500Y43864000D01*
X10721000Y43699500D01*
X10513000Y43699500D01*
X10348500Y43864000D01*
X9836115Y43864000D01*
X9594273Y43763825D01*
X9409174Y43578727D01*
X9309000Y43336884D01*
X9204000Y43336884D01*
X9204000Y43722500D01*
X9039500Y43887000D01*
X7800000Y43887000D01*
X7592000Y43887000D01*
X6352500Y43887000D01*
X6188000Y43722500D01*
X1150000Y43722500D01*
X1150000Y44671884D01*
X6188000Y44671884D01*
X6188000Y44259500D01*
X6352500Y44095000D01*
X7592000Y44095000D01*
X7592000Y45034500D01*
X7800000Y45034500D01*
X7800000Y44095000D01*
X9039500Y44095000D01*
X9204000Y44259500D01*
X9204000Y44671884D01*
X9103826Y44913727D01*
X8918727Y45098825D01*
X8676885Y45199000D01*
X7964500Y45199000D01*
X7800000Y45034500D01*
X7592000Y45034500D01*
X7427500Y45199000D01*
X6715115Y45199000D01*
X6473273Y45098825D01*
X6288174Y44913727D01*
X6188000Y44671884D01*
X1150000Y44671884D01*
X1150000Y48052058D01*
X27651818Y48052058D01*
X27811334Y47666000D01*
X28106446Y47370372D01*
X28492226Y47210182D01*
X28549786Y47210132D01*
X31910959Y43848959D01*
X32186719Y43664702D01*
X32512000Y43599999D01*
X32512005Y43600000D01*
X40004887Y43600000D01*
X40044446Y43560372D01*
X40430226Y43400182D01*
X40847942Y43399818D01*
X41234000Y43559334D01*
X41529628Y43854446D01*
X41689818Y44240226D01*
X41690182Y44657942D01*
X41530666Y45044000D01*
X41235554Y45339628D01*
X40849774Y45499818D01*
X40432058Y45500182D01*
X40046000Y45340666D01*
X40005263Y45300000D01*
X32864082Y45300000D01*
X32120582Y46043500D01*
X60668000Y46043500D01*
X60668000Y45731116D01*
X60768174Y45489273D01*
X60953273Y45304175D01*
X61195115Y45204000D01*
X61491854Y45204000D01*
X61175246Y44992450D01*
X61159240Y44989438D01*
X61006081Y44890883D01*
X60903332Y44740505D01*
X60869793Y44574884D01*
X60867345Y44571220D01*
X60776000Y44112000D01*
X60867345Y43652780D01*
X60869536Y43649501D01*
X60898562Y43495240D01*
X60997117Y43342081D01*
X61147495Y43239332D01*
X61152657Y43238287D01*
X61777472Y42613472D01*
X62166780Y42353345D01*
X62626000Y42262000D01*
X64935086Y42262000D01*
X64963569Y42233467D01*
X65496312Y42012252D01*
X66073157Y42011749D01*
X66606286Y42232033D01*
X66636305Y42262000D01*
X69200000Y42262000D01*
X69659220Y42353345D01*
X70048528Y42613472D01*
X70355899Y42920843D01*
X82877749Y42920843D01*
X83098033Y42387714D01*
X83505569Y41979467D01*
X84038312Y41758252D01*
X84615157Y41757749D01*
X85148286Y41978033D01*
X85556533Y42385569D01*
X85777748Y42918312D01*
X85778251Y43495157D01*
X85557967Y44028286D01*
X85150431Y44436533D01*
X84617688Y44657748D01*
X84040843Y44658251D01*
X83507714Y44437967D01*
X83099467Y44030431D01*
X82878252Y43497688D01*
X82877749Y42920843D01*
X70355899Y42920843D01*
X70674776Y43239720D01*
X70819919Y43333117D01*
X70922668Y43483495D01*
X70956207Y43649116D01*
X70958655Y43652780D01*
X71050000Y44112000D01*
X70958655Y44571220D01*
X70956464Y44574499D01*
X70927438Y44728760D01*
X70828883Y44881919D01*
X70678505Y44984668D01*
X70655396Y44989348D01*
X70334146Y45204000D01*
X70630885Y45204000D01*
X70872727Y45304175D01*
X71057826Y45489273D01*
X71086267Y45557937D01*
X83325016Y45557937D01*
X83420379Y45281832D01*
X84035239Y45043061D01*
X84694668Y45057762D01*
X84949126Y45163162D01*
X93492000Y45163162D01*
X93492000Y43482838D01*
X93587151Y43004484D01*
X93858117Y42598955D01*
X94263646Y42327989D01*
X94742000Y42232838D01*
X95220354Y42327989D01*
X95625883Y42598955D01*
X95896849Y43004484D01*
X95992000Y43482838D01*
X95992000Y45163162D01*
X95896849Y45641516D01*
X95625883Y46047045D01*
X95413356Y46189051D01*
X95529502Y46237161D01*
X95600404Y46492517D01*
X94742000Y47350922D01*
X93883596Y46492517D01*
X93954498Y46237161D01*
X94074592Y46191689D01*
X93858117Y46047045D01*
X93587151Y45641516D01*
X93492000Y45163162D01*
X84949126Y45163162D01*
X85235621Y45281832D01*
X85330984Y45557937D01*
X84328000Y46560922D01*
X83325016Y45557937D01*
X71086267Y45557937D01*
X71158000Y45731116D01*
X71158000Y46043500D01*
X70993500Y46208000D01*
X69954000Y46208000D01*
X69954000Y46188000D01*
X69746000Y46188000D01*
X69746000Y46208000D01*
X68706500Y46208000D01*
X68542000Y46043500D01*
X68542000Y45731116D01*
X68642174Y45489273D01*
X68827273Y45304175D01*
X69069115Y45204000D01*
X69365854Y45204000D01*
X69049246Y44992450D01*
X69033240Y44989438D01*
X68880081Y44890883D01*
X68777332Y44740505D01*
X68776287Y44735343D01*
X68702944Y44662000D01*
X66636914Y44662000D01*
X66608431Y44690533D01*
X66075688Y44911748D01*
X65498843Y44912251D01*
X64965714Y44691967D01*
X64935695Y44662000D01*
X63123056Y44662000D01*
X63048280Y44736776D01*
X62954883Y44881919D01*
X62804505Y44984668D01*
X62781396Y44989348D01*
X62460146Y45204000D01*
X62756885Y45204000D01*
X62998727Y45304175D01*
X63183826Y45489273D01*
X63284000Y45731116D01*
X63284000Y45811937D01*
X64783016Y45811937D01*
X64878379Y45535832D01*
X65493239Y45297061D01*
X66152668Y45311762D01*
X66693621Y45535832D01*
X66788984Y45811937D01*
X65786000Y46814922D01*
X64783016Y45811937D01*
X63284000Y45811937D01*
X63284000Y46043500D01*
X63119500Y46208000D01*
X62080000Y46208000D01*
X62080000Y46188000D01*
X61872000Y46188000D01*
X61872000Y46208000D01*
X60832500Y46208000D01*
X60668000Y46043500D01*
X32120582Y46043500D01*
X31271198Y46892884D01*
X60668000Y46892884D01*
X60668000Y46580500D01*
X60832500Y46416000D01*
X61872000Y46416000D01*
X61872000Y47255500D01*
X62080000Y47255500D01*
X62080000Y46416000D01*
X63119500Y46416000D01*
X63284000Y46580500D01*
X63284000Y46892884D01*
X63183826Y47134727D01*
X63063792Y47254761D01*
X64121061Y47254761D01*
X64135762Y46595332D01*
X64359832Y46054379D01*
X64635937Y45959016D01*
X65638922Y46962000D01*
X65933078Y46962000D01*
X66936063Y45959016D01*
X67212168Y46054379D01*
X67450939Y46669239D01*
X67445954Y46892884D01*
X68542000Y46892884D01*
X68542000Y46580500D01*
X68706500Y46416000D01*
X69746000Y46416000D01*
X69746000Y47255500D01*
X69954000Y47255500D01*
X69954000Y46416000D01*
X70993500Y46416000D01*
X71158000Y46580500D01*
X71158000Y46892884D01*
X71113317Y47000761D01*
X82663061Y47000761D01*
X82677762Y46341332D01*
X82901832Y45800379D01*
X83177937Y45705016D01*
X84180922Y46708000D01*
X84475078Y46708000D01*
X85478063Y45705016D01*
X85754168Y45800379D01*
X85992939Y46415239D01*
X85978238Y47074668D01*
X85754168Y47615621D01*
X85478063Y47710984D01*
X84475078Y46708000D01*
X84180922Y46708000D01*
X83177937Y47710984D01*
X82901832Y47615621D01*
X82663061Y47000761D01*
X71113317Y47000761D01*
X71057826Y47134727D01*
X70872727Y47319825D01*
X70630885Y47420000D01*
X70118500Y47420000D01*
X69954000Y47255500D01*
X69746000Y47255500D01*
X69581500Y47420000D01*
X69069115Y47420000D01*
X68827273Y47319825D01*
X68642174Y47134727D01*
X68542000Y46892884D01*
X67445954Y46892884D01*
X67436238Y47328668D01*
X67216956Y47858063D01*
X83325016Y47858063D01*
X84328000Y46855078D01*
X85215975Y47743054D01*
X93275772Y47743054D01*
X93293603Y47163299D01*
X93481161Y46710498D01*
X93736517Y46639596D01*
X94594922Y47498000D01*
X94889078Y47498000D01*
X95747483Y46639596D01*
X96002839Y46710498D01*
X96208228Y47252946D01*
X96190397Y47832701D01*
X96002839Y48285502D01*
X95747483Y48356404D01*
X94889078Y47498000D01*
X94594922Y47498000D01*
X93736517Y48356404D01*
X93481161Y48285502D01*
X93275772Y47743054D01*
X85215975Y47743054D01*
X85330984Y47858063D01*
X85235621Y48134168D01*
X84620761Y48372939D01*
X83961332Y48358238D01*
X83420379Y48134168D01*
X83325016Y47858063D01*
X67216956Y47858063D01*
X67212168Y47869621D01*
X66936063Y47964984D01*
X65933078Y46962000D01*
X65638922Y46962000D01*
X64635937Y47964984D01*
X64359832Y47869621D01*
X64121061Y47254761D01*
X63063792Y47254761D01*
X62998727Y47319825D01*
X62756885Y47420000D01*
X62244500Y47420000D01*
X62080000Y47255500D01*
X61872000Y47255500D01*
X61707500Y47420000D01*
X61195115Y47420000D01*
X60953273Y47319825D01*
X60768174Y47134727D01*
X60668000Y46892884D01*
X31271198Y46892884D01*
X30052019Y48112063D01*
X64783016Y48112063D01*
X65786000Y47109078D01*
X66788984Y48112063D01*
X66693621Y48388168D01*
X66396673Y48503483D01*
X93883596Y48503483D01*
X94742000Y47645078D01*
X95600404Y48503483D01*
X95529502Y48758839D01*
X94987054Y48964228D01*
X94407299Y48946397D01*
X93954498Y48758839D01*
X93883596Y48503483D01*
X66396673Y48503483D01*
X66078761Y48626939D01*
X65419332Y48612238D01*
X64878379Y48388168D01*
X64783016Y48112063D01*
X30052019Y48112063D01*
X29752133Y48411949D01*
X29752182Y48467942D01*
X29592666Y48854000D01*
X29297554Y49149628D01*
X28911774Y49309818D01*
X28494058Y49310182D01*
X28108000Y49150666D01*
X27812372Y48855554D01*
X27652182Y48469774D01*
X27651818Y48052058D01*
X1150000Y48052058D01*
X1150000Y49784000D01*
X32840000Y49784000D01*
X32950375Y49229109D01*
X33264695Y48758695D01*
X33735109Y48444375D01*
X34290000Y48334000D01*
X41402000Y48334000D01*
X41956891Y48444375D01*
X42427305Y48758695D01*
X42741625Y49229109D01*
X42852000Y49784000D01*
X42741625Y50338891D01*
X42427305Y50809305D01*
X41956891Y51123625D01*
X41402000Y51234000D01*
X34290000Y51234000D01*
X33735109Y51123625D01*
X33264695Y50809305D01*
X32950375Y50338891D01*
X32840000Y49784000D01*
X1150000Y49784000D01*
X1150000Y51963937D01*
X64783016Y51963937D01*
X64878379Y51687832D01*
X65493239Y51449061D01*
X66152668Y51463762D01*
X66693621Y51687832D01*
X66788984Y51963937D01*
X65786000Y52966922D01*
X64783016Y51963937D01*
X1150000Y51963937D01*
X1150000Y53495500D01*
X60668000Y53495500D01*
X60668000Y53183116D01*
X60768174Y52941273D01*
X60953273Y52756175D01*
X61195115Y52656000D01*
X61707500Y52656000D01*
X61872000Y52820500D01*
X61872000Y53660000D01*
X62080000Y53660000D01*
X62080000Y52820500D01*
X62244500Y52656000D01*
X62756885Y52656000D01*
X62998727Y52756175D01*
X63183826Y52941273D01*
X63284000Y53183116D01*
X63284000Y53406761D01*
X64121061Y53406761D01*
X64135762Y52747332D01*
X64359832Y52206379D01*
X64635937Y52111016D01*
X65638922Y53114000D01*
X65933078Y53114000D01*
X66936063Y52111016D01*
X67212168Y52206379D01*
X67216656Y52217937D01*
X83071016Y52217937D01*
X83166379Y51941832D01*
X83781239Y51703061D01*
X84440668Y51717762D01*
X84981621Y51941832D01*
X85076984Y52217937D01*
X84074000Y53220922D01*
X83071016Y52217937D01*
X67216656Y52217937D01*
X67450939Y52821239D01*
X67436238Y53480668D01*
X67430095Y53495500D01*
X68542000Y53495500D01*
X68542000Y53183116D01*
X68642174Y52941273D01*
X68827273Y52756175D01*
X69069115Y52656000D01*
X69581500Y52656000D01*
X69746000Y52820500D01*
X69746000Y53660000D01*
X69954000Y53660000D01*
X69954000Y52820500D01*
X70118500Y52656000D01*
X70630885Y52656000D01*
X70872727Y52756175D01*
X71057826Y52941273D01*
X71158000Y53183116D01*
X71158000Y53495500D01*
X70993500Y53660000D01*
X69954000Y53660000D01*
X69746000Y53660000D01*
X68706500Y53660000D01*
X68542000Y53495500D01*
X67430095Y53495500D01*
X67361642Y53660761D01*
X82409061Y53660761D01*
X82423762Y53001332D01*
X82647832Y52460379D01*
X82923937Y52365016D01*
X83926922Y53368000D01*
X84221078Y53368000D01*
X85224063Y52365016D01*
X85500168Y52460379D01*
X85738939Y53075239D01*
X85735356Y53236000D01*
X93284000Y53236000D01*
X93284000Y52436000D01*
X93434783Y51885964D01*
X93784578Y51435499D01*
X94280132Y51153185D01*
X94411780Y51119888D01*
X94638000Y51250688D01*
X94638000Y53236000D01*
X94846000Y53236000D01*
X94846000Y51250688D01*
X95072220Y51119888D01*
X95203868Y51153185D01*
X95699422Y51435499D01*
X96049217Y51885964D01*
X96200000Y52436000D01*
X96200000Y53236000D01*
X94846000Y53236000D01*
X94638000Y53236000D01*
X93284000Y53236000D01*
X85735356Y53236000D01*
X85724238Y53734668D01*
X85513266Y54244000D01*
X93284000Y54244000D01*
X93284000Y53444000D01*
X94638000Y53444000D01*
X94638000Y53464000D01*
X94846000Y53464000D01*
X94846000Y53444000D01*
X96200000Y53444000D01*
X96200000Y54244000D01*
X96049217Y54794036D01*
X95699422Y55244501D01*
X95380365Y55426266D01*
X95449143Y55454684D01*
X95801081Y55806007D01*
X95991783Y56265269D01*
X95992217Y56762550D01*
X95802316Y57222143D01*
X95450993Y57574081D01*
X94991731Y57764783D01*
X94494450Y57765217D01*
X94034857Y57575316D01*
X93682919Y57223993D01*
X93492217Y56764731D01*
X93491783Y56267450D01*
X93681684Y55807857D01*
X94033007Y55455919D01*
X94103966Y55426454D01*
X93784578Y55244501D01*
X93434783Y54794036D01*
X93284000Y54244000D01*
X85513266Y54244000D01*
X85500168Y54275621D01*
X85224063Y54370984D01*
X84221078Y53368000D01*
X83926922Y53368000D01*
X82923937Y54370984D01*
X82647832Y54275621D01*
X82409061Y53660761D01*
X67361642Y53660761D01*
X67212168Y54021621D01*
X66936063Y54116984D01*
X65933078Y53114000D01*
X65638922Y53114000D01*
X64635937Y54116984D01*
X64359832Y54021621D01*
X64121061Y53406761D01*
X63284000Y53406761D01*
X63284000Y53495500D01*
X63119500Y53660000D01*
X62080000Y53660000D01*
X61872000Y53660000D01*
X60832500Y53660000D01*
X60668000Y53495500D01*
X1150000Y53495500D01*
X1150000Y54344884D01*
X60668000Y54344884D01*
X60668000Y54032500D01*
X60832500Y53868000D01*
X61872000Y53868000D01*
X61872000Y53888000D01*
X62080000Y53888000D01*
X62080000Y53868000D01*
X63119500Y53868000D01*
X63284000Y54032500D01*
X63284000Y54264063D01*
X64783016Y54264063D01*
X65786000Y53261078D01*
X66788984Y54264063D01*
X66693621Y54540168D01*
X66078761Y54778939D01*
X65419332Y54764238D01*
X64878379Y54540168D01*
X64783016Y54264063D01*
X63284000Y54264063D01*
X63284000Y54344884D01*
X63183826Y54586727D01*
X62998727Y54771825D01*
X62756885Y54872000D01*
X62460146Y54872000D01*
X62776754Y55083550D01*
X62792760Y55086562D01*
X62945919Y55185117D01*
X63048668Y55335495D01*
X63049713Y55340657D01*
X63123056Y55414000D01*
X64935086Y55414000D01*
X64963569Y55385467D01*
X65496312Y55164252D01*
X66073157Y55163749D01*
X66606286Y55384033D01*
X66636305Y55414000D01*
X68702944Y55414000D01*
X68777720Y55339224D01*
X68871117Y55194081D01*
X69021495Y55091332D01*
X69044604Y55086652D01*
X69365854Y54872000D01*
X69069115Y54872000D01*
X68827273Y54771825D01*
X68642174Y54586727D01*
X68542000Y54344884D01*
X68542000Y54032500D01*
X68706500Y53868000D01*
X69746000Y53868000D01*
X69746000Y53888000D01*
X69954000Y53888000D01*
X69954000Y53868000D01*
X70993500Y53868000D01*
X71158000Y54032500D01*
X71158000Y54344884D01*
X71086268Y54518063D01*
X83071016Y54518063D01*
X84074000Y53515078D01*
X85076984Y54518063D01*
X84981621Y54794168D01*
X84366761Y55032939D01*
X83707332Y55018238D01*
X83166379Y54794168D01*
X83071016Y54518063D01*
X71086268Y54518063D01*
X71057826Y54586727D01*
X70872727Y54771825D01*
X70630885Y54872000D01*
X70334146Y54872000D01*
X70650754Y55083550D01*
X70666760Y55086562D01*
X70819919Y55185117D01*
X70922668Y55335495D01*
X70956207Y55501116D01*
X70958655Y55504780D01*
X71050000Y55964000D01*
X70958655Y56423220D01*
X70956464Y56426499D01*
X70927438Y56580760D01*
X70927385Y56580843D01*
X82623749Y56580843D01*
X82844033Y56047714D01*
X83251569Y55639467D01*
X83784312Y55418252D01*
X84361157Y55417749D01*
X84894286Y55638033D01*
X85302533Y56045569D01*
X85523748Y56578312D01*
X85524251Y57155157D01*
X85303967Y57688286D01*
X84896431Y58096533D01*
X84363688Y58317748D01*
X83786843Y58318251D01*
X83253714Y58097967D01*
X82845467Y57690431D01*
X82624252Y57157688D01*
X82623749Y56580843D01*
X70927385Y56580843D01*
X70828883Y56733919D01*
X70678505Y56836668D01*
X70673343Y56837713D01*
X70048528Y57462528D01*
X69659220Y57722655D01*
X69200000Y57814000D01*
X66636914Y57814000D01*
X66608431Y57842533D01*
X66075688Y58063748D01*
X65498843Y58064251D01*
X64965714Y57843967D01*
X64935695Y57814000D01*
X62626000Y57814000D01*
X62166780Y57722655D01*
X61777472Y57462528D01*
X61151224Y56836280D01*
X61006081Y56742883D01*
X60903332Y56592505D01*
X60869793Y56426884D01*
X60867345Y56423220D01*
X60776000Y55964000D01*
X60867345Y55504780D01*
X60869536Y55501501D01*
X60898562Y55347240D01*
X60997117Y55194081D01*
X61147495Y55091332D01*
X61170604Y55086652D01*
X61491854Y54872000D01*
X61195115Y54872000D01*
X60953273Y54771825D01*
X60768174Y54586727D01*
X60668000Y54344884D01*
X1150000Y54344884D01*
X1150000Y56324500D01*
X6188000Y56324500D01*
X6188000Y55912116D01*
X6288174Y55670273D01*
X6473273Y55485175D01*
X6715115Y55385000D01*
X7427500Y55385000D01*
X7592000Y55549500D01*
X7592000Y56489000D01*
X7800000Y56489000D01*
X7800000Y55549500D01*
X7964500Y55385000D01*
X8676885Y55385000D01*
X8918727Y55485175D01*
X9103826Y55670273D01*
X9204000Y55912116D01*
X9204000Y56324500D01*
X9039500Y56489000D01*
X7800000Y56489000D01*
X7592000Y56489000D01*
X6352500Y56489000D01*
X6188000Y56324500D01*
X1150000Y56324500D01*
X1150000Y57273884D01*
X6188000Y57273884D01*
X6188000Y56861500D01*
X6352500Y56697000D01*
X7592000Y56697000D01*
X7592000Y57636500D01*
X7800000Y57636500D01*
X7800000Y56697000D01*
X9039500Y56697000D01*
X9204000Y56861500D01*
X9204000Y57273884D01*
X9103826Y57515727D01*
X9060053Y57559500D01*
X9309000Y57559500D01*
X9309000Y57247116D01*
X9409174Y57005273D01*
X9594273Y56820175D01*
X9836115Y56720000D01*
X10348500Y56720000D01*
X10513000Y56884500D01*
X10513000Y57724000D01*
X10721000Y57724000D01*
X10721000Y56884500D01*
X10885500Y56720000D01*
X11397885Y56720000D01*
X11639727Y56820175D01*
X11824826Y57005273D01*
X11925000Y57247116D01*
X11925000Y57559500D01*
X11760500Y57724000D01*
X10721000Y57724000D01*
X10513000Y57724000D01*
X9473500Y57724000D01*
X9309000Y57559500D01*
X9060053Y57559500D01*
X8918727Y57700825D01*
X8676885Y57801000D01*
X7964500Y57801000D01*
X7800000Y57636500D01*
X7592000Y57636500D01*
X7427500Y57801000D01*
X6715115Y57801000D01*
X6473273Y57700825D01*
X6288174Y57515727D01*
X6188000Y57273884D01*
X1150000Y57273884D01*
X1150000Y85852000D01*
X6246000Y85852000D01*
X6246000Y59993000D01*
X6356375Y59438109D01*
X6400542Y59372008D01*
X6418562Y59276240D01*
X6517117Y59123081D01*
X6608666Y59060528D01*
X6670695Y58967695D01*
X7141109Y58653375D01*
X7696000Y58543000D01*
X7871956Y58578000D01*
X9379050Y58578000D01*
X9309000Y58408884D01*
X9309000Y58096500D01*
X9473500Y57932000D01*
X10513000Y57932000D01*
X10513000Y57952000D01*
X10721000Y57952000D01*
X10721000Y57932000D01*
X11760500Y57932000D01*
X11925000Y58096500D01*
X11925000Y58408884D01*
X11824826Y58650727D01*
X11639727Y58835825D01*
X11487151Y58899025D01*
X11642305Y59002695D01*
X11956625Y59473109D01*
X12008928Y59736058D01*
X27651818Y59736058D01*
X27811334Y59350000D01*
X28106446Y59054372D01*
X28492226Y58894182D01*
X28909942Y58893818D01*
X29296000Y59053334D01*
X29336737Y59094000D01*
X36477918Y59094000D01*
X39589867Y55982051D01*
X39589818Y55926058D01*
X39749334Y55540000D01*
X40044446Y55244372D01*
X40430226Y55084182D01*
X40847942Y55083818D01*
X41234000Y55243334D01*
X41529628Y55538446D01*
X41689818Y55924226D01*
X41690182Y56341942D01*
X41530666Y56728000D01*
X41235554Y57023628D01*
X40849774Y57183818D01*
X40792214Y57183868D01*
X38533239Y59442843D01*
X48917749Y59442843D01*
X49138033Y58909714D01*
X49545569Y58501467D01*
X50078312Y58280252D01*
X50655157Y58279749D01*
X51188286Y58500033D01*
X51596533Y58907569D01*
X51810575Y59423039D01*
X57707732Y59423039D01*
X57943208Y58853143D01*
X58378849Y58416740D01*
X58948333Y58180270D01*
X59564961Y58179732D01*
X60134857Y58415208D01*
X60571260Y58850849D01*
X60807730Y59420333D01*
X60808268Y60036961D01*
X60572792Y60606857D01*
X60137151Y61043260D01*
X59567667Y61279730D01*
X58951039Y61280268D01*
X58381143Y61044792D01*
X57944740Y60609151D01*
X57708270Y60039667D01*
X57707732Y59423039D01*
X51810575Y59423039D01*
X51817748Y59440312D01*
X51818251Y60017157D01*
X51597967Y60550286D01*
X51190431Y60958533D01*
X50657688Y61179748D01*
X50080843Y61180251D01*
X49547714Y60959967D01*
X49139467Y60552431D01*
X48918252Y60019688D01*
X48917749Y59442843D01*
X38533239Y59442843D01*
X37431041Y60545041D01*
X37155281Y60729298D01*
X36830000Y60794000D01*
X29337113Y60794000D01*
X29297554Y60833628D01*
X28911774Y60993818D01*
X28494058Y60994182D01*
X28108000Y60834666D01*
X27812372Y60539554D01*
X27652182Y60153774D01*
X27651818Y59736058D01*
X12008928Y59736058D01*
X12067000Y60028000D01*
X11956625Y60582891D01*
X11642305Y61053305D01*
X11171891Y61367625D01*
X10617000Y61478000D01*
X9146000Y61478000D01*
X9146000Y61542000D01*
X10236000Y61542000D01*
X10790891Y61652375D01*
X11261305Y61966695D01*
X11575625Y62437109D01*
X11686000Y62992000D01*
X11575625Y63546891D01*
X11261305Y64017305D01*
X10790891Y64331625D01*
X10664852Y64356696D01*
X10873342Y64442843D01*
X48917749Y64442843D01*
X49138033Y63909714D01*
X49545569Y63501467D01*
X50078312Y63280252D01*
X50655157Y63279749D01*
X51188286Y63500033D01*
X51596533Y63907569D01*
X51810575Y64423039D01*
X57707732Y64423039D01*
X57943208Y63853143D01*
X58378849Y63416740D01*
X58948333Y63180270D01*
X59564961Y63179732D01*
X60134857Y63415208D01*
X60571260Y63850849D01*
X60807730Y64420333D01*
X60808268Y65036961D01*
X60572792Y65606857D01*
X60137151Y66043260D01*
X59567667Y66279730D01*
X58951039Y66280268D01*
X58381143Y66044792D01*
X57944740Y65609151D01*
X57708270Y65039667D01*
X57707732Y64423039D01*
X51810575Y64423039D01*
X51817748Y64440312D01*
X51818251Y65017157D01*
X51597967Y65550286D01*
X51190431Y65958533D01*
X50657688Y66179748D01*
X50080843Y66180251D01*
X49547714Y65959967D01*
X49139467Y65552431D01*
X48918252Y65019688D01*
X48917749Y64442843D01*
X10873342Y64442843D01*
X10943143Y64471684D01*
X11295081Y64823007D01*
X11485783Y65282269D01*
X11486217Y65779550D01*
X11296316Y66239143D01*
X10944993Y66591081D01*
X10485731Y66781783D01*
X9988450Y66782217D01*
X9528857Y66592316D01*
X9176919Y66240993D01*
X9146000Y66166532D01*
X9146000Y67436697D01*
X9175684Y67364857D01*
X9527007Y67012919D01*
X9986269Y66822217D01*
X10483550Y66821783D01*
X10943143Y67011684D01*
X11295081Y67363007D01*
X11485783Y67822269D01*
X11486217Y68319550D01*
X11296316Y68779143D01*
X10944993Y69131081D01*
X10485731Y69321783D01*
X9988450Y69322217D01*
X9528857Y69132316D01*
X9176919Y68780993D01*
X9146000Y68706532D01*
X9146000Y69976697D01*
X9175684Y69904857D01*
X9527007Y69552919D01*
X9986269Y69362217D01*
X10483550Y69361783D01*
X10943143Y69551684D01*
X11295081Y69903007D01*
X11485783Y70362269D01*
X11486217Y70859550D01*
X11296316Y71319143D01*
X11195578Y71420058D01*
X27651818Y71420058D01*
X27811334Y71034000D01*
X28106446Y70738372D01*
X28348732Y70637766D01*
X31840249Y67146248D01*
X32148450Y66940314D01*
X32512000Y66868000D01*
X40189838Y66868000D01*
X40430226Y66768182D01*
X40847942Y66767818D01*
X41234000Y66927334D01*
X41529628Y67222446D01*
X41689818Y67608226D01*
X41690182Y68025942D01*
X41530666Y68412000D01*
X41235554Y68707628D01*
X40849774Y68867818D01*
X40432058Y68868182D01*
X40189599Y68768000D01*
X32905503Y68768000D01*
X32598464Y69075039D01*
X48817732Y69075039D01*
X49053208Y68505143D01*
X49488849Y68068740D01*
X50058333Y67832270D01*
X50674961Y67831732D01*
X51244857Y68067208D01*
X51681260Y68502849D01*
X51917730Y69072333D01*
X51917749Y69094843D01*
X57807749Y69094843D01*
X58028033Y68561714D01*
X58435569Y68153467D01*
X58968312Y67932252D01*
X59545157Y67931749D01*
X60078286Y68152033D01*
X60486533Y68559569D01*
X60707748Y69092312D01*
X60708251Y69669157D01*
X60487967Y70202286D01*
X60080431Y70610533D01*
X59547688Y70831748D01*
X58970843Y70832251D01*
X58437714Y70611967D01*
X58029467Y70204431D01*
X57808252Y69671688D01*
X57807749Y69094843D01*
X51917749Y69094843D01*
X51918268Y69688961D01*
X51682792Y70258857D01*
X51247151Y70695260D01*
X50820430Y70872450D01*
X79089783Y70872450D01*
X79279684Y70412857D01*
X79631007Y70060919D01*
X80090269Y69870217D01*
X80587550Y69869783D01*
X81047143Y70059684D01*
X81102071Y70114517D01*
X82021596Y70114517D01*
X82092498Y69859161D01*
X82634946Y69653772D01*
X83214701Y69671603D01*
X83667502Y69859161D01*
X83738404Y70114517D01*
X82880000Y70972922D01*
X82021596Y70114517D01*
X81102071Y70114517D01*
X81399081Y70411007D01*
X81492976Y70637132D01*
X81619161Y70332498D01*
X81874517Y70261596D01*
X82732922Y71120000D01*
X83027078Y71120000D01*
X83885483Y70261596D01*
X84140839Y70332498D01*
X84346228Y70874946D01*
X84328397Y71454701D01*
X84140839Y71907502D01*
X83885483Y71978404D01*
X83027078Y71120000D01*
X82732922Y71120000D01*
X81874517Y71978404D01*
X81619161Y71907502D01*
X81498637Y71589189D01*
X81400316Y71827143D01*
X81102498Y72125483D01*
X82021596Y72125483D01*
X82880000Y71267078D01*
X83738404Y72125483D01*
X83667502Y72380839D01*
X83125054Y72586228D01*
X82545299Y72568397D01*
X82092498Y72380839D01*
X82021596Y72125483D01*
X81102498Y72125483D01*
X81048993Y72179081D01*
X80589731Y72369783D01*
X80092450Y72370217D01*
X79632857Y72180316D01*
X79280919Y71828993D01*
X79090217Y71369731D01*
X79089783Y70872450D01*
X50820430Y70872450D01*
X50677667Y70931730D01*
X50061039Y70932268D01*
X49491143Y70696792D01*
X49054740Y70261151D01*
X48818270Y69691667D01*
X48817732Y69075039D01*
X32598464Y69075039D01*
X29692064Y71981438D01*
X29592666Y72222000D01*
X29297554Y72517628D01*
X28911774Y72677818D01*
X28494058Y72678182D01*
X28108000Y72518666D01*
X27812372Y72223554D01*
X27652182Y71837774D01*
X27651818Y71420058D01*
X11195578Y71420058D01*
X10944993Y71671081D01*
X10485731Y71861783D01*
X9988450Y71862217D01*
X9528857Y71672316D01*
X9176919Y71320993D01*
X9146000Y71246532D01*
X9146000Y72516697D01*
X9175684Y72444857D01*
X9527007Y72092919D01*
X9986269Y71902217D01*
X10483550Y71901783D01*
X10943143Y72091684D01*
X11295081Y72443007D01*
X11485783Y72902269D01*
X11486217Y73399550D01*
X11296316Y73859143D01*
X10944993Y74211081D01*
X10485731Y74401783D01*
X9988450Y74402217D01*
X9528857Y74212316D01*
X9176919Y73860993D01*
X9146000Y73786532D01*
X9146000Y75056697D01*
X9175684Y74984857D01*
X9527007Y74632919D01*
X9986269Y74442217D01*
X10483550Y74441783D01*
X10943143Y74631684D01*
X11295081Y74983007D01*
X11485783Y75442269D01*
X11486217Y75939550D01*
X11296316Y76399143D01*
X10944993Y76751081D01*
X10485731Y76941783D01*
X9988450Y76942217D01*
X9528857Y76752316D01*
X9176919Y76400993D01*
X9146000Y76326532D01*
X9146000Y77596697D01*
X9175684Y77524857D01*
X9527007Y77172919D01*
X9986269Y76982217D01*
X10483550Y76981783D01*
X10943143Y77171684D01*
X11295081Y77523007D01*
X11485783Y77982269D01*
X11486217Y78479550D01*
X11296316Y78939143D01*
X10944993Y79291081D01*
X10485731Y79481783D01*
X9988450Y79482217D01*
X9528857Y79292316D01*
X9176919Y78940993D01*
X9146000Y78866532D01*
X9146000Y80136697D01*
X9175684Y80064857D01*
X9527007Y79712919D01*
X9986269Y79522217D01*
X10483550Y79521783D01*
X10943143Y79711684D01*
X11295081Y80063007D01*
X11484010Y80518000D01*
X31427000Y80518000D01*
X31427000Y71501000D01*
X31457775Y71337444D01*
X31554437Y71187228D01*
X31701925Y71086454D01*
X31877000Y71051000D01*
X35560000Y71051000D01*
X35723556Y71081775D01*
X35873772Y71178437D01*
X35974546Y71325925D01*
X36010000Y71501000D01*
X36010000Y75242000D01*
X36126000Y75242000D01*
X36126000Y73152000D01*
X36156775Y72988444D01*
X36253437Y72838228D01*
X36400925Y72737454D01*
X36576000Y72702000D01*
X39370000Y72702000D01*
X39533556Y72732775D01*
X39683772Y72829437D01*
X39784546Y72976925D01*
X39820000Y73152000D01*
X39820000Y74075039D01*
X48817732Y74075039D01*
X49053208Y73505143D01*
X49488849Y73068740D01*
X50058333Y72832270D01*
X50674961Y72831732D01*
X51244857Y73067208D01*
X51681260Y73502849D01*
X51917730Y74072333D01*
X51917749Y74094843D01*
X57807749Y74094843D01*
X58028033Y73561714D01*
X58435569Y73153467D01*
X58968312Y72932252D01*
X59545157Y72931749D01*
X60078286Y73152033D01*
X60486533Y73559569D01*
X60707748Y74092312D01*
X60708251Y74669157D01*
X60487967Y75202286D01*
X60080431Y75610533D01*
X59547688Y75831748D01*
X58970843Y75832251D01*
X58437714Y75611967D01*
X58029467Y75204431D01*
X57808252Y74671688D01*
X57807749Y74094843D01*
X51917749Y74094843D01*
X51918268Y74688961D01*
X51682792Y75258857D01*
X51247151Y75695260D01*
X50677667Y75931730D01*
X50061039Y75932268D01*
X49491143Y75696792D01*
X49054740Y75261151D01*
X48818270Y74691667D01*
X48817732Y74075039D01*
X39820000Y74075039D01*
X39820000Y77724000D01*
X39789225Y77887556D01*
X39692563Y78037772D01*
X39545075Y78138546D01*
X39370000Y78174000D01*
X37788000Y78174000D01*
X37788000Y80518000D01*
X37757225Y80681556D01*
X37660563Y80831772D01*
X37513075Y80932546D01*
X37338000Y80968000D01*
X34798000Y80968000D01*
X34634444Y80937225D01*
X34609098Y80920915D01*
X34592075Y80932546D01*
X34417000Y80968000D01*
X31877000Y80968000D01*
X31713444Y80937225D01*
X31563228Y80840563D01*
X31462454Y80693075D01*
X31427000Y80518000D01*
X11484010Y80518000D01*
X11485783Y80522269D01*
X11486217Y81019550D01*
X11296316Y81479143D01*
X10944993Y81831081D01*
X10485731Y82021783D01*
X9988450Y82022217D01*
X9528857Y81832316D01*
X9176919Y81480993D01*
X9146000Y81406532D01*
X9146000Y82676697D01*
X9175684Y82604857D01*
X9527007Y82252919D01*
X9986269Y82062217D01*
X10483550Y82061783D01*
X10589352Y82105500D01*
X12919000Y82105500D01*
X12919000Y81693116D01*
X13019174Y81451273D01*
X13204273Y81266175D01*
X13446115Y81166000D01*
X14158500Y81166000D01*
X14323000Y81330500D01*
X14323000Y82270000D01*
X14531000Y82270000D01*
X14531000Y81330500D01*
X14695500Y81166000D01*
X15407885Y81166000D01*
X15649727Y81266175D01*
X15834826Y81451273D01*
X15935000Y81693116D01*
X15935000Y82105500D01*
X15770500Y82270000D01*
X14531000Y82270000D01*
X14323000Y82270000D01*
X13083500Y82270000D01*
X12919000Y82105500D01*
X10589352Y82105500D01*
X10943143Y82251684D01*
X11295081Y82603007D01*
X11482716Y83054884D01*
X12919000Y83054884D01*
X12919000Y82642500D01*
X13083500Y82478000D01*
X14323000Y82478000D01*
X14323000Y83417500D01*
X14531000Y83417500D01*
X14531000Y82478000D01*
X15770500Y82478000D01*
X15935000Y82642500D01*
X15935000Y83054884D01*
X15834826Y83296727D01*
X15791053Y83340500D01*
X16294000Y83340500D01*
X16294000Y83028116D01*
X16394174Y82786273D01*
X16579273Y82601175D01*
X16821115Y82501000D01*
X17333500Y82501000D01*
X17498000Y82665500D01*
X17498000Y83505000D01*
X17706000Y83505000D01*
X17706000Y82665500D01*
X17870500Y82501000D01*
X18382885Y82501000D01*
X18624727Y82601175D01*
X18809826Y82786273D01*
X18910000Y83028116D01*
X18910000Y83104058D01*
X27651818Y83104058D01*
X27811334Y82718000D01*
X28106446Y82422372D01*
X28492226Y82262182D01*
X28909942Y82261818D01*
X29296000Y82421334D01*
X29336737Y82462000D01*
X36477918Y82462000D01*
X39589867Y79350051D01*
X39589818Y79294058D01*
X39749334Y78908000D01*
X40044446Y78612372D01*
X40430226Y78452182D01*
X40847942Y78451818D01*
X41234000Y78611334D01*
X41369745Y78746843D01*
X48917749Y78746843D01*
X49138033Y78213714D01*
X49545569Y77805467D01*
X50078312Y77584252D01*
X50655157Y77583749D01*
X51188286Y77804033D01*
X51596533Y78211569D01*
X51810575Y78727039D01*
X57707732Y78727039D01*
X57943208Y78157143D01*
X58378849Y77720740D01*
X58948333Y77484270D01*
X59564961Y77483732D01*
X60134857Y77719208D01*
X60571260Y78154849D01*
X60711443Y78492450D01*
X79089783Y78492450D01*
X79279684Y78032857D01*
X79631007Y77680919D01*
X80090269Y77490217D01*
X80587550Y77489783D01*
X81047143Y77679684D01*
X81102071Y77734517D01*
X82021596Y77734517D01*
X82092498Y77479161D01*
X82634946Y77273772D01*
X83214701Y77291603D01*
X83667502Y77479161D01*
X83738404Y77734517D01*
X82880000Y78592922D01*
X82021596Y77734517D01*
X81102071Y77734517D01*
X81399081Y78031007D01*
X81492976Y78257132D01*
X81619161Y77952498D01*
X81874517Y77881596D01*
X82732922Y78740000D01*
X83027078Y78740000D01*
X83885483Y77881596D01*
X84140839Y77952498D01*
X84346228Y78494946D01*
X84328397Y79074701D01*
X84140839Y79527502D01*
X83885483Y79598404D01*
X83027078Y78740000D01*
X82732922Y78740000D01*
X81874517Y79598404D01*
X81619161Y79527502D01*
X81498637Y79209189D01*
X81400316Y79447143D01*
X81102498Y79745483D01*
X82021596Y79745483D01*
X82880000Y78887078D01*
X83738404Y79745483D01*
X83667502Y80000839D01*
X83125054Y80206228D01*
X82545299Y80188397D01*
X82092498Y80000839D01*
X82021596Y79745483D01*
X81102498Y79745483D01*
X81048993Y79799081D01*
X80589731Y79989783D01*
X80092450Y79990217D01*
X79632857Y79800316D01*
X79280919Y79448993D01*
X79090217Y78989731D01*
X79089783Y78492450D01*
X60711443Y78492450D01*
X60807730Y78724333D01*
X60808268Y79340961D01*
X60572792Y79910857D01*
X60137151Y80347260D01*
X59567667Y80583730D01*
X58951039Y80584268D01*
X58381143Y80348792D01*
X57944740Y79913151D01*
X57708270Y79343667D01*
X57707732Y78727039D01*
X51810575Y78727039D01*
X51817748Y78744312D01*
X51818251Y79321157D01*
X51597967Y79854286D01*
X51190431Y80262533D01*
X50657688Y80483748D01*
X50080843Y80484251D01*
X49547714Y80263967D01*
X49139467Y79856431D01*
X48918252Y79323688D01*
X48917749Y78746843D01*
X41369745Y78746843D01*
X41529628Y78906446D01*
X41689818Y79292226D01*
X41690182Y79709942D01*
X41530666Y80096000D01*
X41235554Y80391628D01*
X40849774Y80551818D01*
X40792214Y80551868D01*
X37597239Y83746843D01*
X48917749Y83746843D01*
X49138033Y83213714D01*
X49545569Y82805467D01*
X50078312Y82584252D01*
X50655157Y82583749D01*
X51188286Y82804033D01*
X51596533Y83211569D01*
X51810575Y83727039D01*
X57707732Y83727039D01*
X57943208Y83157143D01*
X58378849Y82720740D01*
X58948333Y82484270D01*
X59564961Y82483732D01*
X60134857Y82719208D01*
X60571260Y83154849D01*
X60807730Y83724333D01*
X60808268Y84340961D01*
X60572792Y84910857D01*
X60137151Y85347260D01*
X59567667Y85583730D01*
X58951039Y85584268D01*
X58381143Y85348792D01*
X57944740Y84913151D01*
X57708270Y84343667D01*
X57707732Y83727039D01*
X51810575Y83727039D01*
X51817748Y83744312D01*
X51818251Y84321157D01*
X51597967Y84854286D01*
X51190431Y85262533D01*
X50657688Y85483748D01*
X50080843Y85484251D01*
X49547714Y85263967D01*
X49139467Y84856431D01*
X48918252Y84323688D01*
X48917749Y83746843D01*
X37597239Y83746843D01*
X37431041Y83913041D01*
X37155281Y84097298D01*
X36830000Y84162000D01*
X29337113Y84162000D01*
X29297554Y84201628D01*
X28911774Y84361818D01*
X28494058Y84362182D01*
X28108000Y84202666D01*
X27812372Y83907554D01*
X27652182Y83521774D01*
X27651818Y83104058D01*
X18910000Y83104058D01*
X18910000Y83340500D01*
X18745500Y83505000D01*
X17706000Y83505000D01*
X17498000Y83505000D01*
X16458500Y83505000D01*
X16294000Y83340500D01*
X15791053Y83340500D01*
X15649727Y83481825D01*
X15407885Y83582000D01*
X14695500Y83582000D01*
X14531000Y83417500D01*
X14323000Y83417500D01*
X14158500Y83582000D01*
X13446115Y83582000D01*
X13204273Y83481825D01*
X13019174Y83296727D01*
X12919000Y83054884D01*
X11482716Y83054884D01*
X11485783Y83062269D01*
X11486217Y83559550D01*
X11296316Y84019143D01*
X10944993Y84371081D01*
X10870532Y84402000D01*
X14034869Y84402000D01*
X14427000Y84324000D01*
X16349552Y84324000D01*
X16294000Y84189884D01*
X16294000Y83877500D01*
X16458500Y83713000D01*
X17498000Y83713000D01*
X17498000Y83733000D01*
X17706000Y83733000D01*
X17706000Y83713000D01*
X18745500Y83713000D01*
X18910000Y83877500D01*
X18910000Y84189884D01*
X18809826Y84431727D01*
X18624727Y84616825D01*
X18482881Y84675580D01*
X18592305Y84748695D01*
X18627304Y84783695D01*
X18941625Y85254109D01*
X19052000Y85809000D01*
X18991640Y86112450D01*
X79089783Y86112450D01*
X79279684Y85652857D01*
X79631007Y85300919D01*
X80090269Y85110217D01*
X80587550Y85109783D01*
X81047143Y85299684D01*
X81102071Y85354517D01*
X82021596Y85354517D01*
X82092498Y85099161D01*
X82634946Y84893772D01*
X83214701Y84911603D01*
X83667502Y85099161D01*
X83738404Y85354517D01*
X82880000Y86212922D01*
X82021596Y85354517D01*
X81102071Y85354517D01*
X81399081Y85651007D01*
X81492976Y85877132D01*
X81619161Y85572498D01*
X81874517Y85501596D01*
X82732922Y86360000D01*
X83027078Y86360000D01*
X83885483Y85501596D01*
X84140839Y85572498D01*
X84346228Y86114946D01*
X84328397Y86694701D01*
X84140839Y87147502D01*
X83885483Y87218404D01*
X83027078Y86360000D01*
X82732922Y86360000D01*
X81874517Y87218404D01*
X81619161Y87147502D01*
X81498637Y86829189D01*
X81400316Y87067143D01*
X81102498Y87365483D01*
X82021596Y87365483D01*
X82880000Y86507078D01*
X83738404Y87365483D01*
X83667502Y87620839D01*
X83125054Y87826228D01*
X82545299Y87808397D01*
X82092498Y87620839D01*
X82021596Y87365483D01*
X81102498Y87365483D01*
X81048993Y87419081D01*
X80589731Y87609783D01*
X80092450Y87610217D01*
X79632857Y87420316D01*
X79280919Y87068993D01*
X79090217Y86609731D01*
X79089783Y86112450D01*
X18991640Y86112450D01*
X18941625Y86363890D01*
X18627304Y86834304D01*
X18156890Y87148625D01*
X17602000Y87259000D01*
X17426044Y87224000D01*
X14741131Y87224000D01*
X14349000Y87302000D01*
X7696000Y87302000D01*
X7141109Y87191625D01*
X6670695Y86877305D01*
X6356375Y86406891D01*
X6246000Y85852000D01*
X1150000Y85852000D01*
X1150000Y88379039D01*
X48817732Y88379039D01*
X49053208Y87809143D01*
X49488849Y87372740D01*
X50058333Y87136270D01*
X50674961Y87135732D01*
X51244857Y87371208D01*
X51681260Y87806849D01*
X51917730Y88376333D01*
X51917749Y88398843D01*
X57807749Y88398843D01*
X58028033Y87865714D01*
X58435569Y87457467D01*
X58968312Y87236252D01*
X59545157Y87235749D01*
X60078286Y87456033D01*
X60486533Y87863569D01*
X60707748Y88396312D01*
X60708251Y88973157D01*
X60633764Y89153431D01*
X93249696Y89153431D01*
X93515557Y88509999D01*
X94007410Y88017287D01*
X94650376Y87750304D01*
X95346569Y87749696D01*
X95990001Y88015557D01*
X96482713Y88507410D01*
X96749696Y89150376D01*
X96750304Y89846569D01*
X96484443Y90490001D01*
X95992590Y90982713D01*
X95349624Y91249696D01*
X94653431Y91250304D01*
X94009999Y90984443D01*
X93517287Y90492590D01*
X93250304Y89849624D01*
X93249696Y89153431D01*
X60633764Y89153431D01*
X60487967Y89506286D01*
X60080431Y89914533D01*
X59547688Y90135748D01*
X58970843Y90136251D01*
X58437714Y89915967D01*
X58029467Y89508431D01*
X57808252Y88975688D01*
X57807749Y88398843D01*
X51917749Y88398843D01*
X51918268Y88992961D01*
X51682792Y89562857D01*
X51247151Y89999260D01*
X50677667Y90235730D01*
X50061039Y90236268D01*
X49491143Y90000792D01*
X49054740Y89565151D01*
X48818270Y88995667D01*
X48817732Y88379039D01*
X1150000Y88379039D01*
X1150000Y94336567D01*
X1649420Y94336567D01*
X2158353Y93104857D01*
X3099900Y92161665D01*
X4330720Y91650583D01*
X5663433Y91649420D01*
X6895143Y92158353D01*
X7838335Y93099900D01*
X8349417Y94330720D01*
X8349816Y94788058D01*
X27651818Y94788058D01*
X27811334Y94402000D01*
X28106446Y94106372D01*
X28492226Y93946182D01*
X28909942Y93945818D01*
X29296000Y94105334D01*
X29336737Y94146000D01*
X36477918Y94146000D01*
X39589867Y91034051D01*
X39589818Y90978058D01*
X39749334Y90592000D01*
X40044446Y90296372D01*
X40430226Y90136182D01*
X40847942Y90135818D01*
X41234000Y90295334D01*
X41529628Y90590446D01*
X41689818Y90976226D01*
X41690182Y91393942D01*
X41530666Y91780000D01*
X41235554Y92075628D01*
X40849774Y92235818D01*
X40792214Y92235868D01*
X39649043Y93379039D01*
X48817732Y93379039D01*
X49053208Y92809143D01*
X49488849Y92372740D01*
X50058333Y92136270D01*
X50674961Y92135732D01*
X51244857Y92371208D01*
X51681260Y92806849D01*
X51917730Y93376333D01*
X51917749Y93398843D01*
X57807749Y93398843D01*
X58028033Y92865714D01*
X58435569Y92457467D01*
X58968312Y92236252D01*
X59545157Y92235749D01*
X60078286Y92456033D01*
X60486533Y92863569D01*
X60707748Y93396312D01*
X60708041Y93732450D01*
X79089783Y93732450D01*
X79279684Y93272857D01*
X79631007Y92920919D01*
X80090269Y92730217D01*
X80587550Y92729783D01*
X81047143Y92919684D01*
X81102071Y92974517D01*
X82021596Y92974517D01*
X82092498Y92719161D01*
X82634946Y92513772D01*
X83214701Y92531603D01*
X83667502Y92719161D01*
X83738404Y92974517D01*
X82880000Y93832922D01*
X82021596Y92974517D01*
X81102071Y92974517D01*
X81399081Y93271007D01*
X81492976Y93497132D01*
X81619161Y93192498D01*
X81874517Y93121596D01*
X82732922Y93980000D01*
X83027078Y93980000D01*
X83885483Y93121596D01*
X84140839Y93192498D01*
X84346228Y93734946D01*
X84328397Y94314701D01*
X84319340Y94336567D01*
X91649420Y94336567D01*
X92158353Y93104857D01*
X93099900Y92161665D01*
X94330720Y91650583D01*
X95663433Y91649420D01*
X96895143Y92158353D01*
X97838335Y93099900D01*
X98349417Y94330720D01*
X98350580Y95663433D01*
X97841647Y96895143D01*
X96900100Y97838335D01*
X95669280Y98349417D01*
X94336567Y98350580D01*
X93104857Y97841647D01*
X92161665Y96900100D01*
X91650583Y95669280D01*
X91649420Y94336567D01*
X84319340Y94336567D01*
X84140839Y94767502D01*
X83885483Y94838404D01*
X83027078Y93980000D01*
X82732922Y93980000D01*
X81874517Y94838404D01*
X81619161Y94767502D01*
X81498637Y94449189D01*
X81400316Y94687143D01*
X81102498Y94985483D01*
X82021596Y94985483D01*
X82880000Y94127078D01*
X83738404Y94985483D01*
X83667502Y95240839D01*
X83125054Y95446228D01*
X82545299Y95428397D01*
X82092498Y95240839D01*
X82021596Y94985483D01*
X81102498Y94985483D01*
X81048993Y95039081D01*
X80589731Y95229783D01*
X80092450Y95230217D01*
X79632857Y95040316D01*
X79280919Y94688993D01*
X79090217Y94229731D01*
X79089783Y93732450D01*
X60708041Y93732450D01*
X60708251Y93973157D01*
X60487967Y94506286D01*
X60080431Y94914533D01*
X59547688Y95135748D01*
X58970843Y95136251D01*
X58437714Y94915967D01*
X58029467Y94508431D01*
X57808252Y93975688D01*
X57807749Y93398843D01*
X51917749Y93398843D01*
X51918268Y93992961D01*
X51682792Y94562857D01*
X51247151Y94999260D01*
X50677667Y95235730D01*
X50061039Y95236268D01*
X49491143Y95000792D01*
X49054740Y94565151D01*
X48818270Y93995667D01*
X48817732Y93379039D01*
X39649043Y93379039D01*
X37431041Y95597041D01*
X37155281Y95781298D01*
X36830000Y95846000D01*
X29337113Y95846000D01*
X29297554Y95885628D01*
X28911774Y96045818D01*
X28494058Y96046182D01*
X28108000Y95886666D01*
X27812372Y95591554D01*
X27652182Y95205774D01*
X27651818Y94788058D01*
X8349816Y94788058D01*
X8350580Y95663433D01*
X7841647Y96895143D01*
X6900100Y97838335D01*
X5669280Y98349417D01*
X4336567Y98350580D01*
X3104857Y97841647D01*
X2161665Y96900100D01*
X1650583Y95669280D01*
X1649420Y94336567D01*
X1150000Y94336567D01*
X1150000Y98850000D01*
X98850000Y98850000D01*
X98850000Y1150000D01*
X98850000Y1150000D01*
G37*
X98850000Y1150000D02*
X1150000Y1150000D01*
X1150000Y4336567D01*
X1649420Y4336567D01*
X2158353Y3104857D01*
X3099900Y2161665D01*
X4330720Y1650583D01*
X5663433Y1649420D01*
X6895143Y2158353D01*
X7838335Y3099900D01*
X8349417Y4330720D01*
X8349698Y4653431D01*
X8749696Y4653431D01*
X9015557Y4009999D01*
X9507410Y3517287D01*
X10150376Y3250304D01*
X10846569Y3249696D01*
X11490001Y3515557D01*
X11982713Y4007410D01*
X12119391Y4336567D01*
X91649420Y4336567D01*
X92158353Y3104857D01*
X93099900Y2161665D01*
X94330720Y1650583D01*
X95663433Y1649420D01*
X96895143Y2158353D01*
X97838335Y3099900D01*
X98349417Y4330720D01*
X98350580Y5663433D01*
X97841647Y6895143D01*
X96900100Y7838335D01*
X95669280Y8349417D01*
X94336567Y8350580D01*
X93104857Y7841647D01*
X92161665Y6900100D01*
X91650583Y5669280D01*
X91649420Y4336567D01*
X12119391Y4336567D01*
X12249696Y4650376D01*
X12250304Y5346569D01*
X11984443Y5990001D01*
X11891568Y6083039D01*
X48817732Y6083039D01*
X49053208Y5513143D01*
X49488849Y5076740D01*
X50058333Y4840270D01*
X50674961Y4839732D01*
X51244857Y5075208D01*
X51681260Y5510849D01*
X51917730Y6080333D01*
X51917749Y6102843D01*
X57807749Y6102843D01*
X58028033Y5569714D01*
X58435569Y5161467D01*
X58968312Y4940252D01*
X59545157Y4939749D01*
X60078286Y5160033D01*
X60486533Y5567569D01*
X60707748Y6100312D01*
X60708251Y6677157D01*
X60487967Y7210286D01*
X60326086Y7372450D01*
X79089783Y7372450D01*
X79279684Y6912857D01*
X79631007Y6560919D01*
X80090269Y6370217D01*
X80587550Y6369783D01*
X81047143Y6559684D01*
X81102071Y6614517D01*
X82021596Y6614517D01*
X82092498Y6359161D01*
X82634946Y6153772D01*
X83214701Y6171603D01*
X83667502Y6359161D01*
X83738404Y6614517D01*
X82880000Y7472922D01*
X82021596Y6614517D01*
X81102071Y6614517D01*
X81399081Y6911007D01*
X81492976Y7137132D01*
X81619161Y6832498D01*
X81874517Y6761596D01*
X82732922Y7620000D01*
X83027078Y7620000D01*
X83885483Y6761596D01*
X84140839Y6832498D01*
X84346228Y7374946D01*
X84328397Y7954701D01*
X84140839Y8407502D01*
X83885483Y8478404D01*
X83027078Y7620000D01*
X82732922Y7620000D01*
X81874517Y8478404D01*
X81619161Y8407502D01*
X81498637Y8089189D01*
X81400316Y8327143D01*
X81102498Y8625483D01*
X82021596Y8625483D01*
X82880000Y7767078D01*
X83738404Y8625483D01*
X83667502Y8880839D01*
X83125054Y9086228D01*
X82545299Y9068397D01*
X82092498Y8880839D01*
X82021596Y8625483D01*
X81102498Y8625483D01*
X81048993Y8679081D01*
X80589731Y8869783D01*
X80092450Y8870217D01*
X79632857Y8680316D01*
X79280919Y8328993D01*
X79090217Y7869731D01*
X79089783Y7372450D01*
X60326086Y7372450D01*
X60080431Y7618533D01*
X59547688Y7839748D01*
X58970843Y7840251D01*
X58437714Y7619967D01*
X58029467Y7212431D01*
X57808252Y6679688D01*
X57807749Y6102843D01*
X51917749Y6102843D01*
X51918268Y6696961D01*
X51682792Y7266857D01*
X51247151Y7703260D01*
X50677667Y7939730D01*
X50061039Y7940268D01*
X49491143Y7704792D01*
X49054740Y7269151D01*
X48818270Y6699667D01*
X48817732Y6083039D01*
X11891568Y6083039D01*
X11492590Y6482713D01*
X10849624Y6749696D01*
X10153431Y6750304D01*
X9509999Y6484443D01*
X9017287Y5992590D01*
X8750304Y5349624D01*
X8749696Y4653431D01*
X8349698Y4653431D01*
X8350580Y5663433D01*
X7841647Y6895143D01*
X6900100Y7838335D01*
X5669280Y8349417D01*
X4336567Y8350580D01*
X3104857Y7841647D01*
X2161665Y6900100D01*
X1650583Y5669280D01*
X1649420Y4336567D01*
X1150000Y4336567D01*
X1150000Y13000058D01*
X27651818Y13000058D01*
X27811334Y12614000D01*
X28106446Y12318372D01*
X28348732Y12217766D01*
X31840249Y8726248D01*
X32148450Y8520314D01*
X32512000Y8448000D01*
X40189838Y8448000D01*
X40430226Y8348182D01*
X40847942Y8347818D01*
X41234000Y8507334D01*
X41529628Y8802446D01*
X41689818Y9188226D01*
X41690182Y9605942D01*
X41530666Y9992000D01*
X41235554Y10287628D01*
X40849774Y10447818D01*
X40432058Y10448182D01*
X40189599Y10348000D01*
X32905503Y10348000D01*
X32170464Y11083039D01*
X48817732Y11083039D01*
X49053208Y10513143D01*
X49488849Y10076740D01*
X50058333Y9840270D01*
X50674961Y9839732D01*
X51244857Y10075208D01*
X51681260Y10510849D01*
X51917730Y11080333D01*
X51917749Y11102843D01*
X57807749Y11102843D01*
X58028033Y10569714D01*
X58435569Y10161467D01*
X58968312Y9940252D01*
X59545157Y9939749D01*
X60078286Y10160033D01*
X60486533Y10567569D01*
X60707748Y11100312D01*
X60708251Y11677157D01*
X60487967Y12210286D01*
X60080431Y12618533D01*
X59547688Y12839748D01*
X58970843Y12840251D01*
X58437714Y12619967D01*
X58029467Y12212431D01*
X57808252Y11679688D01*
X57807749Y11102843D01*
X51917749Y11102843D01*
X51918268Y11696961D01*
X51682792Y12266857D01*
X51247151Y12703260D01*
X50677667Y12939730D01*
X50061039Y12940268D01*
X49491143Y12704792D01*
X49054740Y12269151D01*
X48818270Y11699667D01*
X48817732Y11083039D01*
X32170464Y11083039D01*
X29692064Y13561438D01*
X29592666Y13802000D01*
X29297554Y14097628D01*
X28911774Y14257818D01*
X28494058Y14258182D01*
X28108000Y14098666D01*
X27812372Y13803554D01*
X27652182Y13417774D01*
X27651818Y13000058D01*
X1150000Y13000058D01*
X1150000Y40591000D01*
X6246000Y40591000D01*
X6246000Y14732000D01*
X6356375Y14177109D01*
X6670695Y13706695D01*
X7141109Y13392375D01*
X7696000Y13282000D01*
X14180661Y13282000D01*
X14427000Y13233000D01*
X17553044Y13233000D01*
X17729000Y13198000D01*
X18283890Y13308375D01*
X18754304Y13622696D01*
X19068625Y14093110D01*
X19179000Y14648000D01*
X19068625Y15202891D01*
X18754304Y15673305D01*
X18719305Y15708305D01*
X18609881Y15781420D01*
X18751727Y15840175D01*
X18936826Y16025273D01*
X19037000Y16267116D01*
X19037000Y16579500D01*
X18872500Y16744000D01*
X17833000Y16744000D01*
X17833000Y16724000D01*
X17625000Y16724000D01*
X17625000Y16744000D01*
X16585500Y16744000D01*
X16421000Y16579500D01*
X16421000Y16267116D01*
X16476552Y16133000D01*
X14624339Y16133000D01*
X14378000Y16182000D01*
X10871303Y16182000D01*
X10943143Y16211684D01*
X11295081Y16563007D01*
X11485783Y17022269D01*
X11486217Y17519550D01*
X11364346Y17814500D01*
X12919000Y17814500D01*
X12919000Y17402116D01*
X13019174Y17160273D01*
X13204273Y16975175D01*
X13446115Y16875000D01*
X14158500Y16875000D01*
X14323000Y17039500D01*
X14323000Y17979000D01*
X14531000Y17979000D01*
X14531000Y17039500D01*
X14695500Y16875000D01*
X15407885Y16875000D01*
X15649727Y16975175D01*
X15834826Y17160273D01*
X15935000Y17402116D01*
X15935000Y17428884D01*
X16421000Y17428884D01*
X16421000Y17116500D01*
X16585500Y16952000D01*
X17625000Y16952000D01*
X17625000Y17791500D01*
X17833000Y17791500D01*
X17833000Y16952000D01*
X18872500Y16952000D01*
X19037000Y17116500D01*
X19037000Y17428884D01*
X18936826Y17670727D01*
X18751727Y17855825D01*
X18509885Y17956000D01*
X17997500Y17956000D01*
X17833000Y17791500D01*
X17625000Y17791500D01*
X17460500Y17956000D01*
X16948115Y17956000D01*
X16706273Y17855825D01*
X16521174Y17670727D01*
X16421000Y17428884D01*
X15935000Y17428884D01*
X15935000Y17814500D01*
X15770500Y17979000D01*
X14531000Y17979000D01*
X14323000Y17979000D01*
X13083500Y17979000D01*
X12919000Y17814500D01*
X11364346Y17814500D01*
X11296316Y17979143D01*
X10944993Y18331081D01*
X10485731Y18521783D01*
X9988450Y18522217D01*
X9528857Y18332316D01*
X9176919Y17980993D01*
X9146000Y17906532D01*
X9146000Y19176697D01*
X9175684Y19104857D01*
X9527007Y18752919D01*
X9986269Y18562217D01*
X10483550Y18561783D01*
X10943143Y18751684D01*
X10955364Y18763884D01*
X12919000Y18763884D01*
X12919000Y18351500D01*
X13083500Y18187000D01*
X14323000Y18187000D01*
X14323000Y19126500D01*
X14531000Y19126500D01*
X14531000Y18187000D01*
X15770500Y18187000D01*
X15935000Y18351500D01*
X15935000Y18763884D01*
X15834826Y19005727D01*
X15649727Y19190825D01*
X15407885Y19291000D01*
X14695500Y19291000D01*
X14531000Y19126500D01*
X14323000Y19126500D01*
X14158500Y19291000D01*
X13446115Y19291000D01*
X13204273Y19190825D01*
X13019174Y19005727D01*
X12919000Y18763884D01*
X10955364Y18763884D01*
X11295081Y19103007D01*
X11485783Y19562269D01*
X11486217Y20059550D01*
X11296316Y20519143D01*
X10944993Y20871081D01*
X10485731Y21061783D01*
X9988450Y21062217D01*
X9528857Y20872316D01*
X9176919Y20520993D01*
X9146000Y20446532D01*
X9146000Y21716697D01*
X9175684Y21644857D01*
X9527007Y21292919D01*
X9986269Y21102217D01*
X10483550Y21101783D01*
X10943143Y21291684D01*
X11295081Y21643007D01*
X11484010Y22098000D01*
X31427000Y22098000D01*
X31427000Y13081000D01*
X31457775Y12917444D01*
X31554437Y12767228D01*
X31701925Y12666454D01*
X31877000Y12631000D01*
X35560000Y12631000D01*
X35723556Y12661775D01*
X35873772Y12758437D01*
X35974546Y12905925D01*
X36010000Y13081000D01*
X36010000Y16822000D01*
X36126000Y16822000D01*
X36126000Y14732000D01*
X36156775Y14568444D01*
X36253437Y14418228D01*
X36400925Y14317454D01*
X36576000Y14282000D01*
X39370000Y14282000D01*
X39533556Y14312775D01*
X39683772Y14409437D01*
X39784546Y14556925D01*
X39820000Y14732000D01*
X39820000Y15754843D01*
X48917749Y15754843D01*
X49138033Y15221714D01*
X49545569Y14813467D01*
X50078312Y14592252D01*
X50655157Y14591749D01*
X51188286Y14812033D01*
X51596533Y15219569D01*
X51793966Y15695039D01*
X57707732Y15695039D01*
X57943208Y15125143D01*
X58378849Y14688740D01*
X58948333Y14452270D01*
X59564961Y14451732D01*
X60134857Y14687208D01*
X60440632Y14992450D01*
X79089783Y14992450D01*
X79279684Y14532857D01*
X79631007Y14180919D01*
X80090269Y13990217D01*
X80587550Y13989783D01*
X81047143Y14179684D01*
X81102071Y14234517D01*
X82021596Y14234517D01*
X82092498Y13979161D01*
X82634946Y13773772D01*
X83214701Y13791603D01*
X83667502Y13979161D01*
X83738404Y14234517D01*
X82880000Y15092922D01*
X82021596Y14234517D01*
X81102071Y14234517D01*
X81399081Y14531007D01*
X81492976Y14757132D01*
X81619161Y14452498D01*
X81874517Y14381596D01*
X82732922Y15240000D01*
X83027078Y15240000D01*
X83885483Y14381596D01*
X84140839Y14452498D01*
X84346228Y14994946D01*
X84328397Y15574701D01*
X84140839Y16027502D01*
X83885483Y16098404D01*
X83027078Y15240000D01*
X82732922Y15240000D01*
X81874517Y16098404D01*
X81619161Y16027502D01*
X81498637Y15709189D01*
X81400316Y15947143D01*
X81102498Y16245483D01*
X82021596Y16245483D01*
X82880000Y15387078D01*
X83738404Y16245483D01*
X83667502Y16500839D01*
X83125054Y16706228D01*
X82545299Y16688397D01*
X82092498Y16500839D01*
X82021596Y16245483D01*
X81102498Y16245483D01*
X81048993Y16299081D01*
X80589731Y16489783D01*
X80092450Y16490217D01*
X79632857Y16300316D01*
X79280919Y15948993D01*
X79090217Y15489731D01*
X79089783Y14992450D01*
X60440632Y14992450D01*
X60571260Y15122849D01*
X60807730Y15692333D01*
X60808268Y16308961D01*
X60572792Y16878857D01*
X60137151Y17315260D01*
X59567667Y17551730D01*
X58951039Y17552268D01*
X58381143Y17316792D01*
X57944740Y16881151D01*
X57708270Y16311667D01*
X57707732Y15695039D01*
X51793966Y15695039D01*
X51817748Y15752312D01*
X51818251Y16329157D01*
X51597967Y16862286D01*
X51190431Y17270533D01*
X50657688Y17491748D01*
X50080843Y17492251D01*
X49547714Y17271967D01*
X49139467Y16864431D01*
X48918252Y16331688D01*
X48917749Y15754843D01*
X39820000Y15754843D01*
X39820000Y19304000D01*
X39789225Y19467556D01*
X39692563Y19617772D01*
X39545075Y19718546D01*
X39370000Y19754000D01*
X37788000Y19754000D01*
X37788000Y22098000D01*
X37757225Y22261556D01*
X37660563Y22411772D01*
X37513075Y22512546D01*
X37338000Y22548000D01*
X34798000Y22548000D01*
X34634444Y22517225D01*
X34609098Y22500915D01*
X34592075Y22512546D01*
X34417000Y22548000D01*
X31877000Y22548000D01*
X31713444Y22517225D01*
X31563228Y22420563D01*
X31462454Y22273075D01*
X31427000Y22098000D01*
X11484010Y22098000D01*
X11485783Y22102269D01*
X11486217Y22599550D01*
X11296316Y23059143D01*
X10944993Y23411081D01*
X10485731Y23601783D01*
X9988450Y23602217D01*
X9528857Y23412316D01*
X9176919Y23060993D01*
X9146000Y22986532D01*
X9146000Y24256697D01*
X9175684Y24184857D01*
X9527007Y23832919D01*
X9986269Y23642217D01*
X10483550Y23641783D01*
X10943143Y23831684D01*
X11295081Y24183007D01*
X11485783Y24642269D01*
X11485819Y24684058D01*
X27651818Y24684058D01*
X27811334Y24298000D01*
X28106446Y24002372D01*
X28492226Y23842182D01*
X28909942Y23841818D01*
X29296000Y24001334D01*
X29336737Y24042000D01*
X36477918Y24042000D01*
X39589867Y20930051D01*
X39589818Y20874058D01*
X39749334Y20488000D01*
X40044446Y20192372D01*
X40430226Y20032182D01*
X40847942Y20031818D01*
X41234000Y20191334D01*
X41529628Y20486446D01*
X41641076Y20754843D01*
X48917749Y20754843D01*
X49138033Y20221714D01*
X49545569Y19813467D01*
X50078312Y19592252D01*
X50655157Y19591749D01*
X51188286Y19812033D01*
X51596533Y20219569D01*
X51793966Y20695039D01*
X57707732Y20695039D01*
X57943208Y20125143D01*
X58378849Y19688740D01*
X58948333Y19452270D01*
X59564961Y19451732D01*
X60134857Y19687208D01*
X60571260Y20122849D01*
X60807730Y20692333D01*
X60808268Y21308961D01*
X60572792Y21878857D01*
X60137151Y22315260D01*
X59567667Y22551730D01*
X58951039Y22552268D01*
X58381143Y22316792D01*
X57944740Y21881151D01*
X57708270Y21311667D01*
X57707732Y20695039D01*
X51793966Y20695039D01*
X51817748Y20752312D01*
X51818251Y21329157D01*
X51597967Y21862286D01*
X51190431Y22270533D01*
X50657688Y22491748D01*
X50080843Y22492251D01*
X49547714Y22271967D01*
X49139467Y21864431D01*
X48918252Y21331688D01*
X48917749Y20754843D01*
X41641076Y20754843D01*
X41689818Y20872226D01*
X41690182Y21289942D01*
X41530666Y21676000D01*
X41235554Y21971628D01*
X40849774Y22131818D01*
X40792214Y22131868D01*
X40311632Y22612450D01*
X79089783Y22612450D01*
X79279684Y22152857D01*
X79631007Y21800919D01*
X80090269Y21610217D01*
X80587550Y21609783D01*
X81047143Y21799684D01*
X81102071Y21854517D01*
X82021596Y21854517D01*
X82092498Y21599161D01*
X82634946Y21393772D01*
X83214701Y21411603D01*
X83667502Y21599161D01*
X83738404Y21854517D01*
X82880000Y22712922D01*
X82021596Y21854517D01*
X81102071Y21854517D01*
X81399081Y22151007D01*
X81492976Y22377132D01*
X81619161Y22072498D01*
X81874517Y22001596D01*
X82732922Y22860000D01*
X83027078Y22860000D01*
X83885483Y22001596D01*
X84140839Y22072498D01*
X84346228Y22614946D01*
X84328397Y23194701D01*
X84140839Y23647502D01*
X83885483Y23718404D01*
X83027078Y22860000D01*
X82732922Y22860000D01*
X81874517Y23718404D01*
X81619161Y23647502D01*
X81498637Y23329189D01*
X81400316Y23567143D01*
X81102498Y23865483D01*
X82021596Y23865483D01*
X82880000Y23007078D01*
X83738404Y23865483D01*
X83667502Y24120839D01*
X83125054Y24326228D01*
X82545299Y24308397D01*
X82092498Y24120839D01*
X82021596Y23865483D01*
X81102498Y23865483D01*
X81048993Y23919081D01*
X80589731Y24109783D01*
X80092450Y24110217D01*
X79632857Y23920316D01*
X79280919Y23568993D01*
X79090217Y23109731D01*
X79089783Y22612450D01*
X40311632Y22612450D01*
X37537043Y25387039D01*
X48817732Y25387039D01*
X49053208Y24817143D01*
X49488849Y24380740D01*
X50058333Y24144270D01*
X50674961Y24143732D01*
X51244857Y24379208D01*
X51681260Y24814849D01*
X51917730Y25384333D01*
X51917749Y25406843D01*
X57807749Y25406843D01*
X58028033Y24873714D01*
X58435569Y24465467D01*
X58968312Y24244252D01*
X59545157Y24243749D01*
X60078286Y24464033D01*
X60486533Y24871569D01*
X60707748Y25404312D01*
X60708251Y25981157D01*
X60487967Y26514286D01*
X60080431Y26922533D01*
X59547688Y27143748D01*
X58970843Y27144251D01*
X58437714Y26923967D01*
X58029467Y26516431D01*
X57808252Y25983688D01*
X57807749Y25406843D01*
X51917749Y25406843D01*
X51918268Y26000961D01*
X51682792Y26570857D01*
X51247151Y27007260D01*
X50677667Y27243730D01*
X50061039Y27244268D01*
X49491143Y27008792D01*
X49054740Y26573151D01*
X48818270Y26003667D01*
X48817732Y25387039D01*
X37537043Y25387039D01*
X37431041Y25493041D01*
X37155281Y25677298D01*
X36830000Y25742000D01*
X29337113Y25742000D01*
X29297554Y25781628D01*
X28911774Y25941818D01*
X28494058Y25942182D01*
X28108000Y25782666D01*
X27812372Y25487554D01*
X27652182Y25101774D01*
X27651818Y24684058D01*
X11485819Y24684058D01*
X11486217Y25139550D01*
X11296316Y25599143D01*
X10944993Y25951081D01*
X10485731Y26141783D01*
X9988450Y26142217D01*
X9528857Y25952316D01*
X9176919Y25600993D01*
X9146000Y25526532D01*
X9146000Y26796697D01*
X9175684Y26724857D01*
X9527007Y26372919D01*
X9986269Y26182217D01*
X10483550Y26181783D01*
X10943143Y26371684D01*
X11295081Y26723007D01*
X11485783Y27182269D01*
X11486217Y27679550D01*
X11296316Y28139143D01*
X10944993Y28491081D01*
X10485731Y28681783D01*
X9988450Y28682217D01*
X9528857Y28492316D01*
X9176919Y28140993D01*
X9146000Y28066532D01*
X9146000Y29336697D01*
X9175684Y29264857D01*
X9527007Y28912919D01*
X9986269Y28722217D01*
X10483550Y28721783D01*
X10943143Y28911684D01*
X11295081Y29263007D01*
X11485783Y29722269D01*
X11486217Y30219550D01*
X11417012Y30387039D01*
X48817732Y30387039D01*
X49053208Y29817143D01*
X49488849Y29380740D01*
X50058333Y29144270D01*
X50674961Y29143732D01*
X51244857Y29379208D01*
X51681260Y29814849D01*
X51917730Y30384333D01*
X51917749Y30406843D01*
X57807749Y30406843D01*
X58028033Y29873714D01*
X58435569Y29465467D01*
X58968312Y29244252D01*
X59545157Y29243749D01*
X60078286Y29464033D01*
X60486533Y29871569D01*
X60636384Y30232450D01*
X79089783Y30232450D01*
X79279684Y29772857D01*
X79631007Y29420919D01*
X80090269Y29230217D01*
X80587550Y29229783D01*
X81047143Y29419684D01*
X81102071Y29474517D01*
X82021596Y29474517D01*
X82092498Y29219161D01*
X82634946Y29013772D01*
X83214701Y29031603D01*
X83667502Y29219161D01*
X83738404Y29474517D01*
X82880000Y30332922D01*
X82021596Y29474517D01*
X81102071Y29474517D01*
X81399081Y29771007D01*
X81492976Y29997132D01*
X81619161Y29692498D01*
X81874517Y29621596D01*
X82732922Y30480000D01*
X83027078Y30480000D01*
X83885483Y29621596D01*
X84140839Y29692498D01*
X84346228Y30234946D01*
X84328397Y30814701D01*
X84140839Y31267502D01*
X83885483Y31338404D01*
X83027078Y30480000D01*
X82732922Y30480000D01*
X81874517Y31338404D01*
X81619161Y31267502D01*
X81498637Y30949189D01*
X81400316Y31187143D01*
X81102498Y31485483D01*
X82021596Y31485483D01*
X82880000Y30627078D01*
X83738404Y31485483D01*
X83667502Y31740839D01*
X83125054Y31946228D01*
X82545299Y31928397D01*
X82092498Y31740839D01*
X82021596Y31485483D01*
X81102498Y31485483D01*
X81048993Y31539081D01*
X80589731Y31729783D01*
X80092450Y31730217D01*
X79632857Y31540316D01*
X79280919Y31188993D01*
X79090217Y30729731D01*
X79089783Y30232450D01*
X60636384Y30232450D01*
X60707748Y30404312D01*
X60708251Y30981157D01*
X60487967Y31514286D01*
X60080431Y31922533D01*
X59547688Y32143748D01*
X58970843Y32144251D01*
X58437714Y31923967D01*
X58029467Y31516431D01*
X57808252Y30983688D01*
X57807749Y30406843D01*
X51917749Y30406843D01*
X51918268Y31000961D01*
X51682792Y31570857D01*
X51247151Y32007260D01*
X50677667Y32243730D01*
X50061039Y32244268D01*
X49491143Y32008792D01*
X49054740Y31573151D01*
X48818270Y31003667D01*
X48817732Y30387039D01*
X11417012Y30387039D01*
X11296316Y30679143D01*
X10944993Y31031081D01*
X10485731Y31221783D01*
X9988450Y31222217D01*
X9528857Y31032316D01*
X9176919Y30680993D01*
X9146000Y30606532D01*
X9146000Y31876697D01*
X9175684Y31804857D01*
X9527007Y31452919D01*
X9986269Y31262217D01*
X10483550Y31261783D01*
X10943143Y31451684D01*
X11295081Y31803007D01*
X11485783Y32262269D01*
X11486217Y32759550D01*
X11296316Y33219143D01*
X10944993Y33571081D01*
X10485731Y33761783D01*
X9988450Y33762217D01*
X9528857Y33572316D01*
X9176919Y33220993D01*
X9146000Y33146532D01*
X9146000Y34416697D01*
X9175684Y34344857D01*
X9527007Y33992919D01*
X9986269Y33802217D01*
X10483550Y33801783D01*
X10943143Y33991684D01*
X11295081Y34343007D01*
X11485783Y34802269D01*
X11486217Y35299550D01*
X11296316Y35759143D01*
X10944993Y36111081D01*
X10665017Y36227337D01*
X10790891Y36252375D01*
X10964023Y36368058D01*
X27651818Y36368058D01*
X27811334Y35982000D01*
X28106446Y35686372D01*
X28492226Y35526182D01*
X28909942Y35525818D01*
X29296000Y35685334D01*
X29336737Y35726000D01*
X36477918Y35726000D01*
X39589867Y32614051D01*
X39589818Y32558058D01*
X39749334Y32172000D01*
X40044446Y31876372D01*
X40430226Y31716182D01*
X40847942Y31715818D01*
X41234000Y31875334D01*
X41529628Y32170446D01*
X41689818Y32556226D01*
X41690182Y32973942D01*
X41530666Y33360000D01*
X41235554Y33655628D01*
X40849774Y33815818D01*
X40792214Y33815868D01*
X39549239Y35058843D01*
X48917749Y35058843D01*
X49138033Y34525714D01*
X49545569Y34117467D01*
X50078312Y33896252D01*
X50655157Y33895749D01*
X51188286Y34116033D01*
X51596533Y34523569D01*
X51810575Y35039039D01*
X57707732Y35039039D01*
X57943208Y34469143D01*
X58378849Y34032740D01*
X58948333Y33796270D01*
X59564961Y33795732D01*
X60134857Y34031208D01*
X60571260Y34466849D01*
X60807730Y35036333D01*
X60808268Y35652961D01*
X60572792Y36222857D01*
X60137151Y36659260D01*
X59567667Y36895730D01*
X58951039Y36896268D01*
X58381143Y36660792D01*
X57944740Y36225151D01*
X57708270Y35655667D01*
X57707732Y35039039D01*
X51810575Y35039039D01*
X51817748Y35056312D01*
X51818251Y35633157D01*
X51597967Y36166286D01*
X51190431Y36574533D01*
X50657688Y36795748D01*
X50080843Y36796251D01*
X49547714Y36575967D01*
X49139467Y36168431D01*
X48918252Y35635688D01*
X48917749Y35058843D01*
X39549239Y35058843D01*
X37431041Y37177041D01*
X37155281Y37361298D01*
X36830000Y37426000D01*
X29337113Y37426000D01*
X29297554Y37465628D01*
X28911774Y37625818D01*
X28494058Y37626182D01*
X28108000Y37466666D01*
X27812372Y37171554D01*
X27652182Y36785774D01*
X27651818Y36368058D01*
X10964023Y36368058D01*
X11261305Y36566695D01*
X11575625Y37037109D01*
X11686000Y37592000D01*
X11575625Y38146891D01*
X11261305Y38617305D01*
X10790891Y38931625D01*
X10236000Y39042000D01*
X9146000Y39042000D01*
X9146000Y39106000D01*
X10617000Y39106000D01*
X11171891Y39216375D01*
X11642305Y39530695D01*
X11956625Y40001109D01*
X11968109Y40058843D01*
X48917749Y40058843D01*
X49138033Y39525714D01*
X49545569Y39117467D01*
X50078312Y38896252D01*
X50655157Y38895749D01*
X51188286Y39116033D01*
X51596533Y39523569D01*
X51810575Y40039039D01*
X57707732Y40039039D01*
X57943208Y39469143D01*
X58378849Y39032740D01*
X58948333Y38796270D01*
X59564961Y38795732D01*
X60134857Y39031208D01*
X60571260Y39466849D01*
X60807730Y40036333D01*
X60808268Y40652961D01*
X60572792Y41222857D01*
X60137151Y41659260D01*
X59567667Y41895730D01*
X58951039Y41896268D01*
X58381143Y41660792D01*
X57944740Y41225151D01*
X57708270Y40655667D01*
X57707732Y40039039D01*
X51810575Y40039039D01*
X51817748Y40056312D01*
X51818251Y40633157D01*
X51597967Y41166286D01*
X51190431Y41574533D01*
X50657688Y41795748D01*
X50080843Y41796251D01*
X49547714Y41575967D01*
X49139467Y41168431D01*
X48918252Y40635688D01*
X48917749Y40058843D01*
X11968109Y40058843D01*
X12067000Y40556000D01*
X11956625Y41110891D01*
X11642305Y41581305D01*
X11487151Y41684975D01*
X11639727Y41748175D01*
X11824826Y41933273D01*
X11925000Y42175116D01*
X11925000Y42487500D01*
X11760500Y42652000D01*
X10721000Y42652000D01*
X10721000Y42632000D01*
X10513000Y42632000D01*
X10513000Y42652000D01*
X9473500Y42652000D01*
X9309000Y42487500D01*
X9309000Y42175116D01*
X9379050Y42006000D01*
X7871956Y42006000D01*
X7696000Y42041000D01*
X7141109Y41930625D01*
X6670695Y41616305D01*
X6608142Y41522688D01*
X6526081Y41469883D01*
X6423332Y41319505D01*
X6402003Y41214178D01*
X6356375Y41145891D01*
X6246000Y40591000D01*
X1150000Y40591000D01*
X1150000Y43722500D01*
X6188000Y43722500D01*
X6188000Y43310116D01*
X6288174Y43068273D01*
X6473273Y42883175D01*
X6715115Y42783000D01*
X7427500Y42783000D01*
X7592000Y42947500D01*
X7592000Y43887000D01*
X7800000Y43887000D01*
X7800000Y42947500D01*
X7964500Y42783000D01*
X8676885Y42783000D01*
X8918727Y42883175D01*
X9103826Y43068273D01*
X9204000Y43310116D01*
X9204000Y43336884D01*
X9309000Y43336884D01*
X9309000Y43024500D01*
X9473500Y42860000D01*
X10513000Y42860000D01*
X10513000Y43699500D01*
X10721000Y43699500D01*
X10721000Y42860000D01*
X11760500Y42860000D01*
X11925000Y43024500D01*
X11925000Y43336884D01*
X11824826Y43578727D01*
X11639727Y43763825D01*
X11397885Y43864000D01*
X10885500Y43864000D01*
X10721000Y43699500D01*
X10513000Y43699500D01*
X10348500Y43864000D01*
X9836115Y43864000D01*
X9594273Y43763825D01*
X9409174Y43578727D01*
X9309000Y43336884D01*
X9204000Y43336884D01*
X9204000Y43722500D01*
X9039500Y43887000D01*
X7800000Y43887000D01*
X7592000Y43887000D01*
X6352500Y43887000D01*
X6188000Y43722500D01*
X1150000Y43722500D01*
X1150000Y44671884D01*
X6188000Y44671884D01*
X6188000Y44259500D01*
X6352500Y44095000D01*
X7592000Y44095000D01*
X7592000Y45034500D01*
X7800000Y45034500D01*
X7800000Y44095000D01*
X9039500Y44095000D01*
X9204000Y44259500D01*
X9204000Y44671884D01*
X9103826Y44913727D01*
X8918727Y45098825D01*
X8676885Y45199000D01*
X7964500Y45199000D01*
X7800000Y45034500D01*
X7592000Y45034500D01*
X7427500Y45199000D01*
X6715115Y45199000D01*
X6473273Y45098825D01*
X6288174Y44913727D01*
X6188000Y44671884D01*
X1150000Y44671884D01*
X1150000Y48052058D01*
X27651818Y48052058D01*
X27811334Y47666000D01*
X28106446Y47370372D01*
X28492226Y47210182D01*
X28549786Y47210132D01*
X31910959Y43848959D01*
X32186719Y43664702D01*
X32512000Y43599999D01*
X32512005Y43600000D01*
X40004887Y43600000D01*
X40044446Y43560372D01*
X40430226Y43400182D01*
X40847942Y43399818D01*
X41234000Y43559334D01*
X41529628Y43854446D01*
X41689818Y44240226D01*
X41690182Y44657942D01*
X41530666Y45044000D01*
X41235554Y45339628D01*
X40849774Y45499818D01*
X40432058Y45500182D01*
X40046000Y45340666D01*
X40005263Y45300000D01*
X32864082Y45300000D01*
X32120582Y46043500D01*
X60668000Y46043500D01*
X60668000Y45731116D01*
X60768174Y45489273D01*
X60953273Y45304175D01*
X61195115Y45204000D01*
X61491854Y45204000D01*
X61175246Y44992450D01*
X61159240Y44989438D01*
X61006081Y44890883D01*
X60903332Y44740505D01*
X60869793Y44574884D01*
X60867345Y44571220D01*
X60776000Y44112000D01*
X60867345Y43652780D01*
X60869536Y43649501D01*
X60898562Y43495240D01*
X60997117Y43342081D01*
X61147495Y43239332D01*
X61152657Y43238287D01*
X61777472Y42613472D01*
X62166780Y42353345D01*
X62626000Y42262000D01*
X64935086Y42262000D01*
X64963569Y42233467D01*
X65496312Y42012252D01*
X66073157Y42011749D01*
X66606286Y42232033D01*
X66636305Y42262000D01*
X69200000Y42262000D01*
X69659220Y42353345D01*
X70048528Y42613472D01*
X70355899Y42920843D01*
X82877749Y42920843D01*
X83098033Y42387714D01*
X83505569Y41979467D01*
X84038312Y41758252D01*
X84615157Y41757749D01*
X85148286Y41978033D01*
X85556533Y42385569D01*
X85777748Y42918312D01*
X85778251Y43495157D01*
X85557967Y44028286D01*
X85150431Y44436533D01*
X84617688Y44657748D01*
X84040843Y44658251D01*
X83507714Y44437967D01*
X83099467Y44030431D01*
X82878252Y43497688D01*
X82877749Y42920843D01*
X70355899Y42920843D01*
X70674776Y43239720D01*
X70819919Y43333117D01*
X70922668Y43483495D01*
X70956207Y43649116D01*
X70958655Y43652780D01*
X71050000Y44112000D01*
X70958655Y44571220D01*
X70956464Y44574499D01*
X70927438Y44728760D01*
X70828883Y44881919D01*
X70678505Y44984668D01*
X70655396Y44989348D01*
X70334146Y45204000D01*
X70630885Y45204000D01*
X70872727Y45304175D01*
X71057826Y45489273D01*
X71086267Y45557937D01*
X83325016Y45557937D01*
X83420379Y45281832D01*
X84035239Y45043061D01*
X84694668Y45057762D01*
X84949126Y45163162D01*
X93492000Y45163162D01*
X93492000Y43482838D01*
X93587151Y43004484D01*
X93858117Y42598955D01*
X94263646Y42327989D01*
X94742000Y42232838D01*
X95220354Y42327989D01*
X95625883Y42598955D01*
X95896849Y43004484D01*
X95992000Y43482838D01*
X95992000Y45163162D01*
X95896849Y45641516D01*
X95625883Y46047045D01*
X95413356Y46189051D01*
X95529502Y46237161D01*
X95600404Y46492517D01*
X94742000Y47350922D01*
X93883596Y46492517D01*
X93954498Y46237161D01*
X94074592Y46191689D01*
X93858117Y46047045D01*
X93587151Y45641516D01*
X93492000Y45163162D01*
X84949126Y45163162D01*
X85235621Y45281832D01*
X85330984Y45557937D01*
X84328000Y46560922D01*
X83325016Y45557937D01*
X71086267Y45557937D01*
X71158000Y45731116D01*
X71158000Y46043500D01*
X70993500Y46208000D01*
X69954000Y46208000D01*
X69954000Y46188000D01*
X69746000Y46188000D01*
X69746000Y46208000D01*
X68706500Y46208000D01*
X68542000Y46043500D01*
X68542000Y45731116D01*
X68642174Y45489273D01*
X68827273Y45304175D01*
X69069115Y45204000D01*
X69365854Y45204000D01*
X69049246Y44992450D01*
X69033240Y44989438D01*
X68880081Y44890883D01*
X68777332Y44740505D01*
X68776287Y44735343D01*
X68702944Y44662000D01*
X66636914Y44662000D01*
X66608431Y44690533D01*
X66075688Y44911748D01*
X65498843Y44912251D01*
X64965714Y44691967D01*
X64935695Y44662000D01*
X63123056Y44662000D01*
X63048280Y44736776D01*
X62954883Y44881919D01*
X62804505Y44984668D01*
X62781396Y44989348D01*
X62460146Y45204000D01*
X62756885Y45204000D01*
X62998727Y45304175D01*
X63183826Y45489273D01*
X63284000Y45731116D01*
X63284000Y45811937D01*
X64783016Y45811937D01*
X64878379Y45535832D01*
X65493239Y45297061D01*
X66152668Y45311762D01*
X66693621Y45535832D01*
X66788984Y45811937D01*
X65786000Y46814922D01*
X64783016Y45811937D01*
X63284000Y45811937D01*
X63284000Y46043500D01*
X63119500Y46208000D01*
X62080000Y46208000D01*
X62080000Y46188000D01*
X61872000Y46188000D01*
X61872000Y46208000D01*
X60832500Y46208000D01*
X60668000Y46043500D01*
X32120582Y46043500D01*
X31271198Y46892884D01*
X60668000Y46892884D01*
X60668000Y46580500D01*
X60832500Y46416000D01*
X61872000Y46416000D01*
X61872000Y47255500D01*
X62080000Y47255500D01*
X62080000Y46416000D01*
X63119500Y46416000D01*
X63284000Y46580500D01*
X63284000Y46892884D01*
X63183826Y47134727D01*
X63063792Y47254761D01*
X64121061Y47254761D01*
X64135762Y46595332D01*
X64359832Y46054379D01*
X64635937Y45959016D01*
X65638922Y46962000D01*
X65933078Y46962000D01*
X66936063Y45959016D01*
X67212168Y46054379D01*
X67450939Y46669239D01*
X67445954Y46892884D01*
X68542000Y46892884D01*
X68542000Y46580500D01*
X68706500Y46416000D01*
X69746000Y46416000D01*
X69746000Y47255500D01*
X69954000Y47255500D01*
X69954000Y46416000D01*
X70993500Y46416000D01*
X71158000Y46580500D01*
X71158000Y46892884D01*
X71113317Y47000761D01*
X82663061Y47000761D01*
X82677762Y46341332D01*
X82901832Y45800379D01*
X83177937Y45705016D01*
X84180922Y46708000D01*
X84475078Y46708000D01*
X85478063Y45705016D01*
X85754168Y45800379D01*
X85992939Y46415239D01*
X85978238Y47074668D01*
X85754168Y47615621D01*
X85478063Y47710984D01*
X84475078Y46708000D01*
X84180922Y46708000D01*
X83177937Y47710984D01*
X82901832Y47615621D01*
X82663061Y47000761D01*
X71113317Y47000761D01*
X71057826Y47134727D01*
X70872727Y47319825D01*
X70630885Y47420000D01*
X70118500Y47420000D01*
X69954000Y47255500D01*
X69746000Y47255500D01*
X69581500Y47420000D01*
X69069115Y47420000D01*
X68827273Y47319825D01*
X68642174Y47134727D01*
X68542000Y46892884D01*
X67445954Y46892884D01*
X67436238Y47328668D01*
X67216956Y47858063D01*
X83325016Y47858063D01*
X84328000Y46855078D01*
X85215975Y47743054D01*
X93275772Y47743054D01*
X93293603Y47163299D01*
X93481161Y46710498D01*
X93736517Y46639596D01*
X94594922Y47498000D01*
X94889078Y47498000D01*
X95747483Y46639596D01*
X96002839Y46710498D01*
X96208228Y47252946D01*
X96190397Y47832701D01*
X96002839Y48285502D01*
X95747483Y48356404D01*
X94889078Y47498000D01*
X94594922Y47498000D01*
X93736517Y48356404D01*
X93481161Y48285502D01*
X93275772Y47743054D01*
X85215975Y47743054D01*
X85330984Y47858063D01*
X85235621Y48134168D01*
X84620761Y48372939D01*
X83961332Y48358238D01*
X83420379Y48134168D01*
X83325016Y47858063D01*
X67216956Y47858063D01*
X67212168Y47869621D01*
X66936063Y47964984D01*
X65933078Y46962000D01*
X65638922Y46962000D01*
X64635937Y47964984D01*
X64359832Y47869621D01*
X64121061Y47254761D01*
X63063792Y47254761D01*
X62998727Y47319825D01*
X62756885Y47420000D01*
X62244500Y47420000D01*
X62080000Y47255500D01*
X61872000Y47255500D01*
X61707500Y47420000D01*
X61195115Y47420000D01*
X60953273Y47319825D01*
X60768174Y47134727D01*
X60668000Y46892884D01*
X31271198Y46892884D01*
X30052019Y48112063D01*
X64783016Y48112063D01*
X65786000Y47109078D01*
X66788984Y48112063D01*
X66693621Y48388168D01*
X66396673Y48503483D01*
X93883596Y48503483D01*
X94742000Y47645078D01*
X95600404Y48503483D01*
X95529502Y48758839D01*
X94987054Y48964228D01*
X94407299Y48946397D01*
X93954498Y48758839D01*
X93883596Y48503483D01*
X66396673Y48503483D01*
X66078761Y48626939D01*
X65419332Y48612238D01*
X64878379Y48388168D01*
X64783016Y48112063D01*
X30052019Y48112063D01*
X29752133Y48411949D01*
X29752182Y48467942D01*
X29592666Y48854000D01*
X29297554Y49149628D01*
X28911774Y49309818D01*
X28494058Y49310182D01*
X28108000Y49150666D01*
X27812372Y48855554D01*
X27652182Y48469774D01*
X27651818Y48052058D01*
X1150000Y48052058D01*
X1150000Y49784000D01*
X32840000Y49784000D01*
X32950375Y49229109D01*
X33264695Y48758695D01*
X33735109Y48444375D01*
X34290000Y48334000D01*
X41402000Y48334000D01*
X41956891Y48444375D01*
X42427305Y48758695D01*
X42741625Y49229109D01*
X42852000Y49784000D01*
X42741625Y50338891D01*
X42427305Y50809305D01*
X41956891Y51123625D01*
X41402000Y51234000D01*
X34290000Y51234000D01*
X33735109Y51123625D01*
X33264695Y50809305D01*
X32950375Y50338891D01*
X32840000Y49784000D01*
X1150000Y49784000D01*
X1150000Y51963937D01*
X64783016Y51963937D01*
X64878379Y51687832D01*
X65493239Y51449061D01*
X66152668Y51463762D01*
X66693621Y51687832D01*
X66788984Y51963937D01*
X65786000Y52966922D01*
X64783016Y51963937D01*
X1150000Y51963937D01*
X1150000Y53495500D01*
X60668000Y53495500D01*
X60668000Y53183116D01*
X60768174Y52941273D01*
X60953273Y52756175D01*
X61195115Y52656000D01*
X61707500Y52656000D01*
X61872000Y52820500D01*
X61872000Y53660000D01*
X62080000Y53660000D01*
X62080000Y52820500D01*
X62244500Y52656000D01*
X62756885Y52656000D01*
X62998727Y52756175D01*
X63183826Y52941273D01*
X63284000Y53183116D01*
X63284000Y53406761D01*
X64121061Y53406761D01*
X64135762Y52747332D01*
X64359832Y52206379D01*
X64635937Y52111016D01*
X65638922Y53114000D01*
X65933078Y53114000D01*
X66936063Y52111016D01*
X67212168Y52206379D01*
X67216656Y52217937D01*
X83071016Y52217937D01*
X83166379Y51941832D01*
X83781239Y51703061D01*
X84440668Y51717762D01*
X84981621Y51941832D01*
X85076984Y52217937D01*
X84074000Y53220922D01*
X83071016Y52217937D01*
X67216656Y52217937D01*
X67450939Y52821239D01*
X67436238Y53480668D01*
X67430095Y53495500D01*
X68542000Y53495500D01*
X68542000Y53183116D01*
X68642174Y52941273D01*
X68827273Y52756175D01*
X69069115Y52656000D01*
X69581500Y52656000D01*
X69746000Y52820500D01*
X69746000Y53660000D01*
X69954000Y53660000D01*
X69954000Y52820500D01*
X70118500Y52656000D01*
X70630885Y52656000D01*
X70872727Y52756175D01*
X71057826Y52941273D01*
X71158000Y53183116D01*
X71158000Y53495500D01*
X70993500Y53660000D01*
X69954000Y53660000D01*
X69746000Y53660000D01*
X68706500Y53660000D01*
X68542000Y53495500D01*
X67430095Y53495500D01*
X67361642Y53660761D01*
X82409061Y53660761D01*
X82423762Y53001332D01*
X82647832Y52460379D01*
X82923937Y52365016D01*
X83926922Y53368000D01*
X84221078Y53368000D01*
X85224063Y52365016D01*
X85500168Y52460379D01*
X85738939Y53075239D01*
X85735356Y53236000D01*
X93284000Y53236000D01*
X93284000Y52436000D01*
X93434783Y51885964D01*
X93784578Y51435499D01*
X94280132Y51153185D01*
X94411780Y51119888D01*
X94638000Y51250688D01*
X94638000Y53236000D01*
X94846000Y53236000D01*
X94846000Y51250688D01*
X95072220Y51119888D01*
X95203868Y51153185D01*
X95699422Y51435499D01*
X96049217Y51885964D01*
X96200000Y52436000D01*
X96200000Y53236000D01*
X94846000Y53236000D01*
X94638000Y53236000D01*
X93284000Y53236000D01*
X85735356Y53236000D01*
X85724238Y53734668D01*
X85513266Y54244000D01*
X93284000Y54244000D01*
X93284000Y53444000D01*
X94638000Y53444000D01*
X94638000Y53464000D01*
X94846000Y53464000D01*
X94846000Y53444000D01*
X96200000Y53444000D01*
X96200000Y54244000D01*
X96049217Y54794036D01*
X95699422Y55244501D01*
X95380365Y55426266D01*
X95449143Y55454684D01*
X95801081Y55806007D01*
X95991783Y56265269D01*
X95992217Y56762550D01*
X95802316Y57222143D01*
X95450993Y57574081D01*
X94991731Y57764783D01*
X94494450Y57765217D01*
X94034857Y57575316D01*
X93682919Y57223993D01*
X93492217Y56764731D01*
X93491783Y56267450D01*
X93681684Y55807857D01*
X94033007Y55455919D01*
X94103966Y55426454D01*
X93784578Y55244501D01*
X93434783Y54794036D01*
X93284000Y54244000D01*
X85513266Y54244000D01*
X85500168Y54275621D01*
X85224063Y54370984D01*
X84221078Y53368000D01*
X83926922Y53368000D01*
X82923937Y54370984D01*
X82647832Y54275621D01*
X82409061Y53660761D01*
X67361642Y53660761D01*
X67212168Y54021621D01*
X66936063Y54116984D01*
X65933078Y53114000D01*
X65638922Y53114000D01*
X64635937Y54116984D01*
X64359832Y54021621D01*
X64121061Y53406761D01*
X63284000Y53406761D01*
X63284000Y53495500D01*
X63119500Y53660000D01*
X62080000Y53660000D01*
X61872000Y53660000D01*
X60832500Y53660000D01*
X60668000Y53495500D01*
X1150000Y53495500D01*
X1150000Y54344884D01*
X60668000Y54344884D01*
X60668000Y54032500D01*
X60832500Y53868000D01*
X61872000Y53868000D01*
X61872000Y53888000D01*
X62080000Y53888000D01*
X62080000Y53868000D01*
X63119500Y53868000D01*
X63284000Y54032500D01*
X63284000Y54264063D01*
X64783016Y54264063D01*
X65786000Y53261078D01*
X66788984Y54264063D01*
X66693621Y54540168D01*
X66078761Y54778939D01*
X65419332Y54764238D01*
X64878379Y54540168D01*
X64783016Y54264063D01*
X63284000Y54264063D01*
X63284000Y54344884D01*
X63183826Y54586727D01*
X62998727Y54771825D01*
X62756885Y54872000D01*
X62460146Y54872000D01*
X62776754Y55083550D01*
X62792760Y55086562D01*
X62945919Y55185117D01*
X63048668Y55335495D01*
X63049713Y55340657D01*
X63123056Y55414000D01*
X64935086Y55414000D01*
X64963569Y55385467D01*
X65496312Y55164252D01*
X66073157Y55163749D01*
X66606286Y55384033D01*
X66636305Y55414000D01*
X68702944Y55414000D01*
X68777720Y55339224D01*
X68871117Y55194081D01*
X69021495Y55091332D01*
X69044604Y55086652D01*
X69365854Y54872000D01*
X69069115Y54872000D01*
X68827273Y54771825D01*
X68642174Y54586727D01*
X68542000Y54344884D01*
X68542000Y54032500D01*
X68706500Y53868000D01*
X69746000Y53868000D01*
X69746000Y53888000D01*
X69954000Y53888000D01*
X69954000Y53868000D01*
X70993500Y53868000D01*
X71158000Y54032500D01*
X71158000Y54344884D01*
X71086268Y54518063D01*
X83071016Y54518063D01*
X84074000Y53515078D01*
X85076984Y54518063D01*
X84981621Y54794168D01*
X84366761Y55032939D01*
X83707332Y55018238D01*
X83166379Y54794168D01*
X83071016Y54518063D01*
X71086268Y54518063D01*
X71057826Y54586727D01*
X70872727Y54771825D01*
X70630885Y54872000D01*
X70334146Y54872000D01*
X70650754Y55083550D01*
X70666760Y55086562D01*
X70819919Y55185117D01*
X70922668Y55335495D01*
X70956207Y55501116D01*
X70958655Y55504780D01*
X71050000Y55964000D01*
X70958655Y56423220D01*
X70956464Y56426499D01*
X70927438Y56580760D01*
X70927385Y56580843D01*
X82623749Y56580843D01*
X82844033Y56047714D01*
X83251569Y55639467D01*
X83784312Y55418252D01*
X84361157Y55417749D01*
X84894286Y55638033D01*
X85302533Y56045569D01*
X85523748Y56578312D01*
X85524251Y57155157D01*
X85303967Y57688286D01*
X84896431Y58096533D01*
X84363688Y58317748D01*
X83786843Y58318251D01*
X83253714Y58097967D01*
X82845467Y57690431D01*
X82624252Y57157688D01*
X82623749Y56580843D01*
X70927385Y56580843D01*
X70828883Y56733919D01*
X70678505Y56836668D01*
X70673343Y56837713D01*
X70048528Y57462528D01*
X69659220Y57722655D01*
X69200000Y57814000D01*
X66636914Y57814000D01*
X66608431Y57842533D01*
X66075688Y58063748D01*
X65498843Y58064251D01*
X64965714Y57843967D01*
X64935695Y57814000D01*
X62626000Y57814000D01*
X62166780Y57722655D01*
X61777472Y57462528D01*
X61151224Y56836280D01*
X61006081Y56742883D01*
X60903332Y56592505D01*
X60869793Y56426884D01*
X60867345Y56423220D01*
X60776000Y55964000D01*
X60867345Y55504780D01*
X60869536Y55501501D01*
X60898562Y55347240D01*
X60997117Y55194081D01*
X61147495Y55091332D01*
X61170604Y55086652D01*
X61491854Y54872000D01*
X61195115Y54872000D01*
X60953273Y54771825D01*
X60768174Y54586727D01*
X60668000Y54344884D01*
X1150000Y54344884D01*
X1150000Y56324500D01*
X6188000Y56324500D01*
X6188000Y55912116D01*
X6288174Y55670273D01*
X6473273Y55485175D01*
X6715115Y55385000D01*
X7427500Y55385000D01*
X7592000Y55549500D01*
X7592000Y56489000D01*
X7800000Y56489000D01*
X7800000Y55549500D01*
X7964500Y55385000D01*
X8676885Y55385000D01*
X8918727Y55485175D01*
X9103826Y55670273D01*
X9204000Y55912116D01*
X9204000Y56324500D01*
X9039500Y56489000D01*
X7800000Y56489000D01*
X7592000Y56489000D01*
X6352500Y56489000D01*
X6188000Y56324500D01*
X1150000Y56324500D01*
X1150000Y57273884D01*
X6188000Y57273884D01*
X6188000Y56861500D01*
X6352500Y56697000D01*
X7592000Y56697000D01*
X7592000Y57636500D01*
X7800000Y57636500D01*
X7800000Y56697000D01*
X9039500Y56697000D01*
X9204000Y56861500D01*
X9204000Y57273884D01*
X9103826Y57515727D01*
X9060053Y57559500D01*
X9309000Y57559500D01*
X9309000Y57247116D01*
X9409174Y57005273D01*
X9594273Y56820175D01*
X9836115Y56720000D01*
X10348500Y56720000D01*
X10513000Y56884500D01*
X10513000Y57724000D01*
X10721000Y57724000D01*
X10721000Y56884500D01*
X10885500Y56720000D01*
X11397885Y56720000D01*
X11639727Y56820175D01*
X11824826Y57005273D01*
X11925000Y57247116D01*
X11925000Y57559500D01*
X11760500Y57724000D01*
X10721000Y57724000D01*
X10513000Y57724000D01*
X9473500Y57724000D01*
X9309000Y57559500D01*
X9060053Y57559500D01*
X8918727Y57700825D01*
X8676885Y57801000D01*
X7964500Y57801000D01*
X7800000Y57636500D01*
X7592000Y57636500D01*
X7427500Y57801000D01*
X6715115Y57801000D01*
X6473273Y57700825D01*
X6288174Y57515727D01*
X6188000Y57273884D01*
X1150000Y57273884D01*
X1150000Y85852000D01*
X6246000Y85852000D01*
X6246000Y59993000D01*
X6356375Y59438109D01*
X6400542Y59372008D01*
X6418562Y59276240D01*
X6517117Y59123081D01*
X6608666Y59060528D01*
X6670695Y58967695D01*
X7141109Y58653375D01*
X7696000Y58543000D01*
X7871956Y58578000D01*
X9379050Y58578000D01*
X9309000Y58408884D01*
X9309000Y58096500D01*
X9473500Y57932000D01*
X10513000Y57932000D01*
X10513000Y57952000D01*
X10721000Y57952000D01*
X10721000Y57932000D01*
X11760500Y57932000D01*
X11925000Y58096500D01*
X11925000Y58408884D01*
X11824826Y58650727D01*
X11639727Y58835825D01*
X11487151Y58899025D01*
X11642305Y59002695D01*
X11956625Y59473109D01*
X12008928Y59736058D01*
X27651818Y59736058D01*
X27811334Y59350000D01*
X28106446Y59054372D01*
X28492226Y58894182D01*
X28909942Y58893818D01*
X29296000Y59053334D01*
X29336737Y59094000D01*
X36477918Y59094000D01*
X39589867Y55982051D01*
X39589818Y55926058D01*
X39749334Y55540000D01*
X40044446Y55244372D01*
X40430226Y55084182D01*
X40847942Y55083818D01*
X41234000Y55243334D01*
X41529628Y55538446D01*
X41689818Y55924226D01*
X41690182Y56341942D01*
X41530666Y56728000D01*
X41235554Y57023628D01*
X40849774Y57183818D01*
X40792214Y57183868D01*
X38533239Y59442843D01*
X48917749Y59442843D01*
X49138033Y58909714D01*
X49545569Y58501467D01*
X50078312Y58280252D01*
X50655157Y58279749D01*
X51188286Y58500033D01*
X51596533Y58907569D01*
X51810575Y59423039D01*
X57707732Y59423039D01*
X57943208Y58853143D01*
X58378849Y58416740D01*
X58948333Y58180270D01*
X59564961Y58179732D01*
X60134857Y58415208D01*
X60571260Y58850849D01*
X60807730Y59420333D01*
X60808268Y60036961D01*
X60572792Y60606857D01*
X60137151Y61043260D01*
X59567667Y61279730D01*
X58951039Y61280268D01*
X58381143Y61044792D01*
X57944740Y60609151D01*
X57708270Y60039667D01*
X57707732Y59423039D01*
X51810575Y59423039D01*
X51817748Y59440312D01*
X51818251Y60017157D01*
X51597967Y60550286D01*
X51190431Y60958533D01*
X50657688Y61179748D01*
X50080843Y61180251D01*
X49547714Y60959967D01*
X49139467Y60552431D01*
X48918252Y60019688D01*
X48917749Y59442843D01*
X38533239Y59442843D01*
X37431041Y60545041D01*
X37155281Y60729298D01*
X36830000Y60794000D01*
X29337113Y60794000D01*
X29297554Y60833628D01*
X28911774Y60993818D01*
X28494058Y60994182D01*
X28108000Y60834666D01*
X27812372Y60539554D01*
X27652182Y60153774D01*
X27651818Y59736058D01*
X12008928Y59736058D01*
X12067000Y60028000D01*
X11956625Y60582891D01*
X11642305Y61053305D01*
X11171891Y61367625D01*
X10617000Y61478000D01*
X9146000Y61478000D01*
X9146000Y61542000D01*
X10236000Y61542000D01*
X10790891Y61652375D01*
X11261305Y61966695D01*
X11575625Y62437109D01*
X11686000Y62992000D01*
X11575625Y63546891D01*
X11261305Y64017305D01*
X10790891Y64331625D01*
X10664852Y64356696D01*
X10873342Y64442843D01*
X48917749Y64442843D01*
X49138033Y63909714D01*
X49545569Y63501467D01*
X50078312Y63280252D01*
X50655157Y63279749D01*
X51188286Y63500033D01*
X51596533Y63907569D01*
X51810575Y64423039D01*
X57707732Y64423039D01*
X57943208Y63853143D01*
X58378849Y63416740D01*
X58948333Y63180270D01*
X59564961Y63179732D01*
X60134857Y63415208D01*
X60571260Y63850849D01*
X60807730Y64420333D01*
X60808268Y65036961D01*
X60572792Y65606857D01*
X60137151Y66043260D01*
X59567667Y66279730D01*
X58951039Y66280268D01*
X58381143Y66044792D01*
X57944740Y65609151D01*
X57708270Y65039667D01*
X57707732Y64423039D01*
X51810575Y64423039D01*
X51817748Y64440312D01*
X51818251Y65017157D01*
X51597967Y65550286D01*
X51190431Y65958533D01*
X50657688Y66179748D01*
X50080843Y66180251D01*
X49547714Y65959967D01*
X49139467Y65552431D01*
X48918252Y65019688D01*
X48917749Y64442843D01*
X10873342Y64442843D01*
X10943143Y64471684D01*
X11295081Y64823007D01*
X11485783Y65282269D01*
X11486217Y65779550D01*
X11296316Y66239143D01*
X10944993Y66591081D01*
X10485731Y66781783D01*
X9988450Y66782217D01*
X9528857Y66592316D01*
X9176919Y66240993D01*
X9146000Y66166532D01*
X9146000Y67436697D01*
X9175684Y67364857D01*
X9527007Y67012919D01*
X9986269Y66822217D01*
X10483550Y66821783D01*
X10943143Y67011684D01*
X11295081Y67363007D01*
X11485783Y67822269D01*
X11486217Y68319550D01*
X11296316Y68779143D01*
X10944993Y69131081D01*
X10485731Y69321783D01*
X9988450Y69322217D01*
X9528857Y69132316D01*
X9176919Y68780993D01*
X9146000Y68706532D01*
X9146000Y69976697D01*
X9175684Y69904857D01*
X9527007Y69552919D01*
X9986269Y69362217D01*
X10483550Y69361783D01*
X10943143Y69551684D01*
X11295081Y69903007D01*
X11485783Y70362269D01*
X11486217Y70859550D01*
X11296316Y71319143D01*
X11195578Y71420058D01*
X27651818Y71420058D01*
X27811334Y71034000D01*
X28106446Y70738372D01*
X28348732Y70637766D01*
X31840249Y67146248D01*
X32148450Y66940314D01*
X32512000Y66868000D01*
X40189838Y66868000D01*
X40430226Y66768182D01*
X40847942Y66767818D01*
X41234000Y66927334D01*
X41529628Y67222446D01*
X41689818Y67608226D01*
X41690182Y68025942D01*
X41530666Y68412000D01*
X41235554Y68707628D01*
X40849774Y68867818D01*
X40432058Y68868182D01*
X40189599Y68768000D01*
X32905503Y68768000D01*
X32598464Y69075039D01*
X48817732Y69075039D01*
X49053208Y68505143D01*
X49488849Y68068740D01*
X50058333Y67832270D01*
X50674961Y67831732D01*
X51244857Y68067208D01*
X51681260Y68502849D01*
X51917730Y69072333D01*
X51917749Y69094843D01*
X57807749Y69094843D01*
X58028033Y68561714D01*
X58435569Y68153467D01*
X58968312Y67932252D01*
X59545157Y67931749D01*
X60078286Y68152033D01*
X60486533Y68559569D01*
X60707748Y69092312D01*
X60708251Y69669157D01*
X60487967Y70202286D01*
X60080431Y70610533D01*
X59547688Y70831748D01*
X58970843Y70832251D01*
X58437714Y70611967D01*
X58029467Y70204431D01*
X57808252Y69671688D01*
X57807749Y69094843D01*
X51917749Y69094843D01*
X51918268Y69688961D01*
X51682792Y70258857D01*
X51247151Y70695260D01*
X50820430Y70872450D01*
X79089783Y70872450D01*
X79279684Y70412857D01*
X79631007Y70060919D01*
X80090269Y69870217D01*
X80587550Y69869783D01*
X81047143Y70059684D01*
X81102071Y70114517D01*
X82021596Y70114517D01*
X82092498Y69859161D01*
X82634946Y69653772D01*
X83214701Y69671603D01*
X83667502Y69859161D01*
X83738404Y70114517D01*
X82880000Y70972922D01*
X82021596Y70114517D01*
X81102071Y70114517D01*
X81399081Y70411007D01*
X81492976Y70637132D01*
X81619161Y70332498D01*
X81874517Y70261596D01*
X82732922Y71120000D01*
X83027078Y71120000D01*
X83885483Y70261596D01*
X84140839Y70332498D01*
X84346228Y70874946D01*
X84328397Y71454701D01*
X84140839Y71907502D01*
X83885483Y71978404D01*
X83027078Y71120000D01*
X82732922Y71120000D01*
X81874517Y71978404D01*
X81619161Y71907502D01*
X81498637Y71589189D01*
X81400316Y71827143D01*
X81102498Y72125483D01*
X82021596Y72125483D01*
X82880000Y71267078D01*
X83738404Y72125483D01*
X83667502Y72380839D01*
X83125054Y72586228D01*
X82545299Y72568397D01*
X82092498Y72380839D01*
X82021596Y72125483D01*
X81102498Y72125483D01*
X81048993Y72179081D01*
X80589731Y72369783D01*
X80092450Y72370217D01*
X79632857Y72180316D01*
X79280919Y71828993D01*
X79090217Y71369731D01*
X79089783Y70872450D01*
X50820430Y70872450D01*
X50677667Y70931730D01*
X50061039Y70932268D01*
X49491143Y70696792D01*
X49054740Y70261151D01*
X48818270Y69691667D01*
X48817732Y69075039D01*
X32598464Y69075039D01*
X29692064Y71981438D01*
X29592666Y72222000D01*
X29297554Y72517628D01*
X28911774Y72677818D01*
X28494058Y72678182D01*
X28108000Y72518666D01*
X27812372Y72223554D01*
X27652182Y71837774D01*
X27651818Y71420058D01*
X11195578Y71420058D01*
X10944993Y71671081D01*
X10485731Y71861783D01*
X9988450Y71862217D01*
X9528857Y71672316D01*
X9176919Y71320993D01*
X9146000Y71246532D01*
X9146000Y72516697D01*
X9175684Y72444857D01*
X9527007Y72092919D01*
X9986269Y71902217D01*
X10483550Y71901783D01*
X10943143Y72091684D01*
X11295081Y72443007D01*
X11485783Y72902269D01*
X11486217Y73399550D01*
X11296316Y73859143D01*
X10944993Y74211081D01*
X10485731Y74401783D01*
X9988450Y74402217D01*
X9528857Y74212316D01*
X9176919Y73860993D01*
X9146000Y73786532D01*
X9146000Y75056697D01*
X9175684Y74984857D01*
X9527007Y74632919D01*
X9986269Y74442217D01*
X10483550Y74441783D01*
X10943143Y74631684D01*
X11295081Y74983007D01*
X11485783Y75442269D01*
X11486217Y75939550D01*
X11296316Y76399143D01*
X10944993Y76751081D01*
X10485731Y76941783D01*
X9988450Y76942217D01*
X9528857Y76752316D01*
X9176919Y76400993D01*
X9146000Y76326532D01*
X9146000Y77596697D01*
X9175684Y77524857D01*
X9527007Y77172919D01*
X9986269Y76982217D01*
X10483550Y76981783D01*
X10943143Y77171684D01*
X11295081Y77523007D01*
X11485783Y77982269D01*
X11486217Y78479550D01*
X11296316Y78939143D01*
X10944993Y79291081D01*
X10485731Y79481783D01*
X9988450Y79482217D01*
X9528857Y79292316D01*
X9176919Y78940993D01*
X9146000Y78866532D01*
X9146000Y80136697D01*
X9175684Y80064857D01*
X9527007Y79712919D01*
X9986269Y79522217D01*
X10483550Y79521783D01*
X10943143Y79711684D01*
X11295081Y80063007D01*
X11484010Y80518000D01*
X31427000Y80518000D01*
X31427000Y71501000D01*
X31457775Y71337444D01*
X31554437Y71187228D01*
X31701925Y71086454D01*
X31877000Y71051000D01*
X35560000Y71051000D01*
X35723556Y71081775D01*
X35873772Y71178437D01*
X35974546Y71325925D01*
X36010000Y71501000D01*
X36010000Y75242000D01*
X36126000Y75242000D01*
X36126000Y73152000D01*
X36156775Y72988444D01*
X36253437Y72838228D01*
X36400925Y72737454D01*
X36576000Y72702000D01*
X39370000Y72702000D01*
X39533556Y72732775D01*
X39683772Y72829437D01*
X39784546Y72976925D01*
X39820000Y73152000D01*
X39820000Y74075039D01*
X48817732Y74075039D01*
X49053208Y73505143D01*
X49488849Y73068740D01*
X50058333Y72832270D01*
X50674961Y72831732D01*
X51244857Y73067208D01*
X51681260Y73502849D01*
X51917730Y74072333D01*
X51917749Y74094843D01*
X57807749Y74094843D01*
X58028033Y73561714D01*
X58435569Y73153467D01*
X58968312Y72932252D01*
X59545157Y72931749D01*
X60078286Y73152033D01*
X60486533Y73559569D01*
X60707748Y74092312D01*
X60708251Y74669157D01*
X60487967Y75202286D01*
X60080431Y75610533D01*
X59547688Y75831748D01*
X58970843Y75832251D01*
X58437714Y75611967D01*
X58029467Y75204431D01*
X57808252Y74671688D01*
X57807749Y74094843D01*
X51917749Y74094843D01*
X51918268Y74688961D01*
X51682792Y75258857D01*
X51247151Y75695260D01*
X50677667Y75931730D01*
X50061039Y75932268D01*
X49491143Y75696792D01*
X49054740Y75261151D01*
X48818270Y74691667D01*
X48817732Y74075039D01*
X39820000Y74075039D01*
X39820000Y77724000D01*
X39789225Y77887556D01*
X39692563Y78037772D01*
X39545075Y78138546D01*
X39370000Y78174000D01*
X37788000Y78174000D01*
X37788000Y80518000D01*
X37757225Y80681556D01*
X37660563Y80831772D01*
X37513075Y80932546D01*
X37338000Y80968000D01*
X34798000Y80968000D01*
X34634444Y80937225D01*
X34609098Y80920915D01*
X34592075Y80932546D01*
X34417000Y80968000D01*
X31877000Y80968000D01*
X31713444Y80937225D01*
X31563228Y80840563D01*
X31462454Y80693075D01*
X31427000Y80518000D01*
X11484010Y80518000D01*
X11485783Y80522269D01*
X11486217Y81019550D01*
X11296316Y81479143D01*
X10944993Y81831081D01*
X10485731Y82021783D01*
X9988450Y82022217D01*
X9528857Y81832316D01*
X9176919Y81480993D01*
X9146000Y81406532D01*
X9146000Y82676697D01*
X9175684Y82604857D01*
X9527007Y82252919D01*
X9986269Y82062217D01*
X10483550Y82061783D01*
X10589352Y82105500D01*
X12919000Y82105500D01*
X12919000Y81693116D01*
X13019174Y81451273D01*
X13204273Y81266175D01*
X13446115Y81166000D01*
X14158500Y81166000D01*
X14323000Y81330500D01*
X14323000Y82270000D01*
X14531000Y82270000D01*
X14531000Y81330500D01*
X14695500Y81166000D01*
X15407885Y81166000D01*
X15649727Y81266175D01*
X15834826Y81451273D01*
X15935000Y81693116D01*
X15935000Y82105500D01*
X15770500Y82270000D01*
X14531000Y82270000D01*
X14323000Y82270000D01*
X13083500Y82270000D01*
X12919000Y82105500D01*
X10589352Y82105500D01*
X10943143Y82251684D01*
X11295081Y82603007D01*
X11482716Y83054884D01*
X12919000Y83054884D01*
X12919000Y82642500D01*
X13083500Y82478000D01*
X14323000Y82478000D01*
X14323000Y83417500D01*
X14531000Y83417500D01*
X14531000Y82478000D01*
X15770500Y82478000D01*
X15935000Y82642500D01*
X15935000Y83054884D01*
X15834826Y83296727D01*
X15791053Y83340500D01*
X16294000Y83340500D01*
X16294000Y83028116D01*
X16394174Y82786273D01*
X16579273Y82601175D01*
X16821115Y82501000D01*
X17333500Y82501000D01*
X17498000Y82665500D01*
X17498000Y83505000D01*
X17706000Y83505000D01*
X17706000Y82665500D01*
X17870500Y82501000D01*
X18382885Y82501000D01*
X18624727Y82601175D01*
X18809826Y82786273D01*
X18910000Y83028116D01*
X18910000Y83104058D01*
X27651818Y83104058D01*
X27811334Y82718000D01*
X28106446Y82422372D01*
X28492226Y82262182D01*
X28909942Y82261818D01*
X29296000Y82421334D01*
X29336737Y82462000D01*
X36477918Y82462000D01*
X39589867Y79350051D01*
X39589818Y79294058D01*
X39749334Y78908000D01*
X40044446Y78612372D01*
X40430226Y78452182D01*
X40847942Y78451818D01*
X41234000Y78611334D01*
X41369745Y78746843D01*
X48917749Y78746843D01*
X49138033Y78213714D01*
X49545569Y77805467D01*
X50078312Y77584252D01*
X50655157Y77583749D01*
X51188286Y77804033D01*
X51596533Y78211569D01*
X51810575Y78727039D01*
X57707732Y78727039D01*
X57943208Y78157143D01*
X58378849Y77720740D01*
X58948333Y77484270D01*
X59564961Y77483732D01*
X60134857Y77719208D01*
X60571260Y78154849D01*
X60711443Y78492450D01*
X79089783Y78492450D01*
X79279684Y78032857D01*
X79631007Y77680919D01*
X80090269Y77490217D01*
X80587550Y77489783D01*
X81047143Y77679684D01*
X81102071Y77734517D01*
X82021596Y77734517D01*
X82092498Y77479161D01*
X82634946Y77273772D01*
X83214701Y77291603D01*
X83667502Y77479161D01*
X83738404Y77734517D01*
X82880000Y78592922D01*
X82021596Y77734517D01*
X81102071Y77734517D01*
X81399081Y78031007D01*
X81492976Y78257132D01*
X81619161Y77952498D01*
X81874517Y77881596D01*
X82732922Y78740000D01*
X83027078Y78740000D01*
X83885483Y77881596D01*
X84140839Y77952498D01*
X84346228Y78494946D01*
X84328397Y79074701D01*
X84140839Y79527502D01*
X83885483Y79598404D01*
X83027078Y78740000D01*
X82732922Y78740000D01*
X81874517Y79598404D01*
X81619161Y79527502D01*
X81498637Y79209189D01*
X81400316Y79447143D01*
X81102498Y79745483D01*
X82021596Y79745483D01*
X82880000Y78887078D01*
X83738404Y79745483D01*
X83667502Y80000839D01*
X83125054Y80206228D01*
X82545299Y80188397D01*
X82092498Y80000839D01*
X82021596Y79745483D01*
X81102498Y79745483D01*
X81048993Y79799081D01*
X80589731Y79989783D01*
X80092450Y79990217D01*
X79632857Y79800316D01*
X79280919Y79448993D01*
X79090217Y78989731D01*
X79089783Y78492450D01*
X60711443Y78492450D01*
X60807730Y78724333D01*
X60808268Y79340961D01*
X60572792Y79910857D01*
X60137151Y80347260D01*
X59567667Y80583730D01*
X58951039Y80584268D01*
X58381143Y80348792D01*
X57944740Y79913151D01*
X57708270Y79343667D01*
X57707732Y78727039D01*
X51810575Y78727039D01*
X51817748Y78744312D01*
X51818251Y79321157D01*
X51597967Y79854286D01*
X51190431Y80262533D01*
X50657688Y80483748D01*
X50080843Y80484251D01*
X49547714Y80263967D01*
X49139467Y79856431D01*
X48918252Y79323688D01*
X48917749Y78746843D01*
X41369745Y78746843D01*
X41529628Y78906446D01*
X41689818Y79292226D01*
X41690182Y79709942D01*
X41530666Y80096000D01*
X41235554Y80391628D01*
X40849774Y80551818D01*
X40792214Y80551868D01*
X37597239Y83746843D01*
X48917749Y83746843D01*
X49138033Y83213714D01*
X49545569Y82805467D01*
X50078312Y82584252D01*
X50655157Y82583749D01*
X51188286Y82804033D01*
X51596533Y83211569D01*
X51810575Y83727039D01*
X57707732Y83727039D01*
X57943208Y83157143D01*
X58378849Y82720740D01*
X58948333Y82484270D01*
X59564961Y82483732D01*
X60134857Y82719208D01*
X60571260Y83154849D01*
X60807730Y83724333D01*
X60808268Y84340961D01*
X60572792Y84910857D01*
X60137151Y85347260D01*
X59567667Y85583730D01*
X58951039Y85584268D01*
X58381143Y85348792D01*
X57944740Y84913151D01*
X57708270Y84343667D01*
X57707732Y83727039D01*
X51810575Y83727039D01*
X51817748Y83744312D01*
X51818251Y84321157D01*
X51597967Y84854286D01*
X51190431Y85262533D01*
X50657688Y85483748D01*
X50080843Y85484251D01*
X49547714Y85263967D01*
X49139467Y84856431D01*
X48918252Y84323688D01*
X48917749Y83746843D01*
X37597239Y83746843D01*
X37431041Y83913041D01*
X37155281Y84097298D01*
X36830000Y84162000D01*
X29337113Y84162000D01*
X29297554Y84201628D01*
X28911774Y84361818D01*
X28494058Y84362182D01*
X28108000Y84202666D01*
X27812372Y83907554D01*
X27652182Y83521774D01*
X27651818Y83104058D01*
X18910000Y83104058D01*
X18910000Y83340500D01*
X18745500Y83505000D01*
X17706000Y83505000D01*
X17498000Y83505000D01*
X16458500Y83505000D01*
X16294000Y83340500D01*
X15791053Y83340500D01*
X15649727Y83481825D01*
X15407885Y83582000D01*
X14695500Y83582000D01*
X14531000Y83417500D01*
X14323000Y83417500D01*
X14158500Y83582000D01*
X13446115Y83582000D01*
X13204273Y83481825D01*
X13019174Y83296727D01*
X12919000Y83054884D01*
X11482716Y83054884D01*
X11485783Y83062269D01*
X11486217Y83559550D01*
X11296316Y84019143D01*
X10944993Y84371081D01*
X10870532Y84402000D01*
X14034869Y84402000D01*
X14427000Y84324000D01*
X16349552Y84324000D01*
X16294000Y84189884D01*
X16294000Y83877500D01*
X16458500Y83713000D01*
X17498000Y83713000D01*
X17498000Y83733000D01*
X17706000Y83733000D01*
X17706000Y83713000D01*
X18745500Y83713000D01*
X18910000Y83877500D01*
X18910000Y84189884D01*
X18809826Y84431727D01*
X18624727Y84616825D01*
X18482881Y84675580D01*
X18592305Y84748695D01*
X18627304Y84783695D01*
X18941625Y85254109D01*
X19052000Y85809000D01*
X18991640Y86112450D01*
X79089783Y86112450D01*
X79279684Y85652857D01*
X79631007Y85300919D01*
X80090269Y85110217D01*
X80587550Y85109783D01*
X81047143Y85299684D01*
X81102071Y85354517D01*
X82021596Y85354517D01*
X82092498Y85099161D01*
X82634946Y84893772D01*
X83214701Y84911603D01*
X83667502Y85099161D01*
X83738404Y85354517D01*
X82880000Y86212922D01*
X82021596Y85354517D01*
X81102071Y85354517D01*
X81399081Y85651007D01*
X81492976Y85877132D01*
X81619161Y85572498D01*
X81874517Y85501596D01*
X82732922Y86360000D01*
X83027078Y86360000D01*
X83885483Y85501596D01*
X84140839Y85572498D01*
X84346228Y86114946D01*
X84328397Y86694701D01*
X84140839Y87147502D01*
X83885483Y87218404D01*
X83027078Y86360000D01*
X82732922Y86360000D01*
X81874517Y87218404D01*
X81619161Y87147502D01*
X81498637Y86829189D01*
X81400316Y87067143D01*
X81102498Y87365483D01*
X82021596Y87365483D01*
X82880000Y86507078D01*
X83738404Y87365483D01*
X83667502Y87620839D01*
X83125054Y87826228D01*
X82545299Y87808397D01*
X82092498Y87620839D01*
X82021596Y87365483D01*
X81102498Y87365483D01*
X81048993Y87419081D01*
X80589731Y87609783D01*
X80092450Y87610217D01*
X79632857Y87420316D01*
X79280919Y87068993D01*
X79090217Y86609731D01*
X79089783Y86112450D01*
X18991640Y86112450D01*
X18941625Y86363890D01*
X18627304Y86834304D01*
X18156890Y87148625D01*
X17602000Y87259000D01*
X17426044Y87224000D01*
X14741131Y87224000D01*
X14349000Y87302000D01*
X7696000Y87302000D01*
X7141109Y87191625D01*
X6670695Y86877305D01*
X6356375Y86406891D01*
X6246000Y85852000D01*
X1150000Y85852000D01*
X1150000Y88379039D01*
X48817732Y88379039D01*
X49053208Y87809143D01*
X49488849Y87372740D01*
X50058333Y87136270D01*
X50674961Y87135732D01*
X51244857Y87371208D01*
X51681260Y87806849D01*
X51917730Y88376333D01*
X51917749Y88398843D01*
X57807749Y88398843D01*
X58028033Y87865714D01*
X58435569Y87457467D01*
X58968312Y87236252D01*
X59545157Y87235749D01*
X60078286Y87456033D01*
X60486533Y87863569D01*
X60707748Y88396312D01*
X60708251Y88973157D01*
X60633764Y89153431D01*
X93249696Y89153431D01*
X93515557Y88509999D01*
X94007410Y88017287D01*
X94650376Y87750304D01*
X95346569Y87749696D01*
X95990001Y88015557D01*
X96482713Y88507410D01*
X96749696Y89150376D01*
X96750304Y89846569D01*
X96484443Y90490001D01*
X95992590Y90982713D01*
X95349624Y91249696D01*
X94653431Y91250304D01*
X94009999Y90984443D01*
X93517287Y90492590D01*
X93250304Y89849624D01*
X93249696Y89153431D01*
X60633764Y89153431D01*
X60487967Y89506286D01*
X60080431Y89914533D01*
X59547688Y90135748D01*
X58970843Y90136251D01*
X58437714Y89915967D01*
X58029467Y89508431D01*
X57808252Y88975688D01*
X57807749Y88398843D01*
X51917749Y88398843D01*
X51918268Y88992961D01*
X51682792Y89562857D01*
X51247151Y89999260D01*
X50677667Y90235730D01*
X50061039Y90236268D01*
X49491143Y90000792D01*
X49054740Y89565151D01*
X48818270Y88995667D01*
X48817732Y88379039D01*
X1150000Y88379039D01*
X1150000Y94336567D01*
X1649420Y94336567D01*
X2158353Y93104857D01*
X3099900Y92161665D01*
X4330720Y91650583D01*
X5663433Y91649420D01*
X6895143Y92158353D01*
X7838335Y93099900D01*
X8349417Y94330720D01*
X8349816Y94788058D01*
X27651818Y94788058D01*
X27811334Y94402000D01*
X28106446Y94106372D01*
X28492226Y93946182D01*
X28909942Y93945818D01*
X29296000Y94105334D01*
X29336737Y94146000D01*
X36477918Y94146000D01*
X39589867Y91034051D01*
X39589818Y90978058D01*
X39749334Y90592000D01*
X40044446Y90296372D01*
X40430226Y90136182D01*
X40847942Y90135818D01*
X41234000Y90295334D01*
X41529628Y90590446D01*
X41689818Y90976226D01*
X41690182Y91393942D01*
X41530666Y91780000D01*
X41235554Y92075628D01*
X40849774Y92235818D01*
X40792214Y92235868D01*
X39649043Y93379039D01*
X48817732Y93379039D01*
X49053208Y92809143D01*
X49488849Y92372740D01*
X50058333Y92136270D01*
X50674961Y92135732D01*
X51244857Y92371208D01*
X51681260Y92806849D01*
X51917730Y93376333D01*
X51917749Y93398843D01*
X57807749Y93398843D01*
X58028033Y92865714D01*
X58435569Y92457467D01*
X58968312Y92236252D01*
X59545157Y92235749D01*
X60078286Y92456033D01*
X60486533Y92863569D01*
X60707748Y93396312D01*
X60708041Y93732450D01*
X79089783Y93732450D01*
X79279684Y93272857D01*
X79631007Y92920919D01*
X80090269Y92730217D01*
X80587550Y92729783D01*
X81047143Y92919684D01*
X81102071Y92974517D01*
X82021596Y92974517D01*
X82092498Y92719161D01*
X82634946Y92513772D01*
X83214701Y92531603D01*
X83667502Y92719161D01*
X83738404Y92974517D01*
X82880000Y93832922D01*
X82021596Y92974517D01*
X81102071Y92974517D01*
X81399081Y93271007D01*
X81492976Y93497132D01*
X81619161Y93192498D01*
X81874517Y93121596D01*
X82732922Y93980000D01*
X83027078Y93980000D01*
X83885483Y93121596D01*
X84140839Y93192498D01*
X84346228Y93734946D01*
X84328397Y94314701D01*
X84319340Y94336567D01*
X91649420Y94336567D01*
X92158353Y93104857D01*
X93099900Y92161665D01*
X94330720Y91650583D01*
X95663433Y91649420D01*
X96895143Y92158353D01*
X97838335Y93099900D01*
X98349417Y94330720D01*
X98350580Y95663433D01*
X97841647Y96895143D01*
X96900100Y97838335D01*
X95669280Y98349417D01*
X94336567Y98350580D01*
X93104857Y97841647D01*
X92161665Y96900100D01*
X91650583Y95669280D01*
X91649420Y94336567D01*
X84319340Y94336567D01*
X84140839Y94767502D01*
X83885483Y94838404D01*
X83027078Y93980000D01*
X82732922Y93980000D01*
X81874517Y94838404D01*
X81619161Y94767502D01*
X81498637Y94449189D01*
X81400316Y94687143D01*
X81102498Y94985483D01*
X82021596Y94985483D01*
X82880000Y94127078D01*
X83738404Y94985483D01*
X83667502Y95240839D01*
X83125054Y95446228D01*
X82545299Y95428397D01*
X82092498Y95240839D01*
X82021596Y94985483D01*
X81102498Y94985483D01*
X81048993Y95039081D01*
X80589731Y95229783D01*
X80092450Y95230217D01*
X79632857Y95040316D01*
X79280919Y94688993D01*
X79090217Y94229731D01*
X79089783Y93732450D01*
X60708041Y93732450D01*
X60708251Y93973157D01*
X60487967Y94506286D01*
X60080431Y94914533D01*
X59547688Y95135748D01*
X58970843Y95136251D01*
X58437714Y94915967D01*
X58029467Y94508431D01*
X57808252Y93975688D01*
X57807749Y93398843D01*
X51917749Y93398843D01*
X51918268Y93992961D01*
X51682792Y94562857D01*
X51247151Y94999260D01*
X50677667Y95235730D01*
X50061039Y95236268D01*
X49491143Y95000792D01*
X49054740Y94565151D01*
X48818270Y93995667D01*
X48817732Y93379039D01*
X39649043Y93379039D01*
X37431041Y95597041D01*
X37155281Y95781298D01*
X36830000Y95846000D01*
X29337113Y95846000D01*
X29297554Y95885628D01*
X28911774Y96045818D01*
X28494058Y96046182D01*
X28108000Y95886666D01*
X27812372Y95591554D01*
X27652182Y95205774D01*
X27651818Y94788058D01*
X8349816Y94788058D01*
X8350580Y95663433D01*
X7841647Y96895143D01*
X6900100Y97838335D01*
X5669280Y98349417D01*
X4336567Y98350580D01*
X3104857Y97841647D01*
X2161665Y96900100D01*
X1650583Y95669280D01*
X1649420Y94336567D01*
X1150000Y94336567D01*
X1150000Y98850000D01*
X98850000Y98850000D01*
X98850000Y1150000D01*
D27*
G36*
X35421000Y79881750D02*
X35552750Y79750000D01*
X36250000Y79750000D01*
X36250000Y79770000D01*
X36746000Y79770000D01*
X36746000Y79750000D01*
X36766000Y79750000D01*
X36766000Y79254000D01*
X36746000Y79254000D01*
X36746000Y78256750D01*
X36877750Y78125000D01*
X37152827Y78125000D01*
X37211000Y78149096D01*
X37211000Y77724000D01*
X37221006Y77674590D01*
X37249447Y77632965D01*
X37291841Y77605685D01*
X37338000Y77597000D01*
X39243000Y77597000D01*
X39243000Y73279000D01*
X38145000Y73279000D01*
X38145000Y73534250D01*
X38013250Y73666000D01*
X37393000Y73666000D01*
X37393000Y73646000D01*
X36943000Y73646000D01*
X36943000Y73666000D01*
X36900000Y73666000D01*
X36900000Y74162000D01*
X36943000Y74162000D01*
X36943000Y74959250D01*
X37393000Y74959250D01*
X37393000Y74162000D01*
X38013250Y74162000D01*
X38145000Y74293750D01*
X38145000Y74668827D01*
X38064769Y74862521D01*
X37916522Y75010769D01*
X37722827Y75091000D01*
X37524750Y75091000D01*
X37393000Y74959250D01*
X36943000Y74959250D01*
X36811250Y75091000D01*
X36703000Y75091000D01*
X36703000Y75692000D01*
X36692994Y75741410D01*
X36664553Y75783035D01*
X36622159Y75810315D01*
X36576000Y75819000D01*
X36367000Y75819000D01*
X36367000Y76074250D01*
X36235250Y76206000D01*
X35615000Y76206000D01*
X35615000Y76186000D01*
X35165000Y76186000D01*
X35165000Y76206000D01*
X35122000Y76206000D01*
X35122000Y76702000D01*
X35165000Y76702000D01*
X35165000Y77499250D01*
X35615000Y77499250D01*
X35615000Y76702000D01*
X36235250Y76702000D01*
X36367000Y76833750D01*
X36367000Y77208827D01*
X36286769Y77402521D01*
X36138522Y77550769D01*
X35944827Y77631000D01*
X35746750Y77631000D01*
X35615000Y77499250D01*
X35165000Y77499250D01*
X35033250Y77631000D01*
X34925000Y77631000D01*
X34925000Y79122250D01*
X35421000Y79122250D01*
X35421000Y78547173D01*
X35501231Y78353479D01*
X35649478Y78205231D01*
X35843173Y78125000D01*
X36118250Y78125000D01*
X36250000Y78256750D01*
X36250000Y79254000D01*
X35552750Y79254000D01*
X35421000Y79122250D01*
X34925000Y79122250D01*
X34925000Y80391000D01*
X35421000Y80391000D01*
X35421000Y79881750D01*
X35421000Y79881750D01*
G37*
X35421000Y79881750D02*
X35552750Y79750000D01*
X36250000Y79750000D01*
X36250000Y79770000D01*
X36746000Y79770000D01*
X36746000Y79750000D01*
X36766000Y79750000D01*
X36766000Y79254000D01*
X36746000Y79254000D01*
X36746000Y78256750D01*
X36877750Y78125000D01*
X37152827Y78125000D01*
X37211000Y78149096D01*
X37211000Y77724000D01*
X37221006Y77674590D01*
X37249447Y77632965D01*
X37291841Y77605685D01*
X37338000Y77597000D01*
X39243000Y77597000D01*
X39243000Y73279000D01*
X38145000Y73279000D01*
X38145000Y73534250D01*
X38013250Y73666000D01*
X37393000Y73666000D01*
X37393000Y73646000D01*
X36943000Y73646000D01*
X36943000Y73666000D01*
X36900000Y73666000D01*
X36900000Y74162000D01*
X36943000Y74162000D01*
X36943000Y74959250D01*
X37393000Y74959250D01*
X37393000Y74162000D01*
X38013250Y74162000D01*
X38145000Y74293750D01*
X38145000Y74668827D01*
X38064769Y74862521D01*
X37916522Y75010769D01*
X37722827Y75091000D01*
X37524750Y75091000D01*
X37393000Y74959250D01*
X36943000Y74959250D01*
X36811250Y75091000D01*
X36703000Y75091000D01*
X36703000Y75692000D01*
X36692994Y75741410D01*
X36664553Y75783035D01*
X36622159Y75810315D01*
X36576000Y75819000D01*
X36367000Y75819000D01*
X36367000Y76074250D01*
X36235250Y76206000D01*
X35615000Y76206000D01*
X35615000Y76186000D01*
X35165000Y76186000D01*
X35165000Y76206000D01*
X35122000Y76206000D01*
X35122000Y76702000D01*
X35165000Y76702000D01*
X35165000Y77499250D01*
X35615000Y77499250D01*
X35615000Y76702000D01*
X36235250Y76702000D01*
X36367000Y76833750D01*
X36367000Y77208827D01*
X36286769Y77402521D01*
X36138522Y77550769D01*
X35944827Y77631000D01*
X35746750Y77631000D01*
X35615000Y77499250D01*
X35165000Y77499250D01*
X35033250Y77631000D01*
X34925000Y77631000D01*
X34925000Y79122250D01*
X35421000Y79122250D01*
X35421000Y78547173D01*
X35501231Y78353479D01*
X35649478Y78205231D01*
X35843173Y78125000D01*
X36118250Y78125000D01*
X36250000Y78256750D01*
X36250000Y79254000D01*
X35552750Y79254000D01*
X35421000Y79122250D01*
X34925000Y79122250D01*
X34925000Y80391000D01*
X35421000Y80391000D01*
X35421000Y79881750D01*
G36*
X32021000Y79881750D02*
X32152750Y79750000D01*
X32850000Y79750000D01*
X32850000Y79770000D01*
X33346000Y79770000D01*
X33346000Y79750000D01*
X34043250Y79750000D01*
X34175000Y79881750D01*
X34175000Y80391000D01*
X34290000Y80391000D01*
X34290000Y75311000D01*
X34300006Y75261590D01*
X34328447Y75219965D01*
X34370841Y75192685D01*
X34417000Y75184000D01*
X35433000Y75184000D01*
X35433000Y75091000D01*
X35324750Y75091000D01*
X35193000Y74959250D01*
X35193000Y74162000D01*
X35236000Y74162000D01*
X35236000Y73666000D01*
X35193000Y73666000D01*
X35193000Y72868750D01*
X35324750Y72737000D01*
X35433000Y72737000D01*
X35433000Y71628000D01*
X32004000Y71628000D01*
X32004000Y73534250D01*
X33991000Y73534250D01*
X33991000Y73159173D01*
X34071231Y72965479D01*
X34219478Y72817231D01*
X34413173Y72737000D01*
X34611250Y72737000D01*
X34743000Y72868750D01*
X34743000Y73666000D01*
X34122750Y73666000D01*
X33991000Y73534250D01*
X32004000Y73534250D01*
X32004000Y74668827D01*
X33991000Y74668827D01*
X33991000Y74293750D01*
X34122750Y74162000D01*
X34743000Y74162000D01*
X34743000Y74959250D01*
X34611250Y75091000D01*
X34413173Y75091000D01*
X34219478Y75010769D01*
X34071231Y74862521D01*
X33991000Y74668827D01*
X32004000Y74668827D01*
X32004000Y76074250D01*
X32213000Y76074250D01*
X32213000Y75699173D01*
X32293231Y75505479D01*
X32441478Y75357231D01*
X32635173Y75277000D01*
X32833250Y75277000D01*
X32965000Y75408750D01*
X32965000Y76206000D01*
X33415000Y76206000D01*
X33415000Y75408750D01*
X33546750Y75277000D01*
X33744827Y75277000D01*
X33938522Y75357231D01*
X34086769Y75505479D01*
X34167000Y75699173D01*
X34167000Y76074250D01*
X34035250Y76206000D01*
X33415000Y76206000D01*
X32965000Y76206000D01*
X32344750Y76206000D01*
X32213000Y76074250D01*
X32004000Y76074250D01*
X32004000Y77208827D01*
X32213000Y77208827D01*
X32213000Y76833750D01*
X32344750Y76702000D01*
X32965000Y76702000D01*
X32965000Y77499250D01*
X33415000Y77499250D01*
X33415000Y76702000D01*
X34035250Y76702000D01*
X34167000Y76833750D01*
X34167000Y77208827D01*
X34086769Y77402521D01*
X33938522Y77550769D01*
X33744827Y77631000D01*
X33546750Y77631000D01*
X33415000Y77499250D01*
X32965000Y77499250D01*
X32833250Y77631000D01*
X32635173Y77631000D01*
X32441478Y77550769D01*
X32293231Y77402521D01*
X32213000Y77208827D01*
X32004000Y77208827D01*
X32004000Y79122250D01*
X32021000Y79122250D01*
X32021000Y78547173D01*
X32101231Y78353479D01*
X32249478Y78205231D01*
X32443173Y78125000D01*
X32718250Y78125000D01*
X32850000Y78256750D01*
X32850000Y79254000D01*
X33346000Y79254000D01*
X33346000Y78256750D01*
X33477750Y78125000D01*
X33752827Y78125000D01*
X33946522Y78205231D01*
X34094769Y78353479D01*
X34175000Y78547173D01*
X34175000Y79122250D01*
X34043250Y79254000D01*
X33346000Y79254000D01*
X32850000Y79254000D01*
X32152750Y79254000D01*
X32021000Y79122250D01*
X32004000Y79122250D01*
X32004000Y80391000D01*
X32021000Y80391000D01*
X32021000Y79881750D01*
X32021000Y79881750D01*
G37*
X32021000Y79881750D02*
X32152750Y79750000D01*
X32850000Y79750000D01*
X32850000Y79770000D01*
X33346000Y79770000D01*
X33346000Y79750000D01*
X34043250Y79750000D01*
X34175000Y79881750D01*
X34175000Y80391000D01*
X34290000Y80391000D01*
X34290000Y75311000D01*
X34300006Y75261590D01*
X34328447Y75219965D01*
X34370841Y75192685D01*
X34417000Y75184000D01*
X35433000Y75184000D01*
X35433000Y75091000D01*
X35324750Y75091000D01*
X35193000Y74959250D01*
X35193000Y74162000D01*
X35236000Y74162000D01*
X35236000Y73666000D01*
X35193000Y73666000D01*
X35193000Y72868750D01*
X35324750Y72737000D01*
X35433000Y72737000D01*
X35433000Y71628000D01*
X32004000Y71628000D01*
X32004000Y73534250D01*
X33991000Y73534250D01*
X33991000Y73159173D01*
X34071231Y72965479D01*
X34219478Y72817231D01*
X34413173Y72737000D01*
X34611250Y72737000D01*
X34743000Y72868750D01*
X34743000Y73666000D01*
X34122750Y73666000D01*
X33991000Y73534250D01*
X32004000Y73534250D01*
X32004000Y74668827D01*
X33991000Y74668827D01*
X33991000Y74293750D01*
X34122750Y74162000D01*
X34743000Y74162000D01*
X34743000Y74959250D01*
X34611250Y75091000D01*
X34413173Y75091000D01*
X34219478Y75010769D01*
X34071231Y74862521D01*
X33991000Y74668827D01*
X32004000Y74668827D01*
X32004000Y76074250D01*
X32213000Y76074250D01*
X32213000Y75699173D01*
X32293231Y75505479D01*
X32441478Y75357231D01*
X32635173Y75277000D01*
X32833250Y75277000D01*
X32965000Y75408750D01*
X32965000Y76206000D01*
X33415000Y76206000D01*
X33415000Y75408750D01*
X33546750Y75277000D01*
X33744827Y75277000D01*
X33938522Y75357231D01*
X34086769Y75505479D01*
X34167000Y75699173D01*
X34167000Y76074250D01*
X34035250Y76206000D01*
X33415000Y76206000D01*
X32965000Y76206000D01*
X32344750Y76206000D01*
X32213000Y76074250D01*
X32004000Y76074250D01*
X32004000Y77208827D01*
X32213000Y77208827D01*
X32213000Y76833750D01*
X32344750Y76702000D01*
X32965000Y76702000D01*
X32965000Y77499250D01*
X33415000Y77499250D01*
X33415000Y76702000D01*
X34035250Y76702000D01*
X34167000Y76833750D01*
X34167000Y77208827D01*
X34086769Y77402521D01*
X33938522Y77550769D01*
X33744827Y77631000D01*
X33546750Y77631000D01*
X33415000Y77499250D01*
X32965000Y77499250D01*
X32833250Y77631000D01*
X32635173Y77631000D01*
X32441478Y77550769D01*
X32293231Y77402521D01*
X32213000Y77208827D01*
X32004000Y77208827D01*
X32004000Y79122250D01*
X32021000Y79122250D01*
X32021000Y78547173D01*
X32101231Y78353479D01*
X32249478Y78205231D01*
X32443173Y78125000D01*
X32718250Y78125000D01*
X32850000Y78256750D01*
X32850000Y79254000D01*
X33346000Y79254000D01*
X33346000Y78256750D01*
X33477750Y78125000D01*
X33752827Y78125000D01*
X33946522Y78205231D01*
X34094769Y78353479D01*
X34175000Y78547173D01*
X34175000Y79122250D01*
X34043250Y79254000D01*
X33346000Y79254000D01*
X32850000Y79254000D01*
X32152750Y79254000D01*
X32021000Y79122250D01*
X32004000Y79122250D01*
X32004000Y80391000D01*
X32021000Y80391000D01*
X32021000Y79881750D01*
G36*
X32021000Y21461750D02*
X32152750Y21330000D01*
X32850000Y21330000D01*
X32850000Y21350000D01*
X33346000Y21350000D01*
X33346000Y21330000D01*
X34043250Y21330000D01*
X34175000Y21461750D01*
X34175000Y21971000D01*
X34290000Y21971000D01*
X34290000Y16891000D01*
X34300006Y16841590D01*
X34328447Y16799965D01*
X34370841Y16772685D01*
X34417000Y16764000D01*
X35433000Y16764000D01*
X35433000Y16671000D01*
X35324750Y16671000D01*
X35193000Y16539250D01*
X35193000Y15742000D01*
X35236000Y15742000D01*
X35236000Y15246000D01*
X35193000Y15246000D01*
X35193000Y14448750D01*
X35324750Y14317000D01*
X35433000Y14317000D01*
X35433000Y13208000D01*
X32004000Y13208000D01*
X32004000Y15114250D01*
X33991000Y15114250D01*
X33991000Y14739173D01*
X34071231Y14545479D01*
X34219478Y14397231D01*
X34413173Y14317000D01*
X34611250Y14317000D01*
X34743000Y14448750D01*
X34743000Y15246000D01*
X34122750Y15246000D01*
X33991000Y15114250D01*
X32004000Y15114250D01*
X32004000Y16248827D01*
X33991000Y16248827D01*
X33991000Y15873750D01*
X34122750Y15742000D01*
X34743000Y15742000D01*
X34743000Y16539250D01*
X34611250Y16671000D01*
X34413173Y16671000D01*
X34219478Y16590769D01*
X34071231Y16442521D01*
X33991000Y16248827D01*
X32004000Y16248827D01*
X32004000Y17654250D01*
X32213000Y17654250D01*
X32213000Y17279173D01*
X32293231Y17085479D01*
X32441478Y16937231D01*
X32635173Y16857000D01*
X32833250Y16857000D01*
X32965000Y16988750D01*
X32965000Y17786000D01*
X33415000Y17786000D01*
X33415000Y16988750D01*
X33546750Y16857000D01*
X33744827Y16857000D01*
X33938522Y16937231D01*
X34086769Y17085479D01*
X34167000Y17279173D01*
X34167000Y17654250D01*
X34035250Y17786000D01*
X33415000Y17786000D01*
X32965000Y17786000D01*
X32344750Y17786000D01*
X32213000Y17654250D01*
X32004000Y17654250D01*
X32004000Y18788827D01*
X32213000Y18788827D01*
X32213000Y18413750D01*
X32344750Y18282000D01*
X32965000Y18282000D01*
X32965000Y19079250D01*
X33415000Y19079250D01*
X33415000Y18282000D01*
X34035250Y18282000D01*
X34167000Y18413750D01*
X34167000Y18788827D01*
X34086769Y18982521D01*
X33938522Y19130769D01*
X33744827Y19211000D01*
X33546750Y19211000D01*
X33415000Y19079250D01*
X32965000Y19079250D01*
X32833250Y19211000D01*
X32635173Y19211000D01*
X32441478Y19130769D01*
X32293231Y18982521D01*
X32213000Y18788827D01*
X32004000Y18788827D01*
X32004000Y20702250D01*
X32021000Y20702250D01*
X32021000Y20127173D01*
X32101231Y19933479D01*
X32249478Y19785231D01*
X32443173Y19705000D01*
X32718250Y19705000D01*
X32850000Y19836750D01*
X32850000Y20834000D01*
X33346000Y20834000D01*
X33346000Y19836750D01*
X33477750Y19705000D01*
X33752827Y19705000D01*
X33946522Y19785231D01*
X34094769Y19933479D01*
X34175000Y20127173D01*
X34175000Y20702250D01*
X34043250Y20834000D01*
X33346000Y20834000D01*
X32850000Y20834000D01*
X32152750Y20834000D01*
X32021000Y20702250D01*
X32004000Y20702250D01*
X32004000Y21971000D01*
X32021000Y21971000D01*
X32021000Y21461750D01*
X32021000Y21461750D01*
G37*
X32021000Y21461750D02*
X32152750Y21330000D01*
X32850000Y21330000D01*
X32850000Y21350000D01*
X33346000Y21350000D01*
X33346000Y21330000D01*
X34043250Y21330000D01*
X34175000Y21461750D01*
X34175000Y21971000D01*
X34290000Y21971000D01*
X34290000Y16891000D01*
X34300006Y16841590D01*
X34328447Y16799965D01*
X34370841Y16772685D01*
X34417000Y16764000D01*
X35433000Y16764000D01*
X35433000Y16671000D01*
X35324750Y16671000D01*
X35193000Y16539250D01*
X35193000Y15742000D01*
X35236000Y15742000D01*
X35236000Y15246000D01*
X35193000Y15246000D01*
X35193000Y14448750D01*
X35324750Y14317000D01*
X35433000Y14317000D01*
X35433000Y13208000D01*
X32004000Y13208000D01*
X32004000Y15114250D01*
X33991000Y15114250D01*
X33991000Y14739173D01*
X34071231Y14545479D01*
X34219478Y14397231D01*
X34413173Y14317000D01*
X34611250Y14317000D01*
X34743000Y14448750D01*
X34743000Y15246000D01*
X34122750Y15246000D01*
X33991000Y15114250D01*
X32004000Y15114250D01*
X32004000Y16248827D01*
X33991000Y16248827D01*
X33991000Y15873750D01*
X34122750Y15742000D01*
X34743000Y15742000D01*
X34743000Y16539250D01*
X34611250Y16671000D01*
X34413173Y16671000D01*
X34219478Y16590769D01*
X34071231Y16442521D01*
X33991000Y16248827D01*
X32004000Y16248827D01*
X32004000Y17654250D01*
X32213000Y17654250D01*
X32213000Y17279173D01*
X32293231Y17085479D01*
X32441478Y16937231D01*
X32635173Y16857000D01*
X32833250Y16857000D01*
X32965000Y16988750D01*
X32965000Y17786000D01*
X33415000Y17786000D01*
X33415000Y16988750D01*
X33546750Y16857000D01*
X33744827Y16857000D01*
X33938522Y16937231D01*
X34086769Y17085479D01*
X34167000Y17279173D01*
X34167000Y17654250D01*
X34035250Y17786000D01*
X33415000Y17786000D01*
X32965000Y17786000D01*
X32344750Y17786000D01*
X32213000Y17654250D01*
X32004000Y17654250D01*
X32004000Y18788827D01*
X32213000Y18788827D01*
X32213000Y18413750D01*
X32344750Y18282000D01*
X32965000Y18282000D01*
X32965000Y19079250D01*
X33415000Y19079250D01*
X33415000Y18282000D01*
X34035250Y18282000D01*
X34167000Y18413750D01*
X34167000Y18788827D01*
X34086769Y18982521D01*
X33938522Y19130769D01*
X33744827Y19211000D01*
X33546750Y19211000D01*
X33415000Y19079250D01*
X32965000Y19079250D01*
X32833250Y19211000D01*
X32635173Y19211000D01*
X32441478Y19130769D01*
X32293231Y18982521D01*
X32213000Y18788827D01*
X32004000Y18788827D01*
X32004000Y20702250D01*
X32021000Y20702250D01*
X32021000Y20127173D01*
X32101231Y19933479D01*
X32249478Y19785231D01*
X32443173Y19705000D01*
X32718250Y19705000D01*
X32850000Y19836750D01*
X32850000Y20834000D01*
X33346000Y20834000D01*
X33346000Y19836750D01*
X33477750Y19705000D01*
X33752827Y19705000D01*
X33946522Y19785231D01*
X34094769Y19933479D01*
X34175000Y20127173D01*
X34175000Y20702250D01*
X34043250Y20834000D01*
X33346000Y20834000D01*
X32850000Y20834000D01*
X32152750Y20834000D01*
X32021000Y20702250D01*
X32004000Y20702250D01*
X32004000Y21971000D01*
X32021000Y21971000D01*
X32021000Y21461750D01*
G36*
X35421000Y21461750D02*
X35552750Y21330000D01*
X36250000Y21330000D01*
X36250000Y21350000D01*
X36746000Y21350000D01*
X36746000Y21330000D01*
X36766000Y21330000D01*
X36766000Y20834000D01*
X36746000Y20834000D01*
X36746000Y19836750D01*
X36877750Y19705000D01*
X37152827Y19705000D01*
X37211000Y19729096D01*
X37211000Y19304000D01*
X37221006Y19254590D01*
X37249447Y19212965D01*
X37291841Y19185685D01*
X37338000Y19177000D01*
X39243000Y19177000D01*
X39243000Y14859000D01*
X38145000Y14859000D01*
X38145000Y15114250D01*
X38013250Y15246000D01*
X37393000Y15246000D01*
X37393000Y15226000D01*
X36943000Y15226000D01*
X36943000Y15246000D01*
X36900000Y15246000D01*
X36900000Y15742000D01*
X36943000Y15742000D01*
X36943000Y16539250D01*
X37393000Y16539250D01*
X37393000Y15742000D01*
X38013250Y15742000D01*
X38145000Y15873750D01*
X38145000Y16248827D01*
X38064769Y16442521D01*
X37916522Y16590769D01*
X37722827Y16671000D01*
X37524750Y16671000D01*
X37393000Y16539250D01*
X36943000Y16539250D01*
X36811250Y16671000D01*
X36703000Y16671000D01*
X36703000Y17272000D01*
X36692994Y17321410D01*
X36664553Y17363035D01*
X36622159Y17390315D01*
X36576000Y17399000D01*
X36367000Y17399000D01*
X36367000Y17654250D01*
X36235250Y17786000D01*
X35615000Y17786000D01*
X35615000Y17766000D01*
X35165000Y17766000D01*
X35165000Y17786000D01*
X35122000Y17786000D01*
X35122000Y18282000D01*
X35165000Y18282000D01*
X35165000Y19079250D01*
X35615000Y19079250D01*
X35615000Y18282000D01*
X36235250Y18282000D01*
X36367000Y18413750D01*
X36367000Y18788827D01*
X36286769Y18982521D01*
X36138522Y19130769D01*
X35944827Y19211000D01*
X35746750Y19211000D01*
X35615000Y19079250D01*
X35165000Y19079250D01*
X35033250Y19211000D01*
X34925000Y19211000D01*
X34925000Y20702250D01*
X35421000Y20702250D01*
X35421000Y20127173D01*
X35501231Y19933479D01*
X35649478Y19785231D01*
X35843173Y19705000D01*
X36118250Y19705000D01*
X36250000Y19836750D01*
X36250000Y20834000D01*
X35552750Y20834000D01*
X35421000Y20702250D01*
X34925000Y20702250D01*
X34925000Y21971000D01*
X35421000Y21971000D01*
X35421000Y21461750D01*
X35421000Y21461750D01*
G37*
X35421000Y21461750D02*
X35552750Y21330000D01*
X36250000Y21330000D01*
X36250000Y21350000D01*
X36746000Y21350000D01*
X36746000Y21330000D01*
X36766000Y21330000D01*
X36766000Y20834000D01*
X36746000Y20834000D01*
X36746000Y19836750D01*
X36877750Y19705000D01*
X37152827Y19705000D01*
X37211000Y19729096D01*
X37211000Y19304000D01*
X37221006Y19254590D01*
X37249447Y19212965D01*
X37291841Y19185685D01*
X37338000Y19177000D01*
X39243000Y19177000D01*
X39243000Y14859000D01*
X38145000Y14859000D01*
X38145000Y15114250D01*
X38013250Y15246000D01*
X37393000Y15246000D01*
X37393000Y15226000D01*
X36943000Y15226000D01*
X36943000Y15246000D01*
X36900000Y15246000D01*
X36900000Y15742000D01*
X36943000Y15742000D01*
X36943000Y16539250D01*
X37393000Y16539250D01*
X37393000Y15742000D01*
X38013250Y15742000D01*
X38145000Y15873750D01*
X38145000Y16248827D01*
X38064769Y16442521D01*
X37916522Y16590769D01*
X37722827Y16671000D01*
X37524750Y16671000D01*
X37393000Y16539250D01*
X36943000Y16539250D01*
X36811250Y16671000D01*
X36703000Y16671000D01*
X36703000Y17272000D01*
X36692994Y17321410D01*
X36664553Y17363035D01*
X36622159Y17390315D01*
X36576000Y17399000D01*
X36367000Y17399000D01*
X36367000Y17654250D01*
X36235250Y17786000D01*
X35615000Y17786000D01*
X35615000Y17766000D01*
X35165000Y17766000D01*
X35165000Y17786000D01*
X35122000Y17786000D01*
X35122000Y18282000D01*
X35165000Y18282000D01*
X35165000Y19079250D01*
X35615000Y19079250D01*
X35615000Y18282000D01*
X36235250Y18282000D01*
X36367000Y18413750D01*
X36367000Y18788827D01*
X36286769Y18982521D01*
X36138522Y19130769D01*
X35944827Y19211000D01*
X35746750Y19211000D01*
X35615000Y19079250D01*
X35165000Y19079250D01*
X35033250Y19211000D01*
X34925000Y19211000D01*
X34925000Y20702250D01*
X35421000Y20702250D01*
X35421000Y20127173D01*
X35501231Y19933479D01*
X35649478Y19785231D01*
X35843173Y19705000D01*
X36118250Y19705000D01*
X36250000Y19836750D01*
X36250000Y20834000D01*
X35552750Y20834000D01*
X35421000Y20702250D01*
X34925000Y20702250D01*
X34925000Y21971000D01*
X35421000Y21971000D01*
X35421000Y21461750D01*
M02*
