G04 #@! TF.FileFunction,Legend,Bot*
%FSLAX46Y46*%
G04 Gerber Fmt 4.6, Leading zero omitted, Abs format (unit mm)*
G04 Created by KiCad (PCBNEW 4.0.2-stable) date 25/05/2016 10:40:19*
%MOMM*%
G01*
G04 APERTURE LIST*
%ADD10C,0.100000*%
%ADD11C,0.150000*%
G04 APERTURE END LIST*
D10*
D11*
X100000000Y0D02*
X0Y0D01*
X100000000Y100000000D02*
X100000000Y0D01*
X0Y100000000D02*
X100000000Y100000000D01*
X0Y0D02*
X0Y100000000D01*
X36068000Y73279000D02*
X36601400Y73279000D01*
X36068000Y73279000D02*
X35534600Y73279000D01*
X36068000Y74549000D02*
X36601400Y74549000D01*
X36068000Y74549000D02*
X35534600Y74549000D01*
X34290000Y75819000D02*
X34823400Y75819000D01*
X34290000Y75819000D02*
X33756600Y75819000D01*
X34290000Y77089000D02*
X34823400Y77089000D01*
X34290000Y77089000D02*
X33756600Y77089000D01*
X70485000Y54864000D02*
X70485000Y55397400D01*
X70485000Y54864000D02*
X70485000Y54330600D01*
X69215000Y54864000D02*
X69215000Y55397400D01*
X69215000Y54864000D02*
X69215000Y54330600D01*
X70485000Y45212000D02*
X70485000Y45745400D01*
X70485000Y45212000D02*
X70485000Y44678600D01*
X69215000Y45212000D02*
X69215000Y45745400D01*
X69215000Y45212000D02*
X69215000Y44678600D01*
X34798000Y78689200D02*
X35814000Y78689200D01*
X34798000Y78689200D02*
X33782000Y78689200D01*
X34798000Y80314800D02*
X33782000Y80314800D01*
X34798000Y80314800D02*
X35814000Y80314800D01*
X34798000Y20269200D02*
X35814000Y20269200D01*
X34798000Y20269200D02*
X33782000Y20269200D01*
X34798000Y21894800D02*
X33782000Y21894800D01*
X34798000Y21894800D02*
X35814000Y21894800D01*
X34290000Y17399000D02*
X34823400Y17399000D01*
X34290000Y17399000D02*
X33756600Y17399000D01*
X34290000Y18669000D02*
X34823400Y18669000D01*
X34290000Y18669000D02*
X33756600Y18669000D01*
X36068000Y14859000D02*
X36601400Y14859000D01*
X36068000Y14859000D02*
X35534600Y14859000D01*
X36068000Y16129000D02*
X36601400Y16129000D01*
X36068000Y16129000D02*
X35534600Y16129000D01*
X18237000Y84709000D02*
X18237000Y85242400D01*
X18237000Y84709000D02*
X18237000Y84175600D01*
X16967000Y84709000D02*
X16967000Y85242400D01*
X16967000Y84709000D02*
X16967000Y84175600D01*
X11252000Y58928000D02*
X11252000Y59461400D01*
X11252000Y58928000D02*
X11252000Y58394600D01*
X9982000Y58928000D02*
X9982000Y59461400D01*
X9982000Y58928000D02*
X9982000Y58394600D01*
X9982000Y41656000D02*
X9982000Y41122600D01*
X9982000Y41656000D02*
X9982000Y42189400D01*
X11252000Y41656000D02*
X11252000Y41122600D01*
X11252000Y41656000D02*
X11252000Y42189400D01*
X17094000Y15748000D02*
X17094000Y15214600D01*
X17094000Y15748000D02*
X17094000Y16281400D01*
X18364000Y15748000D02*
X18364000Y15214600D01*
X18364000Y15748000D02*
X18364000Y16281400D01*
X13614200Y84074000D02*
X13614200Y83058000D01*
X13614200Y84074000D02*
X13614200Y85090000D01*
X15239800Y84074000D02*
X15239800Y85090000D01*
X15239800Y84074000D02*
X15239800Y83058000D01*
X6883200Y58293000D02*
X6883200Y57277000D01*
X6883200Y58293000D02*
X6883200Y59309000D01*
X8508800Y58293000D02*
X8508800Y59309000D01*
X8508800Y58293000D02*
X8508800Y57277000D01*
X8508800Y42291000D02*
X8508800Y43307000D01*
X8508800Y42291000D02*
X8508800Y41275000D01*
X6883200Y42291000D02*
X6883200Y41275000D01*
X6883200Y42291000D02*
X6883200Y43307000D01*
X15239800Y16383000D02*
X15239800Y17399000D01*
X15239800Y16383000D02*
X15239800Y15367000D01*
X13614200Y16383000D02*
X13614200Y15367000D01*
X13614200Y16383000D02*
X13614200Y17399000D01*
X62611000Y54864000D02*
X62611000Y55397400D01*
X62611000Y54864000D02*
X62611000Y54330600D01*
X61341000Y54864000D02*
X61341000Y55397400D01*
X61341000Y54864000D02*
X61341000Y54330600D01*
X62611000Y45212000D02*
X62611000Y45745400D01*
X62611000Y45212000D02*
X62611000Y44678600D01*
X61341000Y45212000D02*
X61341000Y45745400D01*
X61341000Y45212000D02*
X61341000Y44678600D01*
X37568047Y71905857D02*
X37615666Y71858238D01*
X37758523Y71810619D01*
X37853761Y71810619D01*
X37996619Y71858238D01*
X38091857Y71953476D01*
X38139476Y72048714D01*
X38187095Y72239190D01*
X38187095Y72382048D01*
X38139476Y72572524D01*
X38091857Y72667762D01*
X37996619Y72763000D01*
X37853761Y72810619D01*
X37758523Y72810619D01*
X37615666Y72763000D01*
X37568047Y72715381D01*
X37234714Y72810619D02*
X36615666Y72810619D01*
X36949000Y72429667D01*
X36806142Y72429667D01*
X36710904Y72382048D01*
X36663285Y72334429D01*
X36615666Y72239190D01*
X36615666Y72001095D01*
X36663285Y71905857D01*
X36710904Y71858238D01*
X36806142Y71810619D01*
X37091857Y71810619D01*
X37187095Y71858238D01*
X37234714Y71905857D01*
X36234714Y72715381D02*
X36187095Y72763000D01*
X36091857Y72810619D01*
X35853761Y72810619D01*
X35758523Y72763000D01*
X35710904Y72715381D01*
X35663285Y72620143D01*
X35663285Y72524905D01*
X35710904Y72382048D01*
X36282333Y71810619D01*
X35663285Y71810619D01*
X35329952Y72810619D02*
X34663285Y72810619D01*
X35091857Y71810619D01*
X31472047Y76477857D02*
X31519666Y76430238D01*
X31662523Y76382619D01*
X31757761Y76382619D01*
X31900619Y76430238D01*
X31995857Y76525476D01*
X32043476Y76620714D01*
X32091095Y76811190D01*
X32091095Y76954048D01*
X32043476Y77144524D01*
X31995857Y77239762D01*
X31900619Y77335000D01*
X31757761Y77382619D01*
X31662523Y77382619D01*
X31519666Y77335000D01*
X31472047Y77287381D01*
X31138714Y77382619D02*
X30519666Y77382619D01*
X30853000Y77001667D01*
X30710142Y77001667D01*
X30614904Y76954048D01*
X30567285Y76906429D01*
X30519666Y76811190D01*
X30519666Y76573095D01*
X30567285Y76477857D01*
X30614904Y76430238D01*
X30710142Y76382619D01*
X30995857Y76382619D01*
X31091095Y76430238D01*
X31138714Y76477857D01*
X30138714Y77287381D02*
X30091095Y77335000D01*
X29995857Y77382619D01*
X29757761Y77382619D01*
X29662523Y77335000D01*
X29614904Y77287381D01*
X29567285Y77192143D01*
X29567285Y77096905D01*
X29614904Y76954048D01*
X30186333Y76382619D01*
X29567285Y76382619D01*
X29233952Y77382619D02*
X28614904Y77382619D01*
X28948238Y77001667D01*
X28805380Y77001667D01*
X28710142Y76954048D01*
X28662523Y76906429D01*
X28614904Y76811190D01*
X28614904Y76573095D01*
X28662523Y76477857D01*
X28710142Y76430238D01*
X28805380Y76382619D01*
X29091095Y76382619D01*
X29186333Y76430238D01*
X29233952Y76477857D01*
X72239143Y55983047D02*
X72286762Y56030666D01*
X72334381Y56173523D01*
X72334381Y56268761D01*
X72286762Y56411619D01*
X72191524Y56506857D01*
X72096286Y56554476D01*
X71905810Y56602095D01*
X71762952Y56602095D01*
X71572476Y56554476D01*
X71477238Y56506857D01*
X71382000Y56411619D01*
X71334381Y56268761D01*
X71334381Y56173523D01*
X71382000Y56030666D01*
X71429619Y55983047D01*
X71429619Y55602095D02*
X71382000Y55554476D01*
X71334381Y55459238D01*
X71334381Y55221142D01*
X71382000Y55125904D01*
X71429619Y55078285D01*
X71524857Y55030666D01*
X71620095Y55030666D01*
X71762952Y55078285D01*
X72334381Y55649714D01*
X72334381Y55030666D01*
X72334381Y54078285D02*
X72334381Y54649714D01*
X72334381Y54364000D02*
X71334381Y54364000D01*
X71477238Y54459238D01*
X71572476Y54554476D01*
X71620095Y54649714D01*
X72334381Y53125904D02*
X72334381Y53697333D01*
X72334381Y53411619D02*
X71334381Y53411619D01*
X71477238Y53506857D01*
X71572476Y53602095D01*
X71620095Y53697333D01*
X72112143Y46331047D02*
X72159762Y46378666D01*
X72207381Y46521523D01*
X72207381Y46616761D01*
X72159762Y46759619D01*
X72064524Y46854857D01*
X71969286Y46902476D01*
X71778810Y46950095D01*
X71635952Y46950095D01*
X71445476Y46902476D01*
X71350238Y46854857D01*
X71255000Y46759619D01*
X71207381Y46616761D01*
X71207381Y46521523D01*
X71255000Y46378666D01*
X71302619Y46331047D01*
X71302619Y45950095D02*
X71255000Y45902476D01*
X71207381Y45807238D01*
X71207381Y45569142D01*
X71255000Y45473904D01*
X71302619Y45426285D01*
X71397857Y45378666D01*
X71493095Y45378666D01*
X71635952Y45426285D01*
X72207381Y45997714D01*
X72207381Y45378666D01*
X72207381Y44426285D02*
X72207381Y44997714D01*
X72207381Y44712000D02*
X71207381Y44712000D01*
X71350238Y44807238D01*
X71445476Y44902476D01*
X71493095Y44997714D01*
X71302619Y44045333D02*
X71255000Y43997714D01*
X71207381Y43902476D01*
X71207381Y43664380D01*
X71255000Y43569142D01*
X71302619Y43521523D01*
X71397857Y43473904D01*
X71493095Y43473904D01*
X71635952Y43521523D01*
X72207381Y44092952D01*
X72207381Y43473904D01*
X31345247Y79144857D02*
X31392866Y79097238D01*
X31535723Y79049619D01*
X31630961Y79049619D01*
X31773819Y79097238D01*
X31869057Y79192476D01*
X31916676Y79287714D01*
X31964295Y79478190D01*
X31964295Y79621048D01*
X31916676Y79811524D01*
X31869057Y79906762D01*
X31773819Y80002000D01*
X31630961Y80049619D01*
X31535723Y80049619D01*
X31392866Y80002000D01*
X31345247Y79954381D01*
X31011914Y80049619D02*
X30392866Y80049619D01*
X30726200Y79668667D01*
X30583342Y79668667D01*
X30488104Y79621048D01*
X30440485Y79573429D01*
X30392866Y79478190D01*
X30392866Y79240095D01*
X30440485Y79144857D01*
X30488104Y79097238D01*
X30583342Y79049619D01*
X30869057Y79049619D01*
X30964295Y79097238D01*
X31011914Y79144857D01*
X29440485Y79049619D02*
X30011914Y79049619D01*
X29726200Y79049619D02*
X29726200Y80049619D01*
X29821438Y79906762D01*
X29916676Y79811524D01*
X30011914Y79763905D01*
X28869057Y79621048D02*
X28964295Y79668667D01*
X29011914Y79716286D01*
X29059533Y79811524D01*
X29059533Y79859143D01*
X29011914Y79954381D01*
X28964295Y80002000D01*
X28869057Y80049619D01*
X28678580Y80049619D01*
X28583342Y80002000D01*
X28535723Y79954381D01*
X28488104Y79859143D01*
X28488104Y79811524D01*
X28535723Y79716286D01*
X28583342Y79668667D01*
X28678580Y79621048D01*
X28869057Y79621048D01*
X28964295Y79573429D01*
X29011914Y79525810D01*
X29059533Y79430571D01*
X29059533Y79240095D01*
X29011914Y79144857D01*
X28964295Y79097238D01*
X28869057Y79049619D01*
X28678580Y79049619D01*
X28583342Y79097238D01*
X28535723Y79144857D01*
X28488104Y79240095D01*
X28488104Y79430571D01*
X28535723Y79525810D01*
X28583342Y79573429D01*
X28678580Y79621048D01*
X35917047Y22655257D02*
X35964666Y22607638D01*
X36107523Y22560019D01*
X36202761Y22560019D01*
X36345619Y22607638D01*
X36440857Y22702876D01*
X36488476Y22798114D01*
X36536095Y22988590D01*
X36536095Y23131448D01*
X36488476Y23321924D01*
X36440857Y23417162D01*
X36345619Y23512400D01*
X36202761Y23560019D01*
X36107523Y23560019D01*
X35964666Y23512400D01*
X35917047Y23464781D01*
X35583714Y23560019D02*
X34964666Y23560019D01*
X35298000Y23179067D01*
X35155142Y23179067D01*
X35059904Y23131448D01*
X35012285Y23083829D01*
X34964666Y22988590D01*
X34964666Y22750495D01*
X35012285Y22655257D01*
X35059904Y22607638D01*
X35155142Y22560019D01*
X35440857Y22560019D01*
X35536095Y22607638D01*
X35583714Y22655257D01*
X34059904Y23560019D02*
X34536095Y23560019D01*
X34583714Y23083829D01*
X34536095Y23131448D01*
X34440857Y23179067D01*
X34202761Y23179067D01*
X34107523Y23131448D01*
X34059904Y23083829D01*
X34012285Y22988590D01*
X34012285Y22750495D01*
X34059904Y22655257D01*
X34107523Y22607638D01*
X34202761Y22560019D01*
X34440857Y22560019D01*
X34536095Y22607638D01*
X34583714Y22655257D01*
X33107523Y23560019D02*
X33583714Y23560019D01*
X33631333Y23083829D01*
X33583714Y23131448D01*
X33488476Y23179067D01*
X33250380Y23179067D01*
X33155142Y23131448D01*
X33107523Y23083829D01*
X33059904Y22988590D01*
X33059904Y22750495D01*
X33107523Y22655257D01*
X33155142Y22607638D01*
X33250380Y22560019D01*
X33488476Y22560019D01*
X33583714Y22607638D01*
X33631333Y22655257D01*
X31599047Y18184857D02*
X31646666Y18137238D01*
X31789523Y18089619D01*
X31884761Y18089619D01*
X32027619Y18137238D01*
X32122857Y18232476D01*
X32170476Y18327714D01*
X32218095Y18518190D01*
X32218095Y18661048D01*
X32170476Y18851524D01*
X32122857Y18946762D01*
X32027619Y19042000D01*
X31884761Y19089619D01*
X31789523Y19089619D01*
X31646666Y19042000D01*
X31599047Y18994381D01*
X31265714Y19089619D02*
X30646666Y19089619D01*
X30980000Y18708667D01*
X30837142Y18708667D01*
X30741904Y18661048D01*
X30694285Y18613429D01*
X30646666Y18518190D01*
X30646666Y18280095D01*
X30694285Y18184857D01*
X30741904Y18137238D01*
X30837142Y18089619D01*
X31122857Y18089619D01*
X31218095Y18137238D01*
X31265714Y18184857D01*
X29741904Y19089619D02*
X30218095Y19089619D01*
X30265714Y18613429D01*
X30218095Y18661048D01*
X30122857Y18708667D01*
X29884761Y18708667D01*
X29789523Y18661048D01*
X29741904Y18613429D01*
X29694285Y18518190D01*
X29694285Y18280095D01*
X29741904Y18184857D01*
X29789523Y18137238D01*
X29884761Y18089619D01*
X30122857Y18089619D01*
X30218095Y18137238D01*
X30265714Y18184857D01*
X29218095Y18089619D02*
X29027619Y18089619D01*
X28932380Y18137238D01*
X28884761Y18184857D01*
X28789523Y18327714D01*
X28741904Y18518190D01*
X28741904Y18899143D01*
X28789523Y18994381D01*
X28837142Y19042000D01*
X28932380Y19089619D01*
X29122857Y19089619D01*
X29218095Y19042000D01*
X29265714Y18994381D01*
X29313333Y18899143D01*
X29313333Y18661048D01*
X29265714Y18565810D01*
X29218095Y18518190D01*
X29122857Y18470571D01*
X28932380Y18470571D01*
X28837142Y18518190D01*
X28789523Y18565810D01*
X28741904Y18661048D01*
X37695047Y13308057D02*
X37742666Y13260438D01*
X37885523Y13212819D01*
X37980761Y13212819D01*
X38123619Y13260438D01*
X38218857Y13355676D01*
X38266476Y13450914D01*
X38314095Y13641390D01*
X38314095Y13784248D01*
X38266476Y13974724D01*
X38218857Y14069962D01*
X38123619Y14165200D01*
X37980761Y14212819D01*
X37885523Y14212819D01*
X37742666Y14165200D01*
X37695047Y14117581D01*
X37361714Y14212819D02*
X36742666Y14212819D01*
X37076000Y13831867D01*
X36933142Y13831867D01*
X36837904Y13784248D01*
X36790285Y13736629D01*
X36742666Y13641390D01*
X36742666Y13403295D01*
X36790285Y13308057D01*
X36837904Y13260438D01*
X36933142Y13212819D01*
X37218857Y13212819D01*
X37314095Y13260438D01*
X37361714Y13308057D01*
X35885523Y14212819D02*
X36076000Y14212819D01*
X36171238Y14165200D01*
X36218857Y14117581D01*
X36314095Y13974724D01*
X36361714Y13784248D01*
X36361714Y13403295D01*
X36314095Y13308057D01*
X36266476Y13260438D01*
X36171238Y13212819D01*
X35980761Y13212819D01*
X35885523Y13260438D01*
X35837904Y13308057D01*
X35790285Y13403295D01*
X35790285Y13641390D01*
X35837904Y13736629D01*
X35885523Y13784248D01*
X35980761Y13831867D01*
X36171238Y13831867D01*
X36266476Y13784248D01*
X36314095Y13736629D01*
X36361714Y13641390D01*
X35456952Y14212819D02*
X34837904Y14212819D01*
X35171238Y13831867D01*
X35028380Y13831867D01*
X34933142Y13784248D01*
X34885523Y13736629D01*
X34837904Y13641390D01*
X34837904Y13403295D01*
X34885523Y13308057D01*
X34933142Y13260438D01*
X35028380Y13212819D01*
X35314095Y13212819D01*
X35409333Y13260438D01*
X35456952Y13308057D01*
X17946643Y89892047D02*
X17994262Y89939666D01*
X18041881Y90082523D01*
X18041881Y90177761D01*
X17994262Y90320619D01*
X17899024Y90415857D01*
X17803786Y90463476D01*
X17613310Y90511095D01*
X17470452Y90511095D01*
X17279976Y90463476D01*
X17184738Y90415857D01*
X17089500Y90320619D01*
X17041881Y90177761D01*
X17041881Y90082523D01*
X17089500Y89939666D01*
X17137119Y89892047D01*
X17041881Y89558714D02*
X17041881Y88939666D01*
X17422833Y89273000D01*
X17422833Y89130142D01*
X17470452Y89034904D01*
X17518071Y88987285D01*
X17613310Y88939666D01*
X17851405Y88939666D01*
X17946643Y88987285D01*
X17994262Y89034904D01*
X18041881Y89130142D01*
X18041881Y89415857D01*
X17994262Y89511095D01*
X17946643Y89558714D01*
X17041881Y88606333D02*
X17041881Y87939666D01*
X18041881Y88368238D01*
X17041881Y87653952D02*
X17041881Y87034904D01*
X17422833Y87368238D01*
X17422833Y87225380D01*
X17470452Y87130142D01*
X17518071Y87082523D01*
X17613310Y87034904D01*
X17851405Y87034904D01*
X17946643Y87082523D01*
X17994262Y87130142D01*
X18041881Y87225380D01*
X18041881Y87511095D01*
X17994262Y87606333D01*
X17946643Y87653952D01*
X12752343Y60047047D02*
X12799962Y60094666D01*
X12847581Y60237523D01*
X12847581Y60332761D01*
X12799962Y60475619D01*
X12704724Y60570857D01*
X12609486Y60618476D01*
X12419010Y60666095D01*
X12276152Y60666095D01*
X12085676Y60618476D01*
X11990438Y60570857D01*
X11895200Y60475619D01*
X11847581Y60332761D01*
X11847581Y60237523D01*
X11895200Y60094666D01*
X11942819Y60047047D01*
X11847581Y59713714D02*
X11847581Y59094666D01*
X12228533Y59428000D01*
X12228533Y59285142D01*
X12276152Y59189904D01*
X12323771Y59142285D01*
X12419010Y59094666D01*
X12657105Y59094666D01*
X12752343Y59142285D01*
X12799962Y59189904D01*
X12847581Y59285142D01*
X12847581Y59570857D01*
X12799962Y59666095D01*
X12752343Y59713714D01*
X11847581Y58761333D02*
X11847581Y58094666D01*
X12847581Y58523238D01*
X12180914Y57285142D02*
X12847581Y57285142D01*
X11799962Y57523238D02*
X12514248Y57761333D01*
X12514248Y57142285D01*
X12739643Y43029047D02*
X12787262Y43076666D01*
X12834881Y43219523D01*
X12834881Y43314761D01*
X12787262Y43457619D01*
X12692024Y43552857D01*
X12596786Y43600476D01*
X12406310Y43648095D01*
X12263452Y43648095D01*
X12072976Y43600476D01*
X11977738Y43552857D01*
X11882500Y43457619D01*
X11834881Y43314761D01*
X11834881Y43219523D01*
X11882500Y43076666D01*
X11930119Y43029047D01*
X11834881Y42695714D02*
X11834881Y42076666D01*
X12215833Y42410000D01*
X12215833Y42267142D01*
X12263452Y42171904D01*
X12311071Y42124285D01*
X12406310Y42076666D01*
X12644405Y42076666D01*
X12739643Y42124285D01*
X12787262Y42171904D01*
X12834881Y42267142D01*
X12834881Y42552857D01*
X12787262Y42648095D01*
X12739643Y42695714D01*
X11834881Y41743333D02*
X11834881Y41076666D01*
X12834881Y41505238D01*
X11834881Y40219523D02*
X11834881Y40695714D01*
X12311071Y40743333D01*
X12263452Y40695714D01*
X12215833Y40600476D01*
X12215833Y40362380D01*
X12263452Y40267142D01*
X12311071Y40219523D01*
X12406310Y40171904D01*
X12644405Y40171904D01*
X12739643Y40219523D01*
X12787262Y40267142D01*
X12834881Y40362380D01*
X12834881Y40600476D01*
X12787262Y40695714D01*
X12739643Y40743333D01*
X18073643Y12866547D02*
X18121262Y12914166D01*
X18168881Y13057023D01*
X18168881Y13152261D01*
X18121262Y13295119D01*
X18026024Y13390357D01*
X17930786Y13437976D01*
X17740310Y13485595D01*
X17597452Y13485595D01*
X17406976Y13437976D01*
X17311738Y13390357D01*
X17216500Y13295119D01*
X17168881Y13152261D01*
X17168881Y13057023D01*
X17216500Y12914166D01*
X17264119Y12866547D01*
X17168881Y12533214D02*
X17168881Y11914166D01*
X17549833Y12247500D01*
X17549833Y12104642D01*
X17597452Y12009404D01*
X17645071Y11961785D01*
X17740310Y11914166D01*
X17978405Y11914166D01*
X18073643Y11961785D01*
X18121262Y12009404D01*
X18168881Y12104642D01*
X18168881Y12390357D01*
X18121262Y12485595D01*
X18073643Y12533214D01*
X17168881Y11580833D02*
X17168881Y10914166D01*
X18168881Y11342738D01*
X17168881Y10104642D02*
X17168881Y10295119D01*
X17216500Y10390357D01*
X17264119Y10437976D01*
X17406976Y10533214D01*
X17597452Y10580833D01*
X17978405Y10580833D01*
X18073643Y10533214D01*
X18121262Y10485595D01*
X18168881Y10390357D01*
X18168881Y10199880D01*
X18121262Y10104642D01*
X18073643Y10057023D01*
X17978405Y10009404D01*
X17740310Y10009404D01*
X17645071Y10057023D01*
X17597452Y10104642D01*
X17549833Y10199880D01*
X17549833Y10390357D01*
X17597452Y10485595D01*
X17645071Y10533214D01*
X17740310Y10580833D01*
X14879581Y89917447D02*
X14403390Y90250781D01*
X14879581Y90488876D02*
X13879581Y90488876D01*
X13879581Y90107923D01*
X13927200Y90012685D01*
X13974819Y89965066D01*
X14070057Y89917447D01*
X14212914Y89917447D01*
X14308152Y89965066D01*
X14355771Y90012685D01*
X14403390Y90107923D01*
X14403390Y90488876D01*
X13879581Y89584114D02*
X13879581Y88965066D01*
X14260533Y89298400D01*
X14260533Y89155542D01*
X14308152Y89060304D01*
X14355771Y89012685D01*
X14451010Y88965066D01*
X14689105Y88965066D01*
X14784343Y89012685D01*
X14831962Y89060304D01*
X14879581Y89155542D01*
X14879581Y89441257D01*
X14831962Y89536495D01*
X14784343Y89584114D01*
X14212914Y88107923D02*
X14879581Y88107923D01*
X13831962Y88346019D02*
X14546248Y88584114D01*
X14546248Y87965066D01*
X14879581Y87536495D02*
X14879581Y87346019D01*
X14831962Y87250780D01*
X14784343Y87203161D01*
X14641486Y87107923D01*
X14451010Y87060304D01*
X14070057Y87060304D01*
X13974819Y87107923D01*
X13927200Y87155542D01*
X13879581Y87250780D01*
X13879581Y87441257D01*
X13927200Y87536495D01*
X13974819Y87584114D01*
X14070057Y87631733D01*
X14308152Y87631733D01*
X14403390Y87584114D01*
X14451010Y87536495D01*
X14498629Y87441257D01*
X14498629Y87250780D01*
X14451010Y87155542D01*
X14403390Y87107923D01*
X14308152Y87060304D01*
X6192781Y59412047D02*
X5716590Y59745381D01*
X6192781Y59983476D02*
X5192781Y59983476D01*
X5192781Y59602523D01*
X5240400Y59507285D01*
X5288019Y59459666D01*
X5383257Y59412047D01*
X5526114Y59412047D01*
X5621352Y59459666D01*
X5668971Y59507285D01*
X5716590Y59602523D01*
X5716590Y59983476D01*
X5192781Y59078714D02*
X5192781Y58459666D01*
X5573733Y58793000D01*
X5573733Y58650142D01*
X5621352Y58554904D01*
X5668971Y58507285D01*
X5764210Y58459666D01*
X6002305Y58459666D01*
X6097543Y58507285D01*
X6145162Y58554904D01*
X6192781Y58650142D01*
X6192781Y58935857D01*
X6145162Y59031095D01*
X6097543Y59078714D01*
X5192781Y57554904D02*
X5192781Y58031095D01*
X5668971Y58078714D01*
X5621352Y58031095D01*
X5573733Y57935857D01*
X5573733Y57697761D01*
X5621352Y57602523D01*
X5668971Y57554904D01*
X5764210Y57507285D01*
X6002305Y57507285D01*
X6097543Y57554904D01*
X6145162Y57602523D01*
X6192781Y57697761D01*
X6192781Y57935857D01*
X6145162Y58031095D01*
X6097543Y58078714D01*
X5192781Y56888238D02*
X5192781Y56792999D01*
X5240400Y56697761D01*
X5288019Y56650142D01*
X5383257Y56602523D01*
X5573733Y56554904D01*
X5811829Y56554904D01*
X6002305Y56602523D01*
X6097543Y56650142D01*
X6145162Y56697761D01*
X6192781Y56792999D01*
X6192781Y56888238D01*
X6145162Y56983476D01*
X6097543Y57031095D01*
X6002305Y57078714D01*
X5811829Y57126333D01*
X5573733Y57126333D01*
X5383257Y57078714D01*
X5288019Y57031095D01*
X5240400Y56983476D01*
X5192781Y56888238D01*
X6294381Y43410047D02*
X5818190Y43743381D01*
X6294381Y43981476D02*
X5294381Y43981476D01*
X5294381Y43600523D01*
X5342000Y43505285D01*
X5389619Y43457666D01*
X5484857Y43410047D01*
X5627714Y43410047D01*
X5722952Y43457666D01*
X5770571Y43505285D01*
X5818190Y43600523D01*
X5818190Y43981476D01*
X5294381Y43076714D02*
X5294381Y42457666D01*
X5675333Y42791000D01*
X5675333Y42648142D01*
X5722952Y42552904D01*
X5770571Y42505285D01*
X5865810Y42457666D01*
X6103905Y42457666D01*
X6199143Y42505285D01*
X6246762Y42552904D01*
X6294381Y42648142D01*
X6294381Y42933857D01*
X6246762Y43029095D01*
X6199143Y43076714D01*
X5294381Y41552904D02*
X5294381Y42029095D01*
X5770571Y42076714D01*
X5722952Y42029095D01*
X5675333Y41933857D01*
X5675333Y41695761D01*
X5722952Y41600523D01*
X5770571Y41552904D01*
X5865810Y41505285D01*
X6103905Y41505285D01*
X6199143Y41552904D01*
X6246762Y41600523D01*
X6294381Y41695761D01*
X6294381Y41933857D01*
X6246762Y42029095D01*
X6199143Y42076714D01*
X6294381Y40552904D02*
X6294381Y41124333D01*
X6294381Y40838619D02*
X5294381Y40838619D01*
X5437238Y40933857D01*
X5532476Y41029095D01*
X5580095Y41124333D01*
X12961881Y17502047D02*
X12485690Y17835381D01*
X12961881Y18073476D02*
X11961881Y18073476D01*
X11961881Y17692523D01*
X12009500Y17597285D01*
X12057119Y17549666D01*
X12152357Y17502047D01*
X12295214Y17502047D01*
X12390452Y17549666D01*
X12438071Y17597285D01*
X12485690Y17692523D01*
X12485690Y18073476D01*
X11961881Y17168714D02*
X11961881Y16549666D01*
X12342833Y16883000D01*
X12342833Y16740142D01*
X12390452Y16644904D01*
X12438071Y16597285D01*
X12533310Y16549666D01*
X12771405Y16549666D01*
X12866643Y16597285D01*
X12914262Y16644904D01*
X12961881Y16740142D01*
X12961881Y17025857D01*
X12914262Y17121095D01*
X12866643Y17168714D01*
X11961881Y15644904D02*
X11961881Y16121095D01*
X12438071Y16168714D01*
X12390452Y16121095D01*
X12342833Y16025857D01*
X12342833Y15787761D01*
X12390452Y15692523D01*
X12438071Y15644904D01*
X12533310Y15597285D01*
X12771405Y15597285D01*
X12866643Y15644904D01*
X12914262Y15692523D01*
X12961881Y15787761D01*
X12961881Y16025857D01*
X12914262Y16121095D01*
X12866643Y16168714D01*
X12057119Y15216333D02*
X12009500Y15168714D01*
X11961881Y15073476D01*
X11961881Y14835380D01*
X12009500Y14740142D01*
X12057119Y14692523D01*
X12152357Y14644904D01*
X12247595Y14644904D01*
X12390452Y14692523D01*
X12961881Y15263952D01*
X12961881Y14644904D01*
X60402743Y55881447D02*
X60450362Y55929066D01*
X60497981Y56071923D01*
X60497981Y56167161D01*
X60450362Y56310019D01*
X60355124Y56405257D01*
X60259886Y56452876D01*
X60069410Y56500495D01*
X59926552Y56500495D01*
X59736076Y56452876D01*
X59640838Y56405257D01*
X59545600Y56310019D01*
X59497981Y56167161D01*
X59497981Y56071923D01*
X59545600Y55929066D01*
X59593219Y55881447D01*
X59593219Y55500495D02*
X59545600Y55452876D01*
X59497981Y55357638D01*
X59497981Y55119542D01*
X59545600Y55024304D01*
X59593219Y54976685D01*
X59688457Y54929066D01*
X59783695Y54929066D01*
X59926552Y54976685D01*
X60497981Y55548114D01*
X60497981Y54929066D01*
X60497981Y53976685D02*
X60497981Y54548114D01*
X60497981Y54262400D02*
X59497981Y54262400D01*
X59640838Y54357638D01*
X59736076Y54452876D01*
X59783695Y54548114D01*
X59497981Y53643352D02*
X59497981Y52976685D01*
X60497981Y53405257D01*
X60555143Y46534247D02*
X60602762Y46581866D01*
X60650381Y46724723D01*
X60650381Y46819961D01*
X60602762Y46962819D01*
X60507524Y47058057D01*
X60412286Y47105676D01*
X60221810Y47153295D01*
X60078952Y47153295D01*
X59888476Y47105676D01*
X59793238Y47058057D01*
X59698000Y46962819D01*
X59650381Y46819961D01*
X59650381Y46724723D01*
X59698000Y46581866D01*
X59745619Y46534247D01*
X59745619Y46153295D02*
X59698000Y46105676D01*
X59650381Y46010438D01*
X59650381Y45772342D01*
X59698000Y45677104D01*
X59745619Y45629485D01*
X59840857Y45581866D01*
X59936095Y45581866D01*
X60078952Y45629485D01*
X60650381Y46200914D01*
X60650381Y45581866D01*
X60650381Y44629485D02*
X60650381Y45200914D01*
X60650381Y44915200D02*
X59650381Y44915200D01*
X59793238Y45010438D01*
X59888476Y45105676D01*
X59936095Y45200914D01*
X60078952Y44058057D02*
X60031333Y44153295D01*
X59983714Y44200914D01*
X59888476Y44248533D01*
X59840857Y44248533D01*
X59745619Y44200914D01*
X59698000Y44153295D01*
X59650381Y44058057D01*
X59650381Y43867580D01*
X59698000Y43772342D01*
X59745619Y43724723D01*
X59840857Y43677104D01*
X59888476Y43677104D01*
X59983714Y43724723D01*
X60031333Y43772342D01*
X60078952Y43867580D01*
X60078952Y44058057D01*
X60126571Y44153295D01*
X60174190Y44200914D01*
X60269429Y44248533D01*
X60459905Y44248533D01*
X60555143Y44200914D01*
X60602762Y44153295D01*
X60650381Y44058057D01*
X60650381Y43867580D01*
X60602762Y43772342D01*
X60555143Y43724723D01*
X60459905Y43677104D01*
X60269429Y43677104D01*
X60174190Y43724723D01*
X60126571Y43772342D01*
X60078952Y43867580D01*
M02*
