G04 #@! TF.FileFunction,Soldermask,Bot*
%FSLAX46Y46*%
G04 Gerber Fmt 4.6, Leading zero omitted, Abs format (unit mm)*
G04 Created by KiCad (PCBNEW 4.0.2-stable) date 25/05/2016 10:40:19*
%MOMM*%
G01*
G04 APERTURE LIST*
%ADD10C,0.100000*%
%ADD11C,0.150000*%
%ADD12R,1.300000X1.700000*%
%ADD13C,2.400000*%
%ADD14R,1.700000X1.300000*%
%ADD15C,2.600000*%
%ADD16C,2.000000*%
%ADD17O,2.000000X3.600000*%
%ADD18R,1.500000X2.100000*%
%ADD19R,2.100000X1.500000*%
%ADD20C,6.200000*%
%ADD21C,3.000000*%
G04 APERTURE END LIST*
D10*
D11*
X100000000Y0D02*
X0Y0D01*
X100000000Y100000000D02*
X100000000Y0D01*
X0Y100000000D02*
X100000000Y100000000D01*
X0Y0D02*
X0Y100000000D01*
D12*
X37168000Y73914000D03*
X34968000Y73914000D03*
X35390000Y76454000D03*
X33190000Y76454000D03*
D13*
X84074000Y56868000D03*
X84074000Y53368000D03*
X84328000Y46708000D03*
X84328000Y43208000D03*
X65786000Y56614000D03*
X65786000Y53114000D03*
X65786000Y46962000D03*
X65786000Y43462000D03*
D14*
X69850000Y55964000D03*
X69850000Y53764000D03*
X69850000Y46312000D03*
X69850000Y44112000D03*
D15*
X50368000Y93686000D03*
X50368000Y88686000D03*
X59258000Y84034000D03*
X59258000Y79034000D03*
X50368000Y74382000D03*
X50368000Y69382000D03*
X59258000Y64730000D03*
X59258000Y59730000D03*
D16*
X80340000Y93980000D03*
X82880000Y93980000D03*
X80340000Y86360000D03*
X82880000Y86360000D03*
X80340000Y78740000D03*
X82880000Y78740000D03*
X80340000Y71120000D03*
X82880000Y71120000D03*
X94742000Y56515000D03*
D17*
X94742000Y53340000D03*
D16*
X94742000Y47498000D03*
D17*
X94742000Y44323000D03*
D16*
X7696000Y85852000D03*
X10236000Y85852000D03*
X7696000Y83312000D03*
X10236000Y83312000D03*
X7696000Y80772000D03*
X10236000Y80772000D03*
X7696000Y78232000D03*
X10236000Y78232000D03*
X7696000Y75692000D03*
X10236000Y75692000D03*
X7696000Y73152000D03*
X10236000Y73152000D03*
X7696000Y70612000D03*
X10236000Y70612000D03*
X7696000Y68072000D03*
X10236000Y68072000D03*
X7696000Y65532000D03*
X10236000Y65532000D03*
X7696000Y62992000D03*
X10236000Y62992000D03*
D18*
X36498000Y79502000D03*
X33098000Y79502000D03*
X36498000Y21082000D03*
X33098000Y21082000D03*
D12*
X35390000Y18034000D03*
X33190000Y18034000D03*
X37168000Y15494000D03*
X34968000Y15494000D03*
D15*
X59258000Y35346000D03*
X59258000Y40346000D03*
X50368000Y25694000D03*
X50368000Y30694000D03*
X59258000Y16002000D03*
X59258000Y21002000D03*
X50368000Y6390000D03*
X50368000Y11390000D03*
D16*
X80340000Y30480000D03*
X82880000Y30480000D03*
X80340000Y22860000D03*
X82880000Y22860000D03*
X80340000Y15240000D03*
X82880000Y15240000D03*
X80340000Y7620000D03*
X82880000Y7620000D03*
X7696000Y37592000D03*
X10236000Y37592000D03*
X7696000Y35052000D03*
X10236000Y35052000D03*
X7696000Y32512000D03*
X10236000Y32512000D03*
X7696000Y29972000D03*
X10236000Y29972000D03*
X7696000Y27432000D03*
X10236000Y27432000D03*
X7696000Y24892000D03*
X10236000Y24892000D03*
X7696000Y22352000D03*
X10236000Y22352000D03*
X7696000Y19812000D03*
X10236000Y19812000D03*
X7696000Y17272000D03*
X10236000Y17272000D03*
X7696000Y14732000D03*
X10236000Y14732000D03*
D14*
X17602000Y85809000D03*
X17602000Y83609000D03*
X10617000Y60028000D03*
X10617000Y57828000D03*
X10617000Y40556000D03*
X10617000Y42756000D03*
X17729000Y14648000D03*
X17729000Y16848000D03*
D19*
X14427000Y82374000D03*
X14427000Y85774000D03*
X7696000Y56593000D03*
X7696000Y59993000D03*
X7696000Y43991000D03*
X7696000Y40591000D03*
X14427000Y18083000D03*
X14427000Y14683000D03*
D14*
X61976000Y55964000D03*
X61976000Y53764000D03*
X61976000Y46312000D03*
X61976000Y44112000D03*
D20*
X95000000Y5000000D03*
X5000000Y5000000D03*
X5000000Y95000000D03*
X95000000Y95000000D03*
D21*
X10500000Y5000000D03*
X95000000Y89500000D03*
D13*
X59258000Y6390000D03*
X59258000Y11390000D03*
X50368000Y16042000D03*
X50368000Y21042000D03*
X59258000Y25694000D03*
X59258000Y30694000D03*
X50368000Y35346000D03*
X50368000Y40346000D03*
X59258000Y74382000D03*
X59258000Y69382000D03*
X50368000Y84034000D03*
X50368000Y79034000D03*
X59258000Y93686000D03*
X59258000Y88686000D03*
X50368000Y64730000D03*
X50368000Y59730000D03*
M02*
