G04 #@! TF.FileFunction,Legend,Bot*
%FSLAX46Y46*%
G04 Gerber Fmt 4.6, Leading zero omitted, Abs format (unit mm)*
G04 Created by KiCad (PCBNEW 4.0.1-stable) date 18/01/2016 20:35:10*
%MOMM*%
G01*
G04 APERTURE LIST*
%ADD10C,0.100000*%
%ADD11C,0.150000*%
G04 APERTURE END LIST*
D10*
D11*
X79070000Y50419000D02*
X79603400Y50419000D01*
X79070000Y50419000D02*
X78536600Y50419000D01*
X79070000Y51689000D02*
X79603400Y51689000D01*
X79070000Y51689000D02*
X78536600Y51689000D01*
X79070000Y53721000D02*
X78536600Y53721000D01*
X79070000Y53721000D02*
X79603400Y53721000D01*
X79070000Y52451000D02*
X78536600Y52451000D01*
X79070000Y52451000D02*
X79603400Y52451000D01*
X34747000Y65278000D02*
X35280400Y65278000D01*
X34747000Y65278000D02*
X34213600Y65278000D01*
X34747000Y66548000D02*
X35280400Y66548000D01*
X34747000Y66548000D02*
X34213600Y66548000D01*
X34620000Y76835000D02*
X35153400Y76835000D01*
X34620000Y76835000D02*
X34086600Y76835000D01*
X34620000Y78105000D02*
X35153400Y78105000D01*
X34620000Y78105000D02*
X34086600Y78105000D01*
X34747000Y87503000D02*
X35280400Y87503000D01*
X34747000Y87503000D02*
X34213600Y87503000D01*
X34747000Y88773000D02*
X35280400Y88773000D01*
X34747000Y88773000D02*
X34213600Y88773000D01*
X34747000Y67691000D02*
X35280400Y67691000D01*
X34747000Y67691000D02*
X34213600Y67691000D01*
X34747000Y68961000D02*
X35280400Y68961000D01*
X34747000Y68961000D02*
X34213600Y68961000D01*
X34620000Y79248000D02*
X35153400Y79248000D01*
X34620000Y79248000D02*
X34086600Y79248000D01*
X34620000Y80518000D02*
X35153400Y80518000D01*
X34620000Y80518000D02*
X34086600Y80518000D01*
X81229000Y56134000D02*
X81229000Y56667400D01*
X81229000Y56134000D02*
X81229000Y55600600D01*
X79959000Y56134000D02*
X79959000Y56667400D01*
X79959000Y56134000D02*
X79959000Y55600600D01*
X81229000Y48006000D02*
X81229000Y48539400D01*
X81229000Y48006000D02*
X81229000Y47472600D01*
X79959000Y48006000D02*
X79959000Y48539400D01*
X79959000Y48006000D02*
X79959000Y47472600D01*
X87579000Y56388000D02*
X87579000Y56921400D01*
X87579000Y56388000D02*
X87579000Y55854600D01*
X86309000Y56388000D02*
X86309000Y56921400D01*
X86309000Y56388000D02*
X86309000Y55854600D01*
X87579000Y47752000D02*
X87579000Y48285400D01*
X87579000Y47752000D02*
X87579000Y47218600D01*
X86309000Y47752000D02*
X86309000Y48285400D01*
X86309000Y47752000D02*
X86309000Y47218600D01*
X78689000Y56134000D02*
X78689000Y56667400D01*
X78689000Y56134000D02*
X78689000Y55600600D01*
X77419000Y56134000D02*
X77419000Y56667400D01*
X77419000Y56134000D02*
X77419000Y55600600D01*
X78689000Y48006000D02*
X78689000Y48539400D01*
X78689000Y48006000D02*
X78689000Y47472600D01*
X77419000Y48006000D02*
X77419000Y48539400D01*
X77419000Y48006000D02*
X77419000Y47472600D01*
X68275000Y56642000D02*
X68275000Y57175400D01*
X68275000Y56642000D02*
X68275000Y56108600D01*
X67005000Y56642000D02*
X67005000Y57175400D01*
X67005000Y56642000D02*
X67005000Y56108600D01*
X68275000Y47752000D02*
X68275000Y48285400D01*
X68275000Y47752000D02*
X68275000Y47218600D01*
X67005000Y47752000D02*
X67005000Y48285400D01*
X67005000Y47752000D02*
X67005000Y47218600D01*
X70561000Y56642000D02*
X70561000Y57175400D01*
X70561000Y56642000D02*
X70561000Y56108600D01*
X69291000Y56642000D02*
X69291000Y57175400D01*
X69291000Y56642000D02*
X69291000Y56108600D01*
X70561000Y47752000D02*
X70561000Y48285400D01*
X70561000Y47752000D02*
X70561000Y47218600D01*
X69291000Y47752000D02*
X69291000Y48285400D01*
X69291000Y47752000D02*
X69291000Y47218600D01*
X72847000Y56642000D02*
X72847000Y57175400D01*
X72847000Y56642000D02*
X72847000Y56108600D01*
X71577000Y56642000D02*
X71577000Y57175400D01*
X71577000Y56642000D02*
X71577000Y56108600D01*
X72847000Y47752000D02*
X72847000Y48285400D01*
X72847000Y47752000D02*
X72847000Y47218600D01*
X71577000Y47752000D02*
X71577000Y48285400D01*
X71577000Y47752000D02*
X71577000Y47218600D01*
X34747000Y90043000D02*
X35280400Y90043000D01*
X34747000Y90043000D02*
X34213600Y90043000D01*
X34747000Y91313000D02*
X35280400Y91313000D01*
X34747000Y91313000D02*
X34213600Y91313000D01*
X34747000Y56007000D02*
X35280400Y56007000D01*
X34747000Y56007000D02*
X34213600Y56007000D01*
X34747000Y57277000D02*
X35280400Y57277000D01*
X34747000Y57277000D02*
X34213600Y57277000D01*
X34747000Y53467000D02*
X35280400Y53467000D01*
X34747000Y53467000D02*
X34213600Y53467000D01*
X34747000Y54737000D02*
X35280400Y54737000D01*
X34747000Y54737000D02*
X34213600Y54737000D01*
X91054000Y61214000D02*
X91154000Y61214000D01*
X90454000Y61214000D02*
X90354000Y61214000D01*
X87009902Y62414000D02*
G75*
G03X87009902Y62414000I-55902J0D01*
G01*
X90504000Y61714000D02*
X90504000Y60714000D01*
X91004000Y61714000D02*
X90504000Y61214000D01*
X91004000Y61714000D02*
X91004000Y60714000D01*
X91004000Y60714000D02*
X90504000Y61214000D01*
X90754000Y59814000D02*
X91554000Y59814000D01*
X90754000Y59814000D02*
X89954000Y59814000D01*
X90754000Y62614000D02*
X89954000Y62614000D01*
X90754000Y62614000D02*
X91554000Y62614000D01*
X90454000Y43180000D02*
X90354000Y43180000D01*
X91054000Y43180000D02*
X91154000Y43180000D01*
X94609902Y41980000D02*
G75*
G03X94609902Y41980000I-55902J0D01*
G01*
X91004000Y42680000D02*
X91004000Y43680000D01*
X90504000Y42680000D02*
X91004000Y43180000D01*
X90504000Y42680000D02*
X90504000Y43680000D01*
X90504000Y43680000D02*
X91004000Y43180000D01*
X90754000Y44580000D02*
X89954000Y44580000D01*
X90754000Y44580000D02*
X91554000Y44580000D01*
X90754000Y41780000D02*
X91554000Y41780000D01*
X90754000Y41780000D02*
X89954000Y41780000D01*
X79324000Y58547000D02*
X79857400Y58547000D01*
X79324000Y58547000D02*
X78790600Y58547000D01*
X79324000Y59817000D02*
X79857400Y59817000D01*
X79324000Y59817000D02*
X78790600Y59817000D01*
X79324000Y44323000D02*
X79857400Y44323000D01*
X79324000Y44323000D02*
X78790600Y44323000D01*
X79324000Y45593000D02*
X79857400Y45593000D01*
X79324000Y45593000D02*
X78790600Y45593000D01*
X34366000Y92532200D02*
X35382000Y92532200D01*
X34366000Y92532200D02*
X33350000Y92532200D01*
X34366000Y94157800D02*
X33350000Y94157800D01*
X34366000Y94157800D02*
X35382000Y94157800D01*
X34112000Y81864200D02*
X35128000Y81864200D01*
X34112000Y81864200D02*
X33096000Y81864200D01*
X34112000Y83489800D02*
X33096000Y83489800D01*
X34112000Y83489800D02*
X35128000Y83489800D01*
X34239000Y70307200D02*
X35255000Y70307200D01*
X34239000Y70307200D02*
X33223000Y70307200D01*
X34239000Y71932800D02*
X33223000Y71932800D01*
X34239000Y71932800D02*
X35255000Y71932800D01*
X34112000Y58496200D02*
X35128000Y58496200D01*
X34112000Y58496200D02*
X33096000Y58496200D01*
X34112000Y60121800D02*
X33096000Y60121800D01*
X34112000Y60121800D02*
X35128000Y60121800D01*
X34112000Y10744200D02*
X35128000Y10744200D01*
X34112000Y10744200D02*
X33096000Y10744200D01*
X34112000Y12369800D02*
X33096000Y12369800D01*
X34112000Y12369800D02*
X35128000Y12369800D01*
X34112000Y22555200D02*
X35128000Y22555200D01*
X34112000Y22555200D02*
X33096000Y22555200D01*
X34112000Y24180800D02*
X33096000Y24180800D01*
X34112000Y24180800D02*
X35128000Y24180800D01*
X34239000Y34239200D02*
X35255000Y34239200D01*
X34239000Y34239200D02*
X33223000Y34239200D01*
X34239000Y35864800D02*
X33223000Y35864800D01*
X34239000Y35864800D02*
X35255000Y35864800D01*
X34239000Y45669200D02*
X35255000Y45669200D01*
X34239000Y45669200D02*
X33223000Y45669200D01*
X34239000Y47294800D02*
X33223000Y47294800D01*
X34239000Y47294800D02*
X35255000Y47294800D01*
X34747000Y8255000D02*
X35280400Y8255000D01*
X34747000Y8255000D02*
X34213600Y8255000D01*
X34747000Y9525000D02*
X35280400Y9525000D01*
X34747000Y9525000D02*
X34213600Y9525000D01*
X34747000Y19939000D02*
X35280400Y19939000D01*
X34747000Y19939000D02*
X34213600Y19939000D01*
X34747000Y21209000D02*
X35280400Y21209000D01*
X34747000Y21209000D02*
X34213600Y21209000D01*
X34747000Y31369000D02*
X35280400Y31369000D01*
X34747000Y31369000D02*
X34213600Y31369000D01*
X34747000Y32639000D02*
X35280400Y32639000D01*
X34747000Y32639000D02*
X34213600Y32639000D01*
X34747000Y43180000D02*
X35280400Y43180000D01*
X34747000Y43180000D02*
X34213600Y43180000D01*
X34747000Y44450000D02*
X35280400Y44450000D01*
X34747000Y44450000D02*
X34213600Y44450000D01*
X34747000Y5715000D02*
X35280400Y5715000D01*
X34747000Y5715000D02*
X34213600Y5715000D01*
X34747000Y6985000D02*
X35280400Y6985000D01*
X34747000Y6985000D02*
X34213600Y6985000D01*
X34747000Y17399000D02*
X35280400Y17399000D01*
X34747000Y17399000D02*
X34213600Y17399000D01*
X34747000Y18669000D02*
X35280400Y18669000D01*
X34747000Y18669000D02*
X34213600Y18669000D01*
X34747000Y29337000D02*
X35280400Y29337000D01*
X34747000Y29337000D02*
X34213600Y29337000D01*
X34747000Y30607000D02*
X35280400Y30607000D01*
X34747000Y30607000D02*
X34213600Y30607000D01*
X34747000Y40767000D02*
X35280400Y40767000D01*
X34747000Y40767000D02*
X34213600Y40767000D01*
X34747000Y42037000D02*
X35280400Y42037000D01*
X34747000Y42037000D02*
X34213600Y42037000D01*
X18237000Y84709000D02*
X18237000Y85242400D01*
X18237000Y84709000D02*
X18237000Y84175600D01*
X16967000Y84709000D02*
X16967000Y85242400D01*
X16967000Y84709000D02*
X16967000Y84175600D01*
X11252000Y58928000D02*
X11252000Y59461400D01*
X11252000Y58928000D02*
X11252000Y58394600D01*
X9982000Y58928000D02*
X9982000Y59461400D01*
X9982000Y58928000D02*
X9982000Y58394600D01*
X9982000Y41656000D02*
X9982000Y41122600D01*
X9982000Y41656000D02*
X9982000Y42189400D01*
X11252000Y41656000D02*
X11252000Y41122600D01*
X11252000Y41656000D02*
X11252000Y42189400D01*
X17094000Y15748000D02*
X17094000Y15214600D01*
X17094000Y15748000D02*
X17094000Y16281400D01*
X18364000Y15748000D02*
X18364000Y15214600D01*
X18364000Y15748000D02*
X18364000Y16281400D01*
X13614200Y84074000D02*
X13614200Y83058000D01*
X13614200Y84074000D02*
X13614200Y85090000D01*
X15239800Y84074000D02*
X15239800Y85090000D01*
X15239800Y84074000D02*
X15239800Y83058000D01*
X6883200Y58293000D02*
X6883200Y57277000D01*
X6883200Y58293000D02*
X6883200Y59309000D01*
X8508800Y58293000D02*
X8508800Y59309000D01*
X8508800Y58293000D02*
X8508800Y57277000D01*
X8508800Y42291000D02*
X8508800Y43307000D01*
X8508800Y42291000D02*
X8508800Y41275000D01*
X6883200Y42291000D02*
X6883200Y41275000D01*
X6883200Y42291000D02*
X6883200Y43307000D01*
X15239800Y16383000D02*
X15239800Y17399000D01*
X15239800Y16383000D02*
X15239800Y15367000D01*
X13614200Y16383000D02*
X13614200Y15367000D01*
X13614200Y16383000D02*
X13614200Y17399000D01*
X65913000Y56642000D02*
X65913000Y57175400D01*
X65913000Y56642000D02*
X65913000Y56108600D01*
X64643000Y56642000D02*
X64643000Y57175400D01*
X64643000Y56642000D02*
X64643000Y56108600D01*
X65913000Y47752000D02*
X65913000Y48285400D01*
X65913000Y47752000D02*
X65913000Y47218600D01*
X64643000Y47752000D02*
X64643000Y48285400D01*
X64643000Y47752000D02*
X64643000Y47218600D01*
X90043000Y56388000D02*
X90043000Y56921400D01*
X90043000Y56388000D02*
X90043000Y55854600D01*
X88773000Y56388000D02*
X88773000Y56921400D01*
X88773000Y56388000D02*
X88773000Y55854600D01*
X90043000Y47752000D02*
X90043000Y48285400D01*
X90043000Y47752000D02*
X90043000Y47218600D01*
X88773000Y47752000D02*
X88773000Y48285400D01*
X88773000Y47752000D02*
X88773000Y47218600D01*
X76455447Y51160419D02*
X76788781Y51636610D01*
X77026876Y51160419D02*
X77026876Y52160419D01*
X76645923Y52160419D01*
X76550685Y52112800D01*
X76503066Y52065181D01*
X76455447Y51969943D01*
X76455447Y51827086D01*
X76503066Y51731848D01*
X76550685Y51684229D01*
X76645923Y51636610D01*
X77026876Y51636610D01*
X76074495Y52065181D02*
X76026876Y52112800D01*
X75931638Y52160419D01*
X75693542Y52160419D01*
X75598304Y52112800D01*
X75550685Y52065181D01*
X75503066Y51969943D01*
X75503066Y51874705D01*
X75550685Y51731848D01*
X76122114Y51160419D01*
X75503066Y51160419D01*
X74884019Y52160419D02*
X74788780Y52160419D01*
X74693542Y52112800D01*
X74645923Y52065181D01*
X74598304Y51969943D01*
X74550685Y51779467D01*
X74550685Y51541371D01*
X74598304Y51350895D01*
X74645923Y51255657D01*
X74693542Y51208038D01*
X74788780Y51160419D01*
X74884019Y51160419D01*
X74979257Y51208038D01*
X75026876Y51255657D01*
X75074495Y51350895D01*
X75122114Y51541371D01*
X75122114Y51779467D01*
X75074495Y51969943D01*
X75026876Y52065181D01*
X74979257Y52112800D01*
X74884019Y52160419D01*
X74169733Y52065181D02*
X74122114Y52112800D01*
X74026876Y52160419D01*
X73788780Y52160419D01*
X73693542Y52112800D01*
X73645923Y52065181D01*
X73598304Y51969943D01*
X73598304Y51874705D01*
X73645923Y51731848D01*
X74217352Y51160419D01*
X73598304Y51160419D01*
X84075447Y52074819D02*
X84408781Y52551010D01*
X84646876Y52074819D02*
X84646876Y53074819D01*
X84265923Y53074819D01*
X84170685Y53027200D01*
X84123066Y52979581D01*
X84075447Y52884343D01*
X84075447Y52741486D01*
X84123066Y52646248D01*
X84170685Y52598629D01*
X84265923Y52551010D01*
X84646876Y52551010D01*
X83694495Y52979581D02*
X83646876Y53027200D01*
X83551638Y53074819D01*
X83313542Y53074819D01*
X83218304Y53027200D01*
X83170685Y52979581D01*
X83123066Y52884343D01*
X83123066Y52789105D01*
X83170685Y52646248D01*
X83742114Y52074819D01*
X83123066Y52074819D01*
X82504019Y53074819D02*
X82408780Y53074819D01*
X82313542Y53027200D01*
X82265923Y52979581D01*
X82218304Y52884343D01*
X82170685Y52693867D01*
X82170685Y52455771D01*
X82218304Y52265295D01*
X82265923Y52170057D01*
X82313542Y52122438D01*
X82408780Y52074819D01*
X82504019Y52074819D01*
X82599257Y52122438D01*
X82646876Y52170057D01*
X82694495Y52265295D01*
X82742114Y52455771D01*
X82742114Y52693867D01*
X82694495Y52884343D01*
X82646876Y52979581D01*
X82599257Y53027200D01*
X82504019Y53074819D01*
X81218304Y52074819D02*
X81789733Y52074819D01*
X81504019Y52074819D02*
X81504019Y53074819D01*
X81599257Y52931962D01*
X81694495Y52836724D01*
X81789733Y52789105D01*
X32005447Y65733657D02*
X32053066Y65686038D01*
X32195923Y65638419D01*
X32291161Y65638419D01*
X32434019Y65686038D01*
X32529257Y65781276D01*
X32576876Y65876514D01*
X32624495Y66066990D01*
X32624495Y66209848D01*
X32576876Y66400324D01*
X32529257Y66495562D01*
X32434019Y66590800D01*
X32291161Y66638419D01*
X32195923Y66638419D01*
X32053066Y66590800D01*
X32005447Y66543181D01*
X31672114Y66638419D02*
X31053066Y66638419D01*
X31386400Y66257467D01*
X31243542Y66257467D01*
X31148304Y66209848D01*
X31100685Y66162229D01*
X31053066Y66066990D01*
X31053066Y65828895D01*
X31100685Y65733657D01*
X31148304Y65686038D01*
X31243542Y65638419D01*
X31529257Y65638419D01*
X31624495Y65686038D01*
X31672114Y65733657D01*
X30672114Y66543181D02*
X30624495Y66590800D01*
X30529257Y66638419D01*
X30291161Y66638419D01*
X30195923Y66590800D01*
X30148304Y66543181D01*
X30100685Y66447943D01*
X30100685Y66352705D01*
X30148304Y66209848D01*
X30719733Y65638419D01*
X30100685Y65638419D01*
X29767352Y66638419D02*
X29100685Y66638419D01*
X29529257Y65638419D01*
X31903847Y77316057D02*
X31951466Y77268438D01*
X32094323Y77220819D01*
X32189561Y77220819D01*
X32332419Y77268438D01*
X32427657Y77363676D01*
X32475276Y77458914D01*
X32522895Y77649390D01*
X32522895Y77792248D01*
X32475276Y77982724D01*
X32427657Y78077962D01*
X32332419Y78173200D01*
X32189561Y78220819D01*
X32094323Y78220819D01*
X31951466Y78173200D01*
X31903847Y78125581D01*
X31570514Y78220819D02*
X30951466Y78220819D01*
X31284800Y77839867D01*
X31141942Y77839867D01*
X31046704Y77792248D01*
X30999085Y77744629D01*
X30951466Y77649390D01*
X30951466Y77411295D01*
X30999085Y77316057D01*
X31046704Y77268438D01*
X31141942Y77220819D01*
X31427657Y77220819D01*
X31522895Y77268438D01*
X31570514Y77316057D01*
X30570514Y78125581D02*
X30522895Y78173200D01*
X30427657Y78220819D01*
X30189561Y78220819D01*
X30094323Y78173200D01*
X30046704Y78125581D01*
X29999085Y78030343D01*
X29999085Y77935105D01*
X30046704Y77792248D01*
X30618133Y77220819D01*
X29999085Y77220819D01*
X29141942Y78220819D02*
X29332419Y78220819D01*
X29427657Y78173200D01*
X29475276Y78125581D01*
X29570514Y77982724D01*
X29618133Y77792248D01*
X29618133Y77411295D01*
X29570514Y77316057D01*
X29522895Y77268438D01*
X29427657Y77220819D01*
X29237180Y77220819D01*
X29141942Y77268438D01*
X29094323Y77316057D01*
X29046704Y77411295D01*
X29046704Y77649390D01*
X29094323Y77744629D01*
X29141942Y77792248D01*
X29237180Y77839867D01*
X29427657Y77839867D01*
X29522895Y77792248D01*
X29570514Y77744629D01*
X29618133Y77649390D01*
X35815447Y86053657D02*
X35863066Y86006038D01*
X36005923Y85958419D01*
X36101161Y85958419D01*
X36244019Y86006038D01*
X36339257Y86101276D01*
X36386876Y86196514D01*
X36434495Y86386990D01*
X36434495Y86529848D01*
X36386876Y86720324D01*
X36339257Y86815562D01*
X36244019Y86910800D01*
X36101161Y86958419D01*
X36005923Y86958419D01*
X35863066Y86910800D01*
X35815447Y86863181D01*
X35482114Y86958419D02*
X34863066Y86958419D01*
X35196400Y86577467D01*
X35053542Y86577467D01*
X34958304Y86529848D01*
X34910685Y86482229D01*
X34863066Y86386990D01*
X34863066Y86148895D01*
X34910685Y86053657D01*
X34958304Y86006038D01*
X35053542Y85958419D01*
X35339257Y85958419D01*
X35434495Y86006038D01*
X35482114Y86053657D01*
X34482114Y86863181D02*
X34434495Y86910800D01*
X34339257Y86958419D01*
X34101161Y86958419D01*
X34005923Y86910800D01*
X33958304Y86863181D01*
X33910685Y86767943D01*
X33910685Y86672705D01*
X33958304Y86529848D01*
X34529733Y85958419D01*
X33910685Y85958419D01*
X33005923Y86958419D02*
X33482114Y86958419D01*
X33529733Y86482229D01*
X33482114Y86529848D01*
X33386876Y86577467D01*
X33148780Y86577467D01*
X33053542Y86529848D01*
X33005923Y86482229D01*
X32958304Y86386990D01*
X32958304Y86148895D01*
X33005923Y86053657D01*
X33053542Y86006038D01*
X33148780Y85958419D01*
X33386876Y85958419D01*
X33482114Y86006038D01*
X33529733Y86053657D01*
X31954647Y67968857D02*
X32002266Y67921238D01*
X32145123Y67873619D01*
X32240361Y67873619D01*
X32383219Y67921238D01*
X32478457Y68016476D01*
X32526076Y68111714D01*
X32573695Y68302190D01*
X32573695Y68445048D01*
X32526076Y68635524D01*
X32478457Y68730762D01*
X32383219Y68826000D01*
X32240361Y68873619D01*
X32145123Y68873619D01*
X32002266Y68826000D01*
X31954647Y68778381D01*
X31621314Y68873619D02*
X31002266Y68873619D01*
X31335600Y68492667D01*
X31192742Y68492667D01*
X31097504Y68445048D01*
X31049885Y68397429D01*
X31002266Y68302190D01*
X31002266Y68064095D01*
X31049885Y67968857D01*
X31097504Y67921238D01*
X31192742Y67873619D01*
X31478457Y67873619D01*
X31573695Y67921238D01*
X31621314Y67968857D01*
X30621314Y68778381D02*
X30573695Y68826000D01*
X30478457Y68873619D01*
X30240361Y68873619D01*
X30145123Y68826000D01*
X30097504Y68778381D01*
X30049885Y68683143D01*
X30049885Y68587905D01*
X30097504Y68445048D01*
X30668933Y67873619D01*
X30049885Y67873619D01*
X29716552Y68873619D02*
X29097504Y68873619D01*
X29430838Y68492667D01*
X29287980Y68492667D01*
X29192742Y68445048D01*
X29145123Y68397429D01*
X29097504Y68302190D01*
X29097504Y68064095D01*
X29145123Y67968857D01*
X29192742Y67921238D01*
X29287980Y67873619D01*
X29573695Y67873619D01*
X29668933Y67921238D01*
X29716552Y67968857D01*
X31954647Y79500457D02*
X32002266Y79452838D01*
X32145123Y79405219D01*
X32240361Y79405219D01*
X32383219Y79452838D01*
X32478457Y79548076D01*
X32526076Y79643314D01*
X32573695Y79833790D01*
X32573695Y79976648D01*
X32526076Y80167124D01*
X32478457Y80262362D01*
X32383219Y80357600D01*
X32240361Y80405219D01*
X32145123Y80405219D01*
X32002266Y80357600D01*
X31954647Y80309981D01*
X31621314Y80405219D02*
X31002266Y80405219D01*
X31335600Y80024267D01*
X31192742Y80024267D01*
X31097504Y79976648D01*
X31049885Y79929029D01*
X31002266Y79833790D01*
X31002266Y79595695D01*
X31049885Y79500457D01*
X31097504Y79452838D01*
X31192742Y79405219D01*
X31478457Y79405219D01*
X31573695Y79452838D01*
X31621314Y79500457D01*
X30621314Y80309981D02*
X30573695Y80357600D01*
X30478457Y80405219D01*
X30240361Y80405219D01*
X30145123Y80357600D01*
X30097504Y80309981D01*
X30049885Y80214743D01*
X30049885Y80119505D01*
X30097504Y79976648D01*
X30668933Y79405219D01*
X30049885Y79405219D01*
X29668933Y80309981D02*
X29621314Y80357600D01*
X29526076Y80405219D01*
X29287980Y80405219D01*
X29192742Y80357600D01*
X29145123Y80309981D01*
X29097504Y80214743D01*
X29097504Y80119505D01*
X29145123Y79976648D01*
X29716552Y79405219D01*
X29097504Y79405219D01*
X82500743Y57710247D02*
X82548362Y57757866D01*
X82595981Y57900723D01*
X82595981Y57995961D01*
X82548362Y58138819D01*
X82453124Y58234057D01*
X82357886Y58281676D01*
X82167410Y58329295D01*
X82024552Y58329295D01*
X81834076Y58281676D01*
X81738838Y58234057D01*
X81643600Y58138819D01*
X81595981Y57995961D01*
X81595981Y57900723D01*
X81643600Y57757866D01*
X81691219Y57710247D01*
X81691219Y57329295D02*
X81643600Y57281676D01*
X81595981Y57186438D01*
X81595981Y56948342D01*
X81643600Y56853104D01*
X81691219Y56805485D01*
X81786457Y56757866D01*
X81881695Y56757866D01*
X82024552Y56805485D01*
X82595981Y57376914D01*
X82595981Y56757866D01*
X81595981Y56138819D02*
X81595981Y56043580D01*
X81643600Y55948342D01*
X81691219Y55900723D01*
X81786457Y55853104D01*
X81976933Y55805485D01*
X82215029Y55805485D01*
X82405505Y55853104D01*
X82500743Y55900723D01*
X82548362Y55948342D01*
X82595981Y56043580D01*
X82595981Y56138819D01*
X82548362Y56234057D01*
X82500743Y56281676D01*
X82405505Y56329295D01*
X82215029Y56376914D01*
X81976933Y56376914D01*
X81786457Y56329295D01*
X81691219Y56281676D01*
X81643600Y56234057D01*
X81595981Y56138819D01*
X81595981Y55472152D02*
X81595981Y54853104D01*
X81976933Y55186438D01*
X81976933Y55043580D01*
X82024552Y54948342D01*
X82072171Y54900723D01*
X82167410Y54853104D01*
X82405505Y54853104D01*
X82500743Y54900723D01*
X82548362Y54948342D01*
X82595981Y55043580D01*
X82595981Y55329295D01*
X82548362Y55424533D01*
X82500743Y55472152D01*
X82500743Y48515447D02*
X82548362Y48563066D01*
X82595981Y48705923D01*
X82595981Y48801161D01*
X82548362Y48944019D01*
X82453124Y49039257D01*
X82357886Y49086876D01*
X82167410Y49134495D01*
X82024552Y49134495D01*
X81834076Y49086876D01*
X81738838Y49039257D01*
X81643600Y48944019D01*
X81595981Y48801161D01*
X81595981Y48705923D01*
X81643600Y48563066D01*
X81691219Y48515447D01*
X81691219Y48134495D02*
X81643600Y48086876D01*
X81595981Y47991638D01*
X81595981Y47753542D01*
X81643600Y47658304D01*
X81691219Y47610685D01*
X81786457Y47563066D01*
X81881695Y47563066D01*
X82024552Y47610685D01*
X82595981Y48182114D01*
X82595981Y47563066D01*
X81595981Y46944019D02*
X81595981Y46848780D01*
X81643600Y46753542D01*
X81691219Y46705923D01*
X81786457Y46658304D01*
X81976933Y46610685D01*
X82215029Y46610685D01*
X82405505Y46658304D01*
X82500743Y46705923D01*
X82548362Y46753542D01*
X82595981Y46848780D01*
X82595981Y46944019D01*
X82548362Y47039257D01*
X82500743Y47086876D01*
X82405505Y47134495D01*
X82215029Y47182114D01*
X81976933Y47182114D01*
X81786457Y47134495D01*
X81691219Y47086876D01*
X81643600Y47039257D01*
X81595981Y46944019D01*
X81929314Y45753542D02*
X82595981Y45753542D01*
X81548362Y45991638D02*
X82262648Y46229733D01*
X82262648Y45610685D01*
X88088743Y53849447D02*
X88136362Y53897066D01*
X88183981Y54039923D01*
X88183981Y54135161D01*
X88136362Y54278019D01*
X88041124Y54373257D01*
X87945886Y54420876D01*
X87755410Y54468495D01*
X87612552Y54468495D01*
X87422076Y54420876D01*
X87326838Y54373257D01*
X87231600Y54278019D01*
X87183981Y54135161D01*
X87183981Y54039923D01*
X87231600Y53897066D01*
X87279219Y53849447D01*
X87279219Y53468495D02*
X87231600Y53420876D01*
X87183981Y53325638D01*
X87183981Y53087542D01*
X87231600Y52992304D01*
X87279219Y52944685D01*
X87374457Y52897066D01*
X87469695Y52897066D01*
X87612552Y52944685D01*
X88183981Y53516114D01*
X88183981Y52897066D01*
X87183981Y52278019D02*
X87183981Y52182780D01*
X87231600Y52087542D01*
X87279219Y52039923D01*
X87374457Y51992304D01*
X87564933Y51944685D01*
X87803029Y51944685D01*
X87993505Y51992304D01*
X88088743Y52039923D01*
X88136362Y52087542D01*
X88183981Y52182780D01*
X88183981Y52278019D01*
X88136362Y52373257D01*
X88088743Y52420876D01*
X87993505Y52468495D01*
X87803029Y52516114D01*
X87564933Y52516114D01*
X87374457Y52468495D01*
X87279219Y52420876D01*
X87231600Y52373257D01*
X87183981Y52278019D01*
X87183981Y51039923D02*
X87183981Y51516114D01*
X87660171Y51563733D01*
X87612552Y51516114D01*
X87564933Y51420876D01*
X87564933Y51182780D01*
X87612552Y51087542D01*
X87660171Y51039923D01*
X87755410Y50992304D01*
X87993505Y50992304D01*
X88088743Y51039923D01*
X88136362Y51087542D01*
X88183981Y51182780D01*
X88183981Y51420876D01*
X88136362Y51516114D01*
X88088743Y51563733D01*
X86717143Y52579447D02*
X86764762Y52627066D01*
X86812381Y52769923D01*
X86812381Y52865161D01*
X86764762Y53008019D01*
X86669524Y53103257D01*
X86574286Y53150876D01*
X86383810Y53198495D01*
X86240952Y53198495D01*
X86050476Y53150876D01*
X85955238Y53103257D01*
X85860000Y53008019D01*
X85812381Y52865161D01*
X85812381Y52769923D01*
X85860000Y52627066D01*
X85907619Y52579447D01*
X85907619Y52198495D02*
X85860000Y52150876D01*
X85812381Y52055638D01*
X85812381Y51817542D01*
X85860000Y51722304D01*
X85907619Y51674685D01*
X86002857Y51627066D01*
X86098095Y51627066D01*
X86240952Y51674685D01*
X86812381Y52246114D01*
X86812381Y51627066D01*
X85812381Y51008019D02*
X85812381Y50912780D01*
X85860000Y50817542D01*
X85907619Y50769923D01*
X86002857Y50722304D01*
X86193333Y50674685D01*
X86431429Y50674685D01*
X86621905Y50722304D01*
X86717143Y50769923D01*
X86764762Y50817542D01*
X86812381Y50912780D01*
X86812381Y51008019D01*
X86764762Y51103257D01*
X86717143Y51150876D01*
X86621905Y51198495D01*
X86431429Y51246114D01*
X86193333Y51246114D01*
X86002857Y51198495D01*
X85907619Y51150876D01*
X85860000Y51103257D01*
X85812381Y51008019D01*
X85812381Y49817542D02*
X85812381Y50008019D01*
X85860000Y50103257D01*
X85907619Y50150876D01*
X86050476Y50246114D01*
X86240952Y50293733D01*
X86621905Y50293733D01*
X86717143Y50246114D01*
X86764762Y50198495D01*
X86812381Y50103257D01*
X86812381Y49912780D01*
X86764762Y49817542D01*
X86717143Y49769923D01*
X86621905Y49722304D01*
X86383810Y49722304D01*
X86288571Y49769923D01*
X86240952Y49817542D01*
X86193333Y49912780D01*
X86193333Y50103257D01*
X86240952Y50198495D01*
X86288571Y50246114D01*
X86383810Y50293733D01*
X76963543Y57964247D02*
X77011162Y58011866D01*
X77058781Y58154723D01*
X77058781Y58249961D01*
X77011162Y58392819D01*
X76915924Y58488057D01*
X76820686Y58535676D01*
X76630210Y58583295D01*
X76487352Y58583295D01*
X76296876Y58535676D01*
X76201638Y58488057D01*
X76106400Y58392819D01*
X76058781Y58249961D01*
X76058781Y58154723D01*
X76106400Y58011866D01*
X76154019Y57964247D01*
X76154019Y57583295D02*
X76106400Y57535676D01*
X76058781Y57440438D01*
X76058781Y57202342D01*
X76106400Y57107104D01*
X76154019Y57059485D01*
X76249257Y57011866D01*
X76344495Y57011866D01*
X76487352Y57059485D01*
X77058781Y57630914D01*
X77058781Y57011866D01*
X76058781Y56392819D02*
X76058781Y56297580D01*
X76106400Y56202342D01*
X76154019Y56154723D01*
X76249257Y56107104D01*
X76439733Y56059485D01*
X76677829Y56059485D01*
X76868305Y56107104D01*
X76963543Y56154723D01*
X77011162Y56202342D01*
X77058781Y56297580D01*
X77058781Y56392819D01*
X77011162Y56488057D01*
X76963543Y56535676D01*
X76868305Y56583295D01*
X76677829Y56630914D01*
X76439733Y56630914D01*
X76249257Y56583295D01*
X76154019Y56535676D01*
X76106400Y56488057D01*
X76058781Y56392819D01*
X76058781Y55726152D02*
X76058781Y55059485D01*
X77058781Y55488057D01*
X76887143Y48871047D02*
X76934762Y48918666D01*
X76982381Y49061523D01*
X76982381Y49156761D01*
X76934762Y49299619D01*
X76839524Y49394857D01*
X76744286Y49442476D01*
X76553810Y49490095D01*
X76410952Y49490095D01*
X76220476Y49442476D01*
X76125238Y49394857D01*
X76030000Y49299619D01*
X75982381Y49156761D01*
X75982381Y49061523D01*
X76030000Y48918666D01*
X76077619Y48871047D01*
X76077619Y48490095D02*
X76030000Y48442476D01*
X75982381Y48347238D01*
X75982381Y48109142D01*
X76030000Y48013904D01*
X76077619Y47966285D01*
X76172857Y47918666D01*
X76268095Y47918666D01*
X76410952Y47966285D01*
X76982381Y48537714D01*
X76982381Y47918666D01*
X75982381Y47299619D02*
X75982381Y47204380D01*
X76030000Y47109142D01*
X76077619Y47061523D01*
X76172857Y47013904D01*
X76363333Y46966285D01*
X76601429Y46966285D01*
X76791905Y47013904D01*
X76887143Y47061523D01*
X76934762Y47109142D01*
X76982381Y47204380D01*
X76982381Y47299619D01*
X76934762Y47394857D01*
X76887143Y47442476D01*
X76791905Y47490095D01*
X76601429Y47537714D01*
X76363333Y47537714D01*
X76172857Y47490095D01*
X76077619Y47442476D01*
X76030000Y47394857D01*
X75982381Y47299619D01*
X76410952Y46394857D02*
X76363333Y46490095D01*
X76315714Y46537714D01*
X76220476Y46585333D01*
X76172857Y46585333D01*
X76077619Y46537714D01*
X76030000Y46490095D01*
X75982381Y46394857D01*
X75982381Y46204380D01*
X76030000Y46109142D01*
X76077619Y46061523D01*
X76172857Y46013904D01*
X76220476Y46013904D01*
X76315714Y46061523D01*
X76363333Y46109142D01*
X76410952Y46204380D01*
X76410952Y46394857D01*
X76458571Y46490095D01*
X76506190Y46537714D01*
X76601429Y46585333D01*
X76791905Y46585333D01*
X76887143Y46537714D01*
X76934762Y46490095D01*
X76982381Y46394857D01*
X76982381Y46204380D01*
X76934762Y46109142D01*
X76887143Y46061523D01*
X76791905Y46013904D01*
X76601429Y46013904D01*
X76506190Y46061523D01*
X76458571Y46109142D01*
X76410952Y46204380D01*
X68022743Y61672647D02*
X68070362Y61720266D01*
X68117981Y61863123D01*
X68117981Y61958361D01*
X68070362Y62101219D01*
X67975124Y62196457D01*
X67879886Y62244076D01*
X67689410Y62291695D01*
X67546552Y62291695D01*
X67356076Y62244076D01*
X67260838Y62196457D01*
X67165600Y62101219D01*
X67117981Y61958361D01*
X67117981Y61863123D01*
X67165600Y61720266D01*
X67213219Y61672647D01*
X67213219Y61291695D02*
X67165600Y61244076D01*
X67117981Y61148838D01*
X67117981Y60910742D01*
X67165600Y60815504D01*
X67213219Y60767885D01*
X67308457Y60720266D01*
X67403695Y60720266D01*
X67546552Y60767885D01*
X68117981Y61339314D01*
X68117981Y60720266D01*
X68117981Y59767885D02*
X68117981Y60339314D01*
X68117981Y60053600D02*
X67117981Y60053600D01*
X67260838Y60148838D01*
X67356076Y60244076D01*
X67403695Y60339314D01*
X68117981Y58815504D02*
X68117981Y59386933D01*
X68117981Y59101219D02*
X67117981Y59101219D01*
X67260838Y59196457D01*
X67356076Y59291695D01*
X67403695Y59386933D01*
X67971943Y44959447D02*
X68019562Y45007066D01*
X68067181Y45149923D01*
X68067181Y45245161D01*
X68019562Y45388019D01*
X67924324Y45483257D01*
X67829086Y45530876D01*
X67638610Y45578495D01*
X67495752Y45578495D01*
X67305276Y45530876D01*
X67210038Y45483257D01*
X67114800Y45388019D01*
X67067181Y45245161D01*
X67067181Y45149923D01*
X67114800Y45007066D01*
X67162419Y44959447D01*
X67162419Y44578495D02*
X67114800Y44530876D01*
X67067181Y44435638D01*
X67067181Y44197542D01*
X67114800Y44102304D01*
X67162419Y44054685D01*
X67257657Y44007066D01*
X67352895Y44007066D01*
X67495752Y44054685D01*
X68067181Y44626114D01*
X68067181Y44007066D01*
X68067181Y43054685D02*
X68067181Y43626114D01*
X68067181Y43340400D02*
X67067181Y43340400D01*
X67210038Y43435638D01*
X67305276Y43530876D01*
X67352895Y43626114D01*
X67162419Y42673733D02*
X67114800Y42626114D01*
X67067181Y42530876D01*
X67067181Y42292780D01*
X67114800Y42197542D01*
X67162419Y42149923D01*
X67257657Y42102304D01*
X67352895Y42102304D01*
X67495752Y42149923D01*
X68067181Y42721352D01*
X68067181Y42102304D01*
X70308743Y61672647D02*
X70356362Y61720266D01*
X70403981Y61863123D01*
X70403981Y61958361D01*
X70356362Y62101219D01*
X70261124Y62196457D01*
X70165886Y62244076D01*
X69975410Y62291695D01*
X69832552Y62291695D01*
X69642076Y62244076D01*
X69546838Y62196457D01*
X69451600Y62101219D01*
X69403981Y61958361D01*
X69403981Y61863123D01*
X69451600Y61720266D01*
X69499219Y61672647D01*
X69499219Y61291695D02*
X69451600Y61244076D01*
X69403981Y61148838D01*
X69403981Y60910742D01*
X69451600Y60815504D01*
X69499219Y60767885D01*
X69594457Y60720266D01*
X69689695Y60720266D01*
X69832552Y60767885D01*
X70403981Y61339314D01*
X70403981Y60720266D01*
X70403981Y59767885D02*
X70403981Y60339314D01*
X70403981Y60053600D02*
X69403981Y60053600D01*
X69546838Y60148838D01*
X69642076Y60244076D01*
X69689695Y60339314D01*
X69403981Y59434552D02*
X69403981Y58815504D01*
X69784933Y59148838D01*
X69784933Y59005980D01*
X69832552Y58910742D01*
X69880171Y58863123D01*
X69975410Y58815504D01*
X70213505Y58815504D01*
X70308743Y58863123D01*
X70356362Y58910742D01*
X70403981Y59005980D01*
X70403981Y59291695D01*
X70356362Y59386933D01*
X70308743Y59434552D01*
X70359543Y45010247D02*
X70407162Y45057866D01*
X70454781Y45200723D01*
X70454781Y45295961D01*
X70407162Y45438819D01*
X70311924Y45534057D01*
X70216686Y45581676D01*
X70026210Y45629295D01*
X69883352Y45629295D01*
X69692876Y45581676D01*
X69597638Y45534057D01*
X69502400Y45438819D01*
X69454781Y45295961D01*
X69454781Y45200723D01*
X69502400Y45057866D01*
X69550019Y45010247D01*
X69550019Y44629295D02*
X69502400Y44581676D01*
X69454781Y44486438D01*
X69454781Y44248342D01*
X69502400Y44153104D01*
X69550019Y44105485D01*
X69645257Y44057866D01*
X69740495Y44057866D01*
X69883352Y44105485D01*
X70454781Y44676914D01*
X70454781Y44057866D01*
X70454781Y43105485D02*
X70454781Y43676914D01*
X70454781Y43391200D02*
X69454781Y43391200D01*
X69597638Y43486438D01*
X69692876Y43581676D01*
X69740495Y43676914D01*
X69788114Y42248342D02*
X70454781Y42248342D01*
X69407162Y42486438D02*
X70121448Y42724533D01*
X70121448Y42105485D01*
X72493143Y61621847D02*
X72540762Y61669466D01*
X72588381Y61812323D01*
X72588381Y61907561D01*
X72540762Y62050419D01*
X72445524Y62145657D01*
X72350286Y62193276D01*
X72159810Y62240895D01*
X72016952Y62240895D01*
X71826476Y62193276D01*
X71731238Y62145657D01*
X71636000Y62050419D01*
X71588381Y61907561D01*
X71588381Y61812323D01*
X71636000Y61669466D01*
X71683619Y61621847D01*
X71683619Y61240895D02*
X71636000Y61193276D01*
X71588381Y61098038D01*
X71588381Y60859942D01*
X71636000Y60764704D01*
X71683619Y60717085D01*
X71778857Y60669466D01*
X71874095Y60669466D01*
X72016952Y60717085D01*
X72588381Y61288514D01*
X72588381Y60669466D01*
X72588381Y59717085D02*
X72588381Y60288514D01*
X72588381Y60002800D02*
X71588381Y60002800D01*
X71731238Y60098038D01*
X71826476Y60193276D01*
X71874095Y60288514D01*
X71588381Y58812323D02*
X71588381Y59288514D01*
X72064571Y59336133D01*
X72016952Y59288514D01*
X71969333Y59193276D01*
X71969333Y58955180D01*
X72016952Y58859942D01*
X72064571Y58812323D01*
X72159810Y58764704D01*
X72397905Y58764704D01*
X72493143Y58812323D01*
X72540762Y58859942D01*
X72588381Y58955180D01*
X72588381Y59193276D01*
X72540762Y59288514D01*
X72493143Y59336133D01*
X72594743Y44959447D02*
X72642362Y45007066D01*
X72689981Y45149923D01*
X72689981Y45245161D01*
X72642362Y45388019D01*
X72547124Y45483257D01*
X72451886Y45530876D01*
X72261410Y45578495D01*
X72118552Y45578495D01*
X71928076Y45530876D01*
X71832838Y45483257D01*
X71737600Y45388019D01*
X71689981Y45245161D01*
X71689981Y45149923D01*
X71737600Y45007066D01*
X71785219Y44959447D01*
X71785219Y44578495D02*
X71737600Y44530876D01*
X71689981Y44435638D01*
X71689981Y44197542D01*
X71737600Y44102304D01*
X71785219Y44054685D01*
X71880457Y44007066D01*
X71975695Y44007066D01*
X72118552Y44054685D01*
X72689981Y44626114D01*
X72689981Y44007066D01*
X72689981Y43054685D02*
X72689981Y43626114D01*
X72689981Y43340400D02*
X71689981Y43340400D01*
X71832838Y43435638D01*
X71928076Y43530876D01*
X71975695Y43626114D01*
X71689981Y42197542D02*
X71689981Y42388019D01*
X71737600Y42483257D01*
X71785219Y42530876D01*
X71928076Y42626114D01*
X72118552Y42673733D01*
X72499505Y42673733D01*
X72594743Y42626114D01*
X72642362Y42578495D01*
X72689981Y42483257D01*
X72689981Y42292780D01*
X72642362Y42197542D01*
X72594743Y42149923D01*
X72499505Y42102304D01*
X72261410Y42102304D01*
X72166171Y42149923D01*
X72118552Y42197542D01*
X72070933Y42292780D01*
X72070933Y42483257D01*
X72118552Y42578495D01*
X72166171Y42626114D01*
X72261410Y42673733D01*
X32005447Y90320857D02*
X32053066Y90273238D01*
X32195923Y90225619D01*
X32291161Y90225619D01*
X32434019Y90273238D01*
X32529257Y90368476D01*
X32576876Y90463714D01*
X32624495Y90654190D01*
X32624495Y90797048D01*
X32576876Y90987524D01*
X32529257Y91082762D01*
X32434019Y91178000D01*
X32291161Y91225619D01*
X32195923Y91225619D01*
X32053066Y91178000D01*
X32005447Y91130381D01*
X31672114Y91225619D02*
X31053066Y91225619D01*
X31386400Y90844667D01*
X31243542Y90844667D01*
X31148304Y90797048D01*
X31100685Y90749429D01*
X31053066Y90654190D01*
X31053066Y90416095D01*
X31100685Y90320857D01*
X31148304Y90273238D01*
X31243542Y90225619D01*
X31529257Y90225619D01*
X31624495Y90273238D01*
X31672114Y90320857D01*
X30672114Y91130381D02*
X30624495Y91178000D01*
X30529257Y91225619D01*
X30291161Y91225619D01*
X30195923Y91178000D01*
X30148304Y91130381D01*
X30100685Y91035143D01*
X30100685Y90939905D01*
X30148304Y90797048D01*
X30719733Y90225619D01*
X30100685Y90225619D01*
X29148304Y90225619D02*
X29719733Y90225619D01*
X29434019Y90225619D02*
X29434019Y91225619D01*
X29529257Y91082762D01*
X29624495Y90987524D01*
X29719733Y90939905D01*
X31903847Y56234057D02*
X31951466Y56186438D01*
X32094323Y56138819D01*
X32189561Y56138819D01*
X32332419Y56186438D01*
X32427657Y56281676D01*
X32475276Y56376914D01*
X32522895Y56567390D01*
X32522895Y56710248D01*
X32475276Y56900724D01*
X32427657Y56995962D01*
X32332419Y57091200D01*
X32189561Y57138819D01*
X32094323Y57138819D01*
X31951466Y57091200D01*
X31903847Y57043581D01*
X31570514Y57138819D02*
X30951466Y57138819D01*
X31284800Y56757867D01*
X31141942Y56757867D01*
X31046704Y56710248D01*
X30999085Y56662629D01*
X30951466Y56567390D01*
X30951466Y56329295D01*
X30999085Y56234057D01*
X31046704Y56186438D01*
X31141942Y56138819D01*
X31427657Y56138819D01*
X31522895Y56186438D01*
X31570514Y56234057D01*
X30570514Y57043581D02*
X30522895Y57091200D01*
X30427657Y57138819D01*
X30189561Y57138819D01*
X30094323Y57091200D01*
X30046704Y57043581D01*
X29999085Y56948343D01*
X29999085Y56853105D01*
X30046704Y56710248D01*
X30618133Y56138819D01*
X29999085Y56138819D01*
X29141942Y56805486D02*
X29141942Y56138819D01*
X29380038Y57186438D02*
X29618133Y56472152D01*
X28999085Y56472152D01*
X39981047Y53744857D02*
X40028666Y53697238D01*
X40171523Y53649619D01*
X40266761Y53649619D01*
X40409619Y53697238D01*
X40504857Y53792476D01*
X40552476Y53887714D01*
X40600095Y54078190D01*
X40600095Y54221048D01*
X40552476Y54411524D01*
X40504857Y54506762D01*
X40409619Y54602000D01*
X40266761Y54649619D01*
X40171523Y54649619D01*
X40028666Y54602000D01*
X39981047Y54554381D01*
X39647714Y54649619D02*
X39028666Y54649619D01*
X39362000Y54268667D01*
X39219142Y54268667D01*
X39123904Y54221048D01*
X39076285Y54173429D01*
X39028666Y54078190D01*
X39028666Y53840095D01*
X39076285Y53744857D01*
X39123904Y53697238D01*
X39219142Y53649619D01*
X39504857Y53649619D01*
X39600095Y53697238D01*
X39647714Y53744857D01*
X38647714Y54554381D02*
X38600095Y54602000D01*
X38504857Y54649619D01*
X38266761Y54649619D01*
X38171523Y54602000D01*
X38123904Y54554381D01*
X38076285Y54459143D01*
X38076285Y54363905D01*
X38123904Y54221048D01*
X38695333Y53649619D01*
X38076285Y53649619D01*
X37504857Y54221048D02*
X37600095Y54268667D01*
X37647714Y54316286D01*
X37695333Y54411524D01*
X37695333Y54459143D01*
X37647714Y54554381D01*
X37600095Y54602000D01*
X37504857Y54649619D01*
X37314380Y54649619D01*
X37219142Y54602000D01*
X37171523Y54554381D01*
X37123904Y54459143D01*
X37123904Y54411524D01*
X37171523Y54316286D01*
X37219142Y54268667D01*
X37314380Y54221048D01*
X37504857Y54221048D01*
X37600095Y54173429D01*
X37647714Y54125810D01*
X37695333Y54030571D01*
X37695333Y53840095D01*
X37647714Y53744857D01*
X37600095Y53697238D01*
X37504857Y53649619D01*
X37314380Y53649619D01*
X37219142Y53697238D01*
X37171523Y53744857D01*
X37123904Y53840095D01*
X37123904Y54030571D01*
X37171523Y54125810D01*
X37219142Y54173429D01*
X37314380Y54221048D01*
X92444476Y62961619D02*
X92444476Y63961619D01*
X92206381Y63961619D01*
X92063523Y63914000D01*
X91968285Y63818762D01*
X91920666Y63723524D01*
X91873047Y63533048D01*
X91873047Y63390190D01*
X91920666Y63199714D01*
X91968285Y63104476D01*
X92063523Y63009238D01*
X92206381Y62961619D01*
X92444476Y62961619D01*
X91492095Y63866381D02*
X91444476Y63914000D01*
X91349238Y63961619D01*
X91111142Y63961619D01*
X91015904Y63914000D01*
X90968285Y63866381D01*
X90920666Y63771143D01*
X90920666Y63675905D01*
X90968285Y63533048D01*
X91539714Y62961619D01*
X90920666Y62961619D01*
X90301619Y63961619D02*
X90206380Y63961619D01*
X90111142Y63914000D01*
X90063523Y63866381D01*
X90015904Y63771143D01*
X89968285Y63580667D01*
X89968285Y63342571D01*
X90015904Y63152095D01*
X90063523Y63056857D01*
X90111142Y63009238D01*
X90206380Y62961619D01*
X90301619Y62961619D01*
X90396857Y63009238D01*
X90444476Y63056857D01*
X90492095Y63152095D01*
X90539714Y63342571D01*
X90539714Y63580667D01*
X90492095Y63771143D01*
X90444476Y63866381D01*
X90396857Y63914000D01*
X90301619Y63961619D01*
X89015904Y62961619D02*
X89587333Y62961619D01*
X89301619Y62961619D02*
X89301619Y63961619D01*
X89396857Y63818762D01*
X89492095Y63723524D01*
X89587333Y63675905D01*
X87015905Y60761619D02*
X87015905Y61761619D01*
X86444476Y60761619D02*
X86873048Y61333048D01*
X86444476Y61761619D02*
X87015905Y61190190D01*
X94992095Y61047333D02*
X94515904Y61047333D01*
X95087333Y60761619D02*
X94754000Y61761619D01*
X94420666Y60761619D01*
X92444476Y40527619D02*
X92444476Y41527619D01*
X92206381Y41527619D01*
X92063523Y41480000D01*
X91968285Y41384762D01*
X91920666Y41289524D01*
X91873047Y41099048D01*
X91873047Y40956190D01*
X91920666Y40765714D01*
X91968285Y40670476D01*
X92063523Y40575238D01*
X92206381Y40527619D01*
X92444476Y40527619D01*
X91492095Y41432381D02*
X91444476Y41480000D01*
X91349238Y41527619D01*
X91111142Y41527619D01*
X91015904Y41480000D01*
X90968285Y41432381D01*
X90920666Y41337143D01*
X90920666Y41241905D01*
X90968285Y41099048D01*
X91539714Y40527619D01*
X90920666Y40527619D01*
X90301619Y41527619D02*
X90206380Y41527619D01*
X90111142Y41480000D01*
X90063523Y41432381D01*
X90015904Y41337143D01*
X89968285Y41146667D01*
X89968285Y40908571D01*
X90015904Y40718095D01*
X90063523Y40622857D01*
X90111142Y40575238D01*
X90206380Y40527619D01*
X90301619Y40527619D01*
X90396857Y40575238D01*
X90444476Y40622857D01*
X90492095Y40718095D01*
X90539714Y40908571D01*
X90539714Y41146667D01*
X90492095Y41337143D01*
X90444476Y41432381D01*
X90396857Y41480000D01*
X90301619Y41527619D01*
X89587333Y41432381D02*
X89539714Y41480000D01*
X89444476Y41527619D01*
X89206380Y41527619D01*
X89111142Y41480000D01*
X89063523Y41432381D01*
X89015904Y41337143D01*
X89015904Y41241905D01*
X89063523Y41099048D01*
X89634952Y40527619D01*
X89015904Y40527619D01*
X95015905Y42727619D02*
X95015905Y43727619D01*
X94444476Y42727619D02*
X94873048Y43299048D01*
X94444476Y43727619D02*
X95015905Y43156190D01*
X86992095Y43013333D02*
X86515904Y43013333D01*
X87087333Y42727619D02*
X86754000Y43727619D01*
X86420666Y42727619D01*
X80265447Y60304419D02*
X80741638Y60304419D01*
X80741638Y61304419D01*
X79979733Y61209181D02*
X79932114Y61256800D01*
X79836876Y61304419D01*
X79598780Y61304419D01*
X79503542Y61256800D01*
X79455923Y61209181D01*
X79408304Y61113943D01*
X79408304Y61018705D01*
X79455923Y60875848D01*
X80027352Y60304419D01*
X79408304Y60304419D01*
X78789257Y61304419D02*
X78694018Y61304419D01*
X78598780Y61256800D01*
X78551161Y61209181D01*
X78503542Y61113943D01*
X78455923Y60923467D01*
X78455923Y60685371D01*
X78503542Y60494895D01*
X78551161Y60399657D01*
X78598780Y60352038D01*
X78694018Y60304419D01*
X78789257Y60304419D01*
X78884495Y60352038D01*
X78932114Y60399657D01*
X78979733Y60494895D01*
X79027352Y60685371D01*
X79027352Y60923467D01*
X78979733Y61113943D01*
X78932114Y61209181D01*
X78884495Y61256800D01*
X78789257Y61304419D01*
X77503542Y60304419D02*
X78074971Y60304419D01*
X77789257Y60304419D02*
X77789257Y61304419D01*
X77884495Y61161562D01*
X77979733Y61066324D01*
X78074971Y61018705D01*
X80417847Y42727619D02*
X80894038Y42727619D01*
X80894038Y43727619D01*
X80132133Y43632381D02*
X80084514Y43680000D01*
X79989276Y43727619D01*
X79751180Y43727619D01*
X79655942Y43680000D01*
X79608323Y43632381D01*
X79560704Y43537143D01*
X79560704Y43441905D01*
X79608323Y43299048D01*
X80179752Y42727619D01*
X79560704Y42727619D01*
X78941657Y43727619D02*
X78846418Y43727619D01*
X78751180Y43680000D01*
X78703561Y43632381D01*
X78655942Y43537143D01*
X78608323Y43346667D01*
X78608323Y43108571D01*
X78655942Y42918095D01*
X78703561Y42822857D01*
X78751180Y42775238D01*
X78846418Y42727619D01*
X78941657Y42727619D01*
X79036895Y42775238D01*
X79084514Y42822857D01*
X79132133Y42918095D01*
X79179752Y43108571D01*
X79179752Y43346667D01*
X79132133Y43537143D01*
X79084514Y43632381D01*
X79036895Y43680000D01*
X78941657Y43727619D01*
X78227371Y43632381D02*
X78179752Y43680000D01*
X78084514Y43727619D01*
X77846418Y43727619D01*
X77751180Y43680000D01*
X77703561Y43632381D01*
X77655942Y43537143D01*
X77655942Y43441905D01*
X77703561Y43299048D01*
X78274990Y42727619D01*
X77655942Y42727619D01*
X31040247Y92962457D02*
X31087866Y92914838D01*
X31230723Y92867219D01*
X31325961Y92867219D01*
X31468819Y92914838D01*
X31564057Y93010076D01*
X31611676Y93105314D01*
X31659295Y93295790D01*
X31659295Y93438648D01*
X31611676Y93629124D01*
X31564057Y93724362D01*
X31468819Y93819600D01*
X31325961Y93867219D01*
X31230723Y93867219D01*
X31087866Y93819600D01*
X31040247Y93771981D01*
X30706914Y93867219D02*
X30087866Y93867219D01*
X30421200Y93486267D01*
X30278342Y93486267D01*
X30183104Y93438648D01*
X30135485Y93391029D01*
X30087866Y93295790D01*
X30087866Y93057695D01*
X30135485Y92962457D01*
X30183104Y92914838D01*
X30278342Y92867219D01*
X30564057Y92867219D01*
X30659295Y92914838D01*
X30706914Y92962457D01*
X29135485Y92867219D02*
X29706914Y92867219D01*
X29421200Y92867219D02*
X29421200Y93867219D01*
X29516438Y93724362D01*
X29611676Y93629124D01*
X29706914Y93581505D01*
X28278342Y93867219D02*
X28468819Y93867219D01*
X28564057Y93819600D01*
X28611676Y93771981D01*
X28706914Y93629124D01*
X28754533Y93438648D01*
X28754533Y93057695D01*
X28706914Y92962457D01*
X28659295Y92914838D01*
X28564057Y92867219D01*
X28373580Y92867219D01*
X28278342Y92914838D01*
X28230723Y92962457D01*
X28183104Y93057695D01*
X28183104Y93295790D01*
X28230723Y93391029D01*
X28278342Y93438648D01*
X28373580Y93486267D01*
X28564057Y93486267D01*
X28659295Y93438648D01*
X28706914Y93391029D01*
X28754533Y93295790D01*
X30583047Y82294457D02*
X30630666Y82246838D01*
X30773523Y82199219D01*
X30868761Y82199219D01*
X31011619Y82246838D01*
X31106857Y82342076D01*
X31154476Y82437314D01*
X31202095Y82627790D01*
X31202095Y82770648D01*
X31154476Y82961124D01*
X31106857Y83056362D01*
X31011619Y83151600D01*
X30868761Y83199219D01*
X30773523Y83199219D01*
X30630666Y83151600D01*
X30583047Y83103981D01*
X30249714Y83199219D02*
X29630666Y83199219D01*
X29964000Y82818267D01*
X29821142Y82818267D01*
X29725904Y82770648D01*
X29678285Y82723029D01*
X29630666Y82627790D01*
X29630666Y82389695D01*
X29678285Y82294457D01*
X29725904Y82246838D01*
X29821142Y82199219D01*
X30106857Y82199219D01*
X30202095Y82246838D01*
X30249714Y82294457D01*
X28678285Y82199219D02*
X29249714Y82199219D01*
X28964000Y82199219D02*
X28964000Y83199219D01*
X29059238Y83056362D01*
X29154476Y82961124D01*
X29249714Y82913505D01*
X28344952Y83199219D02*
X27678285Y83199219D01*
X28106857Y82199219D01*
X30786247Y70762857D02*
X30833866Y70715238D01*
X30976723Y70667619D01*
X31071961Y70667619D01*
X31214819Y70715238D01*
X31310057Y70810476D01*
X31357676Y70905714D01*
X31405295Y71096190D01*
X31405295Y71239048D01*
X31357676Y71429524D01*
X31310057Y71524762D01*
X31214819Y71620000D01*
X31071961Y71667619D01*
X30976723Y71667619D01*
X30833866Y71620000D01*
X30786247Y71572381D01*
X30452914Y71667619D02*
X29833866Y71667619D01*
X30167200Y71286667D01*
X30024342Y71286667D01*
X29929104Y71239048D01*
X29881485Y71191429D01*
X29833866Y71096190D01*
X29833866Y70858095D01*
X29881485Y70762857D01*
X29929104Y70715238D01*
X30024342Y70667619D01*
X30310057Y70667619D01*
X30405295Y70715238D01*
X30452914Y70762857D01*
X28881485Y70667619D02*
X29452914Y70667619D01*
X29167200Y70667619D02*
X29167200Y71667619D01*
X29262438Y71524762D01*
X29357676Y71429524D01*
X29452914Y71381905D01*
X28310057Y71239048D02*
X28405295Y71286667D01*
X28452914Y71334286D01*
X28500533Y71429524D01*
X28500533Y71477143D01*
X28452914Y71572381D01*
X28405295Y71620000D01*
X28310057Y71667619D01*
X28119580Y71667619D01*
X28024342Y71620000D01*
X27976723Y71572381D01*
X27929104Y71477143D01*
X27929104Y71429524D01*
X27976723Y71334286D01*
X28024342Y71286667D01*
X28119580Y71239048D01*
X28310057Y71239048D01*
X28405295Y71191429D01*
X28452914Y71143810D01*
X28500533Y71048571D01*
X28500533Y70858095D01*
X28452914Y70762857D01*
X28405295Y70715238D01*
X28310057Y70667619D01*
X28119580Y70667619D01*
X28024342Y70715238D01*
X27976723Y70762857D01*
X27929104Y70858095D01*
X27929104Y71048571D01*
X27976723Y71143810D01*
X28024342Y71191429D01*
X28119580Y71239048D01*
X35231047Y60806057D02*
X35278666Y60758438D01*
X35421523Y60710819D01*
X35516761Y60710819D01*
X35659619Y60758438D01*
X35754857Y60853676D01*
X35802476Y60948914D01*
X35850095Y61139390D01*
X35850095Y61282248D01*
X35802476Y61472724D01*
X35754857Y61567962D01*
X35659619Y61663200D01*
X35516761Y61710819D01*
X35421523Y61710819D01*
X35278666Y61663200D01*
X35231047Y61615581D01*
X34897714Y61710819D02*
X34278666Y61710819D01*
X34612000Y61329867D01*
X34469142Y61329867D01*
X34373904Y61282248D01*
X34326285Y61234629D01*
X34278666Y61139390D01*
X34278666Y60901295D01*
X34326285Y60806057D01*
X34373904Y60758438D01*
X34469142Y60710819D01*
X34754857Y60710819D01*
X34850095Y60758438D01*
X34897714Y60806057D01*
X33326285Y60710819D02*
X33897714Y60710819D01*
X33612000Y60710819D02*
X33612000Y61710819D01*
X33707238Y61567962D01*
X33802476Y61472724D01*
X33897714Y61425105D01*
X32850095Y60710819D02*
X32659619Y60710819D01*
X32564380Y60758438D01*
X32516761Y60806057D01*
X32421523Y60948914D01*
X32373904Y61139390D01*
X32373904Y61520343D01*
X32421523Y61615581D01*
X32469142Y61663200D01*
X32564380Y61710819D01*
X32754857Y61710819D01*
X32850095Y61663200D01*
X32897714Y61615581D01*
X32945333Y61520343D01*
X32945333Y61282248D01*
X32897714Y61187010D01*
X32850095Y61139390D01*
X32754857Y61091771D01*
X32564380Y61091771D01*
X32469142Y61139390D01*
X32421523Y61187010D01*
X32373904Y61282248D01*
X35231047Y13054057D02*
X35278666Y13006438D01*
X35421523Y12958819D01*
X35516761Y12958819D01*
X35659619Y13006438D01*
X35754857Y13101676D01*
X35802476Y13196914D01*
X35850095Y13387390D01*
X35850095Y13530248D01*
X35802476Y13720724D01*
X35754857Y13815962D01*
X35659619Y13911200D01*
X35516761Y13958819D01*
X35421523Y13958819D01*
X35278666Y13911200D01*
X35231047Y13863581D01*
X34897714Y13958819D02*
X34278666Y13958819D01*
X34612000Y13577867D01*
X34469142Y13577867D01*
X34373904Y13530248D01*
X34326285Y13482629D01*
X34278666Y13387390D01*
X34278666Y13149295D01*
X34326285Y13054057D01*
X34373904Y13006438D01*
X34469142Y12958819D01*
X34754857Y12958819D01*
X34850095Y13006438D01*
X34897714Y13054057D01*
X33373904Y13958819D02*
X33850095Y13958819D01*
X33897714Y13482629D01*
X33850095Y13530248D01*
X33754857Y13577867D01*
X33516761Y13577867D01*
X33421523Y13530248D01*
X33373904Y13482629D01*
X33326285Y13387390D01*
X33326285Y13149295D01*
X33373904Y13054057D01*
X33421523Y13006438D01*
X33516761Y12958819D01*
X33754857Y12958819D01*
X33850095Y13006438D01*
X33897714Y13054057D01*
X32992952Y13958819D02*
X32373904Y13958819D01*
X32707238Y13577867D01*
X32564380Y13577867D01*
X32469142Y13530248D01*
X32421523Y13482629D01*
X32373904Y13387390D01*
X32373904Y13149295D01*
X32421523Y13054057D01*
X32469142Y13006438D01*
X32564380Y12958819D01*
X32850095Y12958819D01*
X32945333Y13006438D01*
X32992952Y13054057D01*
X35231047Y24839657D02*
X35278666Y24792038D01*
X35421523Y24744419D01*
X35516761Y24744419D01*
X35659619Y24792038D01*
X35754857Y24887276D01*
X35802476Y24982514D01*
X35850095Y25172990D01*
X35850095Y25315848D01*
X35802476Y25506324D01*
X35754857Y25601562D01*
X35659619Y25696800D01*
X35516761Y25744419D01*
X35421523Y25744419D01*
X35278666Y25696800D01*
X35231047Y25649181D01*
X34897714Y25744419D02*
X34278666Y25744419D01*
X34612000Y25363467D01*
X34469142Y25363467D01*
X34373904Y25315848D01*
X34326285Y25268229D01*
X34278666Y25172990D01*
X34278666Y24934895D01*
X34326285Y24839657D01*
X34373904Y24792038D01*
X34469142Y24744419D01*
X34754857Y24744419D01*
X34850095Y24792038D01*
X34897714Y24839657D01*
X33373904Y25744419D02*
X33850095Y25744419D01*
X33897714Y25268229D01*
X33850095Y25315848D01*
X33754857Y25363467D01*
X33516761Y25363467D01*
X33421523Y25315848D01*
X33373904Y25268229D01*
X33326285Y25172990D01*
X33326285Y24934895D01*
X33373904Y24839657D01*
X33421523Y24792038D01*
X33516761Y24744419D01*
X33754857Y24744419D01*
X33850095Y24792038D01*
X33897714Y24839657D01*
X32469142Y25411086D02*
X32469142Y24744419D01*
X32707238Y25792038D02*
X32945333Y25077752D01*
X32326285Y25077752D01*
X35358047Y36625257D02*
X35405666Y36577638D01*
X35548523Y36530019D01*
X35643761Y36530019D01*
X35786619Y36577638D01*
X35881857Y36672876D01*
X35929476Y36768114D01*
X35977095Y36958590D01*
X35977095Y37101448D01*
X35929476Y37291924D01*
X35881857Y37387162D01*
X35786619Y37482400D01*
X35643761Y37530019D01*
X35548523Y37530019D01*
X35405666Y37482400D01*
X35358047Y37434781D01*
X35024714Y37530019D02*
X34405666Y37530019D01*
X34739000Y37149067D01*
X34596142Y37149067D01*
X34500904Y37101448D01*
X34453285Y37053829D01*
X34405666Y36958590D01*
X34405666Y36720495D01*
X34453285Y36625257D01*
X34500904Y36577638D01*
X34596142Y36530019D01*
X34881857Y36530019D01*
X34977095Y36577638D01*
X35024714Y36625257D01*
X33500904Y37530019D02*
X33977095Y37530019D01*
X34024714Y37053829D01*
X33977095Y37101448D01*
X33881857Y37149067D01*
X33643761Y37149067D01*
X33548523Y37101448D01*
X33500904Y37053829D01*
X33453285Y36958590D01*
X33453285Y36720495D01*
X33500904Y36625257D01*
X33548523Y36577638D01*
X33643761Y36530019D01*
X33881857Y36530019D01*
X33977095Y36577638D01*
X34024714Y36625257D01*
X32548523Y37530019D02*
X33024714Y37530019D01*
X33072333Y37053829D01*
X33024714Y37101448D01*
X32929476Y37149067D01*
X32691380Y37149067D01*
X32596142Y37101448D01*
X32548523Y37053829D01*
X32500904Y36958590D01*
X32500904Y36720495D01*
X32548523Y36625257D01*
X32596142Y36577638D01*
X32691380Y36530019D01*
X32929476Y36530019D01*
X33024714Y36577638D01*
X33072333Y36625257D01*
X35409047Y48004457D02*
X35456666Y47956838D01*
X35599523Y47909219D01*
X35694761Y47909219D01*
X35837619Y47956838D01*
X35932857Y48052076D01*
X35980476Y48147314D01*
X36028095Y48337790D01*
X36028095Y48480648D01*
X35980476Y48671124D01*
X35932857Y48766362D01*
X35837619Y48861600D01*
X35694761Y48909219D01*
X35599523Y48909219D01*
X35456666Y48861600D01*
X35409047Y48813981D01*
X35075714Y48909219D02*
X34456666Y48909219D01*
X34790000Y48528267D01*
X34647142Y48528267D01*
X34551904Y48480648D01*
X34504285Y48433029D01*
X34456666Y48337790D01*
X34456666Y48099695D01*
X34504285Y48004457D01*
X34551904Y47956838D01*
X34647142Y47909219D01*
X34932857Y47909219D01*
X35028095Y47956838D01*
X35075714Y48004457D01*
X33551904Y48909219D02*
X34028095Y48909219D01*
X34075714Y48433029D01*
X34028095Y48480648D01*
X33932857Y48528267D01*
X33694761Y48528267D01*
X33599523Y48480648D01*
X33551904Y48433029D01*
X33504285Y48337790D01*
X33504285Y48099695D01*
X33551904Y48004457D01*
X33599523Y47956838D01*
X33694761Y47909219D01*
X33932857Y47909219D01*
X34028095Y47956838D01*
X34075714Y48004457D01*
X32647142Y48909219D02*
X32837619Y48909219D01*
X32932857Y48861600D01*
X32980476Y48813981D01*
X33075714Y48671124D01*
X33123333Y48480648D01*
X33123333Y48099695D01*
X33075714Y48004457D01*
X33028095Y47956838D01*
X32932857Y47909219D01*
X32742380Y47909219D01*
X32647142Y47956838D01*
X32599523Y48004457D01*
X32551904Y48099695D01*
X32551904Y48337790D01*
X32599523Y48433029D01*
X32647142Y48480648D01*
X32742380Y48528267D01*
X32932857Y48528267D01*
X33028095Y48480648D01*
X33075714Y48433029D01*
X33123333Y48337790D01*
X39523847Y8532857D02*
X39571466Y8485238D01*
X39714323Y8437619D01*
X39809561Y8437619D01*
X39952419Y8485238D01*
X40047657Y8580476D01*
X40095276Y8675714D01*
X40142895Y8866190D01*
X40142895Y9009048D01*
X40095276Y9199524D01*
X40047657Y9294762D01*
X39952419Y9390000D01*
X39809561Y9437619D01*
X39714323Y9437619D01*
X39571466Y9390000D01*
X39523847Y9342381D01*
X39190514Y9437619D02*
X38571466Y9437619D01*
X38904800Y9056667D01*
X38761942Y9056667D01*
X38666704Y9009048D01*
X38619085Y8961429D01*
X38571466Y8866190D01*
X38571466Y8628095D01*
X38619085Y8532857D01*
X38666704Y8485238D01*
X38761942Y8437619D01*
X39047657Y8437619D01*
X39142895Y8485238D01*
X39190514Y8532857D01*
X37666704Y9437619D02*
X38142895Y9437619D01*
X38190514Y8961429D01*
X38142895Y9009048D01*
X38047657Y9056667D01*
X37809561Y9056667D01*
X37714323Y9009048D01*
X37666704Y8961429D01*
X37619085Y8866190D01*
X37619085Y8628095D01*
X37666704Y8532857D01*
X37714323Y8485238D01*
X37809561Y8437619D01*
X38047657Y8437619D01*
X38142895Y8485238D01*
X38190514Y8532857D01*
X37285752Y9437619D02*
X36619085Y9437619D01*
X37047657Y8437619D01*
X39574647Y20216857D02*
X39622266Y20169238D01*
X39765123Y20121619D01*
X39860361Y20121619D01*
X40003219Y20169238D01*
X40098457Y20264476D01*
X40146076Y20359714D01*
X40193695Y20550190D01*
X40193695Y20693048D01*
X40146076Y20883524D01*
X40098457Y20978762D01*
X40003219Y21074000D01*
X39860361Y21121619D01*
X39765123Y21121619D01*
X39622266Y21074000D01*
X39574647Y21026381D01*
X39241314Y21121619D02*
X38622266Y21121619D01*
X38955600Y20740667D01*
X38812742Y20740667D01*
X38717504Y20693048D01*
X38669885Y20645429D01*
X38622266Y20550190D01*
X38622266Y20312095D01*
X38669885Y20216857D01*
X38717504Y20169238D01*
X38812742Y20121619D01*
X39098457Y20121619D01*
X39193695Y20169238D01*
X39241314Y20216857D01*
X37717504Y21121619D02*
X38193695Y21121619D01*
X38241314Y20645429D01*
X38193695Y20693048D01*
X38098457Y20740667D01*
X37860361Y20740667D01*
X37765123Y20693048D01*
X37717504Y20645429D01*
X37669885Y20550190D01*
X37669885Y20312095D01*
X37717504Y20216857D01*
X37765123Y20169238D01*
X37860361Y20121619D01*
X38098457Y20121619D01*
X38193695Y20169238D01*
X38241314Y20216857D01*
X37098457Y20693048D02*
X37193695Y20740667D01*
X37241314Y20788286D01*
X37288933Y20883524D01*
X37288933Y20931143D01*
X37241314Y21026381D01*
X37193695Y21074000D01*
X37098457Y21121619D01*
X36907980Y21121619D01*
X36812742Y21074000D01*
X36765123Y21026381D01*
X36717504Y20931143D01*
X36717504Y20883524D01*
X36765123Y20788286D01*
X36812742Y20740667D01*
X36907980Y20693048D01*
X37098457Y20693048D01*
X37193695Y20645429D01*
X37241314Y20597810D01*
X37288933Y20502571D01*
X37288933Y20312095D01*
X37241314Y20216857D01*
X37193695Y20169238D01*
X37098457Y20121619D01*
X36907980Y20121619D01*
X36812742Y20169238D01*
X36765123Y20216857D01*
X36717504Y20312095D01*
X36717504Y20502571D01*
X36765123Y20597810D01*
X36812742Y20645429D01*
X36907980Y20693048D01*
X40133447Y31545257D02*
X40181066Y31497638D01*
X40323923Y31450019D01*
X40419161Y31450019D01*
X40562019Y31497638D01*
X40657257Y31592876D01*
X40704876Y31688114D01*
X40752495Y31878590D01*
X40752495Y32021448D01*
X40704876Y32211924D01*
X40657257Y32307162D01*
X40562019Y32402400D01*
X40419161Y32450019D01*
X40323923Y32450019D01*
X40181066Y32402400D01*
X40133447Y32354781D01*
X39800114Y32450019D02*
X39181066Y32450019D01*
X39514400Y32069067D01*
X39371542Y32069067D01*
X39276304Y32021448D01*
X39228685Y31973829D01*
X39181066Y31878590D01*
X39181066Y31640495D01*
X39228685Y31545257D01*
X39276304Y31497638D01*
X39371542Y31450019D01*
X39657257Y31450019D01*
X39752495Y31497638D01*
X39800114Y31545257D01*
X38276304Y32450019D02*
X38752495Y32450019D01*
X38800114Y31973829D01*
X38752495Y32021448D01*
X38657257Y32069067D01*
X38419161Y32069067D01*
X38323923Y32021448D01*
X38276304Y31973829D01*
X38228685Y31878590D01*
X38228685Y31640495D01*
X38276304Y31545257D01*
X38323923Y31497638D01*
X38419161Y31450019D01*
X38657257Y31450019D01*
X38752495Y31497638D01*
X38800114Y31545257D01*
X37752495Y31450019D02*
X37562019Y31450019D01*
X37466780Y31497638D01*
X37419161Y31545257D01*
X37323923Y31688114D01*
X37276304Y31878590D01*
X37276304Y32259543D01*
X37323923Y32354781D01*
X37371542Y32402400D01*
X37466780Y32450019D01*
X37657257Y32450019D01*
X37752495Y32402400D01*
X37800114Y32354781D01*
X37847733Y32259543D01*
X37847733Y32021448D01*
X37800114Y31926210D01*
X37752495Y31878590D01*
X37657257Y31830971D01*
X37466780Y31830971D01*
X37371542Y31878590D01*
X37323923Y31926210D01*
X37276304Y32021448D01*
X39676247Y43432457D02*
X39723866Y43384838D01*
X39866723Y43337219D01*
X39961961Y43337219D01*
X40104819Y43384838D01*
X40200057Y43480076D01*
X40247676Y43575314D01*
X40295295Y43765790D01*
X40295295Y43908648D01*
X40247676Y44099124D01*
X40200057Y44194362D01*
X40104819Y44289600D01*
X39961961Y44337219D01*
X39866723Y44337219D01*
X39723866Y44289600D01*
X39676247Y44241981D01*
X39342914Y44337219D02*
X38723866Y44337219D01*
X39057200Y43956267D01*
X38914342Y43956267D01*
X38819104Y43908648D01*
X38771485Y43861029D01*
X38723866Y43765790D01*
X38723866Y43527695D01*
X38771485Y43432457D01*
X38819104Y43384838D01*
X38914342Y43337219D01*
X39200057Y43337219D01*
X39295295Y43384838D01*
X39342914Y43432457D01*
X37866723Y44337219D02*
X38057200Y44337219D01*
X38152438Y44289600D01*
X38200057Y44241981D01*
X38295295Y44099124D01*
X38342914Y43908648D01*
X38342914Y43527695D01*
X38295295Y43432457D01*
X38247676Y43384838D01*
X38152438Y43337219D01*
X37961961Y43337219D01*
X37866723Y43384838D01*
X37819104Y43432457D01*
X37771485Y43527695D01*
X37771485Y43765790D01*
X37819104Y43861029D01*
X37866723Y43908648D01*
X37961961Y43956267D01*
X38152438Y43956267D01*
X38247676Y43908648D01*
X38295295Y43861029D01*
X38342914Y43765790D01*
X37152438Y44337219D02*
X37057199Y44337219D01*
X36961961Y44289600D01*
X36914342Y44241981D01*
X36866723Y44146743D01*
X36819104Y43956267D01*
X36819104Y43718171D01*
X36866723Y43527695D01*
X36914342Y43432457D01*
X36961961Y43384838D01*
X37057199Y43337219D01*
X37152438Y43337219D01*
X37247676Y43384838D01*
X37295295Y43432457D01*
X37342914Y43527695D01*
X37390533Y43718171D01*
X37390533Y43956267D01*
X37342914Y44146743D01*
X37295295Y44241981D01*
X37247676Y44289600D01*
X37152438Y44337219D01*
X35866247Y4316457D02*
X35913866Y4268838D01*
X36056723Y4221219D01*
X36151961Y4221219D01*
X36294819Y4268838D01*
X36390057Y4364076D01*
X36437676Y4459314D01*
X36485295Y4649790D01*
X36485295Y4792648D01*
X36437676Y4983124D01*
X36390057Y5078362D01*
X36294819Y5173600D01*
X36151961Y5221219D01*
X36056723Y5221219D01*
X35913866Y5173600D01*
X35866247Y5125981D01*
X35532914Y5221219D02*
X34913866Y5221219D01*
X35247200Y4840267D01*
X35104342Y4840267D01*
X35009104Y4792648D01*
X34961485Y4745029D01*
X34913866Y4649790D01*
X34913866Y4411695D01*
X34961485Y4316457D01*
X35009104Y4268838D01*
X35104342Y4221219D01*
X35390057Y4221219D01*
X35485295Y4268838D01*
X35532914Y4316457D01*
X34056723Y5221219D02*
X34247200Y5221219D01*
X34342438Y5173600D01*
X34390057Y5125981D01*
X34485295Y4983124D01*
X34532914Y4792648D01*
X34532914Y4411695D01*
X34485295Y4316457D01*
X34437676Y4268838D01*
X34342438Y4221219D01*
X34151961Y4221219D01*
X34056723Y4268838D01*
X34009104Y4316457D01*
X33961485Y4411695D01*
X33961485Y4649790D01*
X34009104Y4745029D01*
X34056723Y4792648D01*
X34151961Y4840267D01*
X34342438Y4840267D01*
X34437676Y4792648D01*
X34485295Y4745029D01*
X34532914Y4649790D01*
X33009104Y4221219D02*
X33580533Y4221219D01*
X33294819Y4221219D02*
X33294819Y5221219D01*
X33390057Y5078362D01*
X33485295Y4983124D01*
X33580533Y4935505D01*
X35815447Y15898857D02*
X35863066Y15851238D01*
X36005923Y15803619D01*
X36101161Y15803619D01*
X36244019Y15851238D01*
X36339257Y15946476D01*
X36386876Y16041714D01*
X36434495Y16232190D01*
X36434495Y16375048D01*
X36386876Y16565524D01*
X36339257Y16660762D01*
X36244019Y16756000D01*
X36101161Y16803619D01*
X36005923Y16803619D01*
X35863066Y16756000D01*
X35815447Y16708381D01*
X35482114Y16803619D02*
X34863066Y16803619D01*
X35196400Y16422667D01*
X35053542Y16422667D01*
X34958304Y16375048D01*
X34910685Y16327429D01*
X34863066Y16232190D01*
X34863066Y15994095D01*
X34910685Y15898857D01*
X34958304Y15851238D01*
X35053542Y15803619D01*
X35339257Y15803619D01*
X35434495Y15851238D01*
X35482114Y15898857D01*
X34005923Y16803619D02*
X34196400Y16803619D01*
X34291638Y16756000D01*
X34339257Y16708381D01*
X34434495Y16565524D01*
X34482114Y16375048D01*
X34482114Y15994095D01*
X34434495Y15898857D01*
X34386876Y15851238D01*
X34291638Y15803619D01*
X34101161Y15803619D01*
X34005923Y15851238D01*
X33958304Y15898857D01*
X33910685Y15994095D01*
X33910685Y16232190D01*
X33958304Y16327429D01*
X34005923Y16375048D01*
X34101161Y16422667D01*
X34291638Y16422667D01*
X34386876Y16375048D01*
X34434495Y16327429D01*
X34482114Y16232190D01*
X33529733Y16708381D02*
X33482114Y16756000D01*
X33386876Y16803619D01*
X33148780Y16803619D01*
X33053542Y16756000D01*
X33005923Y16708381D01*
X32958304Y16613143D01*
X32958304Y16517905D01*
X33005923Y16375048D01*
X33577352Y15803619D01*
X32958304Y15803619D01*
X35866247Y27786057D02*
X35913866Y27738438D01*
X36056723Y27690819D01*
X36151961Y27690819D01*
X36294819Y27738438D01*
X36390057Y27833676D01*
X36437676Y27928914D01*
X36485295Y28119390D01*
X36485295Y28262248D01*
X36437676Y28452724D01*
X36390057Y28547962D01*
X36294819Y28643200D01*
X36151961Y28690819D01*
X36056723Y28690819D01*
X35913866Y28643200D01*
X35866247Y28595581D01*
X35532914Y28690819D02*
X34913866Y28690819D01*
X35247200Y28309867D01*
X35104342Y28309867D01*
X35009104Y28262248D01*
X34961485Y28214629D01*
X34913866Y28119390D01*
X34913866Y27881295D01*
X34961485Y27786057D01*
X35009104Y27738438D01*
X35104342Y27690819D01*
X35390057Y27690819D01*
X35485295Y27738438D01*
X35532914Y27786057D01*
X34056723Y28690819D02*
X34247200Y28690819D01*
X34342438Y28643200D01*
X34390057Y28595581D01*
X34485295Y28452724D01*
X34532914Y28262248D01*
X34532914Y27881295D01*
X34485295Y27786057D01*
X34437676Y27738438D01*
X34342438Y27690819D01*
X34151961Y27690819D01*
X34056723Y27738438D01*
X34009104Y27786057D01*
X33961485Y27881295D01*
X33961485Y28119390D01*
X34009104Y28214629D01*
X34056723Y28262248D01*
X34151961Y28309867D01*
X34342438Y28309867D01*
X34437676Y28262248D01*
X34485295Y28214629D01*
X34532914Y28119390D01*
X33628152Y28690819D02*
X33009104Y28690819D01*
X33342438Y28309867D01*
X33199580Y28309867D01*
X33104342Y28262248D01*
X33056723Y28214629D01*
X33009104Y28119390D01*
X33009104Y27881295D01*
X33056723Y27786057D01*
X33104342Y27738438D01*
X33199580Y27690819D01*
X33485295Y27690819D01*
X33580533Y27738438D01*
X33628152Y27786057D01*
X35815447Y39266857D02*
X35863066Y39219238D01*
X36005923Y39171619D01*
X36101161Y39171619D01*
X36244019Y39219238D01*
X36339257Y39314476D01*
X36386876Y39409714D01*
X36434495Y39600190D01*
X36434495Y39743048D01*
X36386876Y39933524D01*
X36339257Y40028762D01*
X36244019Y40124000D01*
X36101161Y40171619D01*
X36005923Y40171619D01*
X35863066Y40124000D01*
X35815447Y40076381D01*
X35482114Y40171619D02*
X34863066Y40171619D01*
X35196400Y39790667D01*
X35053542Y39790667D01*
X34958304Y39743048D01*
X34910685Y39695429D01*
X34863066Y39600190D01*
X34863066Y39362095D01*
X34910685Y39266857D01*
X34958304Y39219238D01*
X35053542Y39171619D01*
X35339257Y39171619D01*
X35434495Y39219238D01*
X35482114Y39266857D01*
X34005923Y40171619D02*
X34196400Y40171619D01*
X34291638Y40124000D01*
X34339257Y40076381D01*
X34434495Y39933524D01*
X34482114Y39743048D01*
X34482114Y39362095D01*
X34434495Y39266857D01*
X34386876Y39219238D01*
X34291638Y39171619D01*
X34101161Y39171619D01*
X34005923Y39219238D01*
X33958304Y39266857D01*
X33910685Y39362095D01*
X33910685Y39600190D01*
X33958304Y39695429D01*
X34005923Y39743048D01*
X34101161Y39790667D01*
X34291638Y39790667D01*
X34386876Y39743048D01*
X34434495Y39695429D01*
X34482114Y39600190D01*
X33053542Y39838286D02*
X33053542Y39171619D01*
X33291638Y40219238D02*
X33529733Y39504952D01*
X32910685Y39504952D01*
X19711943Y85751847D02*
X19759562Y85799466D01*
X19807181Y85942323D01*
X19807181Y86037561D01*
X19759562Y86180419D01*
X19664324Y86275657D01*
X19569086Y86323276D01*
X19378610Y86370895D01*
X19235752Y86370895D01*
X19045276Y86323276D01*
X18950038Y86275657D01*
X18854800Y86180419D01*
X18807181Y86037561D01*
X18807181Y85942323D01*
X18854800Y85799466D01*
X18902419Y85751847D01*
X18807181Y85418514D02*
X18807181Y84799466D01*
X19188133Y85132800D01*
X19188133Y84989942D01*
X19235752Y84894704D01*
X19283371Y84847085D01*
X19378610Y84799466D01*
X19616705Y84799466D01*
X19711943Y84847085D01*
X19759562Y84894704D01*
X19807181Y84989942D01*
X19807181Y85275657D01*
X19759562Y85370895D01*
X19711943Y85418514D01*
X18807181Y84466133D02*
X18807181Y83799466D01*
X19807181Y84228038D01*
X18807181Y83513752D02*
X18807181Y82894704D01*
X19188133Y83228038D01*
X19188133Y83085180D01*
X19235752Y82989942D01*
X19283371Y82942323D01*
X19378610Y82894704D01*
X19616705Y82894704D01*
X19711943Y82942323D01*
X19759562Y82989942D01*
X19807181Y83085180D01*
X19807181Y83370895D01*
X19759562Y83466133D01*
X19711943Y83513752D01*
X12752343Y60047047D02*
X12799962Y60094666D01*
X12847581Y60237523D01*
X12847581Y60332761D01*
X12799962Y60475619D01*
X12704724Y60570857D01*
X12609486Y60618476D01*
X12419010Y60666095D01*
X12276152Y60666095D01*
X12085676Y60618476D01*
X11990438Y60570857D01*
X11895200Y60475619D01*
X11847581Y60332761D01*
X11847581Y60237523D01*
X11895200Y60094666D01*
X11942819Y60047047D01*
X11847581Y59713714D02*
X11847581Y59094666D01*
X12228533Y59428000D01*
X12228533Y59285142D01*
X12276152Y59189904D01*
X12323771Y59142285D01*
X12419010Y59094666D01*
X12657105Y59094666D01*
X12752343Y59142285D01*
X12799962Y59189904D01*
X12847581Y59285142D01*
X12847581Y59570857D01*
X12799962Y59666095D01*
X12752343Y59713714D01*
X11847581Y58761333D02*
X11847581Y58094666D01*
X12847581Y58523238D01*
X12180914Y57285142D02*
X12847581Y57285142D01*
X11799962Y57523238D02*
X12514248Y57761333D01*
X12514248Y57142285D01*
X12549143Y43029047D02*
X12596762Y43076666D01*
X12644381Y43219523D01*
X12644381Y43314761D01*
X12596762Y43457619D01*
X12501524Y43552857D01*
X12406286Y43600476D01*
X12215810Y43648095D01*
X12072952Y43648095D01*
X11882476Y43600476D01*
X11787238Y43552857D01*
X11692000Y43457619D01*
X11644381Y43314761D01*
X11644381Y43219523D01*
X11692000Y43076666D01*
X11739619Y43029047D01*
X11644381Y42695714D02*
X11644381Y42076666D01*
X12025333Y42410000D01*
X12025333Y42267142D01*
X12072952Y42171904D01*
X12120571Y42124285D01*
X12215810Y42076666D01*
X12453905Y42076666D01*
X12549143Y42124285D01*
X12596762Y42171904D01*
X12644381Y42267142D01*
X12644381Y42552857D01*
X12596762Y42648095D01*
X12549143Y42695714D01*
X11644381Y41743333D02*
X11644381Y41076666D01*
X12644381Y41505238D01*
X11644381Y40219523D02*
X11644381Y40695714D01*
X12120571Y40743333D01*
X12072952Y40695714D01*
X12025333Y40600476D01*
X12025333Y40362380D01*
X12072952Y40267142D01*
X12120571Y40219523D01*
X12215810Y40171904D01*
X12453905Y40171904D01*
X12549143Y40219523D01*
X12596762Y40267142D01*
X12644381Y40362380D01*
X12644381Y40600476D01*
X12596762Y40695714D01*
X12549143Y40743333D01*
X19610143Y17121047D02*
X19657762Y17168666D01*
X19705381Y17311523D01*
X19705381Y17406761D01*
X19657762Y17549619D01*
X19562524Y17644857D01*
X19467286Y17692476D01*
X19276810Y17740095D01*
X19133952Y17740095D01*
X18943476Y17692476D01*
X18848238Y17644857D01*
X18753000Y17549619D01*
X18705381Y17406761D01*
X18705381Y17311523D01*
X18753000Y17168666D01*
X18800619Y17121047D01*
X18705381Y16787714D02*
X18705381Y16168666D01*
X19086333Y16502000D01*
X19086333Y16359142D01*
X19133952Y16263904D01*
X19181571Y16216285D01*
X19276810Y16168666D01*
X19514905Y16168666D01*
X19610143Y16216285D01*
X19657762Y16263904D01*
X19705381Y16359142D01*
X19705381Y16644857D01*
X19657762Y16740095D01*
X19610143Y16787714D01*
X18705381Y15835333D02*
X18705381Y15168666D01*
X19705381Y15597238D01*
X18705381Y14359142D02*
X18705381Y14549619D01*
X18753000Y14644857D01*
X18800619Y14692476D01*
X18943476Y14787714D01*
X19133952Y14835333D01*
X19514905Y14835333D01*
X19610143Y14787714D01*
X19657762Y14740095D01*
X19705381Y14644857D01*
X19705381Y14454380D01*
X19657762Y14359142D01*
X19610143Y14311523D01*
X19514905Y14263904D01*
X19276810Y14263904D01*
X19181571Y14311523D01*
X19133952Y14359142D01*
X19086333Y14454380D01*
X19086333Y14644857D01*
X19133952Y14740095D01*
X19181571Y14787714D01*
X19276810Y14835333D01*
X14879581Y89917447D02*
X14403390Y90250781D01*
X14879581Y90488876D02*
X13879581Y90488876D01*
X13879581Y90107923D01*
X13927200Y90012685D01*
X13974819Y89965066D01*
X14070057Y89917447D01*
X14212914Y89917447D01*
X14308152Y89965066D01*
X14355771Y90012685D01*
X14403390Y90107923D01*
X14403390Y90488876D01*
X13879581Y89584114D02*
X13879581Y88965066D01*
X14260533Y89298400D01*
X14260533Y89155542D01*
X14308152Y89060304D01*
X14355771Y89012685D01*
X14451010Y88965066D01*
X14689105Y88965066D01*
X14784343Y89012685D01*
X14831962Y89060304D01*
X14879581Y89155542D01*
X14879581Y89441257D01*
X14831962Y89536495D01*
X14784343Y89584114D01*
X14212914Y88107923D02*
X14879581Y88107923D01*
X13831962Y88346019D02*
X14546248Y88584114D01*
X14546248Y87965066D01*
X14879581Y87536495D02*
X14879581Y87346019D01*
X14831962Y87250780D01*
X14784343Y87203161D01*
X14641486Y87107923D01*
X14451010Y87060304D01*
X14070057Y87060304D01*
X13974819Y87107923D01*
X13927200Y87155542D01*
X13879581Y87250780D01*
X13879581Y87441257D01*
X13927200Y87536495D01*
X13974819Y87584114D01*
X14070057Y87631733D01*
X14308152Y87631733D01*
X14403390Y87584114D01*
X14451010Y87536495D01*
X14498629Y87441257D01*
X14498629Y87250780D01*
X14451010Y87155542D01*
X14403390Y87107923D01*
X14308152Y87060304D01*
X6192781Y59412047D02*
X5716590Y59745381D01*
X6192781Y59983476D02*
X5192781Y59983476D01*
X5192781Y59602523D01*
X5240400Y59507285D01*
X5288019Y59459666D01*
X5383257Y59412047D01*
X5526114Y59412047D01*
X5621352Y59459666D01*
X5668971Y59507285D01*
X5716590Y59602523D01*
X5716590Y59983476D01*
X5192781Y59078714D02*
X5192781Y58459666D01*
X5573733Y58793000D01*
X5573733Y58650142D01*
X5621352Y58554904D01*
X5668971Y58507285D01*
X5764210Y58459666D01*
X6002305Y58459666D01*
X6097543Y58507285D01*
X6145162Y58554904D01*
X6192781Y58650142D01*
X6192781Y58935857D01*
X6145162Y59031095D01*
X6097543Y59078714D01*
X5192781Y57554904D02*
X5192781Y58031095D01*
X5668971Y58078714D01*
X5621352Y58031095D01*
X5573733Y57935857D01*
X5573733Y57697761D01*
X5621352Y57602523D01*
X5668971Y57554904D01*
X5764210Y57507285D01*
X6002305Y57507285D01*
X6097543Y57554904D01*
X6145162Y57602523D01*
X6192781Y57697761D01*
X6192781Y57935857D01*
X6145162Y58031095D01*
X6097543Y58078714D01*
X5192781Y56888238D02*
X5192781Y56792999D01*
X5240400Y56697761D01*
X5288019Y56650142D01*
X5383257Y56602523D01*
X5573733Y56554904D01*
X5811829Y56554904D01*
X6002305Y56602523D01*
X6097543Y56650142D01*
X6145162Y56697761D01*
X6192781Y56792999D01*
X6192781Y56888238D01*
X6145162Y56983476D01*
X6097543Y57031095D01*
X6002305Y57078714D01*
X5811829Y57126333D01*
X5573733Y57126333D01*
X5383257Y57078714D01*
X5288019Y57031095D01*
X5240400Y56983476D01*
X5192781Y56888238D01*
X6498381Y43410047D02*
X6022190Y43743381D01*
X6498381Y43981476D02*
X5498381Y43981476D01*
X5498381Y43600523D01*
X5546000Y43505285D01*
X5593619Y43457666D01*
X5688857Y43410047D01*
X5831714Y43410047D01*
X5926952Y43457666D01*
X5974571Y43505285D01*
X6022190Y43600523D01*
X6022190Y43981476D01*
X5498381Y43076714D02*
X5498381Y42457666D01*
X5879333Y42791000D01*
X5879333Y42648142D01*
X5926952Y42552904D01*
X5974571Y42505285D01*
X6069810Y42457666D01*
X6307905Y42457666D01*
X6403143Y42505285D01*
X6450762Y42552904D01*
X6498381Y42648142D01*
X6498381Y42933857D01*
X6450762Y43029095D01*
X6403143Y43076714D01*
X5498381Y41552904D02*
X5498381Y42029095D01*
X5974571Y42076714D01*
X5926952Y42029095D01*
X5879333Y41933857D01*
X5879333Y41695761D01*
X5926952Y41600523D01*
X5974571Y41552904D01*
X6069810Y41505285D01*
X6307905Y41505285D01*
X6403143Y41552904D01*
X6450762Y41600523D01*
X6498381Y41695761D01*
X6498381Y41933857D01*
X6450762Y42029095D01*
X6403143Y42076714D01*
X6498381Y40552904D02*
X6498381Y41124333D01*
X6498381Y40838619D02*
X5498381Y40838619D01*
X5641238Y40933857D01*
X5736476Y41029095D01*
X5784095Y41124333D01*
X13229381Y17502047D02*
X12753190Y17835381D01*
X13229381Y18073476D02*
X12229381Y18073476D01*
X12229381Y17692523D01*
X12277000Y17597285D01*
X12324619Y17549666D01*
X12419857Y17502047D01*
X12562714Y17502047D01*
X12657952Y17549666D01*
X12705571Y17597285D01*
X12753190Y17692523D01*
X12753190Y18073476D01*
X12229381Y17168714D02*
X12229381Y16549666D01*
X12610333Y16883000D01*
X12610333Y16740142D01*
X12657952Y16644904D01*
X12705571Y16597285D01*
X12800810Y16549666D01*
X13038905Y16549666D01*
X13134143Y16597285D01*
X13181762Y16644904D01*
X13229381Y16740142D01*
X13229381Y17025857D01*
X13181762Y17121095D01*
X13134143Y17168714D01*
X12229381Y15644904D02*
X12229381Y16121095D01*
X12705571Y16168714D01*
X12657952Y16121095D01*
X12610333Y16025857D01*
X12610333Y15787761D01*
X12657952Y15692523D01*
X12705571Y15644904D01*
X12800810Y15597285D01*
X13038905Y15597285D01*
X13134143Y15644904D01*
X13181762Y15692523D01*
X13229381Y15787761D01*
X13229381Y16025857D01*
X13181762Y16121095D01*
X13134143Y16168714D01*
X12324619Y15216333D02*
X12277000Y15168714D01*
X12229381Y15073476D01*
X12229381Y14835380D01*
X12277000Y14740142D01*
X12324619Y14692523D01*
X12419857Y14644904D01*
X12515095Y14644904D01*
X12657952Y14692523D01*
X13229381Y15263952D01*
X13229381Y14644904D01*
X63704743Y57659447D02*
X63752362Y57707066D01*
X63799981Y57849923D01*
X63799981Y57945161D01*
X63752362Y58088019D01*
X63657124Y58183257D01*
X63561886Y58230876D01*
X63371410Y58278495D01*
X63228552Y58278495D01*
X63038076Y58230876D01*
X62942838Y58183257D01*
X62847600Y58088019D01*
X62799981Y57945161D01*
X62799981Y57849923D01*
X62847600Y57707066D01*
X62895219Y57659447D01*
X62895219Y57278495D02*
X62847600Y57230876D01*
X62799981Y57135638D01*
X62799981Y56897542D01*
X62847600Y56802304D01*
X62895219Y56754685D01*
X62990457Y56707066D01*
X63085695Y56707066D01*
X63228552Y56754685D01*
X63799981Y57326114D01*
X63799981Y56707066D01*
X63799981Y55754685D02*
X63799981Y56326114D01*
X63799981Y56040400D02*
X62799981Y56040400D01*
X62942838Y56135638D01*
X63038076Y56230876D01*
X63085695Y56326114D01*
X62799981Y55421352D02*
X62799981Y54754685D01*
X63799981Y55183257D01*
X63857143Y49074247D02*
X63904762Y49121866D01*
X63952381Y49264723D01*
X63952381Y49359961D01*
X63904762Y49502819D01*
X63809524Y49598057D01*
X63714286Y49645676D01*
X63523810Y49693295D01*
X63380952Y49693295D01*
X63190476Y49645676D01*
X63095238Y49598057D01*
X63000000Y49502819D01*
X62952381Y49359961D01*
X62952381Y49264723D01*
X63000000Y49121866D01*
X63047619Y49074247D01*
X63047619Y48693295D02*
X63000000Y48645676D01*
X62952381Y48550438D01*
X62952381Y48312342D01*
X63000000Y48217104D01*
X63047619Y48169485D01*
X63142857Y48121866D01*
X63238095Y48121866D01*
X63380952Y48169485D01*
X63952381Y48740914D01*
X63952381Y48121866D01*
X63952381Y47169485D02*
X63952381Y47740914D01*
X63952381Y47455200D02*
X62952381Y47455200D01*
X63095238Y47550438D01*
X63190476Y47645676D01*
X63238095Y47740914D01*
X63380952Y46598057D02*
X63333333Y46693295D01*
X63285714Y46740914D01*
X63190476Y46788533D01*
X63142857Y46788533D01*
X63047619Y46740914D01*
X63000000Y46693295D01*
X62952381Y46598057D01*
X62952381Y46407580D01*
X63000000Y46312342D01*
X63047619Y46264723D01*
X63142857Y46217104D01*
X63190476Y46217104D01*
X63285714Y46264723D01*
X63333333Y46312342D01*
X63380952Y46407580D01*
X63380952Y46598057D01*
X63428571Y46693295D01*
X63476190Y46740914D01*
X63571429Y46788533D01*
X63761905Y46788533D01*
X63857143Y46740914D01*
X63904762Y46693295D01*
X63952381Y46598057D01*
X63952381Y46407580D01*
X63904762Y46312342D01*
X63857143Y46264723D01*
X63761905Y46217104D01*
X63571429Y46217104D01*
X63476190Y46264723D01*
X63428571Y46312342D01*
X63380952Y46407580D01*
X89765143Y53443047D02*
X89812762Y53490666D01*
X89860381Y53633523D01*
X89860381Y53728761D01*
X89812762Y53871619D01*
X89717524Y53966857D01*
X89622286Y54014476D01*
X89431810Y54062095D01*
X89288952Y54062095D01*
X89098476Y54014476D01*
X89003238Y53966857D01*
X88908000Y53871619D01*
X88860381Y53728761D01*
X88860381Y53633523D01*
X88908000Y53490666D01*
X88955619Y53443047D01*
X88955619Y53062095D02*
X88908000Y53014476D01*
X88860381Y52919238D01*
X88860381Y52681142D01*
X88908000Y52585904D01*
X88955619Y52538285D01*
X89050857Y52490666D01*
X89146095Y52490666D01*
X89288952Y52538285D01*
X89860381Y53109714D01*
X89860381Y52490666D01*
X89860381Y51538285D02*
X89860381Y52109714D01*
X89860381Y51824000D02*
X88860381Y51824000D01*
X89003238Y51919238D01*
X89098476Y52014476D01*
X89146095Y52109714D01*
X89860381Y51062095D02*
X89860381Y50871619D01*
X89812762Y50776380D01*
X89765143Y50728761D01*
X89622286Y50633523D01*
X89431810Y50585904D01*
X89050857Y50585904D01*
X88955619Y50633523D01*
X88908000Y50681142D01*
X88860381Y50776380D01*
X88860381Y50966857D01*
X88908000Y51062095D01*
X88955619Y51109714D01*
X89050857Y51157333D01*
X89288952Y51157333D01*
X89384190Y51109714D01*
X89431810Y51062095D01*
X89479429Y50966857D01*
X89479429Y50776380D01*
X89431810Y50681142D01*
X89384190Y50633523D01*
X89288952Y50585904D01*
X91339943Y49074247D02*
X91387562Y49121866D01*
X91435181Y49264723D01*
X91435181Y49359961D01*
X91387562Y49502819D01*
X91292324Y49598057D01*
X91197086Y49645676D01*
X91006610Y49693295D01*
X90863752Y49693295D01*
X90673276Y49645676D01*
X90578038Y49598057D01*
X90482800Y49502819D01*
X90435181Y49359961D01*
X90435181Y49264723D01*
X90482800Y49121866D01*
X90530419Y49074247D01*
X90530419Y48693295D02*
X90482800Y48645676D01*
X90435181Y48550438D01*
X90435181Y48312342D01*
X90482800Y48217104D01*
X90530419Y48169485D01*
X90625657Y48121866D01*
X90720895Y48121866D01*
X90863752Y48169485D01*
X91435181Y48740914D01*
X91435181Y48121866D01*
X90530419Y47740914D02*
X90482800Y47693295D01*
X90435181Y47598057D01*
X90435181Y47359961D01*
X90482800Y47264723D01*
X90530419Y47217104D01*
X90625657Y47169485D01*
X90720895Y47169485D01*
X90863752Y47217104D01*
X91435181Y47788533D01*
X91435181Y47169485D01*
X90435181Y46550438D02*
X90435181Y46455199D01*
X90482800Y46359961D01*
X90530419Y46312342D01*
X90625657Y46264723D01*
X90816133Y46217104D01*
X91054229Y46217104D01*
X91244705Y46264723D01*
X91339943Y46312342D01*
X91387562Y46359961D01*
X91435181Y46455199D01*
X91435181Y46550438D01*
X91387562Y46645676D01*
X91339943Y46693295D01*
X91244705Y46740914D01*
X91054229Y46788533D01*
X90816133Y46788533D01*
X90625657Y46740914D01*
X90530419Y46693295D01*
X90482800Y46645676D01*
X90435181Y46550438D01*
M02*
