G04 #@! TF.FileFunction,Copper,L2,Bot,Signal*
%FSLAX46Y46*%
G04 Gerber Fmt 4.6, Leading zero omitted, Abs format (unit mm)*
G04 Created by KiCad (PCBNEW 4.0.1-stable) date 18/01/2016 20:35:10*
%MOMM*%
G01*
G04 APERTURE LIST*
%ADD10C,0.100000*%
%ADD11R,0.900000X1.300000*%
%ADD12C,2.000000*%
%ADD13R,1.300000X0.900000*%
%ADD14C,2.200000*%
%ADD15C,1.600000*%
%ADD16R,2.500000X1.700000*%
%ADD17O,1.600000X3.200000*%
%ADD18R,1.100000X1.700000*%
%ADD19R,1.700000X1.100000*%
%ADD20C,1.200000*%
%ADD21C,0.300000*%
%ADD22C,0.250000*%
%ADD23C,2.000000*%
%ADD24C,1.500000*%
%ADD25C,1.000000*%
G04 APERTURE END LIST*
D10*
D11*
X80170000Y51054000D03*
X77970000Y51054000D03*
X77970000Y53086000D03*
X80170000Y53086000D03*
X35847000Y65913000D03*
X33647000Y65913000D03*
X35720000Y77470000D03*
X33520000Y77470000D03*
X35847000Y88138000D03*
X33647000Y88138000D03*
X35847000Y68326000D03*
X33647000Y68326000D03*
X35720000Y79883000D03*
X33520000Y79883000D03*
D12*
X83896000Y58138000D03*
X83896000Y54638000D03*
X83896000Y49502000D03*
X83896000Y46002000D03*
D13*
X80594000Y57234000D03*
X80594000Y55034000D03*
X80594000Y49106000D03*
X80594000Y46906000D03*
X86944000Y57488000D03*
X86944000Y55288000D03*
X86944000Y48852000D03*
X86944000Y46652000D03*
X78054000Y57234000D03*
X78054000Y55034000D03*
X78054000Y49106000D03*
X78054000Y46906000D03*
D12*
X74752000Y58138000D03*
X74752000Y54638000D03*
X74752000Y49502000D03*
X74752000Y46002000D03*
D13*
X67640000Y57742000D03*
X67640000Y55542000D03*
X67640000Y48852000D03*
X67640000Y46652000D03*
X69926000Y57742000D03*
X69926000Y55542000D03*
X69926000Y48852000D03*
X69926000Y46652000D03*
X72212000Y57742000D03*
X72212000Y55542000D03*
X72212000Y48852000D03*
X72212000Y46652000D03*
D11*
X35847000Y90678000D03*
X33647000Y90678000D03*
X35847000Y56642000D03*
X33647000Y56642000D03*
X35847000Y54102000D03*
X33647000Y54102000D03*
D12*
X64338000Y90210000D03*
X64338000Y95210000D03*
D14*
X55448000Y90210000D03*
X55448000Y95210000D03*
D12*
X55448000Y80558000D03*
X55448000Y85558000D03*
D14*
X64338000Y80558000D03*
X64338000Y85558000D03*
D12*
X64338000Y70906000D03*
X64338000Y75906000D03*
D14*
X55448000Y70906000D03*
X55448000Y75906000D03*
D12*
X55448000Y61254000D03*
X55448000Y66254000D03*
D14*
X64338000Y61254000D03*
X64338000Y66254000D03*
D15*
X80340000Y93980000D03*
X82880000Y93980000D03*
X80340000Y86360000D03*
X82880000Y86360000D03*
X80340000Y78740000D03*
X82880000Y78740000D03*
X80340000Y71120000D03*
X82880000Y71120000D03*
D16*
X92754000Y61214000D03*
X88754000Y61214000D03*
X88754000Y43180000D03*
X92754000Y43180000D03*
D11*
X80424000Y59182000D03*
X78224000Y59182000D03*
X80424000Y44958000D03*
X78224000Y44958000D03*
D15*
X92786000Y58547000D03*
D17*
X92786000Y55372000D03*
D15*
X92786000Y49784000D03*
D17*
X92786000Y46609000D03*
D15*
X7696000Y85852000D03*
X10236000Y85852000D03*
X7696000Y83312000D03*
X10236000Y83312000D03*
X7696000Y80772000D03*
X10236000Y80772000D03*
X7696000Y78232000D03*
X10236000Y78232000D03*
X7696000Y75692000D03*
X10236000Y75692000D03*
X7696000Y73152000D03*
X10236000Y73152000D03*
X7696000Y70612000D03*
X10236000Y70612000D03*
X7696000Y68072000D03*
X10236000Y68072000D03*
X7696000Y65532000D03*
X10236000Y65532000D03*
X7696000Y62992000D03*
X10236000Y62992000D03*
D18*
X36066000Y93345000D03*
X32666000Y93345000D03*
X35812000Y82677000D03*
X32412000Y82677000D03*
X35939000Y71120000D03*
X32539000Y71120000D03*
X35812000Y59309000D03*
X32412000Y59309000D03*
X35812000Y11557000D03*
X32412000Y11557000D03*
X35812000Y23368000D03*
X32412000Y23368000D03*
X35939000Y35052000D03*
X32539000Y35052000D03*
X35939000Y46482000D03*
X32539000Y46482000D03*
D11*
X35847000Y8890000D03*
X33647000Y8890000D03*
X35847000Y20574000D03*
X33647000Y20574000D03*
X35847000Y32004000D03*
X33647000Y32004000D03*
X35847000Y43815000D03*
X33647000Y43815000D03*
X35847000Y6350000D03*
X33647000Y6350000D03*
X35847000Y18034000D03*
X33647000Y18034000D03*
X35847000Y29972000D03*
X33647000Y29972000D03*
X35847000Y41402000D03*
X33647000Y41402000D03*
D12*
X55448000Y41870000D03*
X55448000Y36870000D03*
D14*
X64338000Y41870000D03*
X64338000Y36870000D03*
D12*
X64338000Y32218000D03*
X64338000Y27218000D03*
D14*
X55448000Y32218000D03*
X55448000Y27218000D03*
D12*
X55448000Y22566000D03*
X55448000Y17566000D03*
D14*
X64338000Y22526000D03*
X64338000Y17526000D03*
D12*
X64338000Y12914000D03*
X64338000Y7914000D03*
D14*
X55448000Y12914000D03*
X55448000Y7914000D03*
D15*
X80340000Y30480000D03*
X82880000Y30480000D03*
X80340000Y22860000D03*
X82880000Y22860000D03*
X80340000Y15240000D03*
X82880000Y15240000D03*
X80340000Y7620000D03*
X82880000Y7620000D03*
X7696000Y37592000D03*
X10236000Y37592000D03*
X7696000Y35052000D03*
X10236000Y35052000D03*
X7696000Y32512000D03*
X10236000Y32512000D03*
X7696000Y29972000D03*
X10236000Y29972000D03*
X7696000Y27432000D03*
X10236000Y27432000D03*
X7696000Y24892000D03*
X10236000Y24892000D03*
X7696000Y22352000D03*
X10236000Y22352000D03*
X7696000Y19812000D03*
X10236000Y19812000D03*
X7696000Y17272000D03*
X10236000Y17272000D03*
X7696000Y14732000D03*
X10236000Y14732000D03*
D13*
X17602000Y85809000D03*
X17602000Y83609000D03*
X10617000Y60028000D03*
X10617000Y57828000D03*
X10617000Y40556000D03*
X10617000Y42756000D03*
X17729000Y14648000D03*
X17729000Y16848000D03*
D19*
X14427000Y82374000D03*
X14427000Y85774000D03*
X7696000Y56593000D03*
X7696000Y59993000D03*
X7696000Y43991000D03*
X7696000Y40591000D03*
X14427000Y18083000D03*
X14427000Y14683000D03*
D13*
X65278000Y57742000D03*
X65278000Y55542000D03*
X65278000Y48852000D03*
X65278000Y46652000D03*
X89408000Y57488000D03*
X89408000Y55288000D03*
X89408000Y48852000D03*
X89408000Y46652000D03*
D20*
X57734000Y57290000D03*
X14300000Y40005000D03*
X14300000Y9525000D03*
X16205000Y20320000D03*
X16205000Y26670000D03*
X18110000Y36195000D03*
X16840000Y88265000D03*
X10490000Y91440000D03*
X16840000Y80645000D03*
X16205000Y74295000D03*
X16205000Y66675000D03*
X14935000Y49530000D03*
X7315000Y49530000D03*
X21920000Y45085000D03*
X21920000Y10160000D03*
X21920000Y21590000D03*
X21920000Y33020000D03*
X21920000Y57150000D03*
X21920000Y68580000D03*
X21920000Y80010000D03*
X21920000Y91440000D03*
X47320000Y6350000D03*
X46050000Y16510000D03*
X46050000Y27940000D03*
X46050000Y39370000D03*
X47320000Y64770000D03*
X47320000Y74930000D03*
X47320000Y86360000D03*
X48590000Y92710000D03*
X60020000Y44450000D03*
X49860000Y57150000D03*
X60020000Y5080000D03*
X61290000Y10160000D03*
X60020000Y15240000D03*
X62560000Y20320000D03*
X60020000Y24130000D03*
X62560000Y29210000D03*
X60020000Y34290000D03*
X62560000Y39370000D03*
X60020000Y87630000D03*
X60020000Y77470000D03*
X60020000Y68580000D03*
X62560000Y63500000D03*
X62560000Y73660000D03*
X62560000Y82550000D03*
X62560000Y92710000D03*
X76530000Y90170000D03*
X76530000Y80010000D03*
X76530000Y71120000D03*
X76530000Y12700000D03*
X76530000Y21590000D03*
X76530000Y31750000D03*
X71450000Y39370000D03*
X71450000Y35560000D03*
X71450000Y29210000D03*
X71450000Y25400000D03*
X71450000Y19050000D03*
X71450000Y15240000D03*
X71450000Y10160000D03*
X71450000Y6350000D03*
X71450000Y63500000D03*
X71450000Y68580000D03*
X71450000Y73660000D03*
X71450000Y77470000D03*
X71450000Y83820000D03*
X71450000Y87630000D03*
X71450000Y92710000D03*
X32080000Y97790000D03*
X24460000Y97790000D03*
X16840000Y97790000D03*
X9220000Y97790000D03*
X1600000Y97790000D03*
X1600000Y91440000D03*
X1600000Y83820000D03*
X1600000Y76200000D03*
X1600000Y68580000D03*
X1600000Y60960000D03*
X1600000Y53340000D03*
X1600000Y45720000D03*
X1600000Y38100000D03*
X1600000Y30480000D03*
X1600000Y22860000D03*
X1600000Y15240000D03*
X1600000Y7620000D03*
X1600000Y10160000D03*
X1600000Y2540000D03*
X7950000Y2540000D03*
X13030000Y2540000D03*
X20650000Y2540000D03*
X28270000Y2540000D03*
X35890000Y2540000D03*
X43510000Y2540000D03*
X51130000Y2540000D03*
X60020000Y2540000D03*
X67640000Y2540000D03*
X75260000Y2540000D03*
X82880000Y2540000D03*
X85420000Y90170000D03*
X85420000Y82550000D03*
X85420000Y74930000D03*
X85420000Y67310000D03*
X85420000Y34290000D03*
X85420000Y26670000D03*
X85420000Y19050000D03*
X85420000Y11430000D03*
X90500000Y2540000D03*
X98120000Y2540000D03*
X98120000Y7620000D03*
X98120000Y15240000D03*
X98120000Y22860000D03*
X98120000Y30480000D03*
X98120000Y39370000D03*
X98120000Y48260000D03*
X98120000Y55880000D03*
X98120000Y64770000D03*
X98120000Y73660000D03*
X98120000Y81280000D03*
X98120000Y90170000D03*
X98120000Y97790000D03*
X86690000Y97790000D03*
X79070000Y97790000D03*
X71450000Y97790000D03*
X63830000Y97790000D03*
X56210000Y97790000D03*
X48590000Y97790000D03*
X39954000Y97917000D03*
X39954000Y38798500D03*
X38430000Y39687500D03*
X38430000Y41148000D03*
X39954000Y27241500D03*
X38430000Y27940000D03*
X38430000Y29464000D03*
X39954000Y15557500D03*
X38557000Y16065500D03*
X38557000Y17780000D03*
X38430000Y4254500D03*
X38430000Y6096000D03*
X23634500Y4318000D03*
X26238000Y4318000D03*
X23888500Y16256000D03*
X26238000Y16256000D03*
X24333000Y27940000D03*
X26238000Y27940000D03*
X24015500Y39560500D03*
X26238000Y39560500D03*
X24079000Y51181000D03*
X26238000Y51181000D03*
X24333000Y63182500D03*
X26238000Y63119000D03*
X24333000Y74803000D03*
X26238000Y74803000D03*
X39954000Y62230000D03*
X38684000Y63055500D03*
X38684000Y64516000D03*
X39954000Y74041000D03*
X38430000Y74485500D03*
X38430000Y76263500D03*
X39954000Y85725000D03*
X38366500Y86296500D03*
X38366500Y87884000D03*
X24333000Y86296500D03*
X26238000Y86296500D03*
X58534000Y53607000D03*
X58534000Y46749000D03*
X41643000Y11697000D03*
X41643000Y23381000D03*
X41643000Y34938000D03*
X41643000Y46749000D03*
X41643000Y58433000D03*
X41643000Y70117000D03*
X41643000Y81801000D03*
X41643000Y93485000D03*
X53594000Y50305000D03*
X31102000Y6109000D03*
X31102000Y17793000D03*
X31102000Y29477000D03*
X31102000Y41161000D03*
X31102000Y52845000D03*
X31102000Y64529000D03*
X31102000Y76213000D03*
X31102000Y87897000D03*
D21*
X62560000Y63500000D02*
X62560000Y59182000D01*
D22*
X57734000Y57290000D02*
X60668000Y57290000D01*
X60668000Y57290000D02*
X62560000Y59182000D01*
D21*
X21920000Y91440000D02*
X10490000Y91440000D01*
X21920000Y80010000D02*
X17475000Y80010000D01*
X17475000Y80010000D02*
X16840000Y80645000D01*
X10617000Y42756000D02*
X10617000Y45212000D01*
X10617000Y45212000D02*
X14935000Y49530000D01*
X7696000Y56593000D02*
X7696000Y49911000D01*
X7696000Y49911000D02*
X7315000Y49530000D01*
X60020000Y5080000D02*
X48590000Y5080000D01*
X48590000Y5080000D02*
X47320000Y6350000D01*
X60020000Y15240000D02*
X47320000Y15240000D01*
X47320000Y15240000D02*
X46050000Y16510000D01*
X62560000Y39370000D02*
X60020000Y41910000D01*
X60020000Y41910000D02*
X60020000Y44450000D01*
X71450000Y35560000D02*
X71450000Y39370000D01*
X71450000Y25400000D02*
X71450000Y29210000D01*
X71450000Y15240000D02*
X71450000Y19050000D01*
X71450000Y6350000D02*
X71450000Y10160000D01*
X71450000Y68580000D02*
X71450000Y63500000D01*
X71450000Y77470000D02*
X71450000Y73660000D01*
X71450000Y87630000D02*
X71450000Y83820000D01*
X71450000Y97790000D02*
X71450000Y92710000D01*
X24460000Y97790000D02*
X32080000Y97790000D01*
X9220000Y97790000D02*
X16840000Y97790000D01*
X1600000Y91440000D02*
X1600000Y97790000D01*
X1600000Y76200000D02*
X1600000Y83820000D01*
X1600000Y60960000D02*
X1600000Y68580000D01*
X1600000Y45720000D02*
X1600000Y53340000D01*
X1600000Y30480000D02*
X1600000Y38100000D01*
X1600000Y15240000D02*
X1600000Y22860000D01*
X1600000Y10160000D02*
X1600000Y7620000D01*
X7950000Y2540000D02*
X1600000Y2540000D01*
X20650000Y2540000D02*
X13030000Y2540000D01*
X35890000Y2540000D02*
X28270000Y2540000D01*
X51130000Y2540000D02*
X43510000Y2540000D01*
X67640000Y2540000D02*
X60020000Y2540000D01*
X75260000Y2540000D02*
X67640000Y2540000D01*
X90500000Y2540000D02*
X82880000Y2540000D01*
X98120000Y2540000D02*
X90500000Y2540000D01*
X98120000Y15240000D02*
X98120000Y7620000D01*
X98120000Y30480000D02*
X98120000Y22860000D01*
X98120000Y48260000D02*
X98120000Y39370000D01*
X98120000Y64770000D02*
X98120000Y55880000D01*
X98120000Y81280000D02*
X98120000Y73660000D01*
X98120000Y97790000D02*
X98120000Y90170000D01*
X63830000Y97790000D02*
X71450000Y97790000D01*
X48590000Y97790000D02*
X56210000Y97790000D01*
X38430000Y41148000D02*
X38430000Y39687500D01*
X38430000Y29464000D02*
X38430000Y27940000D01*
X38557000Y17780000D02*
X38557000Y16065500D01*
X38430000Y6096000D02*
X38430000Y4254500D01*
X26238000Y4318000D02*
X23634500Y4318000D01*
X26238000Y16256000D02*
X23888500Y16256000D01*
X26238000Y27940000D02*
X24333000Y27940000D01*
X26238000Y39560500D02*
X24015500Y39560500D01*
X26238000Y51181000D02*
X24079000Y51181000D01*
X26238000Y63119000D02*
X24396500Y63119000D01*
X24396500Y63119000D02*
X24333000Y63182500D01*
X26238000Y74803000D02*
X24333000Y74803000D01*
X38684000Y64516000D02*
X38684000Y63055500D01*
X38430000Y76263500D02*
X38430000Y74485500D01*
X38366500Y87884000D02*
X38366500Y86296500D01*
D23*
X83896000Y58138000D02*
X81468000Y58138000D01*
X89408000Y57488000D02*
X88758000Y58138000D01*
X88758000Y58138000D02*
X88554000Y58138000D01*
X83896000Y58138000D02*
X86868000Y58138000D01*
X86944000Y58062000D02*
X86868000Y58138000D01*
X86868000Y58138000D02*
X88554000Y58138000D01*
X86944000Y57488000D02*
X86944000Y58062000D01*
X88554000Y58138000D02*
X88754000Y58338000D01*
X88754000Y58338000D02*
X88754000Y61214000D01*
D24*
X80594000Y57234000D02*
X80594000Y59012000D01*
X80594000Y59012000D02*
X80424000Y59182000D01*
X81468000Y58138000D02*
X80424000Y59182000D01*
D23*
X83896000Y46002000D02*
X81468000Y46002000D01*
X89408000Y46652000D02*
X88758000Y46002000D01*
X88758000Y46002000D02*
X88580000Y46002000D01*
X83896000Y46002000D02*
X87122000Y46002000D01*
X87122000Y46002000D02*
X88580000Y46002000D01*
X86944000Y46652000D02*
X86944000Y46180000D01*
X86944000Y46180000D02*
X87122000Y46002000D01*
X88580000Y46002000D02*
X88754000Y45828000D01*
X88754000Y43180000D02*
X88754000Y45828000D01*
D24*
X80594000Y46906000D02*
X80594000Y45128000D01*
X80594000Y45128000D02*
X80424000Y44958000D01*
X81468000Y46002000D02*
X80424000Y44958000D01*
D25*
X78054000Y55034000D02*
X78054000Y53170000D01*
X78054000Y53170000D02*
X77970000Y53086000D01*
X77970000Y51054000D02*
X77970000Y49190000D01*
X77970000Y49190000D02*
X78054000Y49106000D01*
D23*
X92786000Y58547000D02*
X92786000Y61182000D01*
X92786000Y61182000D02*
X92754000Y61214000D01*
X92786000Y46609000D02*
X92786000Y43212000D01*
X92786000Y43212000D02*
X92754000Y43180000D01*
X14427000Y85774000D02*
X17567000Y85774000D01*
X17567000Y85774000D02*
X17602000Y85809000D01*
X10236000Y85852000D02*
X14349000Y85852000D01*
X14349000Y85852000D02*
X14427000Y85774000D01*
X7696000Y85852000D02*
X10236000Y85852000D01*
X7696000Y83312000D02*
X7696000Y85852000D01*
X7696000Y80772000D02*
X7696000Y83312000D01*
X7696000Y78232000D02*
X7696000Y80772000D01*
X7696000Y75692000D02*
X7696000Y78232000D01*
X7696000Y73152000D02*
X7696000Y75692000D01*
X7696000Y70612000D02*
X7696000Y73152000D01*
X7696000Y68072000D02*
X7696000Y70612000D01*
X7696000Y65532000D02*
X7696000Y68072000D01*
X7696000Y62992000D02*
X7696000Y65532000D01*
X10617000Y60028000D02*
X7731000Y60028000D01*
X7731000Y60028000D02*
X7696000Y59993000D01*
X7696000Y59993000D02*
X7696000Y62992000D01*
X10236000Y62992000D02*
X7696000Y62992000D01*
X14427000Y14683000D02*
X17694000Y14683000D01*
X17694000Y14683000D02*
X17729000Y14648000D01*
X10236000Y14732000D02*
X14378000Y14732000D01*
X14378000Y14732000D02*
X14427000Y14683000D01*
X7696000Y14732000D02*
X10236000Y14732000D01*
X7696000Y17272000D02*
X7696000Y14732000D01*
X7696000Y19812000D02*
X7696000Y17272000D01*
X7696000Y22352000D02*
X7696000Y19812000D01*
X7696000Y24892000D02*
X7696000Y22352000D01*
X7696000Y27432000D02*
X7696000Y24892000D01*
X7696000Y27432000D02*
X7696000Y29972000D01*
X7696000Y32512000D02*
X7696000Y29972000D01*
X7696000Y35052000D02*
X7696000Y32512000D01*
X10236000Y37592000D02*
X7696000Y37592000D01*
X7696000Y37592000D02*
X7696000Y35052000D01*
X7696000Y37592000D02*
X7696000Y40591000D01*
X10617000Y40556000D02*
X7731000Y40556000D01*
X7731000Y40556000D02*
X7696000Y40591000D01*
X74752000Y58138000D02*
X77180000Y58138000D01*
X74752000Y58138000D02*
X72608000Y58138000D01*
X72608000Y58138000D02*
X72212000Y57742000D01*
D24*
X36817000Y53607000D02*
X55880000Y53607000D01*
X58534000Y53607000D02*
X55880000Y53607000D01*
D23*
X65278000Y57742000D02*
X64217998Y57742000D01*
X64217998Y57742000D02*
X60082998Y53607000D01*
X60082998Y53607000D02*
X59382528Y53607000D01*
X59382528Y53607000D02*
X58534000Y53607000D01*
X65278000Y57742000D02*
X65862000Y57742000D01*
D24*
X78054000Y57234000D02*
X78054000Y59012000D01*
X78054000Y59012000D02*
X78224000Y59182000D01*
X77180000Y58138000D02*
X78224000Y59182000D01*
X41643000Y11697000D02*
X36322000Y11697000D01*
X36322000Y11697000D02*
X36182000Y11557000D01*
X41643000Y23381000D02*
X36449000Y23381000D01*
X36449000Y23381000D02*
X36436000Y23368000D01*
X36436000Y71120000D02*
X36436000Y69913500D01*
X36436000Y69913500D02*
X36436000Y68072000D01*
X41643000Y70117000D02*
X36639500Y70117000D01*
X36639500Y70117000D02*
X36436000Y69913500D01*
X36436000Y82550000D02*
X36436000Y81661000D01*
X36436000Y81661000D02*
X36436000Y80010000D01*
X41643000Y81801000D02*
X36576000Y81801000D01*
X36576000Y81801000D02*
X36436000Y81661000D01*
X36436000Y59182000D02*
X36436000Y58293000D01*
X41643000Y58433000D02*
X36576000Y58433000D01*
X36436000Y58293000D02*
X36436000Y56642000D01*
X36576000Y58433000D02*
X36436000Y58293000D01*
X36436000Y46609000D02*
X36436000Y43688000D01*
X36436000Y43688000D02*
X36436000Y41275000D01*
X35847000Y43815000D02*
X36309000Y43815000D01*
X36309000Y43815000D02*
X36436000Y43688000D01*
X36436000Y41275000D02*
X36436000Y35052000D01*
X35847000Y41402000D02*
X36309000Y41402000D01*
X36309000Y41402000D02*
X36436000Y41275000D01*
X35939000Y46482000D02*
X36309000Y46482000D01*
X36309000Y46482000D02*
X36576000Y46749000D01*
X41643000Y34938000D02*
X36550000Y34938000D01*
X36550000Y34938000D02*
X36436000Y35052000D01*
X36436000Y31877000D02*
X36436000Y30099000D01*
X36436000Y30099000D02*
X36436000Y23368000D01*
X35847000Y29972000D02*
X36309000Y29972000D01*
X36309000Y29972000D02*
X36436000Y30099000D01*
X36436000Y35052000D02*
X36436000Y31877000D01*
X35847000Y32004000D02*
X36309000Y32004000D01*
X36309000Y32004000D02*
X36436000Y31877000D01*
X35939000Y35052000D02*
X36436000Y35052000D01*
X36436000Y23368000D02*
X36436000Y20320000D01*
X35812000Y23368000D02*
X36436000Y23368000D01*
X36436000Y20320000D02*
X36436000Y18161000D01*
X35847000Y20574000D02*
X36182000Y20574000D01*
X36182000Y20574000D02*
X36436000Y20320000D01*
X35847000Y18034000D02*
X36309000Y18034000D01*
X36309000Y18034000D02*
X36436000Y18161000D01*
X36436000Y6939000D02*
X36436000Y8890000D01*
X36436000Y8890000D02*
X36436000Y11811000D01*
X35847000Y8890000D02*
X36436000Y8890000D01*
X36436000Y11811000D02*
X36436000Y13348000D01*
X35812000Y11557000D02*
X36182000Y11557000D01*
X36182000Y11557000D02*
X36436000Y11811000D01*
X35847000Y6350000D02*
X36436000Y6939000D01*
X36436000Y13348000D02*
X36436000Y18161000D01*
X36436000Y18161000D02*
X36436000Y16904000D01*
D23*
X67640000Y57742000D02*
X65862000Y57742000D01*
X69926000Y57742000D02*
X67640000Y57742000D01*
X72212000Y57742000D02*
X69926000Y57742000D01*
D24*
X41643000Y46749000D02*
X58534000Y46749000D01*
X41643000Y46749000D02*
X36576000Y46749000D01*
X36576000Y46749000D02*
X36436000Y46609000D01*
X35847000Y54102000D02*
X36322000Y54102000D01*
X36322000Y54102000D02*
X36817000Y53607000D01*
X36817000Y53607000D02*
X36436000Y53988000D01*
X36436000Y55512000D02*
X36436000Y56642000D01*
X36436000Y53988000D02*
X36436000Y55512000D01*
X35847000Y56642000D02*
X36436000Y56642000D01*
X36436000Y65913000D02*
X36436000Y59182000D01*
X35812000Y59309000D02*
X36309000Y59309000D01*
X36309000Y59309000D02*
X36436000Y59182000D01*
X36436000Y68072000D02*
X36436000Y65913000D01*
X35847000Y65913000D02*
X36436000Y65913000D01*
X35847000Y68326000D02*
X36182000Y68326000D01*
X36182000Y68326000D02*
X36436000Y68072000D01*
X36436000Y88138000D02*
X36436000Y82550000D01*
X35812000Y82677000D02*
X36309000Y82677000D01*
X36309000Y82677000D02*
X36436000Y82550000D01*
X36436000Y80010000D02*
X36436000Y77089000D01*
X35720000Y79883000D02*
X36309000Y79883000D01*
X36309000Y79883000D02*
X36436000Y80010000D01*
X36436000Y77089000D02*
X36436000Y71120000D01*
X35720000Y77470000D02*
X36055000Y77470000D01*
X36055000Y77470000D02*
X36436000Y77089000D01*
X35939000Y71120000D02*
X36436000Y71120000D01*
X36436000Y90678000D02*
X36436000Y88138000D01*
X35847000Y88138000D02*
X36436000Y88138000D01*
X36436000Y92975000D02*
X36436000Y90678000D01*
X35847000Y90678000D02*
X36436000Y90678000D01*
X36066000Y93345000D02*
X36436000Y92975000D01*
X41643000Y93485000D02*
X36206000Y93485000D01*
X36206000Y93485000D02*
X36066000Y93345000D01*
D23*
X59182000Y50305000D02*
X53594000Y50305000D01*
X53594000Y50305000D02*
X35763000Y50305000D01*
X74752000Y46002000D02*
X72862000Y46002000D01*
X72862000Y46002000D02*
X72212000Y46652000D01*
X74752000Y46002000D02*
X77180000Y46002000D01*
X62835000Y46652000D02*
X59182000Y50305000D01*
X65278000Y46652000D02*
X62835000Y46652000D01*
D24*
X78054000Y46906000D02*
X78054000Y45128000D01*
X78054000Y45128000D02*
X78224000Y44958000D01*
X77180000Y46002000D02*
X78224000Y44958000D01*
D23*
X35763000Y50305000D02*
X34607000Y50305000D01*
X35763000Y50305000D02*
X35039000Y50305000D01*
X35039000Y50305000D02*
X33896000Y49162000D01*
X67640000Y46652000D02*
X64990000Y46652000D01*
X34607000Y50305000D02*
X33591000Y51321000D01*
D24*
X31102000Y6109000D02*
X32397500Y6109000D01*
X32397500Y6109000D02*
X33406000Y6109000D01*
X32905500Y7091500D02*
X32905500Y6617000D01*
X32905500Y6617000D02*
X32397500Y6109000D01*
X33406000Y6109000D02*
X33647000Y6350000D01*
X32905500Y8826500D02*
X32905500Y7091500D01*
X32905500Y7091500D02*
X33647000Y6350000D01*
X32905500Y11493500D02*
X32905500Y8826500D01*
X33647000Y8890000D02*
X32969000Y8890000D01*
X32969000Y8890000D02*
X32905500Y8826500D01*
X32905500Y18034000D02*
X32905500Y11493500D01*
X32412000Y11557000D02*
X32842000Y11557000D01*
X32842000Y11557000D02*
X32905500Y11493500D01*
X31102000Y17793000D02*
X32664500Y17793000D01*
X32664500Y17793000D02*
X32905500Y18034000D01*
X32905500Y20574000D02*
X32905500Y18034000D01*
X33647000Y18034000D02*
X32905500Y18034000D01*
X32905500Y22987000D02*
X32905500Y20574000D01*
X33647000Y20574000D02*
X32905500Y20574000D01*
X32905500Y29972000D02*
X32905500Y22987000D01*
X32412000Y23368000D02*
X32524500Y23368000D01*
X32524500Y23368000D02*
X32905500Y22987000D01*
X31102000Y29477000D02*
X32410500Y29477000D01*
X32410500Y29477000D02*
X32905500Y29972000D01*
X32905500Y32067500D02*
X32905500Y29972000D01*
X33647000Y29972000D02*
X32905500Y29972000D01*
X32905500Y34925000D02*
X32905500Y32067500D01*
X33647000Y32004000D02*
X32969000Y32004000D01*
X32969000Y32004000D02*
X32905500Y32067500D01*
X32905500Y41402000D02*
X32905500Y34925000D01*
X32539000Y35052000D02*
X32778500Y35052000D01*
X32778500Y35052000D02*
X32905500Y34925000D01*
X31102000Y41161000D02*
X32664500Y41161000D01*
X32664500Y41161000D02*
X32905500Y41402000D01*
X32905500Y43878500D02*
X32905500Y41402000D01*
X33647000Y41402000D02*
X32905500Y41402000D01*
X32905500Y46482000D02*
X32905500Y43878500D01*
X33647000Y43815000D02*
X32969000Y43815000D01*
X32969000Y43815000D02*
X32905500Y43878500D01*
X32905500Y48171500D02*
X32905500Y46482000D01*
X32539000Y46482000D02*
X32905500Y46482000D01*
X33896000Y49162000D02*
X32905500Y48171500D01*
X32905500Y55245000D02*
X32905500Y56578500D01*
X32905500Y54102000D02*
X32905500Y55245000D01*
X32905500Y52006500D02*
X32905500Y52959000D01*
X32905500Y52959000D02*
X32905500Y54102000D01*
X31102000Y52845000D02*
X32791500Y52845000D01*
X32791500Y52845000D02*
X32905500Y52959000D01*
X33647000Y54102000D02*
X32905500Y54102000D01*
X32905500Y56578500D02*
X32905500Y59309000D01*
X33647000Y56642000D02*
X32969000Y56642000D01*
X32969000Y56642000D02*
X32905500Y56578500D01*
X32905500Y59309000D02*
X32905500Y64579500D01*
X32412000Y59309000D02*
X32905500Y59309000D01*
X32905500Y64579500D02*
X32905500Y66040000D01*
X31102000Y64529000D02*
X32855000Y64529000D01*
X32855000Y64529000D02*
X32905500Y64579500D01*
X32905500Y66040000D02*
X32905500Y68262500D01*
X33647000Y65913000D02*
X33032500Y65913000D01*
X33032500Y65913000D02*
X32905500Y66040000D01*
X32905500Y68262500D02*
X32905500Y71120000D01*
X33647000Y68326000D02*
X32969000Y68326000D01*
X32969000Y68326000D02*
X32905500Y68262500D01*
X32905500Y71120000D02*
X32905500Y76390500D01*
X32539000Y71120000D02*
X32905500Y71120000D01*
X32905500Y76390500D02*
X32905500Y77279500D01*
X31102000Y76213000D02*
X32728000Y76213000D01*
X32728000Y76213000D02*
X32905500Y76390500D01*
X32905500Y77279500D02*
X32905500Y79946500D01*
X32905500Y77279500D02*
X33329500Y77279500D01*
X33329500Y77279500D02*
X33520000Y77470000D01*
X32905500Y79946500D02*
X32905500Y82677000D01*
X33456500Y79946500D02*
X33520000Y79883000D01*
X32905500Y79946500D02*
X33456500Y79946500D01*
X32905500Y82677000D02*
X32905500Y88201500D01*
X32412000Y82677000D02*
X32905500Y82677000D01*
X31102000Y87897000D02*
X33406000Y87897000D01*
X33406000Y87897000D02*
X33647000Y88138000D01*
X32905500Y88201500D02*
X32905500Y90678000D01*
X33647000Y88138000D02*
X32969000Y88138000D01*
X32969000Y88138000D02*
X32905500Y88201500D01*
X32905500Y90678000D02*
X32905500Y93105500D01*
X33647000Y90678000D02*
X32905500Y90678000D01*
X32905500Y93105500D02*
X32666000Y93345000D01*
X33591000Y51321000D02*
X32905500Y52006500D01*
D23*
X67640000Y46652000D02*
X69926000Y46652000D01*
X72212000Y46652000D02*
X69926000Y46652000D01*
D21*
G36*
X80190000Y95230132D02*
X80092450Y95230217D01*
X79632857Y95040316D01*
X79280919Y94688993D01*
X79090217Y94229731D01*
X79089783Y93732450D01*
X79279684Y93272857D01*
X79631007Y92920919D01*
X80090269Y92730217D01*
X80190000Y92730130D01*
X80190000Y87610132D01*
X80092450Y87610217D01*
X79632857Y87420316D01*
X79280919Y87068993D01*
X79090217Y86609731D01*
X79089783Y86112450D01*
X79279684Y85652857D01*
X79631007Y85300919D01*
X80090269Y85110217D01*
X80190000Y85110130D01*
X80190000Y79990132D01*
X80092450Y79990217D01*
X79632857Y79800316D01*
X79280919Y79448993D01*
X79090217Y78989731D01*
X79089783Y78492450D01*
X79279684Y78032857D01*
X79631007Y77680919D01*
X80090269Y77490217D01*
X80190000Y77490130D01*
X80190000Y72370132D01*
X80092450Y72370217D01*
X79632857Y72180316D01*
X79280919Y71828993D01*
X79090217Y71369731D01*
X79089783Y70872450D01*
X79279684Y70412857D01*
X79631007Y70060919D01*
X80090269Y69870217D01*
X80190000Y69870130D01*
X80190000Y60960000D01*
X80200258Y60905481D01*
X80232479Y60855409D01*
X80281642Y60821818D01*
X80340000Y60810000D01*
X81610000Y60810000D01*
X81664519Y60820258D01*
X81714591Y60852479D01*
X81748182Y60901642D01*
X81760000Y60960000D01*
X81760000Y70114517D01*
X82021596Y70114517D01*
X82092498Y69859161D01*
X82634946Y69653772D01*
X83214701Y69671603D01*
X83667502Y69859161D01*
X83738404Y70114517D01*
X82880000Y70972922D01*
X82021596Y70114517D01*
X81760000Y70114517D01*
X81760000Y70293393D01*
X81874517Y70261596D01*
X82732922Y71120000D01*
X83027078Y71120000D01*
X83885483Y70261596D01*
X84140839Y70332498D01*
X84346228Y70874946D01*
X84328397Y71454701D01*
X84140839Y71907502D01*
X83885483Y71978404D01*
X83027078Y71120000D01*
X82732922Y71120000D01*
X81874517Y71978404D01*
X81760000Y71946607D01*
X81760000Y72125483D01*
X82021596Y72125483D01*
X82880000Y71267078D01*
X83738404Y72125483D01*
X83667502Y72380839D01*
X83125054Y72586228D01*
X82545299Y72568397D01*
X82092498Y72380839D01*
X82021596Y72125483D01*
X81760000Y72125483D01*
X81760000Y77734517D01*
X82021596Y77734517D01*
X82092498Y77479161D01*
X82634946Y77273772D01*
X83214701Y77291603D01*
X83667502Y77479161D01*
X83738404Y77734517D01*
X82880000Y78592922D01*
X82021596Y77734517D01*
X81760000Y77734517D01*
X81760000Y77913393D01*
X81874517Y77881596D01*
X82732922Y78740000D01*
X83027078Y78740000D01*
X83885483Y77881596D01*
X84140839Y77952498D01*
X84346228Y78494946D01*
X84328397Y79074701D01*
X84140839Y79527502D01*
X83885483Y79598404D01*
X83027078Y78740000D01*
X82732922Y78740000D01*
X81874517Y79598404D01*
X81760000Y79566607D01*
X81760000Y79745483D01*
X82021596Y79745483D01*
X82880000Y78887078D01*
X83738404Y79745483D01*
X83667502Y80000839D01*
X83125054Y80206228D01*
X82545299Y80188397D01*
X82092498Y80000839D01*
X82021596Y79745483D01*
X81760000Y79745483D01*
X81760000Y85354517D01*
X82021596Y85354517D01*
X82092498Y85099161D01*
X82634946Y84893772D01*
X83214701Y84911603D01*
X83667502Y85099161D01*
X83738404Y85354517D01*
X82880000Y86212922D01*
X82021596Y85354517D01*
X81760000Y85354517D01*
X81760000Y85533393D01*
X81874517Y85501596D01*
X82732922Y86360000D01*
X83027078Y86360000D01*
X83885483Y85501596D01*
X84140839Y85572498D01*
X84346228Y86114946D01*
X84328397Y86694701D01*
X84140839Y87147502D01*
X83885483Y87218404D01*
X83027078Y86360000D01*
X82732922Y86360000D01*
X81874517Y87218404D01*
X81760000Y87186607D01*
X81760000Y87365483D01*
X82021596Y87365483D01*
X82880000Y86507078D01*
X83738404Y87365483D01*
X83667502Y87620839D01*
X83125054Y87826228D01*
X82545299Y87808397D01*
X82092498Y87620839D01*
X82021596Y87365483D01*
X81760000Y87365483D01*
X81760000Y92974517D01*
X82021596Y92974517D01*
X82092498Y92719161D01*
X82634946Y92513772D01*
X83214701Y92531603D01*
X83667502Y92719161D01*
X83738404Y92974517D01*
X82880000Y93832922D01*
X82021596Y92974517D01*
X81760000Y92974517D01*
X81760000Y93153393D01*
X81874517Y93121596D01*
X82732922Y93980000D01*
X83027078Y93980000D01*
X83885483Y93121596D01*
X84140839Y93192498D01*
X84346228Y93734946D01*
X84328397Y94314701D01*
X84204496Y94613823D01*
X93049662Y94613823D01*
X93345906Y93896857D01*
X93893971Y93347834D01*
X94610419Y93050339D01*
X95386177Y93049662D01*
X96103143Y93345906D01*
X96652166Y93893971D01*
X96949661Y94610419D01*
X96950338Y95386177D01*
X96654094Y96103143D01*
X96106029Y96652166D01*
X95389581Y96949661D01*
X94613823Y96950338D01*
X93896857Y96654094D01*
X93347834Y96106029D01*
X93050339Y95389581D01*
X93049662Y94613823D01*
X84204496Y94613823D01*
X84140839Y94767502D01*
X83885483Y94838404D01*
X83027078Y93980000D01*
X82732922Y93980000D01*
X81874517Y94838404D01*
X81760000Y94806607D01*
X81760000Y94985483D01*
X82021596Y94985483D01*
X82880000Y94127078D01*
X83738404Y94985483D01*
X83667502Y95240839D01*
X83125054Y95446228D01*
X82545299Y95428397D01*
X82092498Y95240839D01*
X82021596Y94985483D01*
X81760000Y94985483D01*
X81760000Y98850000D01*
X98850000Y98850000D01*
X98850000Y1150000D01*
X81760000Y1150000D01*
X81760000Y4613823D01*
X93049662Y4613823D01*
X93345906Y3896857D01*
X93893971Y3347834D01*
X94610419Y3050339D01*
X95386177Y3049662D01*
X96103143Y3345906D01*
X96652166Y3893971D01*
X96949661Y4610419D01*
X96950338Y5386177D01*
X96654094Y6103143D01*
X96106029Y6652166D01*
X95389581Y6949661D01*
X94613823Y6950338D01*
X93896857Y6654094D01*
X93347834Y6106029D01*
X93050339Y5389581D01*
X93049662Y4613823D01*
X81760000Y4613823D01*
X81760000Y6614517D01*
X82021596Y6614517D01*
X82092498Y6359161D01*
X82634946Y6153772D01*
X83214701Y6171603D01*
X83667502Y6359161D01*
X83738404Y6614517D01*
X82880000Y7472922D01*
X82021596Y6614517D01*
X81760000Y6614517D01*
X81760000Y6793393D01*
X81874517Y6761596D01*
X82732922Y7620000D01*
X83027078Y7620000D01*
X83885483Y6761596D01*
X84140839Y6832498D01*
X84346228Y7374946D01*
X84328397Y7954701D01*
X84140839Y8407502D01*
X83885483Y8478404D01*
X83027078Y7620000D01*
X82732922Y7620000D01*
X81874517Y8478404D01*
X81760000Y8446607D01*
X81760000Y8625483D01*
X82021596Y8625483D01*
X82880000Y7767078D01*
X83738404Y8625483D01*
X83667502Y8880839D01*
X83125054Y9086228D01*
X82545299Y9068397D01*
X82092498Y8880839D01*
X82021596Y8625483D01*
X81760000Y8625483D01*
X81760000Y14234517D01*
X82021596Y14234517D01*
X82092498Y13979161D01*
X82634946Y13773772D01*
X83214701Y13791603D01*
X83667502Y13979161D01*
X83738404Y14234517D01*
X82880000Y15092922D01*
X82021596Y14234517D01*
X81760000Y14234517D01*
X81760000Y14413393D01*
X81874517Y14381596D01*
X82732922Y15240000D01*
X83027078Y15240000D01*
X83885483Y14381596D01*
X84140839Y14452498D01*
X84346228Y14994946D01*
X84328397Y15574701D01*
X84140839Y16027502D01*
X83885483Y16098404D01*
X83027078Y15240000D01*
X82732922Y15240000D01*
X81874517Y16098404D01*
X81760000Y16066607D01*
X81760000Y16245483D01*
X82021596Y16245483D01*
X82880000Y15387078D01*
X83738404Y16245483D01*
X83667502Y16500839D01*
X83125054Y16706228D01*
X82545299Y16688397D01*
X82092498Y16500839D01*
X82021596Y16245483D01*
X81760000Y16245483D01*
X81760000Y21854517D01*
X82021596Y21854517D01*
X82092498Y21599161D01*
X82634946Y21393772D01*
X83214701Y21411603D01*
X83667502Y21599161D01*
X83738404Y21854517D01*
X82880000Y22712922D01*
X82021596Y21854517D01*
X81760000Y21854517D01*
X81760000Y22033393D01*
X81874517Y22001596D01*
X82732922Y22860000D01*
X83027078Y22860000D01*
X83885483Y22001596D01*
X84140839Y22072498D01*
X84346228Y22614946D01*
X84328397Y23194701D01*
X84140839Y23647502D01*
X83885483Y23718404D01*
X83027078Y22860000D01*
X82732922Y22860000D01*
X81874517Y23718404D01*
X81760000Y23686607D01*
X81760000Y23865483D01*
X82021596Y23865483D01*
X82880000Y23007078D01*
X83738404Y23865483D01*
X83667502Y24120839D01*
X83125054Y24326228D01*
X82545299Y24308397D01*
X82092498Y24120839D01*
X82021596Y23865483D01*
X81760000Y23865483D01*
X81760000Y29474517D01*
X82021596Y29474517D01*
X82092498Y29219161D01*
X82634946Y29013772D01*
X83214701Y29031603D01*
X83667502Y29219161D01*
X83738404Y29474517D01*
X82880000Y30332922D01*
X82021596Y29474517D01*
X81760000Y29474517D01*
X81760000Y29653393D01*
X81874517Y29621596D01*
X82732922Y30480000D01*
X83027078Y30480000D01*
X83885483Y29621596D01*
X84140839Y29692498D01*
X84346228Y30234946D01*
X84328397Y30814701D01*
X84140839Y31267502D01*
X83885483Y31338404D01*
X83027078Y30480000D01*
X82732922Y30480000D01*
X81874517Y31338404D01*
X81760000Y31306607D01*
X81760000Y31485483D01*
X82021596Y31485483D01*
X82880000Y30627078D01*
X83738404Y31485483D01*
X83667502Y31740839D01*
X83125054Y31946228D01*
X82545299Y31928397D01*
X82092498Y31740839D01*
X82021596Y31485483D01*
X81760000Y31485483D01*
X81760000Y39370000D01*
X81749742Y39424519D01*
X81717521Y39474591D01*
X81668358Y39508182D01*
X81610000Y39520000D01*
X80340000Y39520000D01*
X80285481Y39509742D01*
X80235409Y39477521D01*
X80201818Y39428358D01*
X80190000Y39370000D01*
X80190000Y31730132D01*
X80092450Y31730217D01*
X79632857Y31540316D01*
X79280919Y31188993D01*
X79090217Y30729731D01*
X79089783Y30232450D01*
X79279684Y29772857D01*
X79631007Y29420919D01*
X80090269Y29230217D01*
X80190000Y29230130D01*
X80190000Y24110132D01*
X80092450Y24110217D01*
X79632857Y23920316D01*
X79280919Y23568993D01*
X79090217Y23109731D01*
X79089783Y22612450D01*
X79279684Y22152857D01*
X79631007Y21800919D01*
X80090269Y21610217D01*
X80190000Y21610130D01*
X80190000Y16490132D01*
X80092450Y16490217D01*
X79632857Y16300316D01*
X79280919Y15948993D01*
X79090217Y15489731D01*
X79089783Y14992450D01*
X79279684Y14532857D01*
X79631007Y14180919D01*
X80090269Y13990217D01*
X80190000Y13990130D01*
X80190000Y8870132D01*
X80092450Y8870217D01*
X79632857Y8680316D01*
X79280919Y8328993D01*
X79090217Y7869731D01*
X79089783Y7372450D01*
X79279684Y6912857D01*
X79631007Y6560919D01*
X80090269Y6370217D01*
X80190000Y6370130D01*
X80190000Y1150000D01*
X1150000Y1150000D01*
X1150000Y4613823D01*
X3049662Y4613823D01*
X3345906Y3896857D01*
X3893971Y3347834D01*
X4610419Y3050339D01*
X5386177Y3049662D01*
X6103143Y3345906D01*
X6652166Y3893971D01*
X6949661Y4610419D01*
X6950338Y5386177D01*
X6654094Y6103143D01*
X6106029Y6652166D01*
X5389581Y6949661D01*
X4613823Y6950338D01*
X3896857Y6654094D01*
X3347834Y6106029D01*
X3050339Y5389581D01*
X3049662Y4613823D01*
X1150000Y4613823D01*
X1150000Y40591000D01*
X6246000Y40591000D01*
X6246000Y14732000D01*
X6356375Y14177109D01*
X6670695Y13706695D01*
X7141109Y13392375D01*
X7696000Y13282000D01*
X14180661Y13282000D01*
X14427000Y13233000D01*
X17553044Y13233000D01*
X17729000Y13198000D01*
X18283890Y13308375D01*
X18754304Y13622696D01*
X19068625Y14093110D01*
X19179000Y14648000D01*
X19068625Y15202891D01*
X18754304Y15673305D01*
X18719305Y15708305D01*
X18609881Y15781420D01*
X18751727Y15840175D01*
X18936826Y16025273D01*
X19037000Y16267116D01*
X19037000Y16579500D01*
X18872500Y16744000D01*
X17833000Y16744000D01*
X17833000Y16724000D01*
X17625000Y16724000D01*
X17625000Y16744000D01*
X16585500Y16744000D01*
X16421000Y16579500D01*
X16421000Y16267116D01*
X16476552Y16133000D01*
X14624339Y16133000D01*
X14378000Y16182000D01*
X10871303Y16182000D01*
X10943143Y16211684D01*
X11295081Y16563007D01*
X11485783Y17022269D01*
X11486217Y17519550D01*
X11364346Y17814500D01*
X12919000Y17814500D01*
X12919000Y17402116D01*
X13019174Y17160273D01*
X13204273Y16975175D01*
X13446115Y16875000D01*
X14158500Y16875000D01*
X14323000Y17039500D01*
X14323000Y17979000D01*
X14531000Y17979000D01*
X14531000Y17039500D01*
X14695500Y16875000D01*
X15407885Y16875000D01*
X15649727Y16975175D01*
X15834826Y17160273D01*
X15935000Y17402116D01*
X15935000Y17428884D01*
X16421000Y17428884D01*
X16421000Y17116500D01*
X16585500Y16952000D01*
X17625000Y16952000D01*
X17625000Y17791500D01*
X17833000Y17791500D01*
X17833000Y16952000D01*
X18872500Y16952000D01*
X19037000Y17116500D01*
X19037000Y17428884D01*
X18936826Y17670727D01*
X18751727Y17855825D01*
X18509885Y17956000D01*
X17997500Y17956000D01*
X17833000Y17791500D01*
X17625000Y17791500D01*
X17460500Y17956000D01*
X16948115Y17956000D01*
X16706273Y17855825D01*
X16521174Y17670727D01*
X16421000Y17428884D01*
X15935000Y17428884D01*
X15935000Y17814500D01*
X15770500Y17979000D01*
X14531000Y17979000D01*
X14323000Y17979000D01*
X13083500Y17979000D01*
X12919000Y17814500D01*
X11364346Y17814500D01*
X11296316Y17979143D01*
X10944993Y18331081D01*
X10485731Y18521783D01*
X9988450Y18522217D01*
X9528857Y18332316D01*
X9176919Y17980993D01*
X9146000Y17906532D01*
X9146000Y19176697D01*
X9175684Y19104857D01*
X9527007Y18752919D01*
X9986269Y18562217D01*
X10483550Y18561783D01*
X10943143Y18751684D01*
X10955364Y18763884D01*
X12919000Y18763884D01*
X12919000Y18351500D01*
X13083500Y18187000D01*
X14323000Y18187000D01*
X14323000Y19126500D01*
X14531000Y19126500D01*
X14531000Y18187000D01*
X15770500Y18187000D01*
X15935000Y18351500D01*
X15935000Y18763884D01*
X15834826Y19005727D01*
X15649727Y19190825D01*
X15407885Y19291000D01*
X14695500Y19291000D01*
X14531000Y19126500D01*
X14323000Y19126500D01*
X14158500Y19291000D01*
X13446115Y19291000D01*
X13204273Y19190825D01*
X13019174Y19005727D01*
X12919000Y18763884D01*
X10955364Y18763884D01*
X11295081Y19103007D01*
X11485783Y19562269D01*
X11486217Y20059550D01*
X11296316Y20519143D01*
X10944993Y20871081D01*
X10485731Y21061783D01*
X9988450Y21062217D01*
X9528857Y20872316D01*
X9176919Y20520993D01*
X9146000Y20446532D01*
X9146000Y21716697D01*
X9175684Y21644857D01*
X9527007Y21292919D01*
X9986269Y21102217D01*
X10483550Y21101783D01*
X10943143Y21291684D01*
X11295081Y21643007D01*
X11485783Y22102269D01*
X11486217Y22599550D01*
X11296316Y23059143D01*
X10944993Y23411081D01*
X10485731Y23601783D01*
X9988450Y23602217D01*
X9528857Y23412316D01*
X9176919Y23060993D01*
X9146000Y22986532D01*
X9146000Y24256697D01*
X9175684Y24184857D01*
X9527007Y23832919D01*
X9986269Y23642217D01*
X10483550Y23641783D01*
X10943143Y23831684D01*
X11295081Y24183007D01*
X11485783Y24642269D01*
X11486217Y25139550D01*
X11296316Y25599143D01*
X10944993Y25951081D01*
X10485731Y26141783D01*
X9988450Y26142217D01*
X9528857Y25952316D01*
X9176919Y25600993D01*
X9146000Y25526532D01*
X9146000Y26796697D01*
X9175684Y26724857D01*
X9527007Y26372919D01*
X9986269Y26182217D01*
X10483550Y26181783D01*
X10943143Y26371684D01*
X11295081Y26723007D01*
X11485783Y27182269D01*
X11486217Y27679550D01*
X11296316Y28139143D01*
X10944993Y28491081D01*
X10485731Y28681783D01*
X9988450Y28682217D01*
X9528857Y28492316D01*
X9176919Y28140993D01*
X9146000Y28066532D01*
X9146000Y29336697D01*
X9175684Y29264857D01*
X9527007Y28912919D01*
X9986269Y28722217D01*
X10483550Y28721783D01*
X10943143Y28911684D01*
X11295081Y29263007D01*
X11485783Y29722269D01*
X11486217Y30219550D01*
X11296316Y30679143D01*
X10944993Y31031081D01*
X10485731Y31221783D01*
X9988450Y31222217D01*
X9528857Y31032316D01*
X9176919Y30680993D01*
X9146000Y30606532D01*
X9146000Y31876697D01*
X9175684Y31804857D01*
X9527007Y31452919D01*
X9986269Y31262217D01*
X10483550Y31261783D01*
X10943143Y31451684D01*
X11295081Y31803007D01*
X11485783Y32262269D01*
X11486217Y32759550D01*
X11296316Y33219143D01*
X10944993Y33571081D01*
X10485731Y33761783D01*
X9988450Y33762217D01*
X9528857Y33572316D01*
X9176919Y33220993D01*
X9146000Y33146532D01*
X9146000Y34416697D01*
X9175684Y34344857D01*
X9527007Y33992919D01*
X9986269Y33802217D01*
X10483550Y33801783D01*
X10943143Y33991684D01*
X11295081Y34343007D01*
X11485783Y34802269D01*
X11486217Y35299550D01*
X11296316Y35759143D01*
X10944993Y36111081D01*
X10665017Y36227337D01*
X10790891Y36252375D01*
X11261305Y36566695D01*
X11575625Y37037109D01*
X11686000Y37592000D01*
X11575625Y38146891D01*
X11261305Y38617305D01*
X10790891Y38931625D01*
X10236000Y39042000D01*
X9146000Y39042000D01*
X9146000Y39106000D01*
X10617000Y39106000D01*
X11171891Y39216375D01*
X11642305Y39530695D01*
X11956625Y40001109D01*
X12067000Y40556000D01*
X11956625Y41110891D01*
X11642305Y41581305D01*
X11487151Y41684975D01*
X11639727Y41748175D01*
X11824826Y41933273D01*
X11925000Y42175116D01*
X11925000Y42487500D01*
X11760500Y42652000D01*
X10721000Y42652000D01*
X10721000Y42632000D01*
X10513000Y42632000D01*
X10513000Y42652000D01*
X9473500Y42652000D01*
X9309000Y42487500D01*
X9309000Y42175116D01*
X9379050Y42006000D01*
X7871956Y42006000D01*
X7696000Y42041000D01*
X7141109Y41930625D01*
X6670695Y41616305D01*
X6608142Y41522688D01*
X6526081Y41469883D01*
X6423332Y41319505D01*
X6402003Y41214178D01*
X6356375Y41145891D01*
X6246000Y40591000D01*
X1150000Y40591000D01*
X1150000Y43722500D01*
X6188000Y43722500D01*
X6188000Y43310116D01*
X6288174Y43068273D01*
X6473273Y42883175D01*
X6715115Y42783000D01*
X7427500Y42783000D01*
X7592000Y42947500D01*
X7592000Y43887000D01*
X7800000Y43887000D01*
X7800000Y42947500D01*
X7964500Y42783000D01*
X8676885Y42783000D01*
X8918727Y42883175D01*
X9103826Y43068273D01*
X9204000Y43310116D01*
X9204000Y43336884D01*
X9309000Y43336884D01*
X9309000Y43024500D01*
X9473500Y42860000D01*
X10513000Y42860000D01*
X10513000Y43699500D01*
X10721000Y43699500D01*
X10721000Y42860000D01*
X11760500Y42860000D01*
X11925000Y43024500D01*
X11925000Y43336884D01*
X11824826Y43578727D01*
X11639727Y43763825D01*
X11397885Y43864000D01*
X10885500Y43864000D01*
X10721000Y43699500D01*
X10513000Y43699500D01*
X10348500Y43864000D01*
X9836115Y43864000D01*
X9594273Y43763825D01*
X9409174Y43578727D01*
X9309000Y43336884D01*
X9204000Y43336884D01*
X9204000Y43722500D01*
X9039500Y43887000D01*
X7800000Y43887000D01*
X7592000Y43887000D01*
X6352500Y43887000D01*
X6188000Y43722500D01*
X1150000Y43722500D01*
X1150000Y44671884D01*
X6188000Y44671884D01*
X6188000Y44259500D01*
X6352500Y44095000D01*
X7592000Y44095000D01*
X7592000Y45034500D01*
X7800000Y45034500D01*
X7800000Y44095000D01*
X9039500Y44095000D01*
X9204000Y44259500D01*
X9204000Y44671884D01*
X9103826Y44913727D01*
X8918727Y45098825D01*
X8676885Y45199000D01*
X7964500Y45199000D01*
X7800000Y45034500D01*
X7592000Y45034500D01*
X7427500Y45199000D01*
X6715115Y45199000D01*
X6473273Y45098825D01*
X6288174Y44913727D01*
X6188000Y44671884D01*
X1150000Y44671884D01*
X1150000Y56324500D01*
X6188000Y56324500D01*
X6188000Y55912116D01*
X6288174Y55670273D01*
X6473273Y55485175D01*
X6715115Y55385000D01*
X7427500Y55385000D01*
X7592000Y55549500D01*
X7592000Y56489000D01*
X7800000Y56489000D01*
X7800000Y55549500D01*
X7964500Y55385000D01*
X8676885Y55385000D01*
X8918727Y55485175D01*
X9103826Y55670273D01*
X9204000Y55912116D01*
X9204000Y56324500D01*
X9039500Y56489000D01*
X7800000Y56489000D01*
X7592000Y56489000D01*
X6352500Y56489000D01*
X6188000Y56324500D01*
X1150000Y56324500D01*
X1150000Y57273884D01*
X6188000Y57273884D01*
X6188000Y56861500D01*
X6352500Y56697000D01*
X7592000Y56697000D01*
X7592000Y57636500D01*
X7800000Y57636500D01*
X7800000Y56697000D01*
X9039500Y56697000D01*
X9204000Y56861500D01*
X9204000Y57273884D01*
X9103826Y57515727D01*
X9060053Y57559500D01*
X9309000Y57559500D01*
X9309000Y57247116D01*
X9409174Y57005273D01*
X9594273Y56820175D01*
X9836115Y56720000D01*
X10348500Y56720000D01*
X10513000Y56884500D01*
X10513000Y57724000D01*
X10721000Y57724000D01*
X10721000Y56884500D01*
X10885500Y56720000D01*
X11397885Y56720000D01*
X11639727Y56820175D01*
X11824826Y57005273D01*
X11925000Y57247116D01*
X11925000Y57559500D01*
X11760500Y57724000D01*
X10721000Y57724000D01*
X10513000Y57724000D01*
X9473500Y57724000D01*
X9309000Y57559500D01*
X9060053Y57559500D01*
X8918727Y57700825D01*
X8676885Y57801000D01*
X7964500Y57801000D01*
X7800000Y57636500D01*
X7592000Y57636500D01*
X7427500Y57801000D01*
X6715115Y57801000D01*
X6473273Y57700825D01*
X6288174Y57515727D01*
X6188000Y57273884D01*
X1150000Y57273884D01*
X1150000Y85852000D01*
X6246000Y85852000D01*
X6246000Y59993000D01*
X6356375Y59438109D01*
X6400542Y59372008D01*
X6418562Y59276240D01*
X6517117Y59123081D01*
X6608666Y59060528D01*
X6670695Y58967695D01*
X7141109Y58653375D01*
X7696000Y58543000D01*
X7871956Y58578000D01*
X9379050Y58578000D01*
X9309000Y58408884D01*
X9309000Y58096500D01*
X9473500Y57932000D01*
X10513000Y57932000D01*
X10513000Y57952000D01*
X10721000Y57952000D01*
X10721000Y57932000D01*
X11760500Y57932000D01*
X11925000Y58096500D01*
X11925000Y58408884D01*
X11824826Y58650727D01*
X11639727Y58835825D01*
X11487151Y58899025D01*
X11642305Y59002695D01*
X11956625Y59473109D01*
X12067000Y60028000D01*
X11956625Y60582891D01*
X11642305Y61053305D01*
X11171891Y61367625D01*
X10617000Y61478000D01*
X9146000Y61478000D01*
X9146000Y61542000D01*
X10236000Y61542000D01*
X10790891Y61652375D01*
X11261305Y61966695D01*
X11575625Y62437109D01*
X11686000Y62992000D01*
X11575625Y63546891D01*
X11261305Y64017305D01*
X10790891Y64331625D01*
X10664852Y64356696D01*
X10943143Y64471684D01*
X11295081Y64823007D01*
X11485783Y65282269D01*
X11486217Y65779550D01*
X11296316Y66239143D01*
X10944993Y66591081D01*
X10485731Y66781783D01*
X9988450Y66782217D01*
X9528857Y66592316D01*
X9176919Y66240993D01*
X9146000Y66166532D01*
X9146000Y67436697D01*
X9175684Y67364857D01*
X9527007Y67012919D01*
X9986269Y66822217D01*
X10483550Y66821783D01*
X10943143Y67011684D01*
X11295081Y67363007D01*
X11485783Y67822269D01*
X11486217Y68319550D01*
X11296316Y68779143D01*
X10944993Y69131081D01*
X10485731Y69321783D01*
X9988450Y69322217D01*
X9528857Y69132316D01*
X9176919Y68780993D01*
X9146000Y68706532D01*
X9146000Y69976697D01*
X9175684Y69904857D01*
X9527007Y69552919D01*
X9986269Y69362217D01*
X10483550Y69361783D01*
X10943143Y69551684D01*
X11295081Y69903007D01*
X11485783Y70362269D01*
X11486217Y70859550D01*
X11296316Y71319143D01*
X10944993Y71671081D01*
X10485731Y71861783D01*
X9988450Y71862217D01*
X9528857Y71672316D01*
X9176919Y71320993D01*
X9146000Y71246532D01*
X9146000Y72516697D01*
X9175684Y72444857D01*
X9527007Y72092919D01*
X9986269Y71902217D01*
X10483550Y71901783D01*
X10943143Y72091684D01*
X11295081Y72443007D01*
X11485783Y72902269D01*
X11486217Y73399550D01*
X11296316Y73859143D01*
X10944993Y74211081D01*
X10485731Y74401783D01*
X9988450Y74402217D01*
X9528857Y74212316D01*
X9176919Y73860993D01*
X9146000Y73786532D01*
X9146000Y75056697D01*
X9175684Y74984857D01*
X9527007Y74632919D01*
X9986269Y74442217D01*
X10483550Y74441783D01*
X10943143Y74631684D01*
X11295081Y74983007D01*
X11485783Y75442269D01*
X11486217Y75939550D01*
X11296316Y76399143D01*
X10944993Y76751081D01*
X10485731Y76941783D01*
X9988450Y76942217D01*
X9528857Y76752316D01*
X9176919Y76400993D01*
X9146000Y76326532D01*
X9146000Y77596697D01*
X9175684Y77524857D01*
X9527007Y77172919D01*
X9986269Y76982217D01*
X10483550Y76981783D01*
X10943143Y77171684D01*
X11295081Y77523007D01*
X11485783Y77982269D01*
X11486217Y78479550D01*
X11296316Y78939143D01*
X10944993Y79291081D01*
X10485731Y79481783D01*
X9988450Y79482217D01*
X9528857Y79292316D01*
X9176919Y78940993D01*
X9146000Y78866532D01*
X9146000Y80136697D01*
X9175684Y80064857D01*
X9527007Y79712919D01*
X9986269Y79522217D01*
X10483550Y79521783D01*
X10943143Y79711684D01*
X11295081Y80063007D01*
X11485783Y80522269D01*
X11486217Y81019550D01*
X11296316Y81479143D01*
X10944993Y81831081D01*
X10485731Y82021783D01*
X9988450Y82022217D01*
X9528857Y81832316D01*
X9176919Y81480993D01*
X9146000Y81406532D01*
X9146000Y82676697D01*
X9175684Y82604857D01*
X9527007Y82252919D01*
X9986269Y82062217D01*
X10483550Y82061783D01*
X10589352Y82105500D01*
X12919000Y82105500D01*
X12919000Y81693116D01*
X13019174Y81451273D01*
X13204273Y81266175D01*
X13446115Y81166000D01*
X14158500Y81166000D01*
X14323000Y81330500D01*
X14323000Y82270000D01*
X14531000Y82270000D01*
X14531000Y81330500D01*
X14695500Y81166000D01*
X15407885Y81166000D01*
X15649727Y81266175D01*
X15834826Y81451273D01*
X15935000Y81693116D01*
X15935000Y82105500D01*
X15770500Y82270000D01*
X14531000Y82270000D01*
X14323000Y82270000D01*
X13083500Y82270000D01*
X12919000Y82105500D01*
X10589352Y82105500D01*
X10943143Y82251684D01*
X11295081Y82603007D01*
X11482716Y83054884D01*
X12919000Y83054884D01*
X12919000Y82642500D01*
X13083500Y82478000D01*
X14323000Y82478000D01*
X14323000Y83417500D01*
X14531000Y83417500D01*
X14531000Y82478000D01*
X15770500Y82478000D01*
X15935000Y82642500D01*
X15935000Y83054884D01*
X15834826Y83296727D01*
X15791053Y83340500D01*
X16294000Y83340500D01*
X16294000Y83028116D01*
X16394174Y82786273D01*
X16579273Y82601175D01*
X16821115Y82501000D01*
X17333500Y82501000D01*
X17498000Y82665500D01*
X17498000Y83505000D01*
X17706000Y83505000D01*
X17706000Y82665500D01*
X17870500Y82501000D01*
X18382885Y82501000D01*
X18624727Y82601175D01*
X18809826Y82786273D01*
X18910000Y83028116D01*
X18910000Y83340500D01*
X18745500Y83505000D01*
X17706000Y83505000D01*
X17498000Y83505000D01*
X16458500Y83505000D01*
X16294000Y83340500D01*
X15791053Y83340500D01*
X15649727Y83481825D01*
X15407885Y83582000D01*
X14695500Y83582000D01*
X14531000Y83417500D01*
X14323000Y83417500D01*
X14158500Y83582000D01*
X13446115Y83582000D01*
X13204273Y83481825D01*
X13019174Y83296727D01*
X12919000Y83054884D01*
X11482716Y83054884D01*
X11485783Y83062269D01*
X11486217Y83559550D01*
X11296316Y84019143D01*
X10944993Y84371081D01*
X10870532Y84402000D01*
X14034869Y84402000D01*
X14427000Y84324000D01*
X16349552Y84324000D01*
X16294000Y84189884D01*
X16294000Y83877500D01*
X16458500Y83713000D01*
X17498000Y83713000D01*
X17498000Y83733000D01*
X17706000Y83733000D01*
X17706000Y83713000D01*
X18745500Y83713000D01*
X18910000Y83877500D01*
X18910000Y84189884D01*
X18809826Y84431727D01*
X18624727Y84616825D01*
X18482881Y84675580D01*
X18592305Y84748695D01*
X18627304Y84783695D01*
X18941625Y85254109D01*
X19052000Y85809000D01*
X18941625Y86363890D01*
X18627304Y86834304D01*
X18156890Y87148625D01*
X17602000Y87259000D01*
X17426044Y87224000D01*
X14741131Y87224000D01*
X14349000Y87302000D01*
X7696000Y87302000D01*
X7141109Y87191625D01*
X6670695Y86877305D01*
X6356375Y86406891D01*
X6246000Y85852000D01*
X1150000Y85852000D01*
X1150000Y87897000D01*
X29902000Y87897000D01*
X29993345Y87437780D01*
X30253472Y87048472D01*
X30642780Y86788345D01*
X31102000Y86697000D01*
X31705500Y86697000D01*
X31705500Y83956369D01*
X31695240Y83954438D01*
X31542081Y83855883D01*
X31439332Y83705505D01*
X31403184Y83527000D01*
X31403184Y83285640D01*
X31303345Y83136220D01*
X31212000Y82677000D01*
X31303345Y82217780D01*
X31403184Y82068360D01*
X31403184Y81827000D01*
X31434562Y81660240D01*
X31533117Y81507081D01*
X31683495Y81404332D01*
X31705500Y81399876D01*
X31705500Y77413000D01*
X31102000Y77413000D01*
X30642780Y77321655D01*
X30253472Y77061528D01*
X29993345Y76672220D01*
X29902000Y76213000D01*
X29993345Y75753780D01*
X30253472Y75364472D01*
X30642780Y75104345D01*
X31102000Y75013000D01*
X31705500Y75013000D01*
X31705500Y72322318D01*
X31669081Y72298883D01*
X31566332Y72148505D01*
X31530184Y71970000D01*
X31530184Y71728640D01*
X31430345Y71579220D01*
X31339000Y71120000D01*
X31430345Y70660780D01*
X31530184Y70511360D01*
X31530184Y70270000D01*
X31561562Y70103240D01*
X31660117Y69950081D01*
X31705500Y69919072D01*
X31705500Y65729000D01*
X31102000Y65729000D01*
X30642780Y65637655D01*
X30253472Y65377528D01*
X29993345Y64988220D01*
X29902000Y64529000D01*
X29993345Y64069780D01*
X30253472Y63680472D01*
X30642780Y63420345D01*
X31102000Y63329000D01*
X31705500Y63329000D01*
X31705500Y60588369D01*
X31695240Y60586438D01*
X31542081Y60487883D01*
X31439332Y60337505D01*
X31403184Y60159000D01*
X31403184Y59917640D01*
X31303345Y59768220D01*
X31212000Y59309000D01*
X31303345Y58849780D01*
X31403184Y58700360D01*
X31403184Y58459000D01*
X31434562Y58292240D01*
X31533117Y58139081D01*
X31683495Y58036332D01*
X31705500Y58031876D01*
X31705500Y54045000D01*
X31102000Y54045000D01*
X30642780Y53953655D01*
X30253472Y53693528D01*
X29993345Y53304220D01*
X29902000Y52845000D01*
X29993345Y52385780D01*
X30253472Y51996472D01*
X30642780Y51736345D01*
X31102000Y51645000D01*
X31777407Y51645000D01*
X31796845Y51547280D01*
X32056972Y51157972D01*
X32202345Y51012599D01*
X32251375Y50766109D01*
X32565695Y50295695D01*
X32791944Y50069446D01*
X32556375Y49716891D01*
X32507345Y49470401D01*
X32056972Y49020028D01*
X31796845Y48630720D01*
X31705500Y48171500D01*
X31705500Y47684318D01*
X31669081Y47660883D01*
X31566332Y47510505D01*
X31530184Y47332000D01*
X31530184Y47090640D01*
X31430345Y46941220D01*
X31339000Y46482000D01*
X31430345Y46022780D01*
X31530184Y45873360D01*
X31530184Y45632000D01*
X31561562Y45465240D01*
X31660117Y45312081D01*
X31705500Y45281072D01*
X31705500Y42361000D01*
X31102000Y42361000D01*
X30642780Y42269655D01*
X30253472Y42009528D01*
X29993345Y41620220D01*
X29902000Y41161000D01*
X29993345Y40701780D01*
X30253472Y40312472D01*
X30642780Y40052345D01*
X31102000Y39961000D01*
X31705500Y39961000D01*
X31705500Y36254318D01*
X31669081Y36230883D01*
X31566332Y36080505D01*
X31530184Y35902000D01*
X31530184Y35660640D01*
X31430345Y35511220D01*
X31339000Y35052000D01*
X31430345Y34592780D01*
X31530184Y34443360D01*
X31530184Y34202000D01*
X31561562Y34035240D01*
X31660117Y33882081D01*
X31705500Y33851072D01*
X31705500Y30677000D01*
X31102000Y30677000D01*
X30642780Y30585655D01*
X30253472Y30325528D01*
X29993345Y29936220D01*
X29902000Y29477000D01*
X29993345Y29017780D01*
X30253472Y28628472D01*
X30642780Y28368345D01*
X31102000Y28277000D01*
X31705500Y28277000D01*
X31705500Y24647369D01*
X31695240Y24645438D01*
X31542081Y24546883D01*
X31439332Y24396505D01*
X31403184Y24218000D01*
X31403184Y23976640D01*
X31303345Y23827220D01*
X31212000Y23368000D01*
X31303345Y22908780D01*
X31403184Y22759360D01*
X31403184Y22518000D01*
X31434562Y22351240D01*
X31533117Y22198081D01*
X31683495Y22095332D01*
X31705500Y22090876D01*
X31705500Y18993000D01*
X31102000Y18993000D01*
X30642780Y18901655D01*
X30253472Y18641528D01*
X29993345Y18252220D01*
X29902000Y17793000D01*
X29993345Y17333780D01*
X30253472Y16944472D01*
X30642780Y16684345D01*
X31102000Y16593000D01*
X31705500Y16593000D01*
X31705500Y12836369D01*
X31695240Y12834438D01*
X31542081Y12735883D01*
X31439332Y12585505D01*
X31403184Y12407000D01*
X31403184Y12165640D01*
X31303345Y12016220D01*
X31212000Y11557000D01*
X31303345Y11097780D01*
X31403184Y10948360D01*
X31403184Y10707000D01*
X31434562Y10540240D01*
X31533117Y10387081D01*
X31683495Y10284332D01*
X31705500Y10279876D01*
X31705500Y7309000D01*
X31102000Y7309000D01*
X30642780Y7217655D01*
X30253472Y6957528D01*
X29993345Y6568220D01*
X29902000Y6109000D01*
X29993345Y5649780D01*
X30253472Y5260472D01*
X30642780Y5000345D01*
X31102000Y4909000D01*
X33406000Y4909000D01*
X33865220Y5000345D01*
X34254528Y5260472D01*
X34271776Y5277720D01*
X34416919Y5371117D01*
X34519668Y5521495D01*
X34524348Y5544604D01*
X34747000Y5877827D01*
X34966550Y5549246D01*
X34969562Y5533240D01*
X35068117Y5380081D01*
X35218495Y5277332D01*
X35384116Y5243793D01*
X35387780Y5241345D01*
X35847000Y5150000D01*
X36306220Y5241345D01*
X36309499Y5243536D01*
X36463760Y5272562D01*
X36616919Y5371117D01*
X36719668Y5521495D01*
X36720713Y5526657D01*
X37284528Y6090472D01*
X37544655Y6479780D01*
X37636000Y6939000D01*
X37636000Y7607039D01*
X53897732Y7607039D01*
X54133208Y7037143D01*
X54568849Y6600740D01*
X55138333Y6364270D01*
X55754961Y6363732D01*
X56324857Y6599208D01*
X56761260Y7034849D01*
X56997730Y7604333D01*
X56997749Y7626843D01*
X62887749Y7626843D01*
X63108033Y7093714D01*
X63515569Y6685467D01*
X64048312Y6464252D01*
X64625157Y6463749D01*
X65158286Y6684033D01*
X65566533Y7091569D01*
X65787748Y7624312D01*
X65788251Y8201157D01*
X65567967Y8734286D01*
X65160431Y9142533D01*
X64627688Y9363748D01*
X64050843Y9364251D01*
X63517714Y9143967D01*
X63109467Y8736431D01*
X62888252Y8203688D01*
X62887749Y7626843D01*
X56997749Y7626843D01*
X56998268Y8220961D01*
X56762792Y8790857D01*
X56327151Y9227260D01*
X55757667Y9463730D01*
X55141039Y9464268D01*
X54571143Y9228792D01*
X54134740Y8793151D01*
X53898270Y8223667D01*
X53897732Y7607039D01*
X37636000Y7607039D01*
X37636000Y10497000D01*
X41643000Y10497000D01*
X42102220Y10588345D01*
X42491528Y10848472D01*
X42751655Y11237780D01*
X42843000Y11697000D01*
X42751655Y12156220D01*
X42491528Y12545528D01*
X42399471Y12607039D01*
X53897732Y12607039D01*
X54133208Y12037143D01*
X54568849Y11600740D01*
X55138333Y11364270D01*
X55754961Y11363732D01*
X56324857Y11599208D01*
X56761260Y12034849D01*
X56997730Y12604333D01*
X56997749Y12626843D01*
X62887749Y12626843D01*
X63108033Y12093714D01*
X63515569Y11685467D01*
X64048312Y11464252D01*
X64625157Y11463749D01*
X65158286Y11684033D01*
X65566533Y12091569D01*
X65787748Y12624312D01*
X65788251Y13201157D01*
X65567967Y13734286D01*
X65160431Y14142533D01*
X64627688Y14363748D01*
X64050843Y14364251D01*
X63517714Y14143967D01*
X63109467Y13736431D01*
X62888252Y13203688D01*
X62887749Y12626843D01*
X56997749Y12626843D01*
X56998268Y13220961D01*
X56762792Y13790857D01*
X56327151Y14227260D01*
X55757667Y14463730D01*
X55141039Y14464268D01*
X54571143Y14228792D01*
X54134740Y13793151D01*
X53898270Y13223667D01*
X53897732Y12607039D01*
X42399471Y12607039D01*
X42102220Y12805655D01*
X41643000Y12897000D01*
X37636000Y12897000D01*
X37636000Y17278843D01*
X53997749Y17278843D01*
X54218033Y16745714D01*
X54625569Y16337467D01*
X55158312Y16116252D01*
X55735157Y16115749D01*
X56268286Y16336033D01*
X56676533Y16743569D01*
X56873966Y17219039D01*
X62787732Y17219039D01*
X63023208Y16649143D01*
X63458849Y16212740D01*
X64028333Y15976270D01*
X64644961Y15975732D01*
X65214857Y16211208D01*
X65651260Y16646849D01*
X65887730Y17216333D01*
X65888268Y17832961D01*
X65652792Y18402857D01*
X65217151Y18839260D01*
X64647667Y19075730D01*
X64031039Y19076268D01*
X63461143Y18840792D01*
X63024740Y18405151D01*
X62788270Y17835667D01*
X62787732Y17219039D01*
X56873966Y17219039D01*
X56897748Y17276312D01*
X56898251Y17853157D01*
X56677967Y18386286D01*
X56270431Y18794533D01*
X55737688Y19015748D01*
X55160843Y19016251D01*
X54627714Y18795967D01*
X54219467Y18388431D01*
X53998252Y17855688D01*
X53997749Y17278843D01*
X37636000Y17278843D01*
X37636000Y22181000D01*
X41643000Y22181000D01*
X42102220Y22272345D01*
X42111944Y22278843D01*
X53997749Y22278843D01*
X54218033Y21745714D01*
X54625569Y21337467D01*
X55158312Y21116252D01*
X55735157Y21115749D01*
X56268286Y21336033D01*
X56676533Y21743569D01*
X56873966Y22219039D01*
X62787732Y22219039D01*
X63023208Y21649143D01*
X63458849Y21212740D01*
X64028333Y20976270D01*
X64644961Y20975732D01*
X65214857Y21211208D01*
X65651260Y21646849D01*
X65887730Y22216333D01*
X65888268Y22832961D01*
X65652792Y23402857D01*
X65217151Y23839260D01*
X64647667Y24075730D01*
X64031039Y24076268D01*
X63461143Y23840792D01*
X63024740Y23405151D01*
X62788270Y22835667D01*
X62787732Y22219039D01*
X56873966Y22219039D01*
X56897748Y22276312D01*
X56898251Y22853157D01*
X56677967Y23386286D01*
X56270431Y23794533D01*
X55737688Y24015748D01*
X55160843Y24016251D01*
X54627714Y23795967D01*
X54219467Y23388431D01*
X53998252Y22855688D01*
X53997749Y22278843D01*
X42111944Y22278843D01*
X42491528Y22532472D01*
X42751655Y22921780D01*
X42843000Y23381000D01*
X42751655Y23840220D01*
X42491528Y24229528D01*
X42102220Y24489655D01*
X41643000Y24581000D01*
X37636000Y24581000D01*
X37636000Y26911039D01*
X53897732Y26911039D01*
X54133208Y26341143D01*
X54568849Y25904740D01*
X55138333Y25668270D01*
X55754961Y25667732D01*
X56324857Y25903208D01*
X56761260Y26338849D01*
X56997730Y26908333D01*
X56997749Y26930843D01*
X62887749Y26930843D01*
X63108033Y26397714D01*
X63515569Y25989467D01*
X64048312Y25768252D01*
X64625157Y25767749D01*
X65158286Y25988033D01*
X65566533Y26395569D01*
X65787748Y26928312D01*
X65788251Y27505157D01*
X65567967Y28038286D01*
X65160431Y28446533D01*
X64627688Y28667748D01*
X64050843Y28668251D01*
X63517714Y28447967D01*
X63109467Y28040431D01*
X62888252Y27507688D01*
X62887749Y26930843D01*
X56997749Y26930843D01*
X56998268Y27524961D01*
X56762792Y28094857D01*
X56327151Y28531260D01*
X55757667Y28767730D01*
X55141039Y28768268D01*
X54571143Y28532792D01*
X54134740Y28097151D01*
X53898270Y27527667D01*
X53897732Y26911039D01*
X37636000Y26911039D01*
X37636000Y31911039D01*
X53897732Y31911039D01*
X54133208Y31341143D01*
X54568849Y30904740D01*
X55138333Y30668270D01*
X55754961Y30667732D01*
X56324857Y30903208D01*
X56761260Y31338849D01*
X56997730Y31908333D01*
X56997749Y31930843D01*
X62887749Y31930843D01*
X63108033Y31397714D01*
X63515569Y30989467D01*
X64048312Y30768252D01*
X64625157Y30767749D01*
X65158286Y30988033D01*
X65566533Y31395569D01*
X65787748Y31928312D01*
X65788251Y32505157D01*
X65567967Y33038286D01*
X65160431Y33446533D01*
X64627688Y33667748D01*
X64050843Y33668251D01*
X63517714Y33447967D01*
X63109467Y33040431D01*
X62888252Y32507688D01*
X62887749Y31930843D01*
X56997749Y31930843D01*
X56998268Y32524961D01*
X56762792Y33094857D01*
X56327151Y33531260D01*
X55757667Y33767730D01*
X55141039Y33768268D01*
X54571143Y33532792D01*
X54134740Y33097151D01*
X53898270Y32527667D01*
X53897732Y31911039D01*
X37636000Y31911039D01*
X37636000Y33738000D01*
X41643000Y33738000D01*
X42102220Y33829345D01*
X42491528Y34089472D01*
X42751655Y34478780D01*
X42843000Y34938000D01*
X42751655Y35397220D01*
X42491528Y35786528D01*
X42102220Y36046655D01*
X41643000Y36138000D01*
X37636000Y36138000D01*
X37636000Y36582843D01*
X53997749Y36582843D01*
X54218033Y36049714D01*
X54625569Y35641467D01*
X55158312Y35420252D01*
X55735157Y35419749D01*
X56268286Y35640033D01*
X56676533Y36047569D01*
X56890575Y36563039D01*
X62787732Y36563039D01*
X63023208Y35993143D01*
X63458849Y35556740D01*
X64028333Y35320270D01*
X64644961Y35319732D01*
X65214857Y35555208D01*
X65651260Y35990849D01*
X65887730Y36560333D01*
X65888268Y37176961D01*
X65652792Y37746857D01*
X65217151Y38183260D01*
X64647667Y38419730D01*
X64031039Y38420268D01*
X63461143Y38184792D01*
X63024740Y37749151D01*
X62788270Y37179667D01*
X62787732Y36563039D01*
X56890575Y36563039D01*
X56897748Y36580312D01*
X56898251Y37157157D01*
X56677967Y37690286D01*
X56270431Y38098533D01*
X55737688Y38319748D01*
X55160843Y38320251D01*
X54627714Y38099967D01*
X54219467Y37692431D01*
X53998252Y37159688D01*
X53997749Y36582843D01*
X37636000Y36582843D01*
X37636000Y41582843D01*
X53997749Y41582843D01*
X54218033Y41049714D01*
X54625569Y40641467D01*
X55158312Y40420252D01*
X55735157Y40419749D01*
X56268286Y40640033D01*
X56676533Y41047569D01*
X56890575Y41563039D01*
X62787732Y41563039D01*
X63023208Y40993143D01*
X63458849Y40556740D01*
X64028333Y40320270D01*
X64644961Y40319732D01*
X65214857Y40555208D01*
X65651260Y40990849D01*
X65887730Y41560333D01*
X65888268Y42176961D01*
X65652792Y42746857D01*
X65217151Y43183260D01*
X64647667Y43419730D01*
X64031039Y43420268D01*
X63461143Y43184792D01*
X63024740Y42749151D01*
X62788270Y42179667D01*
X62787732Y41563039D01*
X56890575Y41563039D01*
X56897748Y41580312D01*
X56898251Y42157157D01*
X56677967Y42690286D01*
X56270431Y43098533D01*
X55737688Y43319748D01*
X55160843Y43320251D01*
X54627714Y43099967D01*
X54219467Y42692431D01*
X53998252Y42159688D01*
X53997749Y41582843D01*
X37636000Y41582843D01*
X37636000Y45549000D01*
X58534000Y45549000D01*
X58993220Y45640345D01*
X59382528Y45900472D01*
X59642655Y46289780D01*
X59734000Y46749000D01*
X59642655Y47208220D01*
X59382528Y47597528D01*
X58993220Y47857655D01*
X58534000Y47949000D01*
X36576000Y47949000D01*
X36116780Y47857655D01*
X36016748Y47790816D01*
X35389000Y47790816D01*
X35222240Y47759438D01*
X35069081Y47660883D01*
X34966332Y47510505D01*
X34930184Y47332000D01*
X34930184Y47090640D01*
X34830345Y46941220D01*
X34739000Y46482000D01*
X34830345Y46022780D01*
X34930184Y45873360D01*
X34930184Y45632000D01*
X34961562Y45465240D01*
X35060117Y45312081D01*
X35210495Y45209332D01*
X35236000Y45204167D01*
X35236000Y44893522D01*
X35230240Y44892438D01*
X35077081Y44793883D01*
X34974332Y44643505D01*
X34969652Y44620396D01*
X34747000Y44287173D01*
X34527450Y44615754D01*
X34524438Y44631760D01*
X34425883Y44784919D01*
X34275505Y44887668D01*
X34109884Y44921207D01*
X34106220Y44923655D01*
X34105500Y44923798D01*
X34105500Y47674444D01*
X34204401Y47773345D01*
X34450891Y47822375D01*
X34921305Y48136695D01*
X35639610Y48855000D01*
X58581390Y48855000D01*
X61809695Y45626695D01*
X62280109Y45312375D01*
X62835000Y45202000D01*
X71611390Y45202000D01*
X71836695Y44976695D01*
X72307109Y44662375D01*
X72862000Y44552000D01*
X74751308Y44552000D01*
X75039157Y44551749D01*
X75039764Y44552000D01*
X76932944Y44552000D01*
X77351720Y44133224D01*
X77445117Y43988081D01*
X77595495Y43885332D01*
X77761116Y43851793D01*
X77764780Y43849345D01*
X78224000Y43758000D01*
X78683220Y43849345D01*
X78686499Y43851536D01*
X78840760Y43880562D01*
X78993919Y43979117D01*
X79096668Y44129495D01*
X79101348Y44152604D01*
X79324000Y44485827D01*
X79543550Y44157246D01*
X79546562Y44141240D01*
X79645117Y43988081D01*
X79795495Y43885332D01*
X79961116Y43851793D01*
X79964780Y43849345D01*
X80424000Y43758000D01*
X80883220Y43849345D01*
X80886499Y43851536D01*
X81040760Y43880562D01*
X81193919Y43979117D01*
X81296668Y44129495D01*
X81297713Y44134657D01*
X81715056Y44552000D01*
X83895308Y44552000D01*
X84183157Y44551749D01*
X84183764Y44552000D01*
X87304000Y44552000D01*
X87304000Y44436049D01*
X87184081Y44358883D01*
X87081332Y44208505D01*
X87045184Y44030000D01*
X87045184Y42330000D01*
X87076562Y42163240D01*
X87175117Y42010081D01*
X87325495Y41907332D01*
X87504000Y41871184D01*
X88153000Y41871184D01*
X88199109Y41840375D01*
X88754000Y41730000D01*
X89308891Y41840375D01*
X89355000Y41871184D01*
X90004000Y41871184D01*
X90170760Y41902562D01*
X90323919Y42001117D01*
X90426668Y42151495D01*
X90462816Y42330000D01*
X90462816Y44030000D01*
X91045184Y44030000D01*
X91045184Y42330000D01*
X91076562Y42163240D01*
X91175117Y42010081D01*
X91325495Y41907332D01*
X91504000Y41871184D01*
X92153000Y41871184D01*
X92199109Y41840375D01*
X92754000Y41730000D01*
X93308891Y41840375D01*
X93355000Y41871184D01*
X94004000Y41871184D01*
X94170760Y41902562D01*
X94323919Y42001117D01*
X94426668Y42151495D01*
X94462816Y42330000D01*
X94462816Y44030000D01*
X94431438Y44196760D01*
X94332883Y44349919D01*
X94236000Y44416116D01*
X94236000Y46609000D01*
X94125625Y47163891D01*
X94036000Y47298025D01*
X94036000Y47449162D01*
X93940849Y47927516D01*
X93669883Y48333045D01*
X93457356Y48475051D01*
X93573502Y48523161D01*
X93644404Y48778517D01*
X92786000Y49636922D01*
X91927596Y48778517D01*
X91998498Y48523161D01*
X92118592Y48477689D01*
X91902117Y48333045D01*
X91631151Y47927516D01*
X91536000Y47449162D01*
X91536000Y47298025D01*
X91446375Y47163891D01*
X91336000Y46609000D01*
X91336000Y44456640D01*
X91184081Y44358883D01*
X91081332Y44208505D01*
X91045184Y44030000D01*
X90462816Y44030000D01*
X90431438Y44196760D01*
X90332883Y44349919D01*
X90204000Y44437981D01*
X90204000Y45397390D01*
X90433305Y45626695D01*
X90747625Y46097109D01*
X90858000Y46652000D01*
X90747625Y47206891D01*
X90433305Y47677305D01*
X90278151Y47780975D01*
X90430727Y47844175D01*
X90615826Y48029273D01*
X90716000Y48271116D01*
X90716000Y48583500D01*
X90551500Y48748000D01*
X89512000Y48748000D01*
X89512000Y48728000D01*
X89304000Y48728000D01*
X89304000Y48748000D01*
X88264500Y48748000D01*
X88176000Y48659500D01*
X88087500Y48748000D01*
X87048000Y48748000D01*
X87048000Y48728000D01*
X86840000Y48728000D01*
X86840000Y48748000D01*
X85800500Y48748000D01*
X85636000Y48583500D01*
X85636000Y48271116D01*
X85736174Y48029273D01*
X85921273Y47844175D01*
X86073849Y47780975D01*
X85918695Y47677305D01*
X85768151Y47452000D01*
X83896692Y47452000D01*
X83608843Y47452251D01*
X83608236Y47452000D01*
X81684752Y47452000D01*
X81671438Y47522760D01*
X81572883Y47675919D01*
X81422505Y47778668D01*
X81399396Y47783348D01*
X81078146Y47998000D01*
X81374885Y47998000D01*
X81616727Y48098175D01*
X81801826Y48283273D01*
X81830267Y48351937D01*
X82893016Y48351937D01*
X82988379Y48075832D01*
X83603239Y47837061D01*
X84262668Y47851762D01*
X84803621Y48075832D01*
X84898984Y48351937D01*
X83896000Y49354922D01*
X82893016Y48351937D01*
X81830267Y48351937D01*
X81902000Y48525116D01*
X81902000Y48837500D01*
X81737500Y49002000D01*
X80698000Y49002000D01*
X80698000Y48982000D01*
X80490000Y48982000D01*
X80490000Y49002000D01*
X79450500Y49002000D01*
X79286000Y48837500D01*
X79286000Y48525116D01*
X79386174Y48283273D01*
X79571273Y48098175D01*
X79813115Y47998000D01*
X80109854Y47998000D01*
X79793246Y47786450D01*
X79777240Y47783438D01*
X79624081Y47684883D01*
X79521332Y47534505D01*
X79487793Y47368884D01*
X79485345Y47365220D01*
X79394000Y46906000D01*
X79394000Y45534936D01*
X79324000Y45430173D01*
X79254000Y45534936D01*
X79254000Y46906000D01*
X79162655Y47365220D01*
X79160464Y47368499D01*
X79131438Y47522760D01*
X79032883Y47675919D01*
X78882505Y47778668D01*
X78859396Y47783348D01*
X78513220Y48014655D01*
X78054000Y48106000D01*
X77594780Y48014655D01*
X77253246Y47786450D01*
X77237240Y47783438D01*
X77084081Y47684883D01*
X76981332Y47534505D01*
X76964624Y47452000D01*
X74752692Y47452000D01*
X74464843Y47452251D01*
X74464236Y47452000D01*
X73462610Y47452000D01*
X73237305Y47677305D01*
X73082151Y47780975D01*
X73234727Y47844175D01*
X73419826Y48029273D01*
X73520000Y48271116D01*
X73520000Y48351937D01*
X73749016Y48351937D01*
X73844379Y48075832D01*
X74459239Y47837061D01*
X75118668Y47851762D01*
X75659621Y48075832D01*
X75754984Y48351937D01*
X74752000Y49354922D01*
X73749016Y48351937D01*
X73520000Y48351937D01*
X73520000Y48527316D01*
X73601937Y48499016D01*
X74604922Y49502000D01*
X74899078Y49502000D01*
X75902063Y48499016D01*
X76178168Y48594379D01*
X76416939Y49209239D01*
X76402238Y49868668D01*
X76178168Y50409621D01*
X75902063Y50504984D01*
X74899078Y49502000D01*
X74604922Y49502000D01*
X73601937Y50504984D01*
X73325832Y50409621D01*
X73129288Y49903500D01*
X72992885Y49960000D01*
X72480500Y49960000D01*
X72316000Y49795500D01*
X72316000Y48956000D01*
X72336000Y48956000D01*
X72336000Y48748000D01*
X72316000Y48748000D01*
X72316000Y48728000D01*
X72108000Y48728000D01*
X72108000Y48748000D01*
X70030000Y48748000D01*
X70030000Y48728000D01*
X69822000Y48728000D01*
X69822000Y48748000D01*
X67744000Y48748000D01*
X67744000Y48728000D01*
X67536000Y48728000D01*
X67536000Y48748000D01*
X66496500Y48748000D01*
X66459000Y48710500D01*
X66421500Y48748000D01*
X65382000Y48748000D01*
X65382000Y48728000D01*
X65174000Y48728000D01*
X65174000Y48748000D01*
X64134500Y48748000D01*
X63970000Y48583500D01*
X63970000Y48271116D01*
X64040050Y48102000D01*
X63435610Y48102000D01*
X62104726Y49432884D01*
X63970000Y49432884D01*
X63970000Y49120500D01*
X64134500Y48956000D01*
X65174000Y48956000D01*
X65174000Y49795500D01*
X65382000Y49795500D01*
X65382000Y48956000D01*
X66421500Y48956000D01*
X66459000Y48993500D01*
X66496500Y48956000D01*
X67536000Y48956000D01*
X67536000Y49795500D01*
X67744000Y49795500D01*
X67744000Y48956000D01*
X69822000Y48956000D01*
X69822000Y49795500D01*
X70030000Y49795500D01*
X70030000Y48956000D01*
X72108000Y48956000D01*
X72108000Y49795500D01*
X71943500Y49960000D01*
X71431115Y49960000D01*
X71189273Y49859825D01*
X71069000Y49739553D01*
X70948727Y49859825D01*
X70706885Y49960000D01*
X70194500Y49960000D01*
X70030000Y49795500D01*
X69822000Y49795500D01*
X69657500Y49960000D01*
X69145115Y49960000D01*
X68903273Y49859825D01*
X68783000Y49739553D01*
X68662727Y49859825D01*
X68420885Y49960000D01*
X67908500Y49960000D01*
X67744000Y49795500D01*
X67536000Y49795500D01*
X67371500Y49960000D01*
X66859115Y49960000D01*
X66617273Y49859825D01*
X66459000Y49701553D01*
X66300727Y49859825D01*
X66058885Y49960000D01*
X65546500Y49960000D01*
X65382000Y49795500D01*
X65174000Y49795500D01*
X65009500Y49960000D01*
X64497115Y49960000D01*
X64255273Y49859825D01*
X64070174Y49674727D01*
X63970000Y49432884D01*
X62104726Y49432884D01*
X60885547Y50652063D01*
X73749016Y50652063D01*
X74752000Y49649078D01*
X75754984Y50652063D01*
X75659621Y50928168D01*
X75044761Y51166939D01*
X74385332Y51152238D01*
X73844379Y50928168D01*
X73749016Y50652063D01*
X60885547Y50652063D01*
X60207305Y51330305D01*
X59736891Y51644625D01*
X59182000Y51755000D01*
X35207610Y51755000D01*
X34616305Y52346305D01*
X34145891Y52660625D01*
X34105500Y52668659D01*
X34105500Y52993202D01*
X34106220Y52993345D01*
X34109499Y52995536D01*
X34263760Y53024562D01*
X34416919Y53123117D01*
X34519668Y53273495D01*
X34524348Y53296604D01*
X34747000Y53629827D01*
X34966550Y53301246D01*
X34969562Y53285240D01*
X35068117Y53132081D01*
X35218495Y53029332D01*
X35384116Y52995793D01*
X35387780Y52993345D01*
X35819467Y52907477D01*
X35968472Y52758472D01*
X36357780Y52498345D01*
X36817000Y52407000D01*
X57770145Y52407000D01*
X57979109Y52267375D01*
X58534000Y52157000D01*
X60082998Y52157000D01*
X60637889Y52267375D01*
X61108303Y52581695D01*
X62014545Y53487937D01*
X73749016Y53487937D01*
X73844379Y53211832D01*
X74459239Y52973061D01*
X75118668Y52987762D01*
X75659621Y53211832D01*
X75754984Y53487937D01*
X74752000Y54490922D01*
X73749016Y53487937D01*
X62014545Y53487937D01*
X63970000Y55443392D01*
X63970000Y55437998D01*
X64134498Y55437998D01*
X63970000Y55273500D01*
X63970000Y54961116D01*
X64070174Y54719273D01*
X64255273Y54534175D01*
X64497115Y54434000D01*
X65009500Y54434000D01*
X65174000Y54598500D01*
X65174000Y55438000D01*
X65382000Y55438000D01*
X65382000Y54598500D01*
X65546500Y54434000D01*
X66058885Y54434000D01*
X66300727Y54534175D01*
X66459000Y54692447D01*
X66617273Y54534175D01*
X66859115Y54434000D01*
X67371500Y54434000D01*
X67536000Y54598500D01*
X67536000Y55438000D01*
X67744000Y55438000D01*
X67744000Y54598500D01*
X67908500Y54434000D01*
X68420885Y54434000D01*
X68662727Y54534175D01*
X68783000Y54654447D01*
X68903273Y54534175D01*
X69145115Y54434000D01*
X69657500Y54434000D01*
X69822000Y54598500D01*
X69822000Y55438000D01*
X70030000Y55438000D01*
X70030000Y54598500D01*
X70194500Y54434000D01*
X70706885Y54434000D01*
X70948727Y54534175D01*
X71069000Y54654447D01*
X71189273Y54534175D01*
X71431115Y54434000D01*
X71943500Y54434000D01*
X72108000Y54598500D01*
X72108000Y55438000D01*
X70030000Y55438000D01*
X69822000Y55438000D01*
X67744000Y55438000D01*
X67536000Y55438000D01*
X66496500Y55438000D01*
X66459000Y55400500D01*
X66421500Y55438000D01*
X65382000Y55438000D01*
X65174000Y55438000D01*
X65154000Y55438000D01*
X65154000Y55646000D01*
X65174000Y55646000D01*
X65174000Y55666000D01*
X65382000Y55666000D01*
X65382000Y55646000D01*
X66421500Y55646000D01*
X66459000Y55683500D01*
X66496500Y55646000D01*
X67536000Y55646000D01*
X67536000Y55666000D01*
X67744000Y55666000D01*
X67744000Y55646000D01*
X69822000Y55646000D01*
X69822000Y55666000D01*
X70030000Y55666000D01*
X70030000Y55646000D01*
X72108000Y55646000D01*
X72108000Y55666000D01*
X72316000Y55666000D01*
X72316000Y55646000D01*
X72336000Y55646000D01*
X72336000Y55438000D01*
X72316000Y55438000D01*
X72316000Y54598500D01*
X72480500Y54434000D01*
X72992885Y54434000D01*
X73097173Y54477198D01*
X73101762Y54271332D01*
X73325832Y53730379D01*
X73601937Y53635016D01*
X74604922Y54638000D01*
X74899078Y54638000D01*
X75902063Y53635016D01*
X76178168Y53730379D01*
X76416939Y54345239D01*
X76402238Y55004668D01*
X76203693Y55484000D01*
X76945184Y55484000D01*
X76945184Y54584000D01*
X76976562Y54417240D01*
X77075117Y54264081D01*
X77104000Y54244346D01*
X77104000Y53924264D01*
X77097332Y53914505D01*
X77061184Y53736000D01*
X77061184Y53293045D01*
X77020001Y53086000D01*
X77061184Y52878955D01*
X77061184Y52436000D01*
X77092562Y52269240D01*
X77191117Y52116081D01*
X77258173Y52070264D01*
X77200081Y52032883D01*
X77097332Y51882505D01*
X77061184Y51704000D01*
X77061184Y51261047D01*
X77020000Y51054000D01*
X77020000Y49791097D01*
X76981332Y49734505D01*
X76945184Y49556000D01*
X76945184Y48656000D01*
X76976562Y48489240D01*
X77075117Y48336081D01*
X77225495Y48233332D01*
X77404000Y48197184D01*
X77846955Y48197184D01*
X78054000Y48156001D01*
X78261045Y48197184D01*
X78704000Y48197184D01*
X78870760Y48228562D01*
X79023919Y48327117D01*
X79126668Y48477495D01*
X79162816Y48656000D01*
X79162816Y49556000D01*
X79131438Y49722760D01*
X79032883Y49875919D01*
X78920000Y49953049D01*
X78920000Y50785500D01*
X79062000Y50785500D01*
X79062000Y50273115D01*
X79162175Y50031273D01*
X79347273Y49846174D01*
X79351290Y49844510D01*
X79286000Y49686884D01*
X79286000Y49374500D01*
X79450500Y49210000D01*
X80490000Y49210000D01*
X80490000Y49230000D01*
X80698000Y49230000D01*
X80698000Y49210000D01*
X81737500Y49210000D01*
X81902000Y49374500D01*
X81902000Y49686884D01*
X81857317Y49794761D01*
X82231061Y49794761D01*
X82245762Y49135332D01*
X82469832Y48594379D01*
X82745937Y48499016D01*
X83748922Y49502000D01*
X84043078Y49502000D01*
X85046063Y48499016D01*
X85322168Y48594379D01*
X85560939Y49209239D01*
X85555954Y49432884D01*
X85636000Y49432884D01*
X85636000Y49120500D01*
X85800500Y48956000D01*
X86840000Y48956000D01*
X86840000Y49795500D01*
X87048000Y49795500D01*
X87048000Y48956000D01*
X88087500Y48956000D01*
X88176000Y49044500D01*
X88264500Y48956000D01*
X89304000Y48956000D01*
X89304000Y49795500D01*
X89512000Y49795500D01*
X89512000Y48956000D01*
X90551500Y48956000D01*
X90716000Y49120500D01*
X90716000Y49432884D01*
X90615826Y49674727D01*
X90430727Y49859825D01*
X90188885Y49960000D01*
X89676500Y49960000D01*
X89512000Y49795500D01*
X89304000Y49795500D01*
X89139500Y49960000D01*
X88627115Y49960000D01*
X88385273Y49859825D01*
X88200174Y49674727D01*
X88176000Y49616365D01*
X88151826Y49674727D01*
X87966727Y49859825D01*
X87724885Y49960000D01*
X87212500Y49960000D01*
X87048000Y49795500D01*
X86840000Y49795500D01*
X86675500Y49960000D01*
X86163115Y49960000D01*
X85921273Y49859825D01*
X85736174Y49674727D01*
X85636000Y49432884D01*
X85555954Y49432884D01*
X85546238Y49868668D01*
X85479804Y50029054D01*
X91319772Y50029054D01*
X91337603Y49449299D01*
X91525161Y48996498D01*
X91780517Y48925596D01*
X92638922Y49784000D01*
X92933078Y49784000D01*
X93791483Y48925596D01*
X94046839Y48996498D01*
X94252228Y49538946D01*
X94234397Y50118701D01*
X94046839Y50571502D01*
X93791483Y50642404D01*
X92933078Y49784000D01*
X92638922Y49784000D01*
X91780517Y50642404D01*
X91525161Y50571502D01*
X91319772Y50029054D01*
X85479804Y50029054D01*
X85322168Y50409621D01*
X85046063Y50504984D01*
X84043078Y49502000D01*
X83748922Y49502000D01*
X82745937Y50504984D01*
X82469832Y50409621D01*
X82231061Y49794761D01*
X81857317Y49794761D01*
X81801826Y49928727D01*
X81616727Y50113825D01*
X81374885Y50214000D01*
X81253514Y50214000D01*
X81278000Y50273115D01*
X81278000Y50652063D01*
X82893016Y50652063D01*
X83896000Y49649078D01*
X84898984Y50652063D01*
X84851521Y50789483D01*
X91927596Y50789483D01*
X92786000Y49931078D01*
X93644404Y50789483D01*
X93573502Y51044839D01*
X93031054Y51250228D01*
X92451299Y51232397D01*
X91998498Y51044839D01*
X91927596Y50789483D01*
X84851521Y50789483D01*
X84803621Y50928168D01*
X84188761Y51166939D01*
X83529332Y51152238D01*
X82988379Y50928168D01*
X82893016Y50652063D01*
X81278000Y50652063D01*
X81278000Y50785500D01*
X81113500Y50950000D01*
X80274000Y50950000D01*
X80274000Y50930000D01*
X80066000Y50930000D01*
X80066000Y50950000D01*
X79226500Y50950000D01*
X79062000Y50785500D01*
X78920000Y50785500D01*
X78920000Y51054000D01*
X78878816Y51261047D01*
X78878816Y51704000D01*
X78847438Y51870760D01*
X78748883Y52023919D01*
X78681827Y52069736D01*
X78739919Y52107117D01*
X78842668Y52257495D01*
X78878816Y52436000D01*
X78878816Y52727325D01*
X78931686Y52806450D01*
X78933883Y52817500D01*
X79062000Y52817500D01*
X79062000Y52305115D01*
X79159389Y52070000D01*
X79062000Y51834885D01*
X79062000Y51322500D01*
X79226500Y51158000D01*
X80066000Y51158000D01*
X80066000Y52982000D01*
X80274000Y52982000D01*
X80274000Y51158000D01*
X81113500Y51158000D01*
X81278000Y51322500D01*
X81278000Y51834885D01*
X81180611Y52070000D01*
X81278000Y52305115D01*
X81278000Y52817500D01*
X81113500Y52982000D01*
X80274000Y52982000D01*
X80066000Y52982000D01*
X79226500Y52982000D01*
X79062000Y52817500D01*
X78933883Y52817500D01*
X78950692Y52902000D01*
X79004000Y53170000D01*
X79004000Y53866885D01*
X79062000Y53866885D01*
X79062000Y53354500D01*
X79226500Y53190000D01*
X80066000Y53190000D01*
X80066000Y53210000D01*
X80274000Y53210000D01*
X80274000Y53190000D01*
X81113500Y53190000D01*
X81278000Y53354500D01*
X81278000Y53487937D01*
X82893016Y53487937D01*
X82988379Y53211832D01*
X83603239Y52973061D01*
X84262668Y52987762D01*
X84803621Y53211832D01*
X84898984Y53487937D01*
X83896000Y54490922D01*
X82893016Y53487937D01*
X81278000Y53487937D01*
X81278000Y53866885D01*
X81253514Y53926000D01*
X81374885Y53926000D01*
X81616727Y54026175D01*
X81801826Y54211273D01*
X81902000Y54453116D01*
X81902000Y54765500D01*
X81737500Y54930000D01*
X80698000Y54930000D01*
X80698000Y54910000D01*
X80490000Y54910000D01*
X80490000Y54930000D01*
X79450500Y54930000D01*
X79286000Y54765500D01*
X79286000Y54453116D01*
X79351290Y54295490D01*
X79347273Y54293826D01*
X79162175Y54108727D01*
X79062000Y53866885D01*
X79004000Y53866885D01*
X79004000Y54242299D01*
X79023919Y54255117D01*
X79126668Y54405495D01*
X79162816Y54584000D01*
X79162816Y54930761D01*
X82231061Y54930761D01*
X82245762Y54271332D01*
X82469832Y53730379D01*
X82745937Y53635016D01*
X83748922Y54638000D01*
X84043078Y54638000D01*
X85046063Y53635016D01*
X85322168Y53730379D01*
X85560939Y54345239D01*
X85546238Y55004668D01*
X85540095Y55019500D01*
X85636000Y55019500D01*
X85636000Y54707116D01*
X85736174Y54465273D01*
X85921273Y54280175D01*
X86163115Y54180000D01*
X86675500Y54180000D01*
X86840000Y54344500D01*
X86840000Y55184000D01*
X87048000Y55184000D01*
X87048000Y54344500D01*
X87212500Y54180000D01*
X87724885Y54180000D01*
X87966727Y54280175D01*
X88151826Y54465273D01*
X88176000Y54523635D01*
X88200174Y54465273D01*
X88385273Y54280175D01*
X88627115Y54180000D01*
X89139500Y54180000D01*
X89304000Y54344500D01*
X89304000Y55184000D01*
X89512000Y55184000D01*
X89512000Y54344500D01*
X89676500Y54180000D01*
X90188885Y54180000D01*
X90430727Y54280175D01*
X90615826Y54465273D01*
X90716000Y54707116D01*
X90716000Y55019500D01*
X90551500Y55184000D01*
X89512000Y55184000D01*
X89304000Y55184000D01*
X88264500Y55184000D01*
X88176000Y55095500D01*
X88087500Y55184000D01*
X87048000Y55184000D01*
X86840000Y55184000D01*
X85800500Y55184000D01*
X85636000Y55019500D01*
X85540095Y55019500D01*
X85437163Y55268000D01*
X91328000Y55268000D01*
X91328000Y54468000D01*
X91478783Y53917964D01*
X91828578Y53467499D01*
X92324132Y53185185D01*
X92455780Y53151888D01*
X92682000Y53282688D01*
X92682000Y55268000D01*
X92890000Y55268000D01*
X92890000Y53282688D01*
X93116220Y53151888D01*
X93247868Y53185185D01*
X93743422Y53467499D01*
X94093217Y53917964D01*
X94244000Y54468000D01*
X94244000Y55268000D01*
X92890000Y55268000D01*
X92682000Y55268000D01*
X91328000Y55268000D01*
X85437163Y55268000D01*
X85322168Y55545621D01*
X85046063Y55640984D01*
X84043078Y54638000D01*
X83748922Y54638000D01*
X82745937Y55640984D01*
X82469832Y55545621D01*
X82231061Y54930761D01*
X79162816Y54930761D01*
X79162816Y55484000D01*
X79131438Y55650760D01*
X79032883Y55803919D01*
X78882505Y55906668D01*
X78704000Y55942816D01*
X78261047Y55942816D01*
X78054000Y55984000D01*
X77846953Y55942816D01*
X77404000Y55942816D01*
X77237240Y55911438D01*
X77084081Y55812883D01*
X76981332Y55662505D01*
X76945184Y55484000D01*
X76203693Y55484000D01*
X76178168Y55545621D01*
X75902063Y55640984D01*
X74899078Y54638000D01*
X74604922Y54638000D01*
X73601937Y55640984D01*
X73520000Y55612684D01*
X73520000Y55646002D01*
X73355502Y55646002D01*
X73497563Y55788063D01*
X73749016Y55788063D01*
X74752000Y54785078D01*
X75754984Y55788063D01*
X75659621Y56064168D01*
X75044761Y56302939D01*
X74385332Y56288238D01*
X73844379Y56064168D01*
X73749016Y55788063D01*
X73497563Y55788063D01*
X73520000Y55810500D01*
X73520000Y56122884D01*
X73419826Y56364727D01*
X73234727Y56549825D01*
X73082151Y56613025D01*
X73194360Y56688000D01*
X74751308Y56688000D01*
X75039157Y56687749D01*
X75039764Y56688000D01*
X76963248Y56688000D01*
X76976562Y56617240D01*
X77075117Y56464081D01*
X77225495Y56361332D01*
X77248604Y56356652D01*
X77594780Y56125345D01*
X78054000Y56034000D01*
X78513220Y56125345D01*
X78854754Y56353550D01*
X78870760Y56356562D01*
X79023919Y56455117D01*
X79126668Y56605495D01*
X79160207Y56771116D01*
X79162655Y56774780D01*
X79254000Y57234000D01*
X79254000Y58605064D01*
X79324000Y58709827D01*
X79394000Y58605064D01*
X79394000Y57234000D01*
X79485345Y56774780D01*
X79487536Y56771501D01*
X79516562Y56617240D01*
X79615117Y56464081D01*
X79765495Y56361332D01*
X79788604Y56356652D01*
X80109854Y56142000D01*
X79813115Y56142000D01*
X79571273Y56041825D01*
X79386174Y55856727D01*
X79286000Y55614884D01*
X79286000Y55302500D01*
X79450500Y55138000D01*
X80490000Y55138000D01*
X80490000Y55158000D01*
X80698000Y55158000D01*
X80698000Y55138000D01*
X81737500Y55138000D01*
X81902000Y55302500D01*
X81902000Y55614884D01*
X81830268Y55788063D01*
X82893016Y55788063D01*
X83896000Y54785078D01*
X84898984Y55788063D01*
X84803621Y56064168D01*
X84188761Y56302939D01*
X83529332Y56288238D01*
X82988379Y56064168D01*
X82893016Y55788063D01*
X81830268Y55788063D01*
X81801826Y55856727D01*
X81616727Y56041825D01*
X81374885Y56142000D01*
X81078146Y56142000D01*
X81394754Y56353550D01*
X81410760Y56356562D01*
X81563919Y56455117D01*
X81666668Y56605495D01*
X81683376Y56688000D01*
X83895308Y56688000D01*
X84183157Y56687749D01*
X84183764Y56688000D01*
X85768151Y56688000D01*
X85918695Y56462695D01*
X86073849Y56359025D01*
X85921273Y56295825D01*
X85736174Y56110727D01*
X85636000Y55868884D01*
X85636000Y55556500D01*
X85800500Y55392000D01*
X86840000Y55392000D01*
X86840000Y55412000D01*
X87048000Y55412000D01*
X87048000Y55392000D01*
X88087500Y55392000D01*
X88176000Y55480500D01*
X88264500Y55392000D01*
X89304000Y55392000D01*
X89304000Y55412000D01*
X89512000Y55412000D01*
X89512000Y55392000D01*
X90551500Y55392000D01*
X90716000Y55556500D01*
X90716000Y55868884D01*
X90615826Y56110727D01*
X90430727Y56295825D01*
X90278151Y56359025D01*
X90433305Y56462695D01*
X90747625Y56933109D01*
X90858000Y57488000D01*
X90747625Y58042891D01*
X90433305Y58513305D01*
X90204000Y58742610D01*
X90204000Y59957951D01*
X90323919Y60035117D01*
X90426668Y60185495D01*
X90462816Y60364000D01*
X90462816Y62064000D01*
X91045184Y62064000D01*
X91045184Y60364000D01*
X91076562Y60197240D01*
X91175117Y60044081D01*
X91325495Y59941332D01*
X91336000Y59939205D01*
X91336000Y58547000D01*
X91446375Y57992109D01*
X91760695Y57521695D01*
X91990013Y57368470D01*
X91828578Y57276501D01*
X91478783Y56826036D01*
X91328000Y56276000D01*
X91328000Y55476000D01*
X92682000Y55476000D01*
X92682000Y55496000D01*
X92890000Y55496000D01*
X92890000Y55476000D01*
X94244000Y55476000D01*
X94244000Y56276000D01*
X94093217Y56826036D01*
X93743422Y57276501D01*
X93581987Y57368470D01*
X93811305Y57521695D01*
X94125625Y57992109D01*
X94236000Y58547000D01*
X94236000Y59978543D01*
X94323919Y60035117D01*
X94426668Y60185495D01*
X94462816Y60364000D01*
X94462816Y62064000D01*
X94431438Y62230760D01*
X94332883Y62383919D01*
X94182505Y62486668D01*
X94004000Y62522816D01*
X93355000Y62522816D01*
X93308891Y62553625D01*
X92754000Y62664000D01*
X92199109Y62553625D01*
X92153000Y62522816D01*
X91504000Y62522816D01*
X91337240Y62491438D01*
X91184081Y62392883D01*
X91081332Y62242505D01*
X91045184Y62064000D01*
X90462816Y62064000D01*
X90431438Y62230760D01*
X90332883Y62383919D01*
X90182505Y62486668D01*
X90004000Y62522816D01*
X89355000Y62522816D01*
X89308891Y62553625D01*
X88754000Y62664000D01*
X88199109Y62553625D01*
X88153000Y62522816D01*
X87504000Y62522816D01*
X87337240Y62491438D01*
X87184081Y62392883D01*
X87081332Y62242505D01*
X87045184Y62064000D01*
X87045184Y60364000D01*
X87076562Y60197240D01*
X87175117Y60044081D01*
X87304000Y59956019D01*
X87304000Y59588000D01*
X83896692Y59588000D01*
X83608843Y59588251D01*
X83608236Y59588000D01*
X81715056Y59588000D01*
X81296280Y60006776D01*
X81202883Y60151919D01*
X81052505Y60254668D01*
X80886884Y60288207D01*
X80883220Y60290655D01*
X80424000Y60382000D01*
X79964780Y60290655D01*
X79961501Y60288464D01*
X79807240Y60259438D01*
X79654081Y60160883D01*
X79551332Y60010505D01*
X79546652Y59987396D01*
X79324000Y59654173D01*
X79104450Y59982754D01*
X79101438Y59998760D01*
X79002883Y60151919D01*
X78852505Y60254668D01*
X78686884Y60288207D01*
X78683220Y60290655D01*
X78224000Y60382000D01*
X77764780Y60290655D01*
X77761501Y60288464D01*
X77607240Y60259438D01*
X77454081Y60160883D01*
X77351332Y60010505D01*
X77350287Y60005343D01*
X76932944Y59588000D01*
X74752692Y59588000D01*
X74464843Y59588251D01*
X74464236Y59588000D01*
X72608005Y59588000D01*
X72608000Y59588001D01*
X72145172Y59495938D01*
X72053109Y59477625D01*
X71734137Y59264495D01*
X71625640Y59192000D01*
X64217998Y59192000D01*
X63663107Y59081625D01*
X63192693Y58767305D01*
X59482388Y55057000D01*
X58534000Y55057000D01*
X57979109Y54946625D01*
X57770145Y54807000D01*
X37636000Y54807000D01*
X37636000Y57233000D01*
X41643000Y57233000D01*
X42102220Y57324345D01*
X42491528Y57584472D01*
X42751655Y57973780D01*
X42843000Y58433000D01*
X42751655Y58892220D01*
X42491528Y59281528D01*
X42102220Y59541655D01*
X41643000Y59633000D01*
X37636000Y59633000D01*
X37636000Y60966843D01*
X53997749Y60966843D01*
X54218033Y60433714D01*
X54625569Y60025467D01*
X55158312Y59804252D01*
X55735157Y59803749D01*
X56268286Y60024033D01*
X56676533Y60431569D01*
X56890575Y60947039D01*
X62787732Y60947039D01*
X63023208Y60377143D01*
X63458849Y59940740D01*
X64028333Y59704270D01*
X64644961Y59703732D01*
X65214857Y59939208D01*
X65651260Y60374849D01*
X65887730Y60944333D01*
X65888268Y61560961D01*
X65652792Y62130857D01*
X65217151Y62567260D01*
X64647667Y62803730D01*
X64031039Y62804268D01*
X63461143Y62568792D01*
X63024740Y62133151D01*
X62788270Y61563667D01*
X62787732Y60947039D01*
X56890575Y60947039D01*
X56897748Y60964312D01*
X56898251Y61541157D01*
X56677967Y62074286D01*
X56270431Y62482533D01*
X55737688Y62703748D01*
X55160843Y62704251D01*
X54627714Y62483967D01*
X54219467Y62076431D01*
X53998252Y61543688D01*
X53997749Y60966843D01*
X37636000Y60966843D01*
X37636000Y65966843D01*
X53997749Y65966843D01*
X54218033Y65433714D01*
X54625569Y65025467D01*
X55158312Y64804252D01*
X55735157Y64803749D01*
X56268286Y65024033D01*
X56676533Y65431569D01*
X56890575Y65947039D01*
X62787732Y65947039D01*
X63023208Y65377143D01*
X63458849Y64940740D01*
X64028333Y64704270D01*
X64644961Y64703732D01*
X65214857Y64939208D01*
X65651260Y65374849D01*
X65887730Y65944333D01*
X65888268Y66560961D01*
X65652792Y67130857D01*
X65217151Y67567260D01*
X64647667Y67803730D01*
X64031039Y67804268D01*
X63461143Y67568792D01*
X63024740Y67133151D01*
X62788270Y66563667D01*
X62787732Y65947039D01*
X56890575Y65947039D01*
X56897748Y65964312D01*
X56898251Y66541157D01*
X56677967Y67074286D01*
X56270431Y67482533D01*
X55737688Y67703748D01*
X55160843Y67704251D01*
X54627714Y67483967D01*
X54219467Y67076431D01*
X53998252Y66543688D01*
X53997749Y65966843D01*
X37636000Y65966843D01*
X37636000Y68917000D01*
X41643000Y68917000D01*
X42102220Y69008345D01*
X42491528Y69268472D01*
X42751655Y69657780D01*
X42843000Y70117000D01*
X42751655Y70576220D01*
X42736408Y70599039D01*
X53897732Y70599039D01*
X54133208Y70029143D01*
X54568849Y69592740D01*
X55138333Y69356270D01*
X55754961Y69355732D01*
X56324857Y69591208D01*
X56761260Y70026849D01*
X56997730Y70596333D01*
X56997749Y70618843D01*
X62887749Y70618843D01*
X63108033Y70085714D01*
X63515569Y69677467D01*
X64048312Y69456252D01*
X64625157Y69455749D01*
X65158286Y69676033D01*
X65566533Y70083569D01*
X65787748Y70616312D01*
X65788251Y71193157D01*
X65567967Y71726286D01*
X65160431Y72134533D01*
X64627688Y72355748D01*
X64050843Y72356251D01*
X63517714Y72135967D01*
X63109467Y71728431D01*
X62888252Y71195688D01*
X62887749Y70618843D01*
X56997749Y70618843D01*
X56998268Y71212961D01*
X56762792Y71782857D01*
X56327151Y72219260D01*
X55757667Y72455730D01*
X55141039Y72456268D01*
X54571143Y72220792D01*
X54134740Y71785151D01*
X53898270Y71215667D01*
X53897732Y70599039D01*
X42736408Y70599039D01*
X42491528Y70965528D01*
X42102220Y71225655D01*
X41643000Y71317000D01*
X37636000Y71317000D01*
X37636000Y75599039D01*
X53897732Y75599039D01*
X54133208Y75029143D01*
X54568849Y74592740D01*
X55138333Y74356270D01*
X55754961Y74355732D01*
X56324857Y74591208D01*
X56761260Y75026849D01*
X56997730Y75596333D01*
X56997749Y75618843D01*
X62887749Y75618843D01*
X63108033Y75085714D01*
X63515569Y74677467D01*
X64048312Y74456252D01*
X64625157Y74455749D01*
X65158286Y74676033D01*
X65566533Y75083569D01*
X65787748Y75616312D01*
X65788251Y76193157D01*
X65567967Y76726286D01*
X65160431Y77134533D01*
X64627688Y77355748D01*
X64050843Y77356251D01*
X63517714Y77135967D01*
X63109467Y76728431D01*
X62888252Y76195688D01*
X62887749Y75618843D01*
X56997749Y75618843D01*
X56998268Y76212961D01*
X56762792Y76782857D01*
X56327151Y77219260D01*
X55757667Y77455730D01*
X55141039Y77456268D01*
X54571143Y77220792D01*
X54134740Y76785151D01*
X53898270Y76215667D01*
X53897732Y75599039D01*
X37636000Y75599039D01*
X37636000Y80270843D01*
X53997749Y80270843D01*
X54218033Y79737714D01*
X54625569Y79329467D01*
X55158312Y79108252D01*
X55735157Y79107749D01*
X56268286Y79328033D01*
X56676533Y79735569D01*
X56890575Y80251039D01*
X62787732Y80251039D01*
X63023208Y79681143D01*
X63458849Y79244740D01*
X64028333Y79008270D01*
X64644961Y79007732D01*
X65214857Y79243208D01*
X65651260Y79678849D01*
X65887730Y80248333D01*
X65888268Y80864961D01*
X65652792Y81434857D01*
X65217151Y81871260D01*
X64647667Y82107730D01*
X64031039Y82108268D01*
X63461143Y81872792D01*
X63024740Y81437151D01*
X62788270Y80867667D01*
X62787732Y80251039D01*
X56890575Y80251039D01*
X56897748Y80268312D01*
X56898251Y80845157D01*
X56677967Y81378286D01*
X56270431Y81786533D01*
X55737688Y82007748D01*
X55160843Y82008251D01*
X54627714Y81787967D01*
X54219467Y81380431D01*
X53998252Y80847688D01*
X53997749Y80270843D01*
X37636000Y80270843D01*
X37636000Y80601000D01*
X41643000Y80601000D01*
X42102220Y80692345D01*
X42491528Y80952472D01*
X42751655Y81341780D01*
X42843000Y81801000D01*
X42751655Y82260220D01*
X42491528Y82649528D01*
X42102220Y82909655D01*
X41643000Y83001000D01*
X37636000Y83001000D01*
X37636000Y85270843D01*
X53997749Y85270843D01*
X54218033Y84737714D01*
X54625569Y84329467D01*
X55158312Y84108252D01*
X55735157Y84107749D01*
X56268286Y84328033D01*
X56676533Y84735569D01*
X56890575Y85251039D01*
X62787732Y85251039D01*
X63023208Y84681143D01*
X63458849Y84244740D01*
X64028333Y84008270D01*
X64644961Y84007732D01*
X65214857Y84243208D01*
X65651260Y84678849D01*
X65887730Y85248333D01*
X65888268Y85864961D01*
X65652792Y86434857D01*
X65217151Y86871260D01*
X64647667Y87107730D01*
X64031039Y87108268D01*
X63461143Y86872792D01*
X63024740Y86437151D01*
X62788270Y85867667D01*
X62787732Y85251039D01*
X56890575Y85251039D01*
X56897748Y85268312D01*
X56898251Y85845157D01*
X56677967Y86378286D01*
X56270431Y86786533D01*
X55737688Y87007748D01*
X55160843Y87008251D01*
X54627714Y86787967D01*
X54219467Y86380431D01*
X53998252Y85847688D01*
X53997749Y85270843D01*
X37636000Y85270843D01*
X37636000Y89903039D01*
X53897732Y89903039D01*
X54133208Y89333143D01*
X54568849Y88896740D01*
X55138333Y88660270D01*
X55754961Y88659732D01*
X56324857Y88895208D01*
X56761260Y89330849D01*
X56997730Y89900333D01*
X56997749Y89922843D01*
X62887749Y89922843D01*
X63108033Y89389714D01*
X63515569Y88981467D01*
X64048312Y88760252D01*
X64625157Y88759749D01*
X65158286Y88980033D01*
X65566533Y89387569D01*
X65787748Y89920312D01*
X65788251Y90497157D01*
X65567967Y91030286D01*
X65160431Y91438533D01*
X64627688Y91659748D01*
X64050843Y91660251D01*
X63517714Y91439967D01*
X63109467Y91032431D01*
X62888252Y90499688D01*
X62887749Y89922843D01*
X56997749Y89922843D01*
X56998268Y90516961D01*
X56762792Y91086857D01*
X56327151Y91523260D01*
X55757667Y91759730D01*
X55141039Y91760268D01*
X54571143Y91524792D01*
X54134740Y91089151D01*
X53898270Y90519667D01*
X53897732Y89903039D01*
X37636000Y89903039D01*
X37636000Y92285000D01*
X41643000Y92285000D01*
X42102220Y92376345D01*
X42491528Y92636472D01*
X42751655Y93025780D01*
X42843000Y93485000D01*
X42751655Y93944220D01*
X42491528Y94333528D01*
X42102220Y94593655D01*
X41643000Y94685000D01*
X36206000Y94685000D01*
X36049228Y94653816D01*
X35516000Y94653816D01*
X35349240Y94622438D01*
X35196081Y94523883D01*
X35093332Y94373505D01*
X35057184Y94195000D01*
X35057184Y93953640D01*
X34957345Y93804220D01*
X34866000Y93345000D01*
X34957345Y92885780D01*
X35057184Y92736360D01*
X35057184Y92495000D01*
X35088562Y92328240D01*
X35187117Y92175081D01*
X35236000Y92141681D01*
X35236000Y91756522D01*
X35230240Y91755438D01*
X35077081Y91656883D01*
X34974332Y91506505D01*
X34969652Y91483396D01*
X34747000Y91150173D01*
X34527450Y91478754D01*
X34524438Y91494760D01*
X34425883Y91647919D01*
X34275505Y91750668D01*
X34109884Y91784207D01*
X34106220Y91786655D01*
X34105500Y91786798D01*
X34105500Y93105500D01*
X34014155Y93564720D01*
X33754028Y93954028D01*
X33674816Y94033240D01*
X33674816Y94195000D01*
X33643438Y94361760D01*
X33544883Y94514919D01*
X33394505Y94617668D01*
X33216000Y94653816D01*
X32116000Y94653816D01*
X31949240Y94622438D01*
X31796081Y94523883D01*
X31693332Y94373505D01*
X31657184Y94195000D01*
X31657184Y93953640D01*
X31557345Y93804220D01*
X31466000Y93345000D01*
X31557345Y92885780D01*
X31657184Y92736360D01*
X31657184Y92495000D01*
X31688562Y92328240D01*
X31705500Y92301918D01*
X31705500Y89097000D01*
X31102000Y89097000D01*
X30642780Y89005655D01*
X30253472Y88745528D01*
X29993345Y88356220D01*
X29902000Y87897000D01*
X1150000Y87897000D01*
X1150000Y94613823D01*
X3049662Y94613823D01*
X3345906Y93896857D01*
X3893971Y93347834D01*
X4610419Y93050339D01*
X5386177Y93049662D01*
X6103143Y93345906D01*
X6652166Y93893971D01*
X6949661Y94610419D01*
X6949916Y94903039D01*
X53897732Y94903039D01*
X54133208Y94333143D01*
X54568849Y93896740D01*
X55138333Y93660270D01*
X55754961Y93659732D01*
X56324857Y93895208D01*
X56761260Y94330849D01*
X56997730Y94900333D01*
X56997749Y94922843D01*
X62887749Y94922843D01*
X63108033Y94389714D01*
X63515569Y93981467D01*
X64048312Y93760252D01*
X64625157Y93759749D01*
X65158286Y93980033D01*
X65566533Y94387569D01*
X65787748Y94920312D01*
X65788251Y95497157D01*
X65567967Y96030286D01*
X65160431Y96438533D01*
X64627688Y96659748D01*
X64050843Y96660251D01*
X63517714Y96439967D01*
X63109467Y96032431D01*
X62888252Y95499688D01*
X62887749Y94922843D01*
X56997749Y94922843D01*
X56998268Y95516961D01*
X56762792Y96086857D01*
X56327151Y96523260D01*
X55757667Y96759730D01*
X55141039Y96760268D01*
X54571143Y96524792D01*
X54134740Y96089151D01*
X53898270Y95519667D01*
X53897732Y94903039D01*
X6949916Y94903039D01*
X6950338Y95386177D01*
X6654094Y96103143D01*
X6106029Y96652166D01*
X5389581Y96949661D01*
X4613823Y96950338D01*
X3896857Y96654094D01*
X3347834Y96106029D01*
X3050339Y95389581D01*
X3049662Y94613823D01*
X1150000Y94613823D01*
X1150000Y98850000D01*
X80190000Y98850000D01*
X80190000Y95230132D01*
X80190000Y95230132D01*
G37*
X80190000Y95230132D02*
X80092450Y95230217D01*
X79632857Y95040316D01*
X79280919Y94688993D01*
X79090217Y94229731D01*
X79089783Y93732450D01*
X79279684Y93272857D01*
X79631007Y92920919D01*
X80090269Y92730217D01*
X80190000Y92730130D01*
X80190000Y87610132D01*
X80092450Y87610217D01*
X79632857Y87420316D01*
X79280919Y87068993D01*
X79090217Y86609731D01*
X79089783Y86112450D01*
X79279684Y85652857D01*
X79631007Y85300919D01*
X80090269Y85110217D01*
X80190000Y85110130D01*
X80190000Y79990132D01*
X80092450Y79990217D01*
X79632857Y79800316D01*
X79280919Y79448993D01*
X79090217Y78989731D01*
X79089783Y78492450D01*
X79279684Y78032857D01*
X79631007Y77680919D01*
X80090269Y77490217D01*
X80190000Y77490130D01*
X80190000Y72370132D01*
X80092450Y72370217D01*
X79632857Y72180316D01*
X79280919Y71828993D01*
X79090217Y71369731D01*
X79089783Y70872450D01*
X79279684Y70412857D01*
X79631007Y70060919D01*
X80090269Y69870217D01*
X80190000Y69870130D01*
X80190000Y60960000D01*
X80200258Y60905481D01*
X80232479Y60855409D01*
X80281642Y60821818D01*
X80340000Y60810000D01*
X81610000Y60810000D01*
X81664519Y60820258D01*
X81714591Y60852479D01*
X81748182Y60901642D01*
X81760000Y60960000D01*
X81760000Y70114517D01*
X82021596Y70114517D01*
X82092498Y69859161D01*
X82634946Y69653772D01*
X83214701Y69671603D01*
X83667502Y69859161D01*
X83738404Y70114517D01*
X82880000Y70972922D01*
X82021596Y70114517D01*
X81760000Y70114517D01*
X81760000Y70293393D01*
X81874517Y70261596D01*
X82732922Y71120000D01*
X83027078Y71120000D01*
X83885483Y70261596D01*
X84140839Y70332498D01*
X84346228Y70874946D01*
X84328397Y71454701D01*
X84140839Y71907502D01*
X83885483Y71978404D01*
X83027078Y71120000D01*
X82732922Y71120000D01*
X81874517Y71978404D01*
X81760000Y71946607D01*
X81760000Y72125483D01*
X82021596Y72125483D01*
X82880000Y71267078D01*
X83738404Y72125483D01*
X83667502Y72380839D01*
X83125054Y72586228D01*
X82545299Y72568397D01*
X82092498Y72380839D01*
X82021596Y72125483D01*
X81760000Y72125483D01*
X81760000Y77734517D01*
X82021596Y77734517D01*
X82092498Y77479161D01*
X82634946Y77273772D01*
X83214701Y77291603D01*
X83667502Y77479161D01*
X83738404Y77734517D01*
X82880000Y78592922D01*
X82021596Y77734517D01*
X81760000Y77734517D01*
X81760000Y77913393D01*
X81874517Y77881596D01*
X82732922Y78740000D01*
X83027078Y78740000D01*
X83885483Y77881596D01*
X84140839Y77952498D01*
X84346228Y78494946D01*
X84328397Y79074701D01*
X84140839Y79527502D01*
X83885483Y79598404D01*
X83027078Y78740000D01*
X82732922Y78740000D01*
X81874517Y79598404D01*
X81760000Y79566607D01*
X81760000Y79745483D01*
X82021596Y79745483D01*
X82880000Y78887078D01*
X83738404Y79745483D01*
X83667502Y80000839D01*
X83125054Y80206228D01*
X82545299Y80188397D01*
X82092498Y80000839D01*
X82021596Y79745483D01*
X81760000Y79745483D01*
X81760000Y85354517D01*
X82021596Y85354517D01*
X82092498Y85099161D01*
X82634946Y84893772D01*
X83214701Y84911603D01*
X83667502Y85099161D01*
X83738404Y85354517D01*
X82880000Y86212922D01*
X82021596Y85354517D01*
X81760000Y85354517D01*
X81760000Y85533393D01*
X81874517Y85501596D01*
X82732922Y86360000D01*
X83027078Y86360000D01*
X83885483Y85501596D01*
X84140839Y85572498D01*
X84346228Y86114946D01*
X84328397Y86694701D01*
X84140839Y87147502D01*
X83885483Y87218404D01*
X83027078Y86360000D01*
X82732922Y86360000D01*
X81874517Y87218404D01*
X81760000Y87186607D01*
X81760000Y87365483D01*
X82021596Y87365483D01*
X82880000Y86507078D01*
X83738404Y87365483D01*
X83667502Y87620839D01*
X83125054Y87826228D01*
X82545299Y87808397D01*
X82092498Y87620839D01*
X82021596Y87365483D01*
X81760000Y87365483D01*
X81760000Y92974517D01*
X82021596Y92974517D01*
X82092498Y92719161D01*
X82634946Y92513772D01*
X83214701Y92531603D01*
X83667502Y92719161D01*
X83738404Y92974517D01*
X82880000Y93832922D01*
X82021596Y92974517D01*
X81760000Y92974517D01*
X81760000Y93153393D01*
X81874517Y93121596D01*
X82732922Y93980000D01*
X83027078Y93980000D01*
X83885483Y93121596D01*
X84140839Y93192498D01*
X84346228Y93734946D01*
X84328397Y94314701D01*
X84204496Y94613823D01*
X93049662Y94613823D01*
X93345906Y93896857D01*
X93893971Y93347834D01*
X94610419Y93050339D01*
X95386177Y93049662D01*
X96103143Y93345906D01*
X96652166Y93893971D01*
X96949661Y94610419D01*
X96950338Y95386177D01*
X96654094Y96103143D01*
X96106029Y96652166D01*
X95389581Y96949661D01*
X94613823Y96950338D01*
X93896857Y96654094D01*
X93347834Y96106029D01*
X93050339Y95389581D01*
X93049662Y94613823D01*
X84204496Y94613823D01*
X84140839Y94767502D01*
X83885483Y94838404D01*
X83027078Y93980000D01*
X82732922Y93980000D01*
X81874517Y94838404D01*
X81760000Y94806607D01*
X81760000Y94985483D01*
X82021596Y94985483D01*
X82880000Y94127078D01*
X83738404Y94985483D01*
X83667502Y95240839D01*
X83125054Y95446228D01*
X82545299Y95428397D01*
X82092498Y95240839D01*
X82021596Y94985483D01*
X81760000Y94985483D01*
X81760000Y98850000D01*
X98850000Y98850000D01*
X98850000Y1150000D01*
X81760000Y1150000D01*
X81760000Y4613823D01*
X93049662Y4613823D01*
X93345906Y3896857D01*
X93893971Y3347834D01*
X94610419Y3050339D01*
X95386177Y3049662D01*
X96103143Y3345906D01*
X96652166Y3893971D01*
X96949661Y4610419D01*
X96950338Y5386177D01*
X96654094Y6103143D01*
X96106029Y6652166D01*
X95389581Y6949661D01*
X94613823Y6950338D01*
X93896857Y6654094D01*
X93347834Y6106029D01*
X93050339Y5389581D01*
X93049662Y4613823D01*
X81760000Y4613823D01*
X81760000Y6614517D01*
X82021596Y6614517D01*
X82092498Y6359161D01*
X82634946Y6153772D01*
X83214701Y6171603D01*
X83667502Y6359161D01*
X83738404Y6614517D01*
X82880000Y7472922D01*
X82021596Y6614517D01*
X81760000Y6614517D01*
X81760000Y6793393D01*
X81874517Y6761596D01*
X82732922Y7620000D01*
X83027078Y7620000D01*
X83885483Y6761596D01*
X84140839Y6832498D01*
X84346228Y7374946D01*
X84328397Y7954701D01*
X84140839Y8407502D01*
X83885483Y8478404D01*
X83027078Y7620000D01*
X82732922Y7620000D01*
X81874517Y8478404D01*
X81760000Y8446607D01*
X81760000Y8625483D01*
X82021596Y8625483D01*
X82880000Y7767078D01*
X83738404Y8625483D01*
X83667502Y8880839D01*
X83125054Y9086228D01*
X82545299Y9068397D01*
X82092498Y8880839D01*
X82021596Y8625483D01*
X81760000Y8625483D01*
X81760000Y14234517D01*
X82021596Y14234517D01*
X82092498Y13979161D01*
X82634946Y13773772D01*
X83214701Y13791603D01*
X83667502Y13979161D01*
X83738404Y14234517D01*
X82880000Y15092922D01*
X82021596Y14234517D01*
X81760000Y14234517D01*
X81760000Y14413393D01*
X81874517Y14381596D01*
X82732922Y15240000D01*
X83027078Y15240000D01*
X83885483Y14381596D01*
X84140839Y14452498D01*
X84346228Y14994946D01*
X84328397Y15574701D01*
X84140839Y16027502D01*
X83885483Y16098404D01*
X83027078Y15240000D01*
X82732922Y15240000D01*
X81874517Y16098404D01*
X81760000Y16066607D01*
X81760000Y16245483D01*
X82021596Y16245483D01*
X82880000Y15387078D01*
X83738404Y16245483D01*
X83667502Y16500839D01*
X83125054Y16706228D01*
X82545299Y16688397D01*
X82092498Y16500839D01*
X82021596Y16245483D01*
X81760000Y16245483D01*
X81760000Y21854517D01*
X82021596Y21854517D01*
X82092498Y21599161D01*
X82634946Y21393772D01*
X83214701Y21411603D01*
X83667502Y21599161D01*
X83738404Y21854517D01*
X82880000Y22712922D01*
X82021596Y21854517D01*
X81760000Y21854517D01*
X81760000Y22033393D01*
X81874517Y22001596D01*
X82732922Y22860000D01*
X83027078Y22860000D01*
X83885483Y22001596D01*
X84140839Y22072498D01*
X84346228Y22614946D01*
X84328397Y23194701D01*
X84140839Y23647502D01*
X83885483Y23718404D01*
X83027078Y22860000D01*
X82732922Y22860000D01*
X81874517Y23718404D01*
X81760000Y23686607D01*
X81760000Y23865483D01*
X82021596Y23865483D01*
X82880000Y23007078D01*
X83738404Y23865483D01*
X83667502Y24120839D01*
X83125054Y24326228D01*
X82545299Y24308397D01*
X82092498Y24120839D01*
X82021596Y23865483D01*
X81760000Y23865483D01*
X81760000Y29474517D01*
X82021596Y29474517D01*
X82092498Y29219161D01*
X82634946Y29013772D01*
X83214701Y29031603D01*
X83667502Y29219161D01*
X83738404Y29474517D01*
X82880000Y30332922D01*
X82021596Y29474517D01*
X81760000Y29474517D01*
X81760000Y29653393D01*
X81874517Y29621596D01*
X82732922Y30480000D01*
X83027078Y30480000D01*
X83885483Y29621596D01*
X84140839Y29692498D01*
X84346228Y30234946D01*
X84328397Y30814701D01*
X84140839Y31267502D01*
X83885483Y31338404D01*
X83027078Y30480000D01*
X82732922Y30480000D01*
X81874517Y31338404D01*
X81760000Y31306607D01*
X81760000Y31485483D01*
X82021596Y31485483D01*
X82880000Y30627078D01*
X83738404Y31485483D01*
X83667502Y31740839D01*
X83125054Y31946228D01*
X82545299Y31928397D01*
X82092498Y31740839D01*
X82021596Y31485483D01*
X81760000Y31485483D01*
X81760000Y39370000D01*
X81749742Y39424519D01*
X81717521Y39474591D01*
X81668358Y39508182D01*
X81610000Y39520000D01*
X80340000Y39520000D01*
X80285481Y39509742D01*
X80235409Y39477521D01*
X80201818Y39428358D01*
X80190000Y39370000D01*
X80190000Y31730132D01*
X80092450Y31730217D01*
X79632857Y31540316D01*
X79280919Y31188993D01*
X79090217Y30729731D01*
X79089783Y30232450D01*
X79279684Y29772857D01*
X79631007Y29420919D01*
X80090269Y29230217D01*
X80190000Y29230130D01*
X80190000Y24110132D01*
X80092450Y24110217D01*
X79632857Y23920316D01*
X79280919Y23568993D01*
X79090217Y23109731D01*
X79089783Y22612450D01*
X79279684Y22152857D01*
X79631007Y21800919D01*
X80090269Y21610217D01*
X80190000Y21610130D01*
X80190000Y16490132D01*
X80092450Y16490217D01*
X79632857Y16300316D01*
X79280919Y15948993D01*
X79090217Y15489731D01*
X79089783Y14992450D01*
X79279684Y14532857D01*
X79631007Y14180919D01*
X80090269Y13990217D01*
X80190000Y13990130D01*
X80190000Y8870132D01*
X80092450Y8870217D01*
X79632857Y8680316D01*
X79280919Y8328993D01*
X79090217Y7869731D01*
X79089783Y7372450D01*
X79279684Y6912857D01*
X79631007Y6560919D01*
X80090269Y6370217D01*
X80190000Y6370130D01*
X80190000Y1150000D01*
X1150000Y1150000D01*
X1150000Y4613823D01*
X3049662Y4613823D01*
X3345906Y3896857D01*
X3893971Y3347834D01*
X4610419Y3050339D01*
X5386177Y3049662D01*
X6103143Y3345906D01*
X6652166Y3893971D01*
X6949661Y4610419D01*
X6950338Y5386177D01*
X6654094Y6103143D01*
X6106029Y6652166D01*
X5389581Y6949661D01*
X4613823Y6950338D01*
X3896857Y6654094D01*
X3347834Y6106029D01*
X3050339Y5389581D01*
X3049662Y4613823D01*
X1150000Y4613823D01*
X1150000Y40591000D01*
X6246000Y40591000D01*
X6246000Y14732000D01*
X6356375Y14177109D01*
X6670695Y13706695D01*
X7141109Y13392375D01*
X7696000Y13282000D01*
X14180661Y13282000D01*
X14427000Y13233000D01*
X17553044Y13233000D01*
X17729000Y13198000D01*
X18283890Y13308375D01*
X18754304Y13622696D01*
X19068625Y14093110D01*
X19179000Y14648000D01*
X19068625Y15202891D01*
X18754304Y15673305D01*
X18719305Y15708305D01*
X18609881Y15781420D01*
X18751727Y15840175D01*
X18936826Y16025273D01*
X19037000Y16267116D01*
X19037000Y16579500D01*
X18872500Y16744000D01*
X17833000Y16744000D01*
X17833000Y16724000D01*
X17625000Y16724000D01*
X17625000Y16744000D01*
X16585500Y16744000D01*
X16421000Y16579500D01*
X16421000Y16267116D01*
X16476552Y16133000D01*
X14624339Y16133000D01*
X14378000Y16182000D01*
X10871303Y16182000D01*
X10943143Y16211684D01*
X11295081Y16563007D01*
X11485783Y17022269D01*
X11486217Y17519550D01*
X11364346Y17814500D01*
X12919000Y17814500D01*
X12919000Y17402116D01*
X13019174Y17160273D01*
X13204273Y16975175D01*
X13446115Y16875000D01*
X14158500Y16875000D01*
X14323000Y17039500D01*
X14323000Y17979000D01*
X14531000Y17979000D01*
X14531000Y17039500D01*
X14695500Y16875000D01*
X15407885Y16875000D01*
X15649727Y16975175D01*
X15834826Y17160273D01*
X15935000Y17402116D01*
X15935000Y17428884D01*
X16421000Y17428884D01*
X16421000Y17116500D01*
X16585500Y16952000D01*
X17625000Y16952000D01*
X17625000Y17791500D01*
X17833000Y17791500D01*
X17833000Y16952000D01*
X18872500Y16952000D01*
X19037000Y17116500D01*
X19037000Y17428884D01*
X18936826Y17670727D01*
X18751727Y17855825D01*
X18509885Y17956000D01*
X17997500Y17956000D01*
X17833000Y17791500D01*
X17625000Y17791500D01*
X17460500Y17956000D01*
X16948115Y17956000D01*
X16706273Y17855825D01*
X16521174Y17670727D01*
X16421000Y17428884D01*
X15935000Y17428884D01*
X15935000Y17814500D01*
X15770500Y17979000D01*
X14531000Y17979000D01*
X14323000Y17979000D01*
X13083500Y17979000D01*
X12919000Y17814500D01*
X11364346Y17814500D01*
X11296316Y17979143D01*
X10944993Y18331081D01*
X10485731Y18521783D01*
X9988450Y18522217D01*
X9528857Y18332316D01*
X9176919Y17980993D01*
X9146000Y17906532D01*
X9146000Y19176697D01*
X9175684Y19104857D01*
X9527007Y18752919D01*
X9986269Y18562217D01*
X10483550Y18561783D01*
X10943143Y18751684D01*
X10955364Y18763884D01*
X12919000Y18763884D01*
X12919000Y18351500D01*
X13083500Y18187000D01*
X14323000Y18187000D01*
X14323000Y19126500D01*
X14531000Y19126500D01*
X14531000Y18187000D01*
X15770500Y18187000D01*
X15935000Y18351500D01*
X15935000Y18763884D01*
X15834826Y19005727D01*
X15649727Y19190825D01*
X15407885Y19291000D01*
X14695500Y19291000D01*
X14531000Y19126500D01*
X14323000Y19126500D01*
X14158500Y19291000D01*
X13446115Y19291000D01*
X13204273Y19190825D01*
X13019174Y19005727D01*
X12919000Y18763884D01*
X10955364Y18763884D01*
X11295081Y19103007D01*
X11485783Y19562269D01*
X11486217Y20059550D01*
X11296316Y20519143D01*
X10944993Y20871081D01*
X10485731Y21061783D01*
X9988450Y21062217D01*
X9528857Y20872316D01*
X9176919Y20520993D01*
X9146000Y20446532D01*
X9146000Y21716697D01*
X9175684Y21644857D01*
X9527007Y21292919D01*
X9986269Y21102217D01*
X10483550Y21101783D01*
X10943143Y21291684D01*
X11295081Y21643007D01*
X11485783Y22102269D01*
X11486217Y22599550D01*
X11296316Y23059143D01*
X10944993Y23411081D01*
X10485731Y23601783D01*
X9988450Y23602217D01*
X9528857Y23412316D01*
X9176919Y23060993D01*
X9146000Y22986532D01*
X9146000Y24256697D01*
X9175684Y24184857D01*
X9527007Y23832919D01*
X9986269Y23642217D01*
X10483550Y23641783D01*
X10943143Y23831684D01*
X11295081Y24183007D01*
X11485783Y24642269D01*
X11486217Y25139550D01*
X11296316Y25599143D01*
X10944993Y25951081D01*
X10485731Y26141783D01*
X9988450Y26142217D01*
X9528857Y25952316D01*
X9176919Y25600993D01*
X9146000Y25526532D01*
X9146000Y26796697D01*
X9175684Y26724857D01*
X9527007Y26372919D01*
X9986269Y26182217D01*
X10483550Y26181783D01*
X10943143Y26371684D01*
X11295081Y26723007D01*
X11485783Y27182269D01*
X11486217Y27679550D01*
X11296316Y28139143D01*
X10944993Y28491081D01*
X10485731Y28681783D01*
X9988450Y28682217D01*
X9528857Y28492316D01*
X9176919Y28140993D01*
X9146000Y28066532D01*
X9146000Y29336697D01*
X9175684Y29264857D01*
X9527007Y28912919D01*
X9986269Y28722217D01*
X10483550Y28721783D01*
X10943143Y28911684D01*
X11295081Y29263007D01*
X11485783Y29722269D01*
X11486217Y30219550D01*
X11296316Y30679143D01*
X10944993Y31031081D01*
X10485731Y31221783D01*
X9988450Y31222217D01*
X9528857Y31032316D01*
X9176919Y30680993D01*
X9146000Y30606532D01*
X9146000Y31876697D01*
X9175684Y31804857D01*
X9527007Y31452919D01*
X9986269Y31262217D01*
X10483550Y31261783D01*
X10943143Y31451684D01*
X11295081Y31803007D01*
X11485783Y32262269D01*
X11486217Y32759550D01*
X11296316Y33219143D01*
X10944993Y33571081D01*
X10485731Y33761783D01*
X9988450Y33762217D01*
X9528857Y33572316D01*
X9176919Y33220993D01*
X9146000Y33146532D01*
X9146000Y34416697D01*
X9175684Y34344857D01*
X9527007Y33992919D01*
X9986269Y33802217D01*
X10483550Y33801783D01*
X10943143Y33991684D01*
X11295081Y34343007D01*
X11485783Y34802269D01*
X11486217Y35299550D01*
X11296316Y35759143D01*
X10944993Y36111081D01*
X10665017Y36227337D01*
X10790891Y36252375D01*
X11261305Y36566695D01*
X11575625Y37037109D01*
X11686000Y37592000D01*
X11575625Y38146891D01*
X11261305Y38617305D01*
X10790891Y38931625D01*
X10236000Y39042000D01*
X9146000Y39042000D01*
X9146000Y39106000D01*
X10617000Y39106000D01*
X11171891Y39216375D01*
X11642305Y39530695D01*
X11956625Y40001109D01*
X12067000Y40556000D01*
X11956625Y41110891D01*
X11642305Y41581305D01*
X11487151Y41684975D01*
X11639727Y41748175D01*
X11824826Y41933273D01*
X11925000Y42175116D01*
X11925000Y42487500D01*
X11760500Y42652000D01*
X10721000Y42652000D01*
X10721000Y42632000D01*
X10513000Y42632000D01*
X10513000Y42652000D01*
X9473500Y42652000D01*
X9309000Y42487500D01*
X9309000Y42175116D01*
X9379050Y42006000D01*
X7871956Y42006000D01*
X7696000Y42041000D01*
X7141109Y41930625D01*
X6670695Y41616305D01*
X6608142Y41522688D01*
X6526081Y41469883D01*
X6423332Y41319505D01*
X6402003Y41214178D01*
X6356375Y41145891D01*
X6246000Y40591000D01*
X1150000Y40591000D01*
X1150000Y43722500D01*
X6188000Y43722500D01*
X6188000Y43310116D01*
X6288174Y43068273D01*
X6473273Y42883175D01*
X6715115Y42783000D01*
X7427500Y42783000D01*
X7592000Y42947500D01*
X7592000Y43887000D01*
X7800000Y43887000D01*
X7800000Y42947500D01*
X7964500Y42783000D01*
X8676885Y42783000D01*
X8918727Y42883175D01*
X9103826Y43068273D01*
X9204000Y43310116D01*
X9204000Y43336884D01*
X9309000Y43336884D01*
X9309000Y43024500D01*
X9473500Y42860000D01*
X10513000Y42860000D01*
X10513000Y43699500D01*
X10721000Y43699500D01*
X10721000Y42860000D01*
X11760500Y42860000D01*
X11925000Y43024500D01*
X11925000Y43336884D01*
X11824826Y43578727D01*
X11639727Y43763825D01*
X11397885Y43864000D01*
X10885500Y43864000D01*
X10721000Y43699500D01*
X10513000Y43699500D01*
X10348500Y43864000D01*
X9836115Y43864000D01*
X9594273Y43763825D01*
X9409174Y43578727D01*
X9309000Y43336884D01*
X9204000Y43336884D01*
X9204000Y43722500D01*
X9039500Y43887000D01*
X7800000Y43887000D01*
X7592000Y43887000D01*
X6352500Y43887000D01*
X6188000Y43722500D01*
X1150000Y43722500D01*
X1150000Y44671884D01*
X6188000Y44671884D01*
X6188000Y44259500D01*
X6352500Y44095000D01*
X7592000Y44095000D01*
X7592000Y45034500D01*
X7800000Y45034500D01*
X7800000Y44095000D01*
X9039500Y44095000D01*
X9204000Y44259500D01*
X9204000Y44671884D01*
X9103826Y44913727D01*
X8918727Y45098825D01*
X8676885Y45199000D01*
X7964500Y45199000D01*
X7800000Y45034500D01*
X7592000Y45034500D01*
X7427500Y45199000D01*
X6715115Y45199000D01*
X6473273Y45098825D01*
X6288174Y44913727D01*
X6188000Y44671884D01*
X1150000Y44671884D01*
X1150000Y56324500D01*
X6188000Y56324500D01*
X6188000Y55912116D01*
X6288174Y55670273D01*
X6473273Y55485175D01*
X6715115Y55385000D01*
X7427500Y55385000D01*
X7592000Y55549500D01*
X7592000Y56489000D01*
X7800000Y56489000D01*
X7800000Y55549500D01*
X7964500Y55385000D01*
X8676885Y55385000D01*
X8918727Y55485175D01*
X9103826Y55670273D01*
X9204000Y55912116D01*
X9204000Y56324500D01*
X9039500Y56489000D01*
X7800000Y56489000D01*
X7592000Y56489000D01*
X6352500Y56489000D01*
X6188000Y56324500D01*
X1150000Y56324500D01*
X1150000Y57273884D01*
X6188000Y57273884D01*
X6188000Y56861500D01*
X6352500Y56697000D01*
X7592000Y56697000D01*
X7592000Y57636500D01*
X7800000Y57636500D01*
X7800000Y56697000D01*
X9039500Y56697000D01*
X9204000Y56861500D01*
X9204000Y57273884D01*
X9103826Y57515727D01*
X9060053Y57559500D01*
X9309000Y57559500D01*
X9309000Y57247116D01*
X9409174Y57005273D01*
X9594273Y56820175D01*
X9836115Y56720000D01*
X10348500Y56720000D01*
X10513000Y56884500D01*
X10513000Y57724000D01*
X10721000Y57724000D01*
X10721000Y56884500D01*
X10885500Y56720000D01*
X11397885Y56720000D01*
X11639727Y56820175D01*
X11824826Y57005273D01*
X11925000Y57247116D01*
X11925000Y57559500D01*
X11760500Y57724000D01*
X10721000Y57724000D01*
X10513000Y57724000D01*
X9473500Y57724000D01*
X9309000Y57559500D01*
X9060053Y57559500D01*
X8918727Y57700825D01*
X8676885Y57801000D01*
X7964500Y57801000D01*
X7800000Y57636500D01*
X7592000Y57636500D01*
X7427500Y57801000D01*
X6715115Y57801000D01*
X6473273Y57700825D01*
X6288174Y57515727D01*
X6188000Y57273884D01*
X1150000Y57273884D01*
X1150000Y85852000D01*
X6246000Y85852000D01*
X6246000Y59993000D01*
X6356375Y59438109D01*
X6400542Y59372008D01*
X6418562Y59276240D01*
X6517117Y59123081D01*
X6608666Y59060528D01*
X6670695Y58967695D01*
X7141109Y58653375D01*
X7696000Y58543000D01*
X7871956Y58578000D01*
X9379050Y58578000D01*
X9309000Y58408884D01*
X9309000Y58096500D01*
X9473500Y57932000D01*
X10513000Y57932000D01*
X10513000Y57952000D01*
X10721000Y57952000D01*
X10721000Y57932000D01*
X11760500Y57932000D01*
X11925000Y58096500D01*
X11925000Y58408884D01*
X11824826Y58650727D01*
X11639727Y58835825D01*
X11487151Y58899025D01*
X11642305Y59002695D01*
X11956625Y59473109D01*
X12067000Y60028000D01*
X11956625Y60582891D01*
X11642305Y61053305D01*
X11171891Y61367625D01*
X10617000Y61478000D01*
X9146000Y61478000D01*
X9146000Y61542000D01*
X10236000Y61542000D01*
X10790891Y61652375D01*
X11261305Y61966695D01*
X11575625Y62437109D01*
X11686000Y62992000D01*
X11575625Y63546891D01*
X11261305Y64017305D01*
X10790891Y64331625D01*
X10664852Y64356696D01*
X10943143Y64471684D01*
X11295081Y64823007D01*
X11485783Y65282269D01*
X11486217Y65779550D01*
X11296316Y66239143D01*
X10944993Y66591081D01*
X10485731Y66781783D01*
X9988450Y66782217D01*
X9528857Y66592316D01*
X9176919Y66240993D01*
X9146000Y66166532D01*
X9146000Y67436697D01*
X9175684Y67364857D01*
X9527007Y67012919D01*
X9986269Y66822217D01*
X10483550Y66821783D01*
X10943143Y67011684D01*
X11295081Y67363007D01*
X11485783Y67822269D01*
X11486217Y68319550D01*
X11296316Y68779143D01*
X10944993Y69131081D01*
X10485731Y69321783D01*
X9988450Y69322217D01*
X9528857Y69132316D01*
X9176919Y68780993D01*
X9146000Y68706532D01*
X9146000Y69976697D01*
X9175684Y69904857D01*
X9527007Y69552919D01*
X9986269Y69362217D01*
X10483550Y69361783D01*
X10943143Y69551684D01*
X11295081Y69903007D01*
X11485783Y70362269D01*
X11486217Y70859550D01*
X11296316Y71319143D01*
X10944993Y71671081D01*
X10485731Y71861783D01*
X9988450Y71862217D01*
X9528857Y71672316D01*
X9176919Y71320993D01*
X9146000Y71246532D01*
X9146000Y72516697D01*
X9175684Y72444857D01*
X9527007Y72092919D01*
X9986269Y71902217D01*
X10483550Y71901783D01*
X10943143Y72091684D01*
X11295081Y72443007D01*
X11485783Y72902269D01*
X11486217Y73399550D01*
X11296316Y73859143D01*
X10944993Y74211081D01*
X10485731Y74401783D01*
X9988450Y74402217D01*
X9528857Y74212316D01*
X9176919Y73860993D01*
X9146000Y73786532D01*
X9146000Y75056697D01*
X9175684Y74984857D01*
X9527007Y74632919D01*
X9986269Y74442217D01*
X10483550Y74441783D01*
X10943143Y74631684D01*
X11295081Y74983007D01*
X11485783Y75442269D01*
X11486217Y75939550D01*
X11296316Y76399143D01*
X10944993Y76751081D01*
X10485731Y76941783D01*
X9988450Y76942217D01*
X9528857Y76752316D01*
X9176919Y76400993D01*
X9146000Y76326532D01*
X9146000Y77596697D01*
X9175684Y77524857D01*
X9527007Y77172919D01*
X9986269Y76982217D01*
X10483550Y76981783D01*
X10943143Y77171684D01*
X11295081Y77523007D01*
X11485783Y77982269D01*
X11486217Y78479550D01*
X11296316Y78939143D01*
X10944993Y79291081D01*
X10485731Y79481783D01*
X9988450Y79482217D01*
X9528857Y79292316D01*
X9176919Y78940993D01*
X9146000Y78866532D01*
X9146000Y80136697D01*
X9175684Y80064857D01*
X9527007Y79712919D01*
X9986269Y79522217D01*
X10483550Y79521783D01*
X10943143Y79711684D01*
X11295081Y80063007D01*
X11485783Y80522269D01*
X11486217Y81019550D01*
X11296316Y81479143D01*
X10944993Y81831081D01*
X10485731Y82021783D01*
X9988450Y82022217D01*
X9528857Y81832316D01*
X9176919Y81480993D01*
X9146000Y81406532D01*
X9146000Y82676697D01*
X9175684Y82604857D01*
X9527007Y82252919D01*
X9986269Y82062217D01*
X10483550Y82061783D01*
X10589352Y82105500D01*
X12919000Y82105500D01*
X12919000Y81693116D01*
X13019174Y81451273D01*
X13204273Y81266175D01*
X13446115Y81166000D01*
X14158500Y81166000D01*
X14323000Y81330500D01*
X14323000Y82270000D01*
X14531000Y82270000D01*
X14531000Y81330500D01*
X14695500Y81166000D01*
X15407885Y81166000D01*
X15649727Y81266175D01*
X15834826Y81451273D01*
X15935000Y81693116D01*
X15935000Y82105500D01*
X15770500Y82270000D01*
X14531000Y82270000D01*
X14323000Y82270000D01*
X13083500Y82270000D01*
X12919000Y82105500D01*
X10589352Y82105500D01*
X10943143Y82251684D01*
X11295081Y82603007D01*
X11482716Y83054884D01*
X12919000Y83054884D01*
X12919000Y82642500D01*
X13083500Y82478000D01*
X14323000Y82478000D01*
X14323000Y83417500D01*
X14531000Y83417500D01*
X14531000Y82478000D01*
X15770500Y82478000D01*
X15935000Y82642500D01*
X15935000Y83054884D01*
X15834826Y83296727D01*
X15791053Y83340500D01*
X16294000Y83340500D01*
X16294000Y83028116D01*
X16394174Y82786273D01*
X16579273Y82601175D01*
X16821115Y82501000D01*
X17333500Y82501000D01*
X17498000Y82665500D01*
X17498000Y83505000D01*
X17706000Y83505000D01*
X17706000Y82665500D01*
X17870500Y82501000D01*
X18382885Y82501000D01*
X18624727Y82601175D01*
X18809826Y82786273D01*
X18910000Y83028116D01*
X18910000Y83340500D01*
X18745500Y83505000D01*
X17706000Y83505000D01*
X17498000Y83505000D01*
X16458500Y83505000D01*
X16294000Y83340500D01*
X15791053Y83340500D01*
X15649727Y83481825D01*
X15407885Y83582000D01*
X14695500Y83582000D01*
X14531000Y83417500D01*
X14323000Y83417500D01*
X14158500Y83582000D01*
X13446115Y83582000D01*
X13204273Y83481825D01*
X13019174Y83296727D01*
X12919000Y83054884D01*
X11482716Y83054884D01*
X11485783Y83062269D01*
X11486217Y83559550D01*
X11296316Y84019143D01*
X10944993Y84371081D01*
X10870532Y84402000D01*
X14034869Y84402000D01*
X14427000Y84324000D01*
X16349552Y84324000D01*
X16294000Y84189884D01*
X16294000Y83877500D01*
X16458500Y83713000D01*
X17498000Y83713000D01*
X17498000Y83733000D01*
X17706000Y83733000D01*
X17706000Y83713000D01*
X18745500Y83713000D01*
X18910000Y83877500D01*
X18910000Y84189884D01*
X18809826Y84431727D01*
X18624727Y84616825D01*
X18482881Y84675580D01*
X18592305Y84748695D01*
X18627304Y84783695D01*
X18941625Y85254109D01*
X19052000Y85809000D01*
X18941625Y86363890D01*
X18627304Y86834304D01*
X18156890Y87148625D01*
X17602000Y87259000D01*
X17426044Y87224000D01*
X14741131Y87224000D01*
X14349000Y87302000D01*
X7696000Y87302000D01*
X7141109Y87191625D01*
X6670695Y86877305D01*
X6356375Y86406891D01*
X6246000Y85852000D01*
X1150000Y85852000D01*
X1150000Y87897000D01*
X29902000Y87897000D01*
X29993345Y87437780D01*
X30253472Y87048472D01*
X30642780Y86788345D01*
X31102000Y86697000D01*
X31705500Y86697000D01*
X31705500Y83956369D01*
X31695240Y83954438D01*
X31542081Y83855883D01*
X31439332Y83705505D01*
X31403184Y83527000D01*
X31403184Y83285640D01*
X31303345Y83136220D01*
X31212000Y82677000D01*
X31303345Y82217780D01*
X31403184Y82068360D01*
X31403184Y81827000D01*
X31434562Y81660240D01*
X31533117Y81507081D01*
X31683495Y81404332D01*
X31705500Y81399876D01*
X31705500Y77413000D01*
X31102000Y77413000D01*
X30642780Y77321655D01*
X30253472Y77061528D01*
X29993345Y76672220D01*
X29902000Y76213000D01*
X29993345Y75753780D01*
X30253472Y75364472D01*
X30642780Y75104345D01*
X31102000Y75013000D01*
X31705500Y75013000D01*
X31705500Y72322318D01*
X31669081Y72298883D01*
X31566332Y72148505D01*
X31530184Y71970000D01*
X31530184Y71728640D01*
X31430345Y71579220D01*
X31339000Y71120000D01*
X31430345Y70660780D01*
X31530184Y70511360D01*
X31530184Y70270000D01*
X31561562Y70103240D01*
X31660117Y69950081D01*
X31705500Y69919072D01*
X31705500Y65729000D01*
X31102000Y65729000D01*
X30642780Y65637655D01*
X30253472Y65377528D01*
X29993345Y64988220D01*
X29902000Y64529000D01*
X29993345Y64069780D01*
X30253472Y63680472D01*
X30642780Y63420345D01*
X31102000Y63329000D01*
X31705500Y63329000D01*
X31705500Y60588369D01*
X31695240Y60586438D01*
X31542081Y60487883D01*
X31439332Y60337505D01*
X31403184Y60159000D01*
X31403184Y59917640D01*
X31303345Y59768220D01*
X31212000Y59309000D01*
X31303345Y58849780D01*
X31403184Y58700360D01*
X31403184Y58459000D01*
X31434562Y58292240D01*
X31533117Y58139081D01*
X31683495Y58036332D01*
X31705500Y58031876D01*
X31705500Y54045000D01*
X31102000Y54045000D01*
X30642780Y53953655D01*
X30253472Y53693528D01*
X29993345Y53304220D01*
X29902000Y52845000D01*
X29993345Y52385780D01*
X30253472Y51996472D01*
X30642780Y51736345D01*
X31102000Y51645000D01*
X31777407Y51645000D01*
X31796845Y51547280D01*
X32056972Y51157972D01*
X32202345Y51012599D01*
X32251375Y50766109D01*
X32565695Y50295695D01*
X32791944Y50069446D01*
X32556375Y49716891D01*
X32507345Y49470401D01*
X32056972Y49020028D01*
X31796845Y48630720D01*
X31705500Y48171500D01*
X31705500Y47684318D01*
X31669081Y47660883D01*
X31566332Y47510505D01*
X31530184Y47332000D01*
X31530184Y47090640D01*
X31430345Y46941220D01*
X31339000Y46482000D01*
X31430345Y46022780D01*
X31530184Y45873360D01*
X31530184Y45632000D01*
X31561562Y45465240D01*
X31660117Y45312081D01*
X31705500Y45281072D01*
X31705500Y42361000D01*
X31102000Y42361000D01*
X30642780Y42269655D01*
X30253472Y42009528D01*
X29993345Y41620220D01*
X29902000Y41161000D01*
X29993345Y40701780D01*
X30253472Y40312472D01*
X30642780Y40052345D01*
X31102000Y39961000D01*
X31705500Y39961000D01*
X31705500Y36254318D01*
X31669081Y36230883D01*
X31566332Y36080505D01*
X31530184Y35902000D01*
X31530184Y35660640D01*
X31430345Y35511220D01*
X31339000Y35052000D01*
X31430345Y34592780D01*
X31530184Y34443360D01*
X31530184Y34202000D01*
X31561562Y34035240D01*
X31660117Y33882081D01*
X31705500Y33851072D01*
X31705500Y30677000D01*
X31102000Y30677000D01*
X30642780Y30585655D01*
X30253472Y30325528D01*
X29993345Y29936220D01*
X29902000Y29477000D01*
X29993345Y29017780D01*
X30253472Y28628472D01*
X30642780Y28368345D01*
X31102000Y28277000D01*
X31705500Y28277000D01*
X31705500Y24647369D01*
X31695240Y24645438D01*
X31542081Y24546883D01*
X31439332Y24396505D01*
X31403184Y24218000D01*
X31403184Y23976640D01*
X31303345Y23827220D01*
X31212000Y23368000D01*
X31303345Y22908780D01*
X31403184Y22759360D01*
X31403184Y22518000D01*
X31434562Y22351240D01*
X31533117Y22198081D01*
X31683495Y22095332D01*
X31705500Y22090876D01*
X31705500Y18993000D01*
X31102000Y18993000D01*
X30642780Y18901655D01*
X30253472Y18641528D01*
X29993345Y18252220D01*
X29902000Y17793000D01*
X29993345Y17333780D01*
X30253472Y16944472D01*
X30642780Y16684345D01*
X31102000Y16593000D01*
X31705500Y16593000D01*
X31705500Y12836369D01*
X31695240Y12834438D01*
X31542081Y12735883D01*
X31439332Y12585505D01*
X31403184Y12407000D01*
X31403184Y12165640D01*
X31303345Y12016220D01*
X31212000Y11557000D01*
X31303345Y11097780D01*
X31403184Y10948360D01*
X31403184Y10707000D01*
X31434562Y10540240D01*
X31533117Y10387081D01*
X31683495Y10284332D01*
X31705500Y10279876D01*
X31705500Y7309000D01*
X31102000Y7309000D01*
X30642780Y7217655D01*
X30253472Y6957528D01*
X29993345Y6568220D01*
X29902000Y6109000D01*
X29993345Y5649780D01*
X30253472Y5260472D01*
X30642780Y5000345D01*
X31102000Y4909000D01*
X33406000Y4909000D01*
X33865220Y5000345D01*
X34254528Y5260472D01*
X34271776Y5277720D01*
X34416919Y5371117D01*
X34519668Y5521495D01*
X34524348Y5544604D01*
X34747000Y5877827D01*
X34966550Y5549246D01*
X34969562Y5533240D01*
X35068117Y5380081D01*
X35218495Y5277332D01*
X35384116Y5243793D01*
X35387780Y5241345D01*
X35847000Y5150000D01*
X36306220Y5241345D01*
X36309499Y5243536D01*
X36463760Y5272562D01*
X36616919Y5371117D01*
X36719668Y5521495D01*
X36720713Y5526657D01*
X37284528Y6090472D01*
X37544655Y6479780D01*
X37636000Y6939000D01*
X37636000Y7607039D01*
X53897732Y7607039D01*
X54133208Y7037143D01*
X54568849Y6600740D01*
X55138333Y6364270D01*
X55754961Y6363732D01*
X56324857Y6599208D01*
X56761260Y7034849D01*
X56997730Y7604333D01*
X56997749Y7626843D01*
X62887749Y7626843D01*
X63108033Y7093714D01*
X63515569Y6685467D01*
X64048312Y6464252D01*
X64625157Y6463749D01*
X65158286Y6684033D01*
X65566533Y7091569D01*
X65787748Y7624312D01*
X65788251Y8201157D01*
X65567967Y8734286D01*
X65160431Y9142533D01*
X64627688Y9363748D01*
X64050843Y9364251D01*
X63517714Y9143967D01*
X63109467Y8736431D01*
X62888252Y8203688D01*
X62887749Y7626843D01*
X56997749Y7626843D01*
X56998268Y8220961D01*
X56762792Y8790857D01*
X56327151Y9227260D01*
X55757667Y9463730D01*
X55141039Y9464268D01*
X54571143Y9228792D01*
X54134740Y8793151D01*
X53898270Y8223667D01*
X53897732Y7607039D01*
X37636000Y7607039D01*
X37636000Y10497000D01*
X41643000Y10497000D01*
X42102220Y10588345D01*
X42491528Y10848472D01*
X42751655Y11237780D01*
X42843000Y11697000D01*
X42751655Y12156220D01*
X42491528Y12545528D01*
X42399471Y12607039D01*
X53897732Y12607039D01*
X54133208Y12037143D01*
X54568849Y11600740D01*
X55138333Y11364270D01*
X55754961Y11363732D01*
X56324857Y11599208D01*
X56761260Y12034849D01*
X56997730Y12604333D01*
X56997749Y12626843D01*
X62887749Y12626843D01*
X63108033Y12093714D01*
X63515569Y11685467D01*
X64048312Y11464252D01*
X64625157Y11463749D01*
X65158286Y11684033D01*
X65566533Y12091569D01*
X65787748Y12624312D01*
X65788251Y13201157D01*
X65567967Y13734286D01*
X65160431Y14142533D01*
X64627688Y14363748D01*
X64050843Y14364251D01*
X63517714Y14143967D01*
X63109467Y13736431D01*
X62888252Y13203688D01*
X62887749Y12626843D01*
X56997749Y12626843D01*
X56998268Y13220961D01*
X56762792Y13790857D01*
X56327151Y14227260D01*
X55757667Y14463730D01*
X55141039Y14464268D01*
X54571143Y14228792D01*
X54134740Y13793151D01*
X53898270Y13223667D01*
X53897732Y12607039D01*
X42399471Y12607039D01*
X42102220Y12805655D01*
X41643000Y12897000D01*
X37636000Y12897000D01*
X37636000Y17278843D01*
X53997749Y17278843D01*
X54218033Y16745714D01*
X54625569Y16337467D01*
X55158312Y16116252D01*
X55735157Y16115749D01*
X56268286Y16336033D01*
X56676533Y16743569D01*
X56873966Y17219039D01*
X62787732Y17219039D01*
X63023208Y16649143D01*
X63458849Y16212740D01*
X64028333Y15976270D01*
X64644961Y15975732D01*
X65214857Y16211208D01*
X65651260Y16646849D01*
X65887730Y17216333D01*
X65888268Y17832961D01*
X65652792Y18402857D01*
X65217151Y18839260D01*
X64647667Y19075730D01*
X64031039Y19076268D01*
X63461143Y18840792D01*
X63024740Y18405151D01*
X62788270Y17835667D01*
X62787732Y17219039D01*
X56873966Y17219039D01*
X56897748Y17276312D01*
X56898251Y17853157D01*
X56677967Y18386286D01*
X56270431Y18794533D01*
X55737688Y19015748D01*
X55160843Y19016251D01*
X54627714Y18795967D01*
X54219467Y18388431D01*
X53998252Y17855688D01*
X53997749Y17278843D01*
X37636000Y17278843D01*
X37636000Y22181000D01*
X41643000Y22181000D01*
X42102220Y22272345D01*
X42111944Y22278843D01*
X53997749Y22278843D01*
X54218033Y21745714D01*
X54625569Y21337467D01*
X55158312Y21116252D01*
X55735157Y21115749D01*
X56268286Y21336033D01*
X56676533Y21743569D01*
X56873966Y22219039D01*
X62787732Y22219039D01*
X63023208Y21649143D01*
X63458849Y21212740D01*
X64028333Y20976270D01*
X64644961Y20975732D01*
X65214857Y21211208D01*
X65651260Y21646849D01*
X65887730Y22216333D01*
X65888268Y22832961D01*
X65652792Y23402857D01*
X65217151Y23839260D01*
X64647667Y24075730D01*
X64031039Y24076268D01*
X63461143Y23840792D01*
X63024740Y23405151D01*
X62788270Y22835667D01*
X62787732Y22219039D01*
X56873966Y22219039D01*
X56897748Y22276312D01*
X56898251Y22853157D01*
X56677967Y23386286D01*
X56270431Y23794533D01*
X55737688Y24015748D01*
X55160843Y24016251D01*
X54627714Y23795967D01*
X54219467Y23388431D01*
X53998252Y22855688D01*
X53997749Y22278843D01*
X42111944Y22278843D01*
X42491528Y22532472D01*
X42751655Y22921780D01*
X42843000Y23381000D01*
X42751655Y23840220D01*
X42491528Y24229528D01*
X42102220Y24489655D01*
X41643000Y24581000D01*
X37636000Y24581000D01*
X37636000Y26911039D01*
X53897732Y26911039D01*
X54133208Y26341143D01*
X54568849Y25904740D01*
X55138333Y25668270D01*
X55754961Y25667732D01*
X56324857Y25903208D01*
X56761260Y26338849D01*
X56997730Y26908333D01*
X56997749Y26930843D01*
X62887749Y26930843D01*
X63108033Y26397714D01*
X63515569Y25989467D01*
X64048312Y25768252D01*
X64625157Y25767749D01*
X65158286Y25988033D01*
X65566533Y26395569D01*
X65787748Y26928312D01*
X65788251Y27505157D01*
X65567967Y28038286D01*
X65160431Y28446533D01*
X64627688Y28667748D01*
X64050843Y28668251D01*
X63517714Y28447967D01*
X63109467Y28040431D01*
X62888252Y27507688D01*
X62887749Y26930843D01*
X56997749Y26930843D01*
X56998268Y27524961D01*
X56762792Y28094857D01*
X56327151Y28531260D01*
X55757667Y28767730D01*
X55141039Y28768268D01*
X54571143Y28532792D01*
X54134740Y28097151D01*
X53898270Y27527667D01*
X53897732Y26911039D01*
X37636000Y26911039D01*
X37636000Y31911039D01*
X53897732Y31911039D01*
X54133208Y31341143D01*
X54568849Y30904740D01*
X55138333Y30668270D01*
X55754961Y30667732D01*
X56324857Y30903208D01*
X56761260Y31338849D01*
X56997730Y31908333D01*
X56997749Y31930843D01*
X62887749Y31930843D01*
X63108033Y31397714D01*
X63515569Y30989467D01*
X64048312Y30768252D01*
X64625157Y30767749D01*
X65158286Y30988033D01*
X65566533Y31395569D01*
X65787748Y31928312D01*
X65788251Y32505157D01*
X65567967Y33038286D01*
X65160431Y33446533D01*
X64627688Y33667748D01*
X64050843Y33668251D01*
X63517714Y33447967D01*
X63109467Y33040431D01*
X62888252Y32507688D01*
X62887749Y31930843D01*
X56997749Y31930843D01*
X56998268Y32524961D01*
X56762792Y33094857D01*
X56327151Y33531260D01*
X55757667Y33767730D01*
X55141039Y33768268D01*
X54571143Y33532792D01*
X54134740Y33097151D01*
X53898270Y32527667D01*
X53897732Y31911039D01*
X37636000Y31911039D01*
X37636000Y33738000D01*
X41643000Y33738000D01*
X42102220Y33829345D01*
X42491528Y34089472D01*
X42751655Y34478780D01*
X42843000Y34938000D01*
X42751655Y35397220D01*
X42491528Y35786528D01*
X42102220Y36046655D01*
X41643000Y36138000D01*
X37636000Y36138000D01*
X37636000Y36582843D01*
X53997749Y36582843D01*
X54218033Y36049714D01*
X54625569Y35641467D01*
X55158312Y35420252D01*
X55735157Y35419749D01*
X56268286Y35640033D01*
X56676533Y36047569D01*
X56890575Y36563039D01*
X62787732Y36563039D01*
X63023208Y35993143D01*
X63458849Y35556740D01*
X64028333Y35320270D01*
X64644961Y35319732D01*
X65214857Y35555208D01*
X65651260Y35990849D01*
X65887730Y36560333D01*
X65888268Y37176961D01*
X65652792Y37746857D01*
X65217151Y38183260D01*
X64647667Y38419730D01*
X64031039Y38420268D01*
X63461143Y38184792D01*
X63024740Y37749151D01*
X62788270Y37179667D01*
X62787732Y36563039D01*
X56890575Y36563039D01*
X56897748Y36580312D01*
X56898251Y37157157D01*
X56677967Y37690286D01*
X56270431Y38098533D01*
X55737688Y38319748D01*
X55160843Y38320251D01*
X54627714Y38099967D01*
X54219467Y37692431D01*
X53998252Y37159688D01*
X53997749Y36582843D01*
X37636000Y36582843D01*
X37636000Y41582843D01*
X53997749Y41582843D01*
X54218033Y41049714D01*
X54625569Y40641467D01*
X55158312Y40420252D01*
X55735157Y40419749D01*
X56268286Y40640033D01*
X56676533Y41047569D01*
X56890575Y41563039D01*
X62787732Y41563039D01*
X63023208Y40993143D01*
X63458849Y40556740D01*
X64028333Y40320270D01*
X64644961Y40319732D01*
X65214857Y40555208D01*
X65651260Y40990849D01*
X65887730Y41560333D01*
X65888268Y42176961D01*
X65652792Y42746857D01*
X65217151Y43183260D01*
X64647667Y43419730D01*
X64031039Y43420268D01*
X63461143Y43184792D01*
X63024740Y42749151D01*
X62788270Y42179667D01*
X62787732Y41563039D01*
X56890575Y41563039D01*
X56897748Y41580312D01*
X56898251Y42157157D01*
X56677967Y42690286D01*
X56270431Y43098533D01*
X55737688Y43319748D01*
X55160843Y43320251D01*
X54627714Y43099967D01*
X54219467Y42692431D01*
X53998252Y42159688D01*
X53997749Y41582843D01*
X37636000Y41582843D01*
X37636000Y45549000D01*
X58534000Y45549000D01*
X58993220Y45640345D01*
X59382528Y45900472D01*
X59642655Y46289780D01*
X59734000Y46749000D01*
X59642655Y47208220D01*
X59382528Y47597528D01*
X58993220Y47857655D01*
X58534000Y47949000D01*
X36576000Y47949000D01*
X36116780Y47857655D01*
X36016748Y47790816D01*
X35389000Y47790816D01*
X35222240Y47759438D01*
X35069081Y47660883D01*
X34966332Y47510505D01*
X34930184Y47332000D01*
X34930184Y47090640D01*
X34830345Y46941220D01*
X34739000Y46482000D01*
X34830345Y46022780D01*
X34930184Y45873360D01*
X34930184Y45632000D01*
X34961562Y45465240D01*
X35060117Y45312081D01*
X35210495Y45209332D01*
X35236000Y45204167D01*
X35236000Y44893522D01*
X35230240Y44892438D01*
X35077081Y44793883D01*
X34974332Y44643505D01*
X34969652Y44620396D01*
X34747000Y44287173D01*
X34527450Y44615754D01*
X34524438Y44631760D01*
X34425883Y44784919D01*
X34275505Y44887668D01*
X34109884Y44921207D01*
X34106220Y44923655D01*
X34105500Y44923798D01*
X34105500Y47674444D01*
X34204401Y47773345D01*
X34450891Y47822375D01*
X34921305Y48136695D01*
X35639610Y48855000D01*
X58581390Y48855000D01*
X61809695Y45626695D01*
X62280109Y45312375D01*
X62835000Y45202000D01*
X71611390Y45202000D01*
X71836695Y44976695D01*
X72307109Y44662375D01*
X72862000Y44552000D01*
X74751308Y44552000D01*
X75039157Y44551749D01*
X75039764Y44552000D01*
X76932944Y44552000D01*
X77351720Y44133224D01*
X77445117Y43988081D01*
X77595495Y43885332D01*
X77761116Y43851793D01*
X77764780Y43849345D01*
X78224000Y43758000D01*
X78683220Y43849345D01*
X78686499Y43851536D01*
X78840760Y43880562D01*
X78993919Y43979117D01*
X79096668Y44129495D01*
X79101348Y44152604D01*
X79324000Y44485827D01*
X79543550Y44157246D01*
X79546562Y44141240D01*
X79645117Y43988081D01*
X79795495Y43885332D01*
X79961116Y43851793D01*
X79964780Y43849345D01*
X80424000Y43758000D01*
X80883220Y43849345D01*
X80886499Y43851536D01*
X81040760Y43880562D01*
X81193919Y43979117D01*
X81296668Y44129495D01*
X81297713Y44134657D01*
X81715056Y44552000D01*
X83895308Y44552000D01*
X84183157Y44551749D01*
X84183764Y44552000D01*
X87304000Y44552000D01*
X87304000Y44436049D01*
X87184081Y44358883D01*
X87081332Y44208505D01*
X87045184Y44030000D01*
X87045184Y42330000D01*
X87076562Y42163240D01*
X87175117Y42010081D01*
X87325495Y41907332D01*
X87504000Y41871184D01*
X88153000Y41871184D01*
X88199109Y41840375D01*
X88754000Y41730000D01*
X89308891Y41840375D01*
X89355000Y41871184D01*
X90004000Y41871184D01*
X90170760Y41902562D01*
X90323919Y42001117D01*
X90426668Y42151495D01*
X90462816Y42330000D01*
X90462816Y44030000D01*
X91045184Y44030000D01*
X91045184Y42330000D01*
X91076562Y42163240D01*
X91175117Y42010081D01*
X91325495Y41907332D01*
X91504000Y41871184D01*
X92153000Y41871184D01*
X92199109Y41840375D01*
X92754000Y41730000D01*
X93308891Y41840375D01*
X93355000Y41871184D01*
X94004000Y41871184D01*
X94170760Y41902562D01*
X94323919Y42001117D01*
X94426668Y42151495D01*
X94462816Y42330000D01*
X94462816Y44030000D01*
X94431438Y44196760D01*
X94332883Y44349919D01*
X94236000Y44416116D01*
X94236000Y46609000D01*
X94125625Y47163891D01*
X94036000Y47298025D01*
X94036000Y47449162D01*
X93940849Y47927516D01*
X93669883Y48333045D01*
X93457356Y48475051D01*
X93573502Y48523161D01*
X93644404Y48778517D01*
X92786000Y49636922D01*
X91927596Y48778517D01*
X91998498Y48523161D01*
X92118592Y48477689D01*
X91902117Y48333045D01*
X91631151Y47927516D01*
X91536000Y47449162D01*
X91536000Y47298025D01*
X91446375Y47163891D01*
X91336000Y46609000D01*
X91336000Y44456640D01*
X91184081Y44358883D01*
X91081332Y44208505D01*
X91045184Y44030000D01*
X90462816Y44030000D01*
X90431438Y44196760D01*
X90332883Y44349919D01*
X90204000Y44437981D01*
X90204000Y45397390D01*
X90433305Y45626695D01*
X90747625Y46097109D01*
X90858000Y46652000D01*
X90747625Y47206891D01*
X90433305Y47677305D01*
X90278151Y47780975D01*
X90430727Y47844175D01*
X90615826Y48029273D01*
X90716000Y48271116D01*
X90716000Y48583500D01*
X90551500Y48748000D01*
X89512000Y48748000D01*
X89512000Y48728000D01*
X89304000Y48728000D01*
X89304000Y48748000D01*
X88264500Y48748000D01*
X88176000Y48659500D01*
X88087500Y48748000D01*
X87048000Y48748000D01*
X87048000Y48728000D01*
X86840000Y48728000D01*
X86840000Y48748000D01*
X85800500Y48748000D01*
X85636000Y48583500D01*
X85636000Y48271116D01*
X85736174Y48029273D01*
X85921273Y47844175D01*
X86073849Y47780975D01*
X85918695Y47677305D01*
X85768151Y47452000D01*
X83896692Y47452000D01*
X83608843Y47452251D01*
X83608236Y47452000D01*
X81684752Y47452000D01*
X81671438Y47522760D01*
X81572883Y47675919D01*
X81422505Y47778668D01*
X81399396Y47783348D01*
X81078146Y47998000D01*
X81374885Y47998000D01*
X81616727Y48098175D01*
X81801826Y48283273D01*
X81830267Y48351937D01*
X82893016Y48351937D01*
X82988379Y48075832D01*
X83603239Y47837061D01*
X84262668Y47851762D01*
X84803621Y48075832D01*
X84898984Y48351937D01*
X83896000Y49354922D01*
X82893016Y48351937D01*
X81830267Y48351937D01*
X81902000Y48525116D01*
X81902000Y48837500D01*
X81737500Y49002000D01*
X80698000Y49002000D01*
X80698000Y48982000D01*
X80490000Y48982000D01*
X80490000Y49002000D01*
X79450500Y49002000D01*
X79286000Y48837500D01*
X79286000Y48525116D01*
X79386174Y48283273D01*
X79571273Y48098175D01*
X79813115Y47998000D01*
X80109854Y47998000D01*
X79793246Y47786450D01*
X79777240Y47783438D01*
X79624081Y47684883D01*
X79521332Y47534505D01*
X79487793Y47368884D01*
X79485345Y47365220D01*
X79394000Y46906000D01*
X79394000Y45534936D01*
X79324000Y45430173D01*
X79254000Y45534936D01*
X79254000Y46906000D01*
X79162655Y47365220D01*
X79160464Y47368499D01*
X79131438Y47522760D01*
X79032883Y47675919D01*
X78882505Y47778668D01*
X78859396Y47783348D01*
X78513220Y48014655D01*
X78054000Y48106000D01*
X77594780Y48014655D01*
X77253246Y47786450D01*
X77237240Y47783438D01*
X77084081Y47684883D01*
X76981332Y47534505D01*
X76964624Y47452000D01*
X74752692Y47452000D01*
X74464843Y47452251D01*
X74464236Y47452000D01*
X73462610Y47452000D01*
X73237305Y47677305D01*
X73082151Y47780975D01*
X73234727Y47844175D01*
X73419826Y48029273D01*
X73520000Y48271116D01*
X73520000Y48351937D01*
X73749016Y48351937D01*
X73844379Y48075832D01*
X74459239Y47837061D01*
X75118668Y47851762D01*
X75659621Y48075832D01*
X75754984Y48351937D01*
X74752000Y49354922D01*
X73749016Y48351937D01*
X73520000Y48351937D01*
X73520000Y48527316D01*
X73601937Y48499016D01*
X74604922Y49502000D01*
X74899078Y49502000D01*
X75902063Y48499016D01*
X76178168Y48594379D01*
X76416939Y49209239D01*
X76402238Y49868668D01*
X76178168Y50409621D01*
X75902063Y50504984D01*
X74899078Y49502000D01*
X74604922Y49502000D01*
X73601937Y50504984D01*
X73325832Y50409621D01*
X73129288Y49903500D01*
X72992885Y49960000D01*
X72480500Y49960000D01*
X72316000Y49795500D01*
X72316000Y48956000D01*
X72336000Y48956000D01*
X72336000Y48748000D01*
X72316000Y48748000D01*
X72316000Y48728000D01*
X72108000Y48728000D01*
X72108000Y48748000D01*
X70030000Y48748000D01*
X70030000Y48728000D01*
X69822000Y48728000D01*
X69822000Y48748000D01*
X67744000Y48748000D01*
X67744000Y48728000D01*
X67536000Y48728000D01*
X67536000Y48748000D01*
X66496500Y48748000D01*
X66459000Y48710500D01*
X66421500Y48748000D01*
X65382000Y48748000D01*
X65382000Y48728000D01*
X65174000Y48728000D01*
X65174000Y48748000D01*
X64134500Y48748000D01*
X63970000Y48583500D01*
X63970000Y48271116D01*
X64040050Y48102000D01*
X63435610Y48102000D01*
X62104726Y49432884D01*
X63970000Y49432884D01*
X63970000Y49120500D01*
X64134500Y48956000D01*
X65174000Y48956000D01*
X65174000Y49795500D01*
X65382000Y49795500D01*
X65382000Y48956000D01*
X66421500Y48956000D01*
X66459000Y48993500D01*
X66496500Y48956000D01*
X67536000Y48956000D01*
X67536000Y49795500D01*
X67744000Y49795500D01*
X67744000Y48956000D01*
X69822000Y48956000D01*
X69822000Y49795500D01*
X70030000Y49795500D01*
X70030000Y48956000D01*
X72108000Y48956000D01*
X72108000Y49795500D01*
X71943500Y49960000D01*
X71431115Y49960000D01*
X71189273Y49859825D01*
X71069000Y49739553D01*
X70948727Y49859825D01*
X70706885Y49960000D01*
X70194500Y49960000D01*
X70030000Y49795500D01*
X69822000Y49795500D01*
X69657500Y49960000D01*
X69145115Y49960000D01*
X68903273Y49859825D01*
X68783000Y49739553D01*
X68662727Y49859825D01*
X68420885Y49960000D01*
X67908500Y49960000D01*
X67744000Y49795500D01*
X67536000Y49795500D01*
X67371500Y49960000D01*
X66859115Y49960000D01*
X66617273Y49859825D01*
X66459000Y49701553D01*
X66300727Y49859825D01*
X66058885Y49960000D01*
X65546500Y49960000D01*
X65382000Y49795500D01*
X65174000Y49795500D01*
X65009500Y49960000D01*
X64497115Y49960000D01*
X64255273Y49859825D01*
X64070174Y49674727D01*
X63970000Y49432884D01*
X62104726Y49432884D01*
X60885547Y50652063D01*
X73749016Y50652063D01*
X74752000Y49649078D01*
X75754984Y50652063D01*
X75659621Y50928168D01*
X75044761Y51166939D01*
X74385332Y51152238D01*
X73844379Y50928168D01*
X73749016Y50652063D01*
X60885547Y50652063D01*
X60207305Y51330305D01*
X59736891Y51644625D01*
X59182000Y51755000D01*
X35207610Y51755000D01*
X34616305Y52346305D01*
X34145891Y52660625D01*
X34105500Y52668659D01*
X34105500Y52993202D01*
X34106220Y52993345D01*
X34109499Y52995536D01*
X34263760Y53024562D01*
X34416919Y53123117D01*
X34519668Y53273495D01*
X34524348Y53296604D01*
X34747000Y53629827D01*
X34966550Y53301246D01*
X34969562Y53285240D01*
X35068117Y53132081D01*
X35218495Y53029332D01*
X35384116Y52995793D01*
X35387780Y52993345D01*
X35819467Y52907477D01*
X35968472Y52758472D01*
X36357780Y52498345D01*
X36817000Y52407000D01*
X57770145Y52407000D01*
X57979109Y52267375D01*
X58534000Y52157000D01*
X60082998Y52157000D01*
X60637889Y52267375D01*
X61108303Y52581695D01*
X62014545Y53487937D01*
X73749016Y53487937D01*
X73844379Y53211832D01*
X74459239Y52973061D01*
X75118668Y52987762D01*
X75659621Y53211832D01*
X75754984Y53487937D01*
X74752000Y54490922D01*
X73749016Y53487937D01*
X62014545Y53487937D01*
X63970000Y55443392D01*
X63970000Y55437998D01*
X64134498Y55437998D01*
X63970000Y55273500D01*
X63970000Y54961116D01*
X64070174Y54719273D01*
X64255273Y54534175D01*
X64497115Y54434000D01*
X65009500Y54434000D01*
X65174000Y54598500D01*
X65174000Y55438000D01*
X65382000Y55438000D01*
X65382000Y54598500D01*
X65546500Y54434000D01*
X66058885Y54434000D01*
X66300727Y54534175D01*
X66459000Y54692447D01*
X66617273Y54534175D01*
X66859115Y54434000D01*
X67371500Y54434000D01*
X67536000Y54598500D01*
X67536000Y55438000D01*
X67744000Y55438000D01*
X67744000Y54598500D01*
X67908500Y54434000D01*
X68420885Y54434000D01*
X68662727Y54534175D01*
X68783000Y54654447D01*
X68903273Y54534175D01*
X69145115Y54434000D01*
X69657500Y54434000D01*
X69822000Y54598500D01*
X69822000Y55438000D01*
X70030000Y55438000D01*
X70030000Y54598500D01*
X70194500Y54434000D01*
X70706885Y54434000D01*
X70948727Y54534175D01*
X71069000Y54654447D01*
X71189273Y54534175D01*
X71431115Y54434000D01*
X71943500Y54434000D01*
X72108000Y54598500D01*
X72108000Y55438000D01*
X70030000Y55438000D01*
X69822000Y55438000D01*
X67744000Y55438000D01*
X67536000Y55438000D01*
X66496500Y55438000D01*
X66459000Y55400500D01*
X66421500Y55438000D01*
X65382000Y55438000D01*
X65174000Y55438000D01*
X65154000Y55438000D01*
X65154000Y55646000D01*
X65174000Y55646000D01*
X65174000Y55666000D01*
X65382000Y55666000D01*
X65382000Y55646000D01*
X66421500Y55646000D01*
X66459000Y55683500D01*
X66496500Y55646000D01*
X67536000Y55646000D01*
X67536000Y55666000D01*
X67744000Y55666000D01*
X67744000Y55646000D01*
X69822000Y55646000D01*
X69822000Y55666000D01*
X70030000Y55666000D01*
X70030000Y55646000D01*
X72108000Y55646000D01*
X72108000Y55666000D01*
X72316000Y55666000D01*
X72316000Y55646000D01*
X72336000Y55646000D01*
X72336000Y55438000D01*
X72316000Y55438000D01*
X72316000Y54598500D01*
X72480500Y54434000D01*
X72992885Y54434000D01*
X73097173Y54477198D01*
X73101762Y54271332D01*
X73325832Y53730379D01*
X73601937Y53635016D01*
X74604922Y54638000D01*
X74899078Y54638000D01*
X75902063Y53635016D01*
X76178168Y53730379D01*
X76416939Y54345239D01*
X76402238Y55004668D01*
X76203693Y55484000D01*
X76945184Y55484000D01*
X76945184Y54584000D01*
X76976562Y54417240D01*
X77075117Y54264081D01*
X77104000Y54244346D01*
X77104000Y53924264D01*
X77097332Y53914505D01*
X77061184Y53736000D01*
X77061184Y53293045D01*
X77020001Y53086000D01*
X77061184Y52878955D01*
X77061184Y52436000D01*
X77092562Y52269240D01*
X77191117Y52116081D01*
X77258173Y52070264D01*
X77200081Y52032883D01*
X77097332Y51882505D01*
X77061184Y51704000D01*
X77061184Y51261047D01*
X77020000Y51054000D01*
X77020000Y49791097D01*
X76981332Y49734505D01*
X76945184Y49556000D01*
X76945184Y48656000D01*
X76976562Y48489240D01*
X77075117Y48336081D01*
X77225495Y48233332D01*
X77404000Y48197184D01*
X77846955Y48197184D01*
X78054000Y48156001D01*
X78261045Y48197184D01*
X78704000Y48197184D01*
X78870760Y48228562D01*
X79023919Y48327117D01*
X79126668Y48477495D01*
X79162816Y48656000D01*
X79162816Y49556000D01*
X79131438Y49722760D01*
X79032883Y49875919D01*
X78920000Y49953049D01*
X78920000Y50785500D01*
X79062000Y50785500D01*
X79062000Y50273115D01*
X79162175Y50031273D01*
X79347273Y49846174D01*
X79351290Y49844510D01*
X79286000Y49686884D01*
X79286000Y49374500D01*
X79450500Y49210000D01*
X80490000Y49210000D01*
X80490000Y49230000D01*
X80698000Y49230000D01*
X80698000Y49210000D01*
X81737500Y49210000D01*
X81902000Y49374500D01*
X81902000Y49686884D01*
X81857317Y49794761D01*
X82231061Y49794761D01*
X82245762Y49135332D01*
X82469832Y48594379D01*
X82745937Y48499016D01*
X83748922Y49502000D01*
X84043078Y49502000D01*
X85046063Y48499016D01*
X85322168Y48594379D01*
X85560939Y49209239D01*
X85555954Y49432884D01*
X85636000Y49432884D01*
X85636000Y49120500D01*
X85800500Y48956000D01*
X86840000Y48956000D01*
X86840000Y49795500D01*
X87048000Y49795500D01*
X87048000Y48956000D01*
X88087500Y48956000D01*
X88176000Y49044500D01*
X88264500Y48956000D01*
X89304000Y48956000D01*
X89304000Y49795500D01*
X89512000Y49795500D01*
X89512000Y48956000D01*
X90551500Y48956000D01*
X90716000Y49120500D01*
X90716000Y49432884D01*
X90615826Y49674727D01*
X90430727Y49859825D01*
X90188885Y49960000D01*
X89676500Y49960000D01*
X89512000Y49795500D01*
X89304000Y49795500D01*
X89139500Y49960000D01*
X88627115Y49960000D01*
X88385273Y49859825D01*
X88200174Y49674727D01*
X88176000Y49616365D01*
X88151826Y49674727D01*
X87966727Y49859825D01*
X87724885Y49960000D01*
X87212500Y49960000D01*
X87048000Y49795500D01*
X86840000Y49795500D01*
X86675500Y49960000D01*
X86163115Y49960000D01*
X85921273Y49859825D01*
X85736174Y49674727D01*
X85636000Y49432884D01*
X85555954Y49432884D01*
X85546238Y49868668D01*
X85479804Y50029054D01*
X91319772Y50029054D01*
X91337603Y49449299D01*
X91525161Y48996498D01*
X91780517Y48925596D01*
X92638922Y49784000D01*
X92933078Y49784000D01*
X93791483Y48925596D01*
X94046839Y48996498D01*
X94252228Y49538946D01*
X94234397Y50118701D01*
X94046839Y50571502D01*
X93791483Y50642404D01*
X92933078Y49784000D01*
X92638922Y49784000D01*
X91780517Y50642404D01*
X91525161Y50571502D01*
X91319772Y50029054D01*
X85479804Y50029054D01*
X85322168Y50409621D01*
X85046063Y50504984D01*
X84043078Y49502000D01*
X83748922Y49502000D01*
X82745937Y50504984D01*
X82469832Y50409621D01*
X82231061Y49794761D01*
X81857317Y49794761D01*
X81801826Y49928727D01*
X81616727Y50113825D01*
X81374885Y50214000D01*
X81253514Y50214000D01*
X81278000Y50273115D01*
X81278000Y50652063D01*
X82893016Y50652063D01*
X83896000Y49649078D01*
X84898984Y50652063D01*
X84851521Y50789483D01*
X91927596Y50789483D01*
X92786000Y49931078D01*
X93644404Y50789483D01*
X93573502Y51044839D01*
X93031054Y51250228D01*
X92451299Y51232397D01*
X91998498Y51044839D01*
X91927596Y50789483D01*
X84851521Y50789483D01*
X84803621Y50928168D01*
X84188761Y51166939D01*
X83529332Y51152238D01*
X82988379Y50928168D01*
X82893016Y50652063D01*
X81278000Y50652063D01*
X81278000Y50785500D01*
X81113500Y50950000D01*
X80274000Y50950000D01*
X80274000Y50930000D01*
X80066000Y50930000D01*
X80066000Y50950000D01*
X79226500Y50950000D01*
X79062000Y50785500D01*
X78920000Y50785500D01*
X78920000Y51054000D01*
X78878816Y51261047D01*
X78878816Y51704000D01*
X78847438Y51870760D01*
X78748883Y52023919D01*
X78681827Y52069736D01*
X78739919Y52107117D01*
X78842668Y52257495D01*
X78878816Y52436000D01*
X78878816Y52727325D01*
X78931686Y52806450D01*
X78933883Y52817500D01*
X79062000Y52817500D01*
X79062000Y52305115D01*
X79159389Y52070000D01*
X79062000Y51834885D01*
X79062000Y51322500D01*
X79226500Y51158000D01*
X80066000Y51158000D01*
X80066000Y52982000D01*
X80274000Y52982000D01*
X80274000Y51158000D01*
X81113500Y51158000D01*
X81278000Y51322500D01*
X81278000Y51834885D01*
X81180611Y52070000D01*
X81278000Y52305115D01*
X81278000Y52817500D01*
X81113500Y52982000D01*
X80274000Y52982000D01*
X80066000Y52982000D01*
X79226500Y52982000D01*
X79062000Y52817500D01*
X78933883Y52817500D01*
X78950692Y52902000D01*
X79004000Y53170000D01*
X79004000Y53866885D01*
X79062000Y53866885D01*
X79062000Y53354500D01*
X79226500Y53190000D01*
X80066000Y53190000D01*
X80066000Y53210000D01*
X80274000Y53210000D01*
X80274000Y53190000D01*
X81113500Y53190000D01*
X81278000Y53354500D01*
X81278000Y53487937D01*
X82893016Y53487937D01*
X82988379Y53211832D01*
X83603239Y52973061D01*
X84262668Y52987762D01*
X84803621Y53211832D01*
X84898984Y53487937D01*
X83896000Y54490922D01*
X82893016Y53487937D01*
X81278000Y53487937D01*
X81278000Y53866885D01*
X81253514Y53926000D01*
X81374885Y53926000D01*
X81616727Y54026175D01*
X81801826Y54211273D01*
X81902000Y54453116D01*
X81902000Y54765500D01*
X81737500Y54930000D01*
X80698000Y54930000D01*
X80698000Y54910000D01*
X80490000Y54910000D01*
X80490000Y54930000D01*
X79450500Y54930000D01*
X79286000Y54765500D01*
X79286000Y54453116D01*
X79351290Y54295490D01*
X79347273Y54293826D01*
X79162175Y54108727D01*
X79062000Y53866885D01*
X79004000Y53866885D01*
X79004000Y54242299D01*
X79023919Y54255117D01*
X79126668Y54405495D01*
X79162816Y54584000D01*
X79162816Y54930761D01*
X82231061Y54930761D01*
X82245762Y54271332D01*
X82469832Y53730379D01*
X82745937Y53635016D01*
X83748922Y54638000D01*
X84043078Y54638000D01*
X85046063Y53635016D01*
X85322168Y53730379D01*
X85560939Y54345239D01*
X85546238Y55004668D01*
X85540095Y55019500D01*
X85636000Y55019500D01*
X85636000Y54707116D01*
X85736174Y54465273D01*
X85921273Y54280175D01*
X86163115Y54180000D01*
X86675500Y54180000D01*
X86840000Y54344500D01*
X86840000Y55184000D01*
X87048000Y55184000D01*
X87048000Y54344500D01*
X87212500Y54180000D01*
X87724885Y54180000D01*
X87966727Y54280175D01*
X88151826Y54465273D01*
X88176000Y54523635D01*
X88200174Y54465273D01*
X88385273Y54280175D01*
X88627115Y54180000D01*
X89139500Y54180000D01*
X89304000Y54344500D01*
X89304000Y55184000D01*
X89512000Y55184000D01*
X89512000Y54344500D01*
X89676500Y54180000D01*
X90188885Y54180000D01*
X90430727Y54280175D01*
X90615826Y54465273D01*
X90716000Y54707116D01*
X90716000Y55019500D01*
X90551500Y55184000D01*
X89512000Y55184000D01*
X89304000Y55184000D01*
X88264500Y55184000D01*
X88176000Y55095500D01*
X88087500Y55184000D01*
X87048000Y55184000D01*
X86840000Y55184000D01*
X85800500Y55184000D01*
X85636000Y55019500D01*
X85540095Y55019500D01*
X85437163Y55268000D01*
X91328000Y55268000D01*
X91328000Y54468000D01*
X91478783Y53917964D01*
X91828578Y53467499D01*
X92324132Y53185185D01*
X92455780Y53151888D01*
X92682000Y53282688D01*
X92682000Y55268000D01*
X92890000Y55268000D01*
X92890000Y53282688D01*
X93116220Y53151888D01*
X93247868Y53185185D01*
X93743422Y53467499D01*
X94093217Y53917964D01*
X94244000Y54468000D01*
X94244000Y55268000D01*
X92890000Y55268000D01*
X92682000Y55268000D01*
X91328000Y55268000D01*
X85437163Y55268000D01*
X85322168Y55545621D01*
X85046063Y55640984D01*
X84043078Y54638000D01*
X83748922Y54638000D01*
X82745937Y55640984D01*
X82469832Y55545621D01*
X82231061Y54930761D01*
X79162816Y54930761D01*
X79162816Y55484000D01*
X79131438Y55650760D01*
X79032883Y55803919D01*
X78882505Y55906668D01*
X78704000Y55942816D01*
X78261047Y55942816D01*
X78054000Y55984000D01*
X77846953Y55942816D01*
X77404000Y55942816D01*
X77237240Y55911438D01*
X77084081Y55812883D01*
X76981332Y55662505D01*
X76945184Y55484000D01*
X76203693Y55484000D01*
X76178168Y55545621D01*
X75902063Y55640984D01*
X74899078Y54638000D01*
X74604922Y54638000D01*
X73601937Y55640984D01*
X73520000Y55612684D01*
X73520000Y55646002D01*
X73355502Y55646002D01*
X73497563Y55788063D01*
X73749016Y55788063D01*
X74752000Y54785078D01*
X75754984Y55788063D01*
X75659621Y56064168D01*
X75044761Y56302939D01*
X74385332Y56288238D01*
X73844379Y56064168D01*
X73749016Y55788063D01*
X73497563Y55788063D01*
X73520000Y55810500D01*
X73520000Y56122884D01*
X73419826Y56364727D01*
X73234727Y56549825D01*
X73082151Y56613025D01*
X73194360Y56688000D01*
X74751308Y56688000D01*
X75039157Y56687749D01*
X75039764Y56688000D01*
X76963248Y56688000D01*
X76976562Y56617240D01*
X77075117Y56464081D01*
X77225495Y56361332D01*
X77248604Y56356652D01*
X77594780Y56125345D01*
X78054000Y56034000D01*
X78513220Y56125345D01*
X78854754Y56353550D01*
X78870760Y56356562D01*
X79023919Y56455117D01*
X79126668Y56605495D01*
X79160207Y56771116D01*
X79162655Y56774780D01*
X79254000Y57234000D01*
X79254000Y58605064D01*
X79324000Y58709827D01*
X79394000Y58605064D01*
X79394000Y57234000D01*
X79485345Y56774780D01*
X79487536Y56771501D01*
X79516562Y56617240D01*
X79615117Y56464081D01*
X79765495Y56361332D01*
X79788604Y56356652D01*
X80109854Y56142000D01*
X79813115Y56142000D01*
X79571273Y56041825D01*
X79386174Y55856727D01*
X79286000Y55614884D01*
X79286000Y55302500D01*
X79450500Y55138000D01*
X80490000Y55138000D01*
X80490000Y55158000D01*
X80698000Y55158000D01*
X80698000Y55138000D01*
X81737500Y55138000D01*
X81902000Y55302500D01*
X81902000Y55614884D01*
X81830268Y55788063D01*
X82893016Y55788063D01*
X83896000Y54785078D01*
X84898984Y55788063D01*
X84803621Y56064168D01*
X84188761Y56302939D01*
X83529332Y56288238D01*
X82988379Y56064168D01*
X82893016Y55788063D01*
X81830268Y55788063D01*
X81801826Y55856727D01*
X81616727Y56041825D01*
X81374885Y56142000D01*
X81078146Y56142000D01*
X81394754Y56353550D01*
X81410760Y56356562D01*
X81563919Y56455117D01*
X81666668Y56605495D01*
X81683376Y56688000D01*
X83895308Y56688000D01*
X84183157Y56687749D01*
X84183764Y56688000D01*
X85768151Y56688000D01*
X85918695Y56462695D01*
X86073849Y56359025D01*
X85921273Y56295825D01*
X85736174Y56110727D01*
X85636000Y55868884D01*
X85636000Y55556500D01*
X85800500Y55392000D01*
X86840000Y55392000D01*
X86840000Y55412000D01*
X87048000Y55412000D01*
X87048000Y55392000D01*
X88087500Y55392000D01*
X88176000Y55480500D01*
X88264500Y55392000D01*
X89304000Y55392000D01*
X89304000Y55412000D01*
X89512000Y55412000D01*
X89512000Y55392000D01*
X90551500Y55392000D01*
X90716000Y55556500D01*
X90716000Y55868884D01*
X90615826Y56110727D01*
X90430727Y56295825D01*
X90278151Y56359025D01*
X90433305Y56462695D01*
X90747625Y56933109D01*
X90858000Y57488000D01*
X90747625Y58042891D01*
X90433305Y58513305D01*
X90204000Y58742610D01*
X90204000Y59957951D01*
X90323919Y60035117D01*
X90426668Y60185495D01*
X90462816Y60364000D01*
X90462816Y62064000D01*
X91045184Y62064000D01*
X91045184Y60364000D01*
X91076562Y60197240D01*
X91175117Y60044081D01*
X91325495Y59941332D01*
X91336000Y59939205D01*
X91336000Y58547000D01*
X91446375Y57992109D01*
X91760695Y57521695D01*
X91990013Y57368470D01*
X91828578Y57276501D01*
X91478783Y56826036D01*
X91328000Y56276000D01*
X91328000Y55476000D01*
X92682000Y55476000D01*
X92682000Y55496000D01*
X92890000Y55496000D01*
X92890000Y55476000D01*
X94244000Y55476000D01*
X94244000Y56276000D01*
X94093217Y56826036D01*
X93743422Y57276501D01*
X93581987Y57368470D01*
X93811305Y57521695D01*
X94125625Y57992109D01*
X94236000Y58547000D01*
X94236000Y59978543D01*
X94323919Y60035117D01*
X94426668Y60185495D01*
X94462816Y60364000D01*
X94462816Y62064000D01*
X94431438Y62230760D01*
X94332883Y62383919D01*
X94182505Y62486668D01*
X94004000Y62522816D01*
X93355000Y62522816D01*
X93308891Y62553625D01*
X92754000Y62664000D01*
X92199109Y62553625D01*
X92153000Y62522816D01*
X91504000Y62522816D01*
X91337240Y62491438D01*
X91184081Y62392883D01*
X91081332Y62242505D01*
X91045184Y62064000D01*
X90462816Y62064000D01*
X90431438Y62230760D01*
X90332883Y62383919D01*
X90182505Y62486668D01*
X90004000Y62522816D01*
X89355000Y62522816D01*
X89308891Y62553625D01*
X88754000Y62664000D01*
X88199109Y62553625D01*
X88153000Y62522816D01*
X87504000Y62522816D01*
X87337240Y62491438D01*
X87184081Y62392883D01*
X87081332Y62242505D01*
X87045184Y62064000D01*
X87045184Y60364000D01*
X87076562Y60197240D01*
X87175117Y60044081D01*
X87304000Y59956019D01*
X87304000Y59588000D01*
X83896692Y59588000D01*
X83608843Y59588251D01*
X83608236Y59588000D01*
X81715056Y59588000D01*
X81296280Y60006776D01*
X81202883Y60151919D01*
X81052505Y60254668D01*
X80886884Y60288207D01*
X80883220Y60290655D01*
X80424000Y60382000D01*
X79964780Y60290655D01*
X79961501Y60288464D01*
X79807240Y60259438D01*
X79654081Y60160883D01*
X79551332Y60010505D01*
X79546652Y59987396D01*
X79324000Y59654173D01*
X79104450Y59982754D01*
X79101438Y59998760D01*
X79002883Y60151919D01*
X78852505Y60254668D01*
X78686884Y60288207D01*
X78683220Y60290655D01*
X78224000Y60382000D01*
X77764780Y60290655D01*
X77761501Y60288464D01*
X77607240Y60259438D01*
X77454081Y60160883D01*
X77351332Y60010505D01*
X77350287Y60005343D01*
X76932944Y59588000D01*
X74752692Y59588000D01*
X74464843Y59588251D01*
X74464236Y59588000D01*
X72608005Y59588000D01*
X72608000Y59588001D01*
X72145172Y59495938D01*
X72053109Y59477625D01*
X71734137Y59264495D01*
X71625640Y59192000D01*
X64217998Y59192000D01*
X63663107Y59081625D01*
X63192693Y58767305D01*
X59482388Y55057000D01*
X58534000Y55057000D01*
X57979109Y54946625D01*
X57770145Y54807000D01*
X37636000Y54807000D01*
X37636000Y57233000D01*
X41643000Y57233000D01*
X42102220Y57324345D01*
X42491528Y57584472D01*
X42751655Y57973780D01*
X42843000Y58433000D01*
X42751655Y58892220D01*
X42491528Y59281528D01*
X42102220Y59541655D01*
X41643000Y59633000D01*
X37636000Y59633000D01*
X37636000Y60966843D01*
X53997749Y60966843D01*
X54218033Y60433714D01*
X54625569Y60025467D01*
X55158312Y59804252D01*
X55735157Y59803749D01*
X56268286Y60024033D01*
X56676533Y60431569D01*
X56890575Y60947039D01*
X62787732Y60947039D01*
X63023208Y60377143D01*
X63458849Y59940740D01*
X64028333Y59704270D01*
X64644961Y59703732D01*
X65214857Y59939208D01*
X65651260Y60374849D01*
X65887730Y60944333D01*
X65888268Y61560961D01*
X65652792Y62130857D01*
X65217151Y62567260D01*
X64647667Y62803730D01*
X64031039Y62804268D01*
X63461143Y62568792D01*
X63024740Y62133151D01*
X62788270Y61563667D01*
X62787732Y60947039D01*
X56890575Y60947039D01*
X56897748Y60964312D01*
X56898251Y61541157D01*
X56677967Y62074286D01*
X56270431Y62482533D01*
X55737688Y62703748D01*
X55160843Y62704251D01*
X54627714Y62483967D01*
X54219467Y62076431D01*
X53998252Y61543688D01*
X53997749Y60966843D01*
X37636000Y60966843D01*
X37636000Y65966843D01*
X53997749Y65966843D01*
X54218033Y65433714D01*
X54625569Y65025467D01*
X55158312Y64804252D01*
X55735157Y64803749D01*
X56268286Y65024033D01*
X56676533Y65431569D01*
X56890575Y65947039D01*
X62787732Y65947039D01*
X63023208Y65377143D01*
X63458849Y64940740D01*
X64028333Y64704270D01*
X64644961Y64703732D01*
X65214857Y64939208D01*
X65651260Y65374849D01*
X65887730Y65944333D01*
X65888268Y66560961D01*
X65652792Y67130857D01*
X65217151Y67567260D01*
X64647667Y67803730D01*
X64031039Y67804268D01*
X63461143Y67568792D01*
X63024740Y67133151D01*
X62788270Y66563667D01*
X62787732Y65947039D01*
X56890575Y65947039D01*
X56897748Y65964312D01*
X56898251Y66541157D01*
X56677967Y67074286D01*
X56270431Y67482533D01*
X55737688Y67703748D01*
X55160843Y67704251D01*
X54627714Y67483967D01*
X54219467Y67076431D01*
X53998252Y66543688D01*
X53997749Y65966843D01*
X37636000Y65966843D01*
X37636000Y68917000D01*
X41643000Y68917000D01*
X42102220Y69008345D01*
X42491528Y69268472D01*
X42751655Y69657780D01*
X42843000Y70117000D01*
X42751655Y70576220D01*
X42736408Y70599039D01*
X53897732Y70599039D01*
X54133208Y70029143D01*
X54568849Y69592740D01*
X55138333Y69356270D01*
X55754961Y69355732D01*
X56324857Y69591208D01*
X56761260Y70026849D01*
X56997730Y70596333D01*
X56997749Y70618843D01*
X62887749Y70618843D01*
X63108033Y70085714D01*
X63515569Y69677467D01*
X64048312Y69456252D01*
X64625157Y69455749D01*
X65158286Y69676033D01*
X65566533Y70083569D01*
X65787748Y70616312D01*
X65788251Y71193157D01*
X65567967Y71726286D01*
X65160431Y72134533D01*
X64627688Y72355748D01*
X64050843Y72356251D01*
X63517714Y72135967D01*
X63109467Y71728431D01*
X62888252Y71195688D01*
X62887749Y70618843D01*
X56997749Y70618843D01*
X56998268Y71212961D01*
X56762792Y71782857D01*
X56327151Y72219260D01*
X55757667Y72455730D01*
X55141039Y72456268D01*
X54571143Y72220792D01*
X54134740Y71785151D01*
X53898270Y71215667D01*
X53897732Y70599039D01*
X42736408Y70599039D01*
X42491528Y70965528D01*
X42102220Y71225655D01*
X41643000Y71317000D01*
X37636000Y71317000D01*
X37636000Y75599039D01*
X53897732Y75599039D01*
X54133208Y75029143D01*
X54568849Y74592740D01*
X55138333Y74356270D01*
X55754961Y74355732D01*
X56324857Y74591208D01*
X56761260Y75026849D01*
X56997730Y75596333D01*
X56997749Y75618843D01*
X62887749Y75618843D01*
X63108033Y75085714D01*
X63515569Y74677467D01*
X64048312Y74456252D01*
X64625157Y74455749D01*
X65158286Y74676033D01*
X65566533Y75083569D01*
X65787748Y75616312D01*
X65788251Y76193157D01*
X65567967Y76726286D01*
X65160431Y77134533D01*
X64627688Y77355748D01*
X64050843Y77356251D01*
X63517714Y77135967D01*
X63109467Y76728431D01*
X62888252Y76195688D01*
X62887749Y75618843D01*
X56997749Y75618843D01*
X56998268Y76212961D01*
X56762792Y76782857D01*
X56327151Y77219260D01*
X55757667Y77455730D01*
X55141039Y77456268D01*
X54571143Y77220792D01*
X54134740Y76785151D01*
X53898270Y76215667D01*
X53897732Y75599039D01*
X37636000Y75599039D01*
X37636000Y80270843D01*
X53997749Y80270843D01*
X54218033Y79737714D01*
X54625569Y79329467D01*
X55158312Y79108252D01*
X55735157Y79107749D01*
X56268286Y79328033D01*
X56676533Y79735569D01*
X56890575Y80251039D01*
X62787732Y80251039D01*
X63023208Y79681143D01*
X63458849Y79244740D01*
X64028333Y79008270D01*
X64644961Y79007732D01*
X65214857Y79243208D01*
X65651260Y79678849D01*
X65887730Y80248333D01*
X65888268Y80864961D01*
X65652792Y81434857D01*
X65217151Y81871260D01*
X64647667Y82107730D01*
X64031039Y82108268D01*
X63461143Y81872792D01*
X63024740Y81437151D01*
X62788270Y80867667D01*
X62787732Y80251039D01*
X56890575Y80251039D01*
X56897748Y80268312D01*
X56898251Y80845157D01*
X56677967Y81378286D01*
X56270431Y81786533D01*
X55737688Y82007748D01*
X55160843Y82008251D01*
X54627714Y81787967D01*
X54219467Y81380431D01*
X53998252Y80847688D01*
X53997749Y80270843D01*
X37636000Y80270843D01*
X37636000Y80601000D01*
X41643000Y80601000D01*
X42102220Y80692345D01*
X42491528Y80952472D01*
X42751655Y81341780D01*
X42843000Y81801000D01*
X42751655Y82260220D01*
X42491528Y82649528D01*
X42102220Y82909655D01*
X41643000Y83001000D01*
X37636000Y83001000D01*
X37636000Y85270843D01*
X53997749Y85270843D01*
X54218033Y84737714D01*
X54625569Y84329467D01*
X55158312Y84108252D01*
X55735157Y84107749D01*
X56268286Y84328033D01*
X56676533Y84735569D01*
X56890575Y85251039D01*
X62787732Y85251039D01*
X63023208Y84681143D01*
X63458849Y84244740D01*
X64028333Y84008270D01*
X64644961Y84007732D01*
X65214857Y84243208D01*
X65651260Y84678849D01*
X65887730Y85248333D01*
X65888268Y85864961D01*
X65652792Y86434857D01*
X65217151Y86871260D01*
X64647667Y87107730D01*
X64031039Y87108268D01*
X63461143Y86872792D01*
X63024740Y86437151D01*
X62788270Y85867667D01*
X62787732Y85251039D01*
X56890575Y85251039D01*
X56897748Y85268312D01*
X56898251Y85845157D01*
X56677967Y86378286D01*
X56270431Y86786533D01*
X55737688Y87007748D01*
X55160843Y87008251D01*
X54627714Y86787967D01*
X54219467Y86380431D01*
X53998252Y85847688D01*
X53997749Y85270843D01*
X37636000Y85270843D01*
X37636000Y89903039D01*
X53897732Y89903039D01*
X54133208Y89333143D01*
X54568849Y88896740D01*
X55138333Y88660270D01*
X55754961Y88659732D01*
X56324857Y88895208D01*
X56761260Y89330849D01*
X56997730Y89900333D01*
X56997749Y89922843D01*
X62887749Y89922843D01*
X63108033Y89389714D01*
X63515569Y88981467D01*
X64048312Y88760252D01*
X64625157Y88759749D01*
X65158286Y88980033D01*
X65566533Y89387569D01*
X65787748Y89920312D01*
X65788251Y90497157D01*
X65567967Y91030286D01*
X65160431Y91438533D01*
X64627688Y91659748D01*
X64050843Y91660251D01*
X63517714Y91439967D01*
X63109467Y91032431D01*
X62888252Y90499688D01*
X62887749Y89922843D01*
X56997749Y89922843D01*
X56998268Y90516961D01*
X56762792Y91086857D01*
X56327151Y91523260D01*
X55757667Y91759730D01*
X55141039Y91760268D01*
X54571143Y91524792D01*
X54134740Y91089151D01*
X53898270Y90519667D01*
X53897732Y89903039D01*
X37636000Y89903039D01*
X37636000Y92285000D01*
X41643000Y92285000D01*
X42102220Y92376345D01*
X42491528Y92636472D01*
X42751655Y93025780D01*
X42843000Y93485000D01*
X42751655Y93944220D01*
X42491528Y94333528D01*
X42102220Y94593655D01*
X41643000Y94685000D01*
X36206000Y94685000D01*
X36049228Y94653816D01*
X35516000Y94653816D01*
X35349240Y94622438D01*
X35196081Y94523883D01*
X35093332Y94373505D01*
X35057184Y94195000D01*
X35057184Y93953640D01*
X34957345Y93804220D01*
X34866000Y93345000D01*
X34957345Y92885780D01*
X35057184Y92736360D01*
X35057184Y92495000D01*
X35088562Y92328240D01*
X35187117Y92175081D01*
X35236000Y92141681D01*
X35236000Y91756522D01*
X35230240Y91755438D01*
X35077081Y91656883D01*
X34974332Y91506505D01*
X34969652Y91483396D01*
X34747000Y91150173D01*
X34527450Y91478754D01*
X34524438Y91494760D01*
X34425883Y91647919D01*
X34275505Y91750668D01*
X34109884Y91784207D01*
X34106220Y91786655D01*
X34105500Y91786798D01*
X34105500Y93105500D01*
X34014155Y93564720D01*
X33754028Y93954028D01*
X33674816Y94033240D01*
X33674816Y94195000D01*
X33643438Y94361760D01*
X33544883Y94514919D01*
X33394505Y94617668D01*
X33216000Y94653816D01*
X32116000Y94653816D01*
X31949240Y94622438D01*
X31796081Y94523883D01*
X31693332Y94373505D01*
X31657184Y94195000D01*
X31657184Y93953640D01*
X31557345Y93804220D01*
X31466000Y93345000D01*
X31557345Y92885780D01*
X31657184Y92736360D01*
X31657184Y92495000D01*
X31688562Y92328240D01*
X31705500Y92301918D01*
X31705500Y89097000D01*
X31102000Y89097000D01*
X30642780Y89005655D01*
X30253472Y88745528D01*
X29993345Y88356220D01*
X29902000Y87897000D01*
X1150000Y87897000D01*
X1150000Y94613823D01*
X3049662Y94613823D01*
X3345906Y93896857D01*
X3893971Y93347834D01*
X4610419Y93050339D01*
X5386177Y93049662D01*
X6103143Y93345906D01*
X6652166Y93893971D01*
X6949661Y94610419D01*
X6949916Y94903039D01*
X53897732Y94903039D01*
X54133208Y94333143D01*
X54568849Y93896740D01*
X55138333Y93660270D01*
X55754961Y93659732D01*
X56324857Y93895208D01*
X56761260Y94330849D01*
X56997730Y94900333D01*
X56997749Y94922843D01*
X62887749Y94922843D01*
X63108033Y94389714D01*
X63515569Y93981467D01*
X64048312Y93760252D01*
X64625157Y93759749D01*
X65158286Y93980033D01*
X65566533Y94387569D01*
X65787748Y94920312D01*
X65788251Y95497157D01*
X65567967Y96030286D01*
X65160431Y96438533D01*
X64627688Y96659748D01*
X64050843Y96660251D01*
X63517714Y96439967D01*
X63109467Y96032431D01*
X62888252Y95499688D01*
X62887749Y94922843D01*
X56997749Y94922843D01*
X56998268Y95516961D01*
X56762792Y96086857D01*
X56327151Y96523260D01*
X55757667Y96759730D01*
X55141039Y96760268D01*
X54571143Y96524792D01*
X54134740Y96089151D01*
X53898270Y95519667D01*
X53897732Y94903039D01*
X6949916Y94903039D01*
X6950338Y95386177D01*
X6654094Y96103143D01*
X6106029Y96652166D01*
X5389581Y96949661D01*
X4613823Y96950338D01*
X3896857Y96654094D01*
X3347834Y96106029D01*
X3050339Y95389581D01*
X3049662Y94613823D01*
X1150000Y94613823D01*
X1150000Y98850000D01*
X80190000Y98850000D01*
X80190000Y95230132D01*
M02*
