G04 #@! TF.FileFunction,Soldermask,Bot*
%FSLAX46Y46*%
G04 Gerber Fmt 4.6, Leading zero omitted, Abs format (unit mm)*
G04 Created by KiCad (PCBNEW 4.0.1-stable) date 18/01/2016 20:35:10*
%MOMM*%
G01*
G04 APERTURE LIST*
%ADD10C,0.100000*%
%ADD11R,1.300000X1.700000*%
%ADD12C,2.400000*%
%ADD13R,1.700000X1.300000*%
%ADD14C,2.600000*%
%ADD15C,2.000000*%
%ADD16R,2.900000X2.100000*%
%ADD17O,2.000000X3.600000*%
%ADD18R,1.500000X2.100000*%
%ADD19R,2.100000X1.500000*%
G04 APERTURE END LIST*
D10*
D11*
X80170000Y51054000D03*
X77970000Y51054000D03*
X77970000Y53086000D03*
X80170000Y53086000D03*
X35847000Y65913000D03*
X33647000Y65913000D03*
X35720000Y77470000D03*
X33520000Y77470000D03*
X35847000Y88138000D03*
X33647000Y88138000D03*
X35847000Y68326000D03*
X33647000Y68326000D03*
X35720000Y79883000D03*
X33520000Y79883000D03*
D12*
X83896000Y58138000D03*
X83896000Y54638000D03*
X83896000Y49502000D03*
X83896000Y46002000D03*
D13*
X80594000Y57234000D03*
X80594000Y55034000D03*
X80594000Y49106000D03*
X80594000Y46906000D03*
X86944000Y57488000D03*
X86944000Y55288000D03*
X86944000Y48852000D03*
X86944000Y46652000D03*
X78054000Y57234000D03*
X78054000Y55034000D03*
X78054000Y49106000D03*
X78054000Y46906000D03*
D12*
X74752000Y58138000D03*
X74752000Y54638000D03*
X74752000Y49502000D03*
X74752000Y46002000D03*
D13*
X67640000Y57742000D03*
X67640000Y55542000D03*
X67640000Y48852000D03*
X67640000Y46652000D03*
X69926000Y57742000D03*
X69926000Y55542000D03*
X69926000Y48852000D03*
X69926000Y46652000D03*
X72212000Y57742000D03*
X72212000Y55542000D03*
X72212000Y48852000D03*
X72212000Y46652000D03*
D11*
X35847000Y90678000D03*
X33647000Y90678000D03*
X35847000Y56642000D03*
X33647000Y56642000D03*
X35847000Y54102000D03*
X33647000Y54102000D03*
D12*
X64338000Y90210000D03*
X64338000Y95210000D03*
D14*
X55448000Y90210000D03*
X55448000Y95210000D03*
D12*
X55448000Y80558000D03*
X55448000Y85558000D03*
D14*
X64338000Y80558000D03*
X64338000Y85558000D03*
D12*
X64338000Y70906000D03*
X64338000Y75906000D03*
D14*
X55448000Y70906000D03*
X55448000Y75906000D03*
D12*
X55448000Y61254000D03*
X55448000Y66254000D03*
D14*
X64338000Y61254000D03*
X64338000Y66254000D03*
D15*
X80340000Y93980000D03*
X82880000Y93980000D03*
X80340000Y86360000D03*
X82880000Y86360000D03*
X80340000Y78740000D03*
X82880000Y78740000D03*
X80340000Y71120000D03*
X82880000Y71120000D03*
D16*
X92754000Y61214000D03*
X88754000Y61214000D03*
X88754000Y43180000D03*
X92754000Y43180000D03*
D11*
X80424000Y59182000D03*
X78224000Y59182000D03*
X80424000Y44958000D03*
X78224000Y44958000D03*
D15*
X92786000Y58547000D03*
D17*
X92786000Y55372000D03*
D15*
X92786000Y49784000D03*
D17*
X92786000Y46609000D03*
D15*
X7696000Y85852000D03*
X10236000Y85852000D03*
X7696000Y83312000D03*
X10236000Y83312000D03*
X7696000Y80772000D03*
X10236000Y80772000D03*
X7696000Y78232000D03*
X10236000Y78232000D03*
X7696000Y75692000D03*
X10236000Y75692000D03*
X7696000Y73152000D03*
X10236000Y73152000D03*
X7696000Y70612000D03*
X10236000Y70612000D03*
X7696000Y68072000D03*
X10236000Y68072000D03*
X7696000Y65532000D03*
X10236000Y65532000D03*
X7696000Y62992000D03*
X10236000Y62992000D03*
D18*
X36066000Y93345000D03*
X32666000Y93345000D03*
X35812000Y82677000D03*
X32412000Y82677000D03*
X35939000Y71120000D03*
X32539000Y71120000D03*
X35812000Y59309000D03*
X32412000Y59309000D03*
X35812000Y11557000D03*
X32412000Y11557000D03*
X35812000Y23368000D03*
X32412000Y23368000D03*
X35939000Y35052000D03*
X32539000Y35052000D03*
X35939000Y46482000D03*
X32539000Y46482000D03*
D11*
X35847000Y8890000D03*
X33647000Y8890000D03*
X35847000Y20574000D03*
X33647000Y20574000D03*
X35847000Y32004000D03*
X33647000Y32004000D03*
X35847000Y43815000D03*
X33647000Y43815000D03*
X35847000Y6350000D03*
X33647000Y6350000D03*
X35847000Y18034000D03*
X33647000Y18034000D03*
X35847000Y29972000D03*
X33647000Y29972000D03*
X35847000Y41402000D03*
X33647000Y41402000D03*
D12*
X55448000Y41870000D03*
X55448000Y36870000D03*
D14*
X64338000Y41870000D03*
X64338000Y36870000D03*
D12*
X64338000Y32218000D03*
X64338000Y27218000D03*
D14*
X55448000Y32218000D03*
X55448000Y27218000D03*
D12*
X55448000Y22566000D03*
X55448000Y17566000D03*
D14*
X64338000Y22526000D03*
X64338000Y17526000D03*
D12*
X64338000Y12914000D03*
X64338000Y7914000D03*
D14*
X55448000Y12914000D03*
X55448000Y7914000D03*
D15*
X80340000Y30480000D03*
X82880000Y30480000D03*
X80340000Y22860000D03*
X82880000Y22860000D03*
X80340000Y15240000D03*
X82880000Y15240000D03*
X80340000Y7620000D03*
X82880000Y7620000D03*
X7696000Y37592000D03*
X10236000Y37592000D03*
X7696000Y35052000D03*
X10236000Y35052000D03*
X7696000Y32512000D03*
X10236000Y32512000D03*
X7696000Y29972000D03*
X10236000Y29972000D03*
X7696000Y27432000D03*
X10236000Y27432000D03*
X7696000Y24892000D03*
X10236000Y24892000D03*
X7696000Y22352000D03*
X10236000Y22352000D03*
X7696000Y19812000D03*
X10236000Y19812000D03*
X7696000Y17272000D03*
X10236000Y17272000D03*
X7696000Y14732000D03*
X10236000Y14732000D03*
D13*
X17602000Y85809000D03*
X17602000Y83609000D03*
X10617000Y60028000D03*
X10617000Y57828000D03*
X10617000Y40556000D03*
X10617000Y42756000D03*
X17729000Y14648000D03*
X17729000Y16848000D03*
D19*
X14427000Y82374000D03*
X14427000Y85774000D03*
X7696000Y56593000D03*
X7696000Y59993000D03*
X7696000Y43991000D03*
X7696000Y40591000D03*
X14427000Y18083000D03*
X14427000Y14683000D03*
D13*
X65278000Y57742000D03*
X65278000Y55542000D03*
X65278000Y48852000D03*
X65278000Y46652000D03*
X89408000Y57488000D03*
X89408000Y55288000D03*
X89408000Y48852000D03*
X89408000Y46652000D03*
M02*
