M48
;DRILL file {KiCad 4.0.1-stable} date 18/01/2016 17:06:04
;FORMAT={-:-/ absolute / metric / decimal}
FMAT,2
METRIC,TZ
T1C0.800
T2C1.000
T3C3.000
%
G90
G05
M71
T1
X1.6Y97.79
X1.6Y91.44
X1.6Y83.82
X1.6Y76.2
X1.6Y68.58
X1.6Y60.96
X1.6Y53.34
X1.6Y45.72
X1.6Y38.1
X1.6Y30.48
X1.6Y22.86
X1.6Y15.24
X1.6Y10.16
X1.6Y7.62
X1.6Y2.54
X7.315Y49.53
X7.696Y85.852
X7.696Y83.312
X7.696Y80.772
X7.696Y78.232
X7.696Y75.692
X7.696Y73.152
X7.696Y70.612
X7.696Y68.072
X7.696Y65.532
X7.696Y62.992
X7.696Y37.592
X7.696Y35.052
X7.696Y32.512
X7.696Y29.972
X7.696Y27.432
X7.696Y24.892
X7.696Y22.352
X7.696Y19.812
X7.696Y17.272
X7.696Y14.732
X7.95Y2.54
X9.22Y97.79
X10.236Y85.852
X10.236Y83.312
X10.236Y80.772
X10.236Y78.232
X10.236Y75.692
X10.236Y73.152
X10.236Y70.612
X10.236Y68.072
X10.236Y65.532
X10.236Y62.992
X10.236Y37.592
X10.236Y35.052
X10.236Y32.512
X10.236Y29.972
X10.236Y27.432
X10.236Y24.892
X10.236Y22.352
X10.236Y19.812
X10.236Y17.272
X10.236Y14.732
X10.49Y91.44
X13.03Y2.54
X14.3Y40.005
X14.3Y9.525
X14.935Y49.53
X16.205Y74.295
X16.205Y66.675
X16.205Y26.67
X16.205Y20.32
X16.84Y97.79
X16.84Y88.265
X16.84Y80.645
X18.11Y36.195
X20.65Y2.54
X21.92Y91.44
X21.92Y80.01
X21.92Y68.58
X21.92Y57.15
X21.92Y45.085
X21.92Y33.02
X21.92Y21.59
X21.92Y10.16
X23.634Y4.318
X23.889Y16.256
X24.015Y39.56
X24.079Y51.181
X24.333Y86.296
X24.333Y74.803
X24.333Y63.182
X24.333Y27.94
X24.46Y97.79
X26.238Y86.296
X26.238Y74.803
X26.238Y63.119
X26.238Y51.181
X26.238Y39.56
X26.238Y27.94
X26.238Y16.256
X26.238Y4.318
X28.27Y2.54
X31.102Y87.897
X31.102Y76.213
X31.102Y64.529
X31.102Y52.845
X31.102Y41.161
X31.102Y29.477
X31.102Y17.793
X31.102Y6.109
X32.08Y97.79
X35.89Y2.54
X38.366Y87.884
X38.366Y86.296
X38.43Y76.263
X38.43Y74.486
X38.43Y41.148
X38.43Y39.688
X38.43Y29.464
X38.43Y27.94
X38.43Y6.096
X38.43Y4.255
X38.557Y17.78
X38.557Y16.066
X38.684Y64.516
X38.684Y63.055
X39.954Y97.917
X39.954Y85.725
X39.954Y74.041
X39.954Y62.23
X39.954Y38.798
X39.954Y27.241
X39.954Y15.557
X41.643Y93.485
X41.643Y81.801
X41.643Y70.117
X41.643Y58.433
X41.643Y46.749
X41.643Y34.938
X41.643Y23.381
X41.643Y11.697
X43.51Y2.54
X46.05Y39.37
X46.05Y27.94
X46.05Y16.51
X47.32Y86.36
X47.32Y74.93
X47.32Y64.77
X47.32Y6.35
X48.59Y97.79
X48.59Y92.71
X49.86Y57.15
X51.13Y2.54
X53.594Y50.305
X55.448Y95.21
X55.448Y90.21
X55.448Y75.906
X55.448Y70.906
X55.448Y32.218
X55.448Y27.218
X55.448Y12.914
X55.448Y7.914
X56.21Y97.79
X57.734Y57.29
X58.534Y53.607
X58.534Y46.749
X60.02Y87.63
X60.02Y77.47
X60.02Y68.58
X60.02Y44.45
X60.02Y34.29
X60.02Y24.13
X60.02Y15.24
X60.02Y5.08
X60.02Y2.54
X61.29Y10.16
X62.56Y92.71
X62.56Y82.55
X62.56Y73.66
X62.56Y63.5
X62.56Y39.37
X62.56Y29.21
X62.56Y20.32
X63.83Y97.79
X64.338Y85.558
X64.338Y80.558
X64.338Y66.254
X64.338Y61.254
X64.338Y41.87
X64.338Y36.87
X64.338Y22.526
X64.338Y17.526
X67.64Y2.54
X71.45Y97.79
X71.45Y92.71
X71.45Y87.63
X71.45Y83.82
X71.45Y77.47
X71.45Y73.66
X71.45Y68.58
X71.45Y63.5
X71.45Y39.37
X71.45Y35.56
X71.45Y29.21
X71.45Y25.4
X71.45Y19.05
X71.45Y15.24
X71.45Y10.16
X71.45Y6.35
X74.752Y58.138
X74.752Y54.638
X74.752Y49.502
X74.752Y46.002
X75.26Y2.54
X76.53Y90.17
X76.53Y80.01
X76.53Y71.12
X76.53Y31.75
X76.53Y21.59
X76.53Y12.7
X79.07Y97.79
X80.34Y93.98
X80.34Y86.36
X80.34Y78.74
X80.34Y71.12
X80.34Y30.48
X80.34Y22.86
X80.34Y15.24
X80.34Y7.62
X82.88Y93.98
X82.88Y86.36
X82.88Y78.74
X82.88Y71.12
X82.88Y30.48
X82.88Y22.86
X82.88Y15.24
X82.88Y7.62
X82.88Y2.54
X83.896Y58.138
X83.896Y54.638
X83.896Y49.502
X83.896Y46.002
X85.42Y90.17
X85.42Y82.55
X85.42Y74.93
X85.42Y67.31
X85.42Y34.29
X85.42Y26.67
X85.42Y19.05
X85.42Y11.43
X86.69Y97.79
X90.5Y2.54
X98.12Y97.79
X98.12Y90.17
X98.12Y81.28
X98.12Y73.66
X98.12Y64.77
X98.12Y55.88
X98.12Y48.26
X98.12Y39.37
X98.12Y30.48
X98.12Y22.86
X98.12Y15.24
X98.12Y7.62
X98.12Y2.54
T2
X55.448Y85.558
X55.448Y80.558
X55.448Y66.254
X55.448Y61.254
X55.448Y41.87
X55.448Y36.87
X55.448Y22.566
X55.448Y17.566
X64.338Y95.21
X64.338Y90.21
X64.338Y75.906
X64.338Y70.906
X64.338Y32.218
X64.338Y27.218
X64.338Y12.914
X64.338Y7.914
X92.786Y58.547
X92.786Y49.784
T3
X5.Y95.
X5.Y5.
X95.Y95.
X95.Y5.
T2
X92.786Y56.142G85X92.786Y54.602
G05
X92.786Y47.379G85X92.786Y45.839
G05
T0
M30
